<svg version="1.1" baseProfile="full" xmlns="http://www.w3.org/2000/svg" viewBox="0 0 944 554.0825" preserveAspectRatio="xMidYMid meet">    <defs><style>.cls-1,.cls-6,.cls-8{fill:none;stroke-miterlimit:10;}.cls-1{stroke:#a8a8a8;}.cls-2{fill:#362f2d;}.cls-3{fill:#ad3588;}.cls-4{fill:#5f6062;}.cls-5{fill:#e8800f;}.cls-6{stroke:#999;stroke-width:3px;}.cls-7{fill:#999;}.cls-8{stroke:#e8800f;stroke-width:2px;}</style></defs>  <path class="cls-1" d="M63.43 82.18H922M63.43 122.44H922M63.43 162.7H922M63.43 202.96H922M63.43 238.73H922M63.43 279H922M63.43 319.25H922M63.43 359.5H922M63.43 394.28H922M63.43 434.53H922"/>  <path class="cls-2" d="M26.3 22.87h5.58q6.12 0 6.12 7.1a8.97 8.97 0 0 1-.66 3.63A5.13 5.13 0 0 1 35 36.03l3.75 11.05h-3.67l-3.24-10.34h-2.07v10.34H26.3zm3.47 10.8h1.97a3.5 3.5 0 0 0 1.47-.24 1.88 1.88 0 0 0 .84-.73 3.1 3.1 0 0 0 .4-1.18 12.77 12.77 0 0 0 0-3.23 2.9 2.9 0 0 0-.44-1.2 1.92 1.92 0 0 0-.9-.73 4.1 4.1 0 0 0-1.53-.23h-1.8zM40.47 22.87H50.8v3.27h-6.86v7.1h6v3.27h-6v7.1h6.87v3.48H40.48zM63.7 41.67a5.52 5.52 0 0 1-.42 2.15 5.64 5.64 0 0 1-1.18 1.78 5.8 5.8 0 0 1-1.75 1.22 5.13 5.13 0 0 1-2.16.46 7.75 7.75 0 0 1-2-.27 4.85 4.85 0 0 1-1.85-.92A5.05 5.05 0 0 1 53 44.33a6.3 6.3 0 0 1-.52-2.76V28.24a5.9 5.9 0 0 1 .4-2.2 5.2 5.2 0 0 1 1.17-1.77 5.38 5.38 0 0 1 1.78-1.18 6 6 0 0 1 2.3-.43 5.7 5.7 0 0 1 2.2.42 5.3 5.3 0 0 1 1.77 1.18 5.5 5.5 0 0 1 1.18 1.84 6.26 6.26 0 0 1 .42 2.33v1.36h-3.47v-1.15a2.8 2.8 0 0 0-.57-1.77 1.87 1.87 0 0 0-1.57-.74 1.76 1.76 0 0 0-1.72.8 4.27 4.27 0 0 0-.43 2.02v12.37a3.2 3.2 0 0 0 .46 1.77 1.8 1.8 0 0 0 1.66.72 2.53 2.53 0 0 0 .73-.12 2 2 0 0 0 .7-.4 1.96 1.96 0 0 0 .53-.74 3 3 0 0 0 .2-1.2V40.2h3.47zM65.8 22.87h3.45V43.6h6.87v3.48H65.8zM82.6 22.87h2.9l5.4 24.2h-3.47l-1.02-5.2H81.7l-1.02 5.2H77.2zm1.46 6.97H84l-1.7 8.77h3.46zM92.46 22.87h3.33l4.45 12.82h.06l4.43-12.83h3.37v24.2h-3.47v-14.7h-.07l-3.43 10.4H99.4L96 32.36h-.07v14.7h-3.47zM115.07 22.87h2.9l5.4 24.2h-3.47l-1.02-5.2h-4.73l-1.02 5.2h-3.47zm1.46 6.97h-.07l-1.7 8.77h3.47zM135.6 41.67a5.52 5.52 0 0 1-.43 2.15A5.64 5.64 0 0 1 134 45.6a5.8 5.8 0 0 1-1.76 1.22 5.13 5.13 0 0 1-2.16.46 7.75 7.75 0 0 1-2-.27 4.85 4.85 0 0 1-1.84-.92 5.05 5.05 0 0 1-1.34-1.75 6.3 6.3 0 0 1-.53-2.76V28.24a5.9 5.9 0 0 1 .4-2.2 5.2 5.2 0 0 1 1.17-1.77 5.38 5.38 0 0 1 1.78-1.18 6 6 0 0 1 2.3-.43 5.7 5.7 0 0 1 2.2.42 5.3 5.3 0 0 1 1.77 1.18 5.5 5.5 0 0 1 1.17 1.84 6.26 6.26 0 0 1 .42 2.33v1.36h-3.48v-1.15a2.8 2.8 0 0 0-.57-1.77 1.87 1.87 0 0 0-1.57-.74 1.76 1.76 0 0 0-1.7.8 4.27 4.27 0 0 0-.44 2.02v12.37a3.2 3.2 0 0 0 .46 1.77 1.8 1.8 0 0 0 1.65.72 2.53 2.53 0 0 0 .73-.12 2 2 0 0 0 .7-.4 1.96 1.96 0 0 0 .54-.74 3 3 0 0 0 .2-1.2V40.2h3.47zM137.73 22.87h3.47v24.2h-3.47zM143.53 28.58a6.17 6.17 0 0 1 .5-2.58 5.38 5.38 0 0 1 1.35-1.85 5.8 5.8 0 0 1 1.87-1.1 6.03 6.03 0 0 1 4.2 0 5.8 5.8 0 0 1 1.86 1.1 5.4 5.4 0 0 1 1.35 1.85 6.2 6.2 0 0 1 .5 2.58v12.8a6.15 6.15 0 0 1-.5 2.6 5.42 5.42 0 0 1-1.34 1.82 5.77 5.77 0 0 1-1.86 1.1 6.03 6.03 0 0 1-4.2 0 5.75 5.75 0 0 1-1.86-1.1 5.4 5.4 0 0 1-1.34-1.83 6.14 6.14 0 0 1-.5-2.6zm3.47 12.8a2.3 2.3 0 0 0 .7 1.84 2.58 2.58 0 0 0 3.3 0 2.3 2.3 0 0 0 .7-1.85v-12.8a2.3 2.3 0 0 0-.7-1.84 2.58 2.58 0 0 0-3.3 0 2.3 2.3 0 0 0-.7 1.85zM157.34 22.87h3.34l5.23 14.6h.08v-14.6h3.47v24.2h-3.27l-5.3-14.54h-.07v14.55h-3.46zM171.8 22.87h10.33v3.27h-6.87v7.1h6v3.27h-6v7.1h6.87v3.48H171.8zM195.44 29.84h-3.47v-.78a3.7 3.7 0 0 0-.56-2.06 2.08 2.08 0 0 0-1.88-.86 2.27 2.27 0 0 0-1.17.27 2 2 0 0 0-.72.7 2.9 2.9 0 0 0-.35 1 6.52 6.52 0 0 0-.1 1.16q0 .72.05 1.2a2.13 2.13 0 0 0 .25.86 1.96 1.96 0 0 0 .6.63 5.44 5.44 0 0 0 1.07.54l2.65 1.05a6.58 6.58 0 0 1 1.87 1.03 4.23 4.23 0 0 1 1.1 1.4 5.92 5.92 0 0 1 .53 1.83 18.3 18.3 0 0 1 .14 2.38 12.45 12.45 0 0 1-.3 2.84 6 6 0 0 1-1 2.24 4.82 4.82 0 0 1-1.86 1.48 6.6 6.6 0 0 1-2.83.54 6.16 6.16 0 0 1-2.34-.44 5.66 5.66 0 0 1-3.56-5.3v-1.3H187v1.1a2.83 2.83 0 0 0 .57 1.7 2.18 2.18 0 0 0 1.88.78 3.05 3.05 0 0 0 1.38-.26 1.76 1.76 0 0 0 .75-.7 2.94 2.94 0 0 0 .32-1.15q.07-.67.07-1.5a14.78 14.78 0 0 0-.07-1.55 2.5 2.5 0 0 0-.3-1 1.78 1.78 0 0 0-.6-.6 8.17 8.17 0 0 0-1.04-.5l-2.48-1.03a5.5 5.5 0 0 1-3-2.43 8.36 8.36 0 0 1-.77-3.8 8.78 8.78 0 0 1 .38-2.6 6.02 6.02 0 0 1 1.1-2.1 5.27 5.27 0 0 1 1.86-1.4 6.1 6.1 0 0 1 2.62-.53 5.75 5.75 0 0 1 2.36.47 5.87 5.87 0 0 1 1.84 1.26 5.6 5.6 0 0 1 1.17 1.75 5.08 5.08 0 0 1 .4 2zM203.32 22.87h5.58q6.12 0 6.12 7.1a8.97 8.97 0 0 1-.66 3.63 5.13 5.13 0 0 1-2.33 2.43l3.74 11.05h-3.67l-3.23-10.34h-2.08v10.34h-3.48zm3.47 10.8h1.96a3.5 3.5 0 0 0 1.47-.24 1.88 1.88 0 0 0 .83-.73 3.1 3.1 0 0 0 .4-1.18 12.77 12.77 0 0 0 0-3.23 2.9 2.9 0 0 0-.43-1.2 1.92 1.92 0 0 0-.9-.73 4.1 4.1 0 0 0-1.54-.23h-1.8zM217.5 22.87h10.33v3.27h-6.87v7.1h6v3.27h-6v7.1h6.87v3.48H217.5zM229.66 22.87h3.46V43.6H240v3.48h-10.34zM246.47 22.87h2.9l5.4 24.2h-3.47l-1.02-5.2h-4.73l-1.02 5.2h-3.47zm1.46 6.97h-.07l-1.7 8.77h3.47zM267 41.67a5.52 5.52 0 0 1-.43 2.15 5.64 5.64 0 0 1-1.18 1.78 5.8 5.8 0 0 1-1.76 1.22 5.13 5.13 0 0 1-2.16.46 7.75 7.75 0 0 1-2-.27 4.85 4.85 0 0 1-1.84-.92 5.05 5.05 0 0 1-1.34-1.75 6.3 6.3 0 0 1-.53-2.76V28.24a5.9 5.9 0 0 1 .4-2.2 5.2 5.2 0 0 1 1.17-1.77 5.38 5.38 0 0 1 1.78-1.18 6 6 0 0 1 2.3-.43 5.7 5.7 0 0 1 2.2.42 5.3 5.3 0 0 1 1.77 1.18 5.5 5.5 0 0 1 1.17 1.84 6.26 6.26 0 0 1 .42 2.33v1.36h-3.48v-1.15a2.8 2.8 0 0 0-.57-1.77 1.87 1.87 0 0 0-1.57-.74 1.76 1.76 0 0 0-1.7.8 4.27 4.27 0 0 0-.44 2.02v12.37a3.2 3.2 0 0 0 .46 1.77 1.8 1.8 0 0 0 1.65.72 2.53 2.53 0 0 0 .73-.12 2 2 0 0 0 .7-.4 1.96 1.96 0 0 0 .54-.74 3 3 0 0 0 .2-1.2V40.2H267zM269.13 22.87h3.47v24.2h-3.47zM274.93 28.58a6.17 6.17 0 0 1 .5-2.58 5.38 5.38 0 0 1 1.35-1.85 5.8 5.8 0 0 1 1.87-1.1 6.03 6.03 0 0 1 4.2 0 5.8 5.8 0 0 1 1.86 1.1 5.4 5.4 0 0 1 1.35 1.85 6.2 6.2 0 0 1 .5 2.58v12.8a6.15 6.15 0 0 1-.5 2.6 5.42 5.42 0 0 1-1.34 1.82 5.77 5.77 0 0 1-1.86 1.1 6.03 6.03 0 0 1-4.2 0 5.75 5.75 0 0 1-1.86-1.1 5.4 5.4 0 0 1-1.34-1.83 6.14 6.14 0 0 1-.5-2.6zm3.47 12.8a2.3 2.3 0 0 0 .7 1.84 2.58 2.58 0 0 0 3.3 0 2.3 2.3 0 0 0 .7-1.85v-12.8a2.3 2.3 0 0 0-.7-1.84 2.58 2.58 0 0 0-3.3 0 2.3 2.3 0 0 0-.7 1.85zM288.74 22.87h3.34l5.23 14.6h.08v-14.6h3.47v24.2h-3.27l-5.3-14.54h-.07v14.55h-3.46zM307.73 22.87h2.9l5.4 24.2h-3.47l-1.02-5.2h-4.73l-1 5.2h-3.47zm1.46 6.97h-.07l-1.7 8.77h3.46zM317.6 22.87h5.13a5.94 5.94 0 0 1 4.52 1.65 6.43 6.43 0 0 1 1.56 4.6v11.33q0 3.4-1.64 5a6.5 6.5 0 0 1-4.74 1.63h-4.83zm3.46 20.95h1.6a2.57 2.57 0 0 0 2.07-.74 3.54 3.54 0 0 0 .6-2.3V29.14a3.66 3.66 0 0 0-.56-2.2 2.47 2.47 0 0 0-2.1-.8h-1.6zM335.23 22.87h2.9l5.4 24.2h-3.47l-1.02-5.2h-4.72l-1.02 5.2h-3.47zm1.47 6.97h-.07l-1.7 8.77h3.47zM356.17 29.84h-3.47v-.78a3.7 3.7 0 0 0-.56-2.06 2.08 2.08 0 0 0-1.88-.86 2.27 2.27 0 0 0-1.18.27 2 2 0 0 0-.7.7 2.9 2.9 0 0 0-.37 1 6.52 6.52 0 0 0-.1 1.16q0 .72.06 1.2a2.13 2.13 0 0 0 .26.86 1.96 1.96 0 0 0 .6.63 5.44 5.44 0 0 0 1.06.54l2.65 1.05a6.58 6.58 0 0 1 1.87 1.03 4.23 4.23 0 0 1 1.1 1.4 5.92 5.92 0 0 1 .54 1.83 18.3 18.3 0 0 1 .13 2.38 12.45 12.45 0 0 1-.3 2.84 6 6 0 0 1-1 2.24 4.82 4.82 0 0 1-1.86 1.48 6.6 6.6 0 0 1-2.8.54 6.16 6.16 0 0 1-2.36-.44 5.66 5.66 0 0 1-3.57-5.3v-1.3h3.47v1.1a2.83 2.83 0 0 0 .56 1.7 2.18 2.18 0 0 0 1.9.78 3.05 3.05 0 0 0 1.37-.26 1.76 1.76 0 0 0 .74-.7 2.94 2.94 0 0 0 .34-1.15q.06-.67.06-1.5a14.78 14.78 0 0 0-.06-1.55 2.5 2.5 0 0 0-.3-1 1.78 1.78 0 0 0-.6-.6 8.17 8.17 0 0 0-1.04-.5l-2.48-1.03a5.5 5.5 0 0 1-3-2.43 8.36 8.36 0 0 1-.78-3.8 8.78 8.78 0 0 1 .38-2.6 6.02 6.02 0 0 1 1.1-2.1 5.27 5.27 0 0 1 1.85-1.4 6.1 6.1 0 0 1 2.62-.53 5.75 5.75 0 0 1 2.35.47 5.87 5.87 0 0 1 1.84 1.26 5.6 5.6 0 0 1 1.16 1.75 5.08 5.08 0 0 1 .4 2zM375.08 41.67a5.52 5.52 0 0 1-.43 2.15 5.64 5.64 0 0 1-1.17 1.78 5.8 5.8 0 0 1-1.75 1.22 5.13 5.13 0 0 1-2.16.46 7.75 7.75 0 0 1-2-.27 4.85 4.85 0 0 1-1.85-.92 5.05 5.05 0 0 1-1.34-1.75 6.3 6.3 0 0 1-.53-2.76V28.24a5.9 5.9 0 0 1 .4-2.2 5.2 5.2 0 0 1 1.17-1.77 5.38 5.38 0 0 1 1.78-1.18 6 6 0 0 1 2.3-.43 5.7 5.7 0 0 1 2.2.42 5.3 5.3 0 0 1 1.78 1.18 5.5 5.5 0 0 1 1.17 1.84 6.26 6.26 0 0 1 .43 2.33v1.36h-3.47v-1.15a2.8 2.8 0 0 0-.57-1.77 1.87 1.87 0 0 0-1.57-.74 1.76 1.76 0 0 0-1.7.8 4.27 4.27 0 0 0-.44 2.02v12.37a3.2 3.2 0 0 0 .46 1.77 1.8 1.8 0 0 0 1.65.72 2.53 2.53 0 0 0 .73-.12 2 2 0 0 0 .72-.4 1.96 1.96 0 0 0 .52-.74 3 3 0 0 0 .2-1.2V40.2h3.48zM377.06 28.58a6.17 6.17 0 0 1 .5-2.58 5.38 5.38 0 0 1 1.36-1.85 5.8 5.8 0 0 1 1.87-1.1 6.03 6.03 0 0 1 4.17 0 5.8 5.8 0 0 1 1.87 1.1 5.4 5.4 0 0 1 1.34 1.85 6.2 6.2 0 0 1 .5 2.58v12.8a6.15 6.15 0 0 1-.5 2.6 5.42 5.42 0 0 1-1.34 1.82 5.77 5.77 0 0 1-1.87 1.1 6.03 6.03 0 0 1-4.18 0 5.75 5.75 0 0 1-1.88-1.1 5.4 5.4 0 0 1-1.35-1.83 6.14 6.14 0 0 1-.5-2.6zm3.47 12.8a2.3 2.3 0 0 0 .7 1.84 2.58 2.58 0 0 0 3.3 0 2.3 2.3 0 0 0 .7-1.85v-12.8a2.3 2.3 0 0 0-.7-1.84 2.58 2.58 0 0 0-3.3 0 2.3 2.3 0 0 0-.7 1.85zM390.88 22.87h3.33l5.25 14.6h.06v-14.6H403v24.2h-3.26l-5.3-14.54h-.07v14.55h-3.47zM411.4 22.87h10.35v3.27h-6.87v7.1h5.98v3.27h-5.98v7.1h6.87v3.48H411.4zM423.57 22.87h3.47V43.6h6.87v3.48h-10.33zM441.46 22.87h5.2a7.74 7.74 0 0 1 2.5.38 4.84 4.84 0 0 1 2 1.32 5.2 5.2 0 0 1 1.2 2.23 13.94 13.94 0 0 1 .35 3.45 17.28 17.28 0 0 1-.18 2.74 5.78 5.78 0 0 1-.8 2.1 5.06 5.06 0 0 1-1.9 1.86 6.4 6.4 0 0 1-3.13.67h-1.78v9.45h-3.46zm3.46 11.5h1.67a3.55 3.55 0 0 0 1.62-.3 1.94 1.94 0 0 0 .85-.85 3.25 3.25 0 0 0 .33-1.27q.05-.75.05-1.67 0-.85-.05-1.6a3.8 3.8 0 0 0-.3-1.34 1.95 1.95 0 0 0-.8-.88 3.1 3.1 0 0 0-1.57-.32h-1.8zM457.7 22.87h2.9l5.4 24.2h-3.46l-1.02-5.2h-4.73l-1.02 5.2h-3.47zm1.47 6.97h-.06l-1.7 8.77h3.48zM468.67 26.14h-4v-3.27h11.48v3.27h-4v20.94h-3.48zM477.6 22.87h5.58q6.12 0 6.12 7.1a8.97 8.97 0 0 1-.66 3.63 5.13 5.13 0 0 1-2.33 2.43l3.75 11.05h-3.67l-3.23-10.34h-2.07v10.34h-3.47zm3.48 10.8h1.97a3.5 3.5 0 0 0 1.46-.24 1.88 1.88 0 0 0 .84-.73 3.1 3.1 0 0 0 .4-1.18 12.77 12.77 0 0 0 0-3.23 2.9 2.9 0 0 0-.43-1.2 1.92 1.92 0 0 0-.9-.73 4.1 4.1 0 0 0-1.52-.23h-1.8zM491.3 28.58a6.17 6.17 0 0 1 .5-2.58 5.38 5.38 0 0 1 1.35-1.85 5.8 5.8 0 0 1 1.87-1.1 6.03 6.03 0 0 1 4.18 0 5.8 5.8 0 0 1 1.87 1.1A5.4 5.4 0 0 1 502.4 26a6.2 6.2 0 0 1 .52 2.58v12.8a6.15 6.15 0 0 1-.5 2.6 5.42 5.42 0 0 1-1.35 1.82 5.77 5.77 0 0 1-1.87 1.1 6.03 6.03 0 0 1-4.18 0 5.75 5.75 0 0 1-1.87-1.1 5.4 5.4 0 0 1-1.35-1.83 6.14 6.14 0 0 1-.5-2.6zm3.46 12.8a2.3 2.3 0 0 0 .7 1.84 2.58 2.58 0 0 0 3.3 0 2.3 2.3 0 0 0 .7-1.85v-12.8a2.3 2.3 0 0 0-.7-1.84 2.58 2.58 0 0 0-3.3 0 2.3 2.3 0 0 0-.7 1.85zM505.1 22.87h3.34l5.23 14.6h.07v-14.6h3.47v24.2h-3.25l-5.3-14.54h-.08v14.55h-3.46zM525.64 22.87h5.14a5.94 5.94 0 0 1 4.52 1.65 6.43 6.43 0 0 1 1.56 4.6v11.33q0 3.4-1.65 5a6.5 6.5 0 0 1-4.73 1.63h-4.83zm3.47 20.95h1.6a2.57 2.57 0 0 0 2.08-.74 3.54 3.54 0 0 0 .6-2.3V29.14a3.66 3.66 0 0 0-.56-2.2 2.47 2.47 0 0 0-2.1-.8h-1.6zM539.2 22.87h10.34v3.27h-6.87v7.1h6v3.27h-6v7.1h6.87v3.48H539.2zM568.1 41.67a5.52 5.52 0 0 1-.42 2.15 5.64 5.64 0 0 1-1.18 1.78 5.8 5.8 0 0 1-1.75 1.22 5.13 5.13 0 0 1-2.16.46 7.75 7.75 0 0 1-2-.27 4.85 4.85 0 0 1-1.85-.92 5.05 5.05 0 0 1-1.34-1.75 6.3 6.3 0 0 1-.52-2.76V28.24a5.9 5.9 0 0 1 .4-2.2 5.2 5.2 0 0 1 1.17-1.77 5.38 5.38 0 0 1 1.78-1.18 6 6 0 0 1 2.3-.43 5.7 5.7 0 0 1 2.2.42 5.3 5.3 0 0 1 1.77 1.18 5.5 5.5 0 0 1 1.18 1.84 6.26 6.26 0 0 1 .42 2.33v1.36h-3.47v-1.15a2.8 2.8 0 0 0-.57-1.77 1.87 1.87 0 0 0-1.57-.74 1.76 1.76 0 0 0-1.72.8 4.27 4.27 0 0 0-.43 2.02v12.37a3.2 3.2 0 0 0 .46 1.77 1.8 1.8 0 0 0 1.66.72 2.53 2.53 0 0 0 .73-.12 2 2 0 0 0 .7-.4 1.96 1.96 0 0 0 .53-.74 3 3 0 0 0 .2-1.2V40.2h3.47zM570.1 28.58a6.17 6.17 0 0 1 .5-2.58 5.38 5.38 0 0 1 1.35-1.85 5.8 5.8 0 0 1 1.87-1.1 6.03 6.03 0 0 1 4.18 0 5.8 5.8 0 0 1 1.87 1.1A5.4 5.4 0 0 1 581.2 26a6.2 6.2 0 0 1 .52 2.58v12.8a6.15 6.15 0 0 1-.5 2.6 5.42 5.42 0 0 1-1.35 1.82 5.77 5.77 0 0 1-1.87 1.1 6.03 6.03 0 0 1-4.18 0 5.75 5.75 0 0 1-1.87-1.1 5.4 5.4 0 0 1-1.35-1.83 6.14 6.14 0 0 1-.5-2.6zm3.46 12.8a2.3 2.3 0 0 0 .7 1.84 2.58 2.58 0 0 0 3.3 0 2.3 2.3 0 0 0 .7-1.85v-12.8a2.3 2.3 0 0 0-.7-1.84 2.58 2.58 0 0 0-3.3 0 2.3 2.3 0 0 0-.7 1.85zM583.9 22.87h3.34l5.23 14.6h.07v-14.6H596v24.2h-3.25l-5.3-14.54h-.08v14.55h-3.46zM609.82 29.84h-3.47v-.78a3.7 3.7 0 0 0-.56-2.06 2.08 2.08 0 0 0-1.9-.86 2.27 2.27 0 0 0-1.17.27 2 2 0 0 0-.72.7 2.9 2.9 0 0 0-.34 1 6.52 6.52 0 0 0-.1 1.16q0 .72.05 1.2a2.13 2.13 0 0 0 .26.86 1.96 1.96 0 0 0 .6.63 5.44 5.44 0 0 0 1.07.54l2.65 1.05a6.58 6.58 0 0 1 1.87 1.03 4.23 4.23 0 0 1 1.1 1.4 5.92 5.92 0 0 1 .53 1.83 18.3 18.3 0 0 1 .14 2.38 12.45 12.45 0 0 1-.3 2.84 6 6 0 0 1-1 2.24 4.82 4.82 0 0 1-1.86 1.48 6.6 6.6 0 0 1-2.83.54 6.16 6.16 0 0 1-2.34-.44 5.66 5.66 0 0 1-3.58-5.3v-1.3h3.46v1.1a2.83 2.83 0 0 0 .57 1.7 2.18 2.18 0 0 0 1.88.78 3.05 3.05 0 0 0 1.38-.26 1.76 1.76 0 0 0 .76-.7 2.94 2.94 0 0 0 .32-1.15q.07-.67.07-1.5a14.78 14.78 0 0 0-.07-1.55 2.5 2.5 0 0 0-.3-1 1.78 1.78 0 0 0-.6-.6 8.17 8.17 0 0 0-1.04-.5l-2.48-1.03a5.5 5.5 0 0 1-3-2.43 8.36 8.36 0 0 1-.77-3.8 8.78 8.78 0 0 1 .36-2.6 6.02 6.02 0 0 1 1.1-2.1 5.27 5.27 0 0 1 1.86-1.4 6.1 6.1 0 0 1 2.62-.53 5.75 5.75 0 0 1 2.36.47 5.87 5.87 0 0 1 1.84 1.26 5.6 5.6 0 0 1 1.17 1.75 5.08 5.08 0 0 1 .42 2zM614.86 26.14h-4v-3.27h11.48v3.27h-4v20.94h-3.48zM623.8 22.87h5.58q6.12 0 6.12 7.1a8.97 8.97 0 0 1-.67 3.63 5.13 5.13 0 0 1-2.33 2.43l3.74 11.05h-3.67l-3.23-10.34h-2.07v10.34h-3.47zm3.47 10.8h1.97a3.5 3.5 0 0 0 1.46-.24 1.88 1.88 0 0 0 .84-.73 3.1 3.1 0 0 0 .4-1.18 12.77 12.77 0 0 0 0-3.23 2.9 2.9 0 0 0-.44-1.2 1.92 1.92 0 0 0-.9-.73 4.1 4.1 0 0 0-1.53-.23h-1.8zM648.8 41.64a5.5 5.5 0 0 1-.44 2.2 5.68 5.68 0 0 1-3 3 5.57 5.57 0 0 1-4.34 0 5.68 5.68 0 0 1-3-3 5.5 5.5 0 0 1-.44-2.2V22.87h3.47V41.3a2.6 2.6 0 0 0 .6 1.9 2.22 2.22 0 0 0 3.07 0 2.6 2.6 0 0 0 .6-1.9V22.87h3.48zM662.27 41.67a5.52 5.52 0 0 1-.43 2.15 5.64 5.64 0 0 1-1.17 1.78 5.8 5.8 0 0 1-1.75 1.22 5.13 5.13 0 0 1-2.16.46 7.75 7.75 0 0 1-2-.27 4.85 4.85 0 0 1-1.84-.92 5.05 5.05 0 0 1-1.35-1.75 6.3 6.3 0 0 1-.52-2.76V28.24a5.9 5.9 0 0 1 .4-2.2 5.2 5.2 0 0 1 1.16-1.77 5.38 5.38 0 0 1 1.8-1.18 6 6 0 0 1 2.3-.43 5.7 5.7 0 0 1 2.2.42 5.3 5.3 0 0 1 1.77 1.18 5.5 5.5 0 0 1 1.17 1.84 6.26 6.26 0 0 1 .43 2.33v1.36h-3.47v-1.15a2.8 2.8 0 0 0-.58-1.77 1.87 1.87 0 0 0-1.56-.74 1.76 1.76 0 0 0-1.72.8 4.27 4.27 0 0 0-.43 2.02v12.37a3.2 3.2 0 0 0 .47 1.77 1.8 1.8 0 0 0 1.65.72 2.53 2.53 0 0 0 .73-.12 2 2 0 0 0 .72-.4 1.96 1.96 0 0 0 .52-.74 3 3 0 0 0 .2-1.2V40.2h3.47zM675.48 41.67a5.52 5.52 0 0 1-.43 2.15 5.64 5.64 0 0 1-1.17 1.78 5.8 5.8 0 0 1-1.75 1.22 5.13 5.13 0 0 1-2.16.46 7.75 7.75 0 0 1-2-.27 4.85 4.85 0 0 1-1.85-.92 5.05 5.05 0 0 1-1.34-1.75 6.3 6.3 0 0 1-.53-2.76V28.24a5.9 5.9 0 0 1 .4-2.2 5.2 5.2 0 0 1 1.17-1.77 5.38 5.38 0 0 1 1.78-1.18 6 6 0 0 1 2.3-.43 5.7 5.7 0 0 1 2.2.42 5.3 5.3 0 0 1 1.78 1.18 5.5 5.5 0 0 1 1.17 1.84 6.26 6.26 0 0 1 .43 2.33v1.36H672v-1.15a2.8 2.8 0 0 0-.57-1.77 1.87 1.87 0 0 0-1.56-.74 1.76 1.76 0 0 0-1.72.8 4.27 4.27 0 0 0-.43 2.02v12.37a3.2 3.2 0 0 0 .46 1.77 1.8 1.8 0 0 0 1.65.72 2.53 2.53 0 0 0 .73-.12 2 2 0 0 0 .72-.4 1.96 1.96 0 0 0 .52-.74 3 3 0 0 0 .2-1.2V40.2h3.48zM677.6 22.87h3.48v24.2h-3.47zM683.4 28.58a6.17 6.17 0 0 1 .52-2.58 5.38 5.38 0 0 1 1.35-1.85 5.8 5.8 0 0 1 1.87-1.1 6.03 6.03 0 0 1 4.18 0 5.8 5.8 0 0 1 1.87 1.1 5.4 5.4 0 0 1 1.33 1.85 6.2 6.2 0 0 1 .5 2.58v12.8a6.15 6.15 0 0 1-.5 2.6 5.42 5.42 0 0 1-1.34 1.82 5.77 5.77 0 0 1-1.88 1.1 6.03 6.03 0 0 1-4.18 0 5.75 5.75 0 0 1-1.87-1.1 5.4 5.4 0 0 1-1.35-1.83 6.14 6.14 0 0 1-.5-2.6zm3.48 12.8a2.3 2.3 0 0 0 .7 1.84 2.58 2.58 0 0 0 3.3 0 2.3 2.3 0 0 0 .7-1.85v-12.8a2.3 2.3 0 0 0-.7-1.84 2.58 2.58 0 0 0-3.3 0 2.3 2.3 0 0 0-.7 1.85zm3.2-24.4h3.67l-4.5 4.8h-2.23zM697.23 22.87h3.33l5.23 14.6h.06v-14.6h3.47v24.2h-3.26l-5.3-14.54h-.08v14.55h-3.47z"/>  <path class="cls-3" d="M868.1 404.4h44.87v29.8H868.1zM788.45 406.4h44.87v27.8h-44.87zM708.8 401.03h44.87v33.16H708.8zM629.15 390.5h44.87v43.7h-44.87zM549.5 384.55h44.87v49.64H549.5zM469.85 323h44.87v111.2h-44.87zM390.2 283.3h44.87v150.9H390.2zM310.54 133.6h44.87v300.6h-44.86zM230.9 354.77h44.86v79.42H230.9zM151.24 407.25h44.87v26.94h-44.86zM71.6 427.05h44.86v6.6H71.6z"/>  <path class="cls-2" d="M47.18 436.15a2.82 2.82 0 0 1-2.93-2.94v-4.97a2.92 2.92 0 1 1 5.85 0v4.98a2.82 2.82 0 0 1-2.92 2.95zm1.84-7.86a1.85 1.85 0 1 0-3.7 0v4.85a1.85 1.85 0 1 0 3.7 0zM36.6 397.03v-.96l4.2-5.36a2.44 2.44 0 0 0 .6-1.56 1.86 1.86 0 1 0-3.7 0h-1.1a2.77 2.77 0 0 1 2.95-2.88 2.74 2.74 0 0 1 2.94 2.88 3.2 3.2 0 0 1-.87 2.16l-3.73 4.77h4.6v.96zM47.18 397.12a2.82 2.82 0 0 1-2.93-2.94v-4.98a2.92 2.92 0 1 1 5.85 0v4.98a2.82 2.82 0 0 1-2.92 2.94zm1.84-7.86a1.85 1.85 0 1 0-3.7 0v4.86a1.85 1.85 0 1 0 3.7 0zM78.6 465.03v-.96l4.2-5.36a2.44 2.44 0 0 0 .6-1.56 1.86 1.86 0 1 0-3.7 0h-1.1a2.77 2.77 0 0 1 2.95-2.88 2.74 2.74 0 0 1 2.94 2.88 3.2 3.2 0 0 1-.87 2.16l-3.73 4.77h4.6v.96zM89.18 465.12a2.82 2.82 0 0 1-2.93-2.94v-4.98a2.92 2.92 0 1 1 5.85 0v4.98a2.82 2.82 0 0 1-2.92 2.94zm1.84-7.86a1.85 1.85 0 1 0-3.7 0v4.86a1.85 1.85 0 1 0 3.7 0zM96.96 465.12a2.82 2.82 0 0 1-2.93-2.94v-4.98a2.92 2.92 0 1 1 5.85 0v4.98a2.82 2.82 0 0 1-2.92 2.94zm1.84-7.86a1.85 1.85 0 1 0-3.7 0v4.86a1.85 1.85 0 1 0 3.7 0zM104.64 465.13a2.84 2.84 0 0 1-3.14-2.82h1.08a1.9 1.9 0 0 0 2.06 1.87 1.96 1.96 0 0 0 2.05-2.07 1.86 1.86 0 0 0-2.1-2.07h-.23v-.94h.22a1.72 1.72 0 0 0 1.9-1.95 1.8 1.8 0 0 0-1.86-1.95 1.8 1.8 0 0 0-1.92 1.8h-1.08a2.84 2.84 0 0 1 3-2.76 2.77 2.77 0 0 1 2.94 2.9 2.4 2.4 0 0 1-1.44 2.37 2.5 2.5 0 0 1 1.63 2.62 2.9 2.9 0 0 1-3.13 3z"/>  <path class="cls-4" d="M27.9 502.38h-3.03v4.7h-1.22v-11.4h4.24a3.36 3.36 0 1 1 0 6.7zm-.12-5.62h-2.9v4.53h2.9a2.27 2.27 0 1 0 0-4.54zM37.8 507.07v-.75a2.77 2.77 0 0 1-2.28.85 2.8 2.8 0 0 1-2.22-.72 2.27 2.27 0 0 1-.6-1.6c0-1.38.97-2.28 2.73-2.28h2.37v-.75c0-1.15-.58-1.73-2.02-1.73a2.07 2.07 0 0 0-2 .9l-.77-.73a3.05 3.05 0 0 1 2.8-1.17c2.1 0 3.15.9 3.15 2.62v5.35zm0-3.63h-2.2c-1.2 0-1.77.48-1.77 1.4 0 .9.56 1.33 1.8 1.33a2.3 2.3 0 0 0 1.77-.52 1.82 1.82 0 0 0 .4-1.36zM43.5 507.07a1.93 1.93 0 0 1-2.03-2.1v-4.85h-1v-.88h1v-2.46h1.15v2.46h1.68v.88h-1.68v4.8c0 .73.34 1.16 1.08 1.16h.6v1zM50.5 500.7a1.65 1.65 0 0 0-1.35-.58 1.92 1.92 0 0 0-1.9 2.12v4.83h-1.14v-7.87h1.16v.96a2.65 2.65 0 0 1 2.2-1.06 2.43 2.43 0 0 1 1.9.74zM57.62 506.27a3.3 3.3 0 0 1-4.52 0 5.6 5.6 0 0 1 0-6.27 3.3 3.3 0 0 1 4.52 0 5.6 5.6 0 0 1 0 6.27zm-.82-5.57a2.02 2.02 0 0 0-1.44-.58 1.98 1.98 0 0 0-1.42.58 4.94 4.94 0 0 0 0 4.87 1.98 1.98 0 0 0 1.42.57 2.02 2.02 0 0 0 1.44-.57 5.05 5.05 0 0 0 0-4.87zm-1.17-3.14h-1.05l1.4-2.45h1.38zM65.68 507.07v-4.85a1.83 1.83 0 0 0-1.93-2.1 1.85 1.85 0 0 0-1.96 2.1v4.85h-1.16v-7.87h1.15v.86a2.84 2.84 0 0 1 2.2-.96 2.76 2.76 0 0 1 2.02.73 2.9 2.9 0 0 1 .8 2.2v5.04zM77.68 507.07v-.94a2.55 2.55 0 0 1-2.24 1.04 2.75 2.75 0 0 1-1.92-.7 6.3 6.3 0 0 1 0-6.68 2.75 2.75 0 0 1 1.92-.7 2.53 2.53 0 0 1 2.23 1v-4.43h1.15v11.4zm-1.98-6.95c-1.7 0-2 1.48-2 3 0 1.55.3 3.02 2 3.02s1.97-1.47 1.97-3c0-1.54-.26-3.02-1.97-3.02zM82 503.44c0 1.73.82 2.72 2.32 2.72a2.6 2.6 0 0 0 2.07-.9l.77.7a3.6 3.6 0 0 1-2.88 1.2c-2.1 0-3.45-1.24-3.45-4.03 0-2.54 1.23-4.03 3.23-4.03 2.04 0 3.24 1.47 3.24 3.8v.54zm3.92-2.18a2.02 2.02 0 0 0-3.68 0 3.3 3.3 0 0 0-.24 1.3h4.16a3.3 3.3 0 0 0-.24-1.3zM97.5 500.7a1.65 1.65 0 0 0-1.35-.58 1.92 1.92 0 0 0-1.9 2.12v4.83h-1.14v-7.87h1.16v.96a2.65 2.65 0 0 1 2.2-1.06 2.43 2.43 0 0 1 1.9.74zM100.26 503.44c0 1.73.8 2.72 2.32 2.72a2.6 2.6 0 0 0 2.06-.9l.8.7a3.6 3.6 0 0 1-2.9 1.2c-2.08 0-3.44-1.24-3.44-4.03 0-2.54 1.24-4.03 3.24-4.03 2.03 0 3.23 1.47 3.23 3.8v.54zm3.92-2.18a2.02 2.02 0 0 0-3.68 0 3.3 3.3 0 0 0-.24 1.3h4.16a3.3 3.3 0 0 0-.24-1.3zM110.74 507.17c-1.98 0-3.5-1.35-3.5-4.04s1.52-4.03 3.5-4.03a3.12 3.12 0 0 1 2.6 1.17l-.8.73a2.16 2.16 0 0 0-1.8-.88 2.14 2.14 0 0 0-1.82.9 4.62 4.62 0 0 0 0 4.23 2.13 2.13 0 0 0 1.82.9 2.18 2.18 0 0 0 1.8-.9l.8.75a3.12 3.12 0 0 1-2.6 1.17zM117.1 507.07a1.88 1.88 0 0 1-2-2.1v-9.3h1.14v9.26c0 .76.26 1.15 1.06 1.15h.62v1zM124.25 507.07v-.75a2.77 2.77 0 0 1-2.27.85 2.8 2.8 0 0 1-2.23-.72 2.27 2.27 0 0 1-.6-1.6c0-1.38.97-2.28 2.73-2.28h2.37v-.75c0-1.15-.58-1.73-2.02-1.73a2.07 2.07 0 0 0-1.98.9l-.8-.73a3.05 3.05 0 0 1 2.8-1.17c2.1 0 3.15.9 3.15 2.62v5.35zm0-3.63h-2.2c-1.2 0-1.77.48-1.77 1.4 0 .9.56 1.33 1.8 1.33a2.3 2.3 0 0 0 1.77-.52 1.82 1.82 0 0 0 .4-1.36zM137.87 507.07v-4.85a1.96 1.96 0 1 0-3.9-.13v4.97h-1.16v-4.85a1.83 1.83 0 0 0-1.93-2.1 1.86 1.86 0 0 0-1.96 2.1v4.85h-1.15v-7.87h1.16v.86a2.87 2.87 0 0 1 2.23-.96 2.6 2.6 0 0 1 2.42 1.3 3 3 0 0 1 2.6-1.3 2.87 2.87 0 0 1 2.02.73 2.93 2.93 0 0 1 .85 2.2v5.04zM145.9 507.07v-.75a2.77 2.77 0 0 1-2.28.85 2.8 2.8 0 0 1-2.23-.72 2.27 2.27 0 0 1-.6-1.6c0-1.38.96-2.28 2.72-2.28h2.37v-.75c0-1.15-.6-1.73-2.03-1.73a2.07 2.07 0 0 0-1.98.9l-.8-.73a3.05 3.05 0 0 1 2.8-1.17c2.1 0 3.14.9 3.14 2.62v5.35zm0-3.63h-2.22c-1.18 0-1.76.48-1.76 1.4 0 .9.56 1.33 1.8 1.33a2.3 2.3 0 0 0 1.77-.52 1.82 1.82 0 0 0 .4-1.36zM152.47 507.17c-1.98 0-3.48-1.35-3.48-4.04s1.5-4.03 3.47-4.03a3.12 3.12 0 0 1 2.6 1.17l-.8.73a2.16 2.16 0 0 0-1.8-.88 2.14 2.14 0 0 0-1.82.9 4.62 4.62 0 0 0 0 4.23 2.13 2.13 0 0 0 1.82.9 2.18 2.18 0 0 0 1.8-.9l.8.75a3.12 3.12 0 0 1-2.6 1.17zM156.77 496.95v-1.3h1.3v1.3zm.06 10.12v-7.87H158v7.87zM165.5 506.27a3.3 3.3 0 0 1-4.53 0 5.6 5.6 0 0 1 0-6.27 3.3 3.3 0 0 1 4.52 0 5.6 5.6 0 0 1 0 6.27zm-.83-5.57a2.02 2.02 0 0 0-1.44-.58 1.98 1.98 0 0 0-1.43.58 4.94 4.94 0 0 0 0 4.87 1.98 1.98 0 0 0 1.43.57 2.02 2.02 0 0 0 1.44-.57 5.05 5.05 0 0 0 0-4.87zM173.55 507.07v-4.85a1.83 1.83 0 0 0-1.94-2.1 1.85 1.85 0 0 0-1.94 2.1v4.85h-1.15v-7.87h1.16v.86a2.84 2.84 0 0 1 2.2-.96 2.76 2.76 0 0 1 2.03.73 2.9 2.9 0 0 1 .8 2.2v5.04zM177.82 503.44c0 1.73.82 2.72 2.32 2.72a2.6 2.6 0 0 0 2.07-.9l.8.7a3.6 3.6 0 0 1-2.9 1.2c-2.07 0-3.43-1.24-3.43-4.03 0-2.54 1.23-4.03 3.23-4.03 2.03 0 3.23 1.47 3.23 3.8v.54zm3.92-2.18a2.02 2.02 0 0 0-3.68 0 3.3 3.3 0 0 0-.24 1.3h4.16a3.3 3.3 0 0 0-.24-1.3zM187.82 507.17a4.34 4.34 0 0 1-3.23-1.14l.76-.77a3.22 3.22 0 0 0 2.44.9c1.3 0 2.1-.45 2.1-1.38 0-.7-.4-1.07-1.3-1.15l-1.3-.1c-1.55-.14-2.36-.83-2.36-2.13 0-1.44 1.22-2.3 2.9-2.3a4.45 4.45 0 0 1 2.83.85l-.75.75a3.36 3.36 0 0 0-2.1-.62c-1.15 0-1.76.5-1.76 1.3 0 .66.38 1.06 1.38 1.14l1.26.12c1.38.12 2.32.65 2.32 2.13 0 1.52-1.3 2.4-3.2 2.4zM201.92 506.48a2.74 2.74 0 0 1-1.92.7 2.55 2.55 0 0 1-2.23-1.04v4.45h-1.15v-11.4h1.15v.92a2.5 2.5 0 0 1 2.23-1.02 2.74 2.74 0 0 1 1.92.7 6.3 6.3 0 0 1 0 6.68zm-2.16-6.36c-1.72 0-2 1.48-2 3 0 1.55.28 3.02 2 3.02s1.96-1.47 1.96-3c0-1.54-.25-3.02-1.96-3.02zM209.53 507.07v-.75a2.77 2.77 0 0 1-2.27.85 2.8 2.8 0 0 1-2.23-.72 2.27 2.27 0 0 1-.6-1.6c0-1.38.97-2.28 2.73-2.28h2.37v-.75c0-1.15-.58-1.73-2.02-1.73a2.07 2.07 0 0 0-1.97.9l-.8-.73a3.05 3.05 0 0 1 2.8-1.17c2.1 0 3.15.9 3.15 2.62v5.35zm0-3.63h-2.2c-1.2 0-1.77.48-1.77 1.4 0 .9.56 1.33 1.8 1.33a2.3 2.3 0 0 0 1.77-.52 1.82 1.82 0 0 0 .4-1.36zM217.44 500.7a1.65 1.65 0 0 0-1.36-.58 1.92 1.92 0 0 0-1.9 2.12v4.83h-1.15v-7.87h1.16v.96a2.65 2.65 0 0 1 2.2-1.06 2.43 2.43 0 0 1 1.88.74zM224.27 507.07v-.75a2.77 2.77 0 0 1-2.27.85 2.8 2.8 0 0 1-2.23-.72 2.27 2.27 0 0 1-.6-1.6c0-1.38.97-2.28 2.73-2.28h2.37v-.75c0-1.15-.58-1.73-2.02-1.73a2.07 2.07 0 0 0-1.98.9l-.8-.73a3.05 3.05 0 0 1 2.8-1.17c2.1 0 3.15.9 3.15 2.62v5.35zm0-3.63h-2.2c-1.2 0-1.77.48-1.77 1.4 0 .9.56 1.33 1.8 1.33a2.3 2.3 0 0 0 1.77-.52 1.82 1.82 0 0 0 .4-1.36zM236.54 507.07v-.88a2.9 2.9 0 0 1-2.23.97 2.8 2.8 0 0 1-2.02-.74 2.94 2.94 0 0 1-.8-2.2v-5.03h1.15v4.84c0 1.4.74 2.1 1.92 2.1a1.86 1.86 0 0 0 1.97-2.1v-4.84h1.16v7.87zM245.12 507.07v-4.85a1.83 1.83 0 0 0-1.93-2.1 1.85 1.85 0 0 0-1.97 2.1v4.85h-1.15v-7.87h1.15v.86a2.84 2.84 0 0 1 2.2-.96 2.76 2.76 0 0 1 2.03.73 2.9 2.9 0 0 1 .8 2.2v5.04zM257.7 506.48a2.74 2.74 0 0 1-1.9.7 2.55 2.55 0 0 1-2.23-1.04v4.45h-1.15v-11.4h1.15v.92a2.5 2.5 0 0 1 2.22-1.02 2.74 2.74 0 0 1 1.9.7 6.3 6.3 0 0 1 0 6.68zm-2.15-6.36c-1.7 0-1.98 1.48-1.98 3 0 1.55.27 3.02 1.98 3.02s1.97-1.47 1.97-3c0-1.54-.25-3.02-1.97-3.02zM260.68 496.95v-1.3h1.3v1.3zm.07 10.12v-7.87h1.15v7.87zM269.4 506.27a3.3 3.3 0 0 1-4.52 0 5.6 5.6 0 0 1 0-6.27 3.3 3.3 0 0 1 4.52 0 5.6 5.6 0 0 1 0 6.27zm-.82-5.57a2.02 2.02 0 0 0-1.44-.58 1.98 1.98 0 0 0-1.42.58 4.94 4.94 0 0 0 0 4.87 1.98 1.98 0 0 0 1.42.57 2.02 2.02 0 0 0 1.44-.57 5.05 5.05 0 0 0 0-4.87zM277.46 507.07v-4.85a1.83 1.83 0 0 0-1.93-2.1 1.85 1.85 0 0 0-1.96 2.1v4.85h-1.15v-7.87h1.15v.86a2.84 2.84 0 0 1 2.2-.96 2.76 2.76 0 0 1 2.03.73 2.9 2.9 0 0 1 .8 2.2v5.04zM281.73 503.44c0 1.73.82 2.72 2.32 2.72a2.6 2.6 0 0 0 2.07-.9l.78.7a3.6 3.6 0 0 1-2.88 1.2c-2.08 0-3.44-1.24-3.44-4.03 0-2.54 1.23-4.03 3.23-4.03 2.05 0 3.25 1.47 3.25 3.8v.54zm3.92-2.18a2.02 2.02 0 0 0-3.68 0 3.3 3.3 0 0 0-.24 1.3h4.16a3.3 3.3 0 0 0-.25-1.3zM293.46 500.7a1.65 1.65 0 0 0-1.36-.58 1.92 1.92 0 0 0-1.9 2.12v4.83h-1.15v-7.87h1.16v.96a2.65 2.65 0 0 1 2.22-1.06 2.43 2.43 0 0 1 1.88.74zM300.57 506.27a3.3 3.3 0 0 1-4.52 0 5.6 5.6 0 0 1 0-6.27 3.3 3.3 0 0 1 4.52 0 5.6 5.6 0 0 1 0 6.27zm-.82-5.57a2.02 2.02 0 0 0-1.44-.58 1.98 1.98 0 0 0-1.42.58 4.94 4.94 0 0 0 0 4.87 1.98 1.98 0 0 0 1.43.57 2.02 2.02 0 0 0 1.45-.57 5.05 5.05 0 0 0 0-4.87zM308.05 503.44c0 1.73.82 2.72 2.32 2.72a2.6 2.6 0 0 0 2.07-.9l.78.7a3.6 3.6 0 0 1-2.88 1.2c-2.08 0-3.44-1.24-3.44-4.03 0-2.54 1.23-4.03 3.23-4.03 2.04 0 3.24 1.47 3.24 3.8v.54zm3.92-2.18a2.02 2.02 0 0 0-3.68 0 3.3 3.3 0 0 0-.25 1.3h4.16a3.3 3.3 0 0 0-.23-1.3zM320.42 507.07v-4.85a1.83 1.83 0 0 0-1.94-2.1 1.85 1.85 0 0 0-1.95 2.1v4.85h-1.15v-7.87h1.15v.86a2.84 2.84 0 0 1 2.2-.96 2.76 2.76 0 0 1 2.02.73 2.9 2.9 0 0 1 .82 2.2v5.04zM328.43 503.44c0 1.73.82 2.72 2.32 2.72a2.6 2.6 0 0 0 2.07-.9l.78.7a3.6 3.6 0 0 1-2.88 1.2c-2.08 0-3.44-1.24-3.44-4.03 0-2.54 1.23-4.03 3.23-4.03 2.04 0 3.25 1.47 3.25 3.8v.54zm3.92-2.18a2.02 2.02 0 0 0-3.68 0 3.3 3.3 0 0 0-.24 1.3h4.16a3.3 3.3 0 0 0-.25-1.3zM337.7 507.07a1.88 1.88 0 0 1-2-2.1v-9.3h1.17v9.26c0 .76.25 1.15 1.05 1.15h.63v1zM348.82 507.07v-.88a2.9 2.9 0 0 1-2.23.97 2.8 2.8 0 0 1-2.04-.74 2.94 2.94 0 0 1-.8-2.2v-5.03h1.15v4.84c0 1.4.75 2.1 1.93 2.1a1.86 1.86 0 0 0 1.97-2.1v-4.84h1.16v7.87zM354.93 507.17a4.34 4.34 0 0 1-3.24-1.14l.76-.77a3.22 3.22 0 0 0 2.45.9c1.3 0 2.1-.45 2.1-1.38 0-.7-.4-1.07-1.3-1.15l-1.3-.1c-1.54-.14-2.35-.83-2.35-2.13 0-1.44 1.2-2.3 2.9-2.3a4.45 4.45 0 0 1 2.83.85l-.76.75a3.36 3.36 0 0 0-2.1-.62c-1.14 0-1.75.5-1.75 1.3 0 .66.38 1.06 1.37 1.14l1.27.12c1.38.12 2.33.65 2.33 2.13 0 1.52-1.3 2.4-3.2 2.4zM365.17 506.27a3.3 3.3 0 0 1-4.52 0 5.6 5.6 0 0 1 0-6.27 3.3 3.3 0 0 1 4.52 0 5.6 5.6 0 0 1 0 6.27zm-.82-5.57a2.02 2.02 0 0 0-1.44-.58 1.98 1.98 0 0 0-1.4.58 4.94 4.94 0 0 0 0 4.87 1.98 1.98 0 0 0 1.4.57 2.02 2.02 0 0 0 1.45-.57 5.05 5.05 0 0 0 0-4.87zM376.64 507.07v-.94a2.55 2.55 0 0 1-2.24 1.04 2.75 2.75 0 0 1-1.92-.7 6.3 6.3 0 0 1 0-6.68 2.75 2.75 0 0 1 1.92-.7 2.53 2.53 0 0 1 2.22 1v-4.43h1.16v11.4zm-1.98-6.95c-1.72 0-2 1.48-2 3 0 1.55.28 3.02 2 3.02 1.7 0 1.96-1.47 1.96-3 0-1.54-.25-3.02-1.96-3.02zM380.96 503.44c0 1.73.82 2.72 2.32 2.72a2.6 2.6 0 0 0 2.06-.9l.8.7a3.6 3.6 0 0 1-2.9 1.2c-2.07 0-3.43-1.24-3.43-4.03 0-2.54 1.24-4.03 3.24-4.03 2.03 0 3.23 1.47 3.23 3.8v.54zm3.92-2.18a2.02 2.02 0 0 0-3.68 0 3.3 3.3 0 0 0-.24 1.3h4.16a3.3 3.3 0 0 0-.24-1.3zM402.18 507.07v-4.85a1.96 1.96 0 1 0-3.9-.13v4.97h-1.16v-4.85a1.83 1.83 0 0 0-1.94-2.1 1.86 1.86 0 0 0-1.97 2.1v4.85h-1.14v-7.87h1.15v.86a2.87 2.87 0 0 1 2.24-.96 2.6 2.6 0 0 1 2.42 1.3 3 3 0 0 1 2.6-1.3 2.87 2.87 0 0 1 2.02.73 2.93 2.93 0 0 1 .85 2.2v5.04zM406.47 503.44c0 1.73.8 2.72 2.32 2.72a2.6 2.6 0 0 0 2.05-.9l.8.7a3.6 3.6 0 0 1-2.9 1.2c-2.08 0-3.44-1.24-3.44-4.03 0-2.54 1.25-4.03 3.25-4.03 2.03 0 3.23 1.47 3.23 3.8v.54zm3.92-2.18a2.02 2.02 0 0 0-3.7 0 3.3 3.3 0 0 0-.23 1.3h4.16a3.3 3.3 0 0 0-.24-1.3zM416.95 507.17c-1.98 0-3.5-1.35-3.5-4.04s1.52-4.03 3.5-4.03a3.12 3.12 0 0 1 2.6 1.17l-.8.73a2.16 2.16 0 0 0-1.8-.88 2.14 2.14 0 0 0-1.82.9 4.62 4.62 0 0 0 0 4.23 2.13 2.13 0 0 0 1.82.9 2.18 2.18 0 0 0 1.8-.9l.8.75a3.12 3.12 0 0 1-2.6 1.17zM426 507.07v-.75a2.77 2.77 0 0 1-2.26.85 2.8 2.8 0 0 1-2.22-.72 2.27 2.27 0 0 1-.6-1.6c0-1.38.96-2.28 2.72-2.28H426v-.75c0-1.15-.56-1.73-2-1.73a2.07 2.07 0 0 0-2 .9l-.77-.73a3.05 3.05 0 0 1 2.78-1.17c2.13 0 3.17.9 3.17 2.62v5.35zm0-3.63h-2.2c-1.18 0-1.76.48-1.76 1.4 0 .9.56 1.33 1.8 1.33a2.3 2.3 0 0 0 1.77-.52 1.82 1.82 0 0 0 .4-1.36zM434.56 507.07v-4.85a1.83 1.83 0 0 0-1.94-2.1 1.85 1.85 0 0 0-1.95 2.1v4.85h-1.15v-7.87h1.15v.86a2.84 2.84 0 0 1 2.2-.96 2.76 2.76 0 0 1 2.03.73 2.9 2.9 0 0 1 .8 2.2v5.04zM437.98 496.95v-1.3h1.3v1.3zm.06 10.12v-7.87h1.16v7.87zM444.16 507.17a4.34 4.34 0 0 1-3.23-1.14l.77-.77a3.22 3.22 0 0 0 2.44.9c1.3 0 2.1-.45 2.1-1.38 0-.7-.4-1.07-1.3-1.15l-1.3-.1c-1.54-.14-2.36-.83-2.36-2.13 0-1.44 1.22-2.3 2.9-2.3a4.45 4.45 0 0 1 2.83.85l-.74.75a3.36 3.36 0 0 0-2.1-.62c-1.15 0-1.76.5-1.76 1.3 0 .66.38 1.06 1.38 1.14l1.26.12c1.38.12 2.32.65 2.32 2.13 0 1.52-1.3 2.4-3.2 2.4zM459.28 507.07v-4.85a1.96 1.96 0 1 0-3.9-.13v4.97h-1.16v-4.85a1.83 1.83 0 0 0-1.93-2.1 1.86 1.86 0 0 0-1.98 2.1v4.85h-1.16v-7.87h1.16v.86a2.87 2.87 0 0 1 2.22-.96 2.6 2.6 0 0 1 2.42 1.3 3 3 0 0 1 2.6-1.3 2.87 2.87 0 0 1 2.02.73 2.93 2.93 0 0 1 .85 2.2v5.04zM467.9 506.27a3.3 3.3 0 0 1-4.52 0 5.6 5.6 0 0 1 0-6.27 3.3 3.3 0 0 1 4.52 0 5.6 5.6 0 0 1 0 6.27zm-.82-5.57a2.02 2.02 0 0 0-1.44-.58 1.98 1.98 0 0 0-1.43.58 4.94 4.94 0 0 0 0 4.87 1.98 1.98 0 0 0 1.44.57 2.02 2.02 0 0 0 1.44-.57 5.05 5.05 0 0 0 0-4.87zM473.4 507.17a4.34 4.34 0 0 1-3.23-1.14l.77-.77a3.22 3.22 0 0 0 2.45.9c1.3 0 2.1-.45 2.1-1.38 0-.7-.4-1.07-1.32-1.15l-1.3-.1c-1.54-.14-2.35-.83-2.35-2.13 0-1.44 1.2-2.3 2.9-2.3a4.45 4.45 0 0 1 2.83.85l-.76.75a3.36 3.36 0 0 0-2.1-.62c-1.14 0-1.75.5-1.75 1.3 0 .66.38 1.06 1.37 1.14l1.27.12c1.37.12 2.3.65 2.3 2.13 0 1.52-1.3 2.4-3.2 2.4zM486.9 507.07v-.94a2.55 2.55 0 0 1-2.23 1.04 2.75 2.75 0 0 1-1.92-.7 6.3 6.3 0 0 1 0-6.68 2.75 2.75 0 0 1 1.92-.7 2.53 2.53 0 0 1 2.23 1v-4.43h1.15v11.4zm-1.97-6.95c-1.7 0-2 1.48-2 3 0 1.55.3 3.02 2 3.02s1.97-1.47 1.97-3c0-1.54-.26-3.02-1.97-3.02zM491.23 503.44c0 1.73.82 2.72 2.32 2.72a2.6 2.6 0 0 0 2.07-.9l.78.7a3.6 3.6 0 0 1-2.88 1.2c-2.08 0-3.44-1.24-3.44-4.03 0-2.54 1.23-4.03 3.23-4.03 2.05 0 3.25 1.47 3.25 3.8v.54zm3.92-2.18a2.02 2.02 0 0 0-3.68 0 3.3 3.3 0 0 0-.24 1.3h4.16a3.3 3.3 0 0 0-.25-1.3zM506.74 500.7a1.65 1.65 0 0 0-1.36-.58 1.92 1.92 0 0 0-1.9 2.12v4.83h-1.14v-7.87h1.15v.96a2.65 2.65 0 0 1 2.2-1.06 2.43 2.43 0 0 1 1.9.74zM509.5 503.44c0 1.73.8 2.72 2.3 2.72a2.6 2.6 0 0 0 2.07-.9l.8.7a3.6 3.6 0 0 1-2.9 1.2c-2.08 0-3.44-1.24-3.44-4.03 0-2.54 1.24-4.03 3.24-4.03 2.03 0 3.23 1.47 3.23 3.8v.54zm3.9-2.18a2.02 2.02 0 0 0-3.67 0 3.3 3.3 0 0 0-.24 1.3h4.15a3.3 3.3 0 0 0-.24-1.3zM519.97 507.17c-1.98 0-3.5-1.35-3.5-4.04s1.52-4.03 3.5-4.03a3.12 3.12 0 0 1 2.6 1.17l-.8.73a2.16 2.16 0 0 0-1.8-.88 2.14 2.14 0 0 0-1.82.9 4.62 4.62 0 0 0 0 4.23 2.13 2.13 0 0 0 1.82.9 2.18 2.18 0 0 0 1.8-.9l.8.75a3.12 3.12 0 0 1-2.6 1.17zM526.32 507.07a1.88 1.88 0 0 1-2-2.1v-9.3h1.15v9.26c0 .76.26 1.15 1.06 1.15h.62v1zM533.48 507.07v-.75a2.77 2.77 0 0 1-2.27.85 2.8 2.8 0 0 1-2.22-.72 2.27 2.27 0 0 1-.6-1.6c0-1.38.97-2.28 2.73-2.28h2.38v-.75c0-1.15-.58-1.73-2.02-1.73a2.07 2.07 0 0 0-1.98.9l-.8-.73a3.05 3.05 0 0 1 2.8-1.17c2.1 0 3.15.9 3.15 2.62v5.35zm0-3.63h-2.2c-1.2 0-1.77.48-1.77 1.4 0 .9.57 1.33 1.82 1.33a2.3 2.3 0 0 0 1.76-.52 1.82 1.82 0 0 0 .4-1.36zM547.1 507.07v-4.85a1.96 1.96 0 1 0-3.9-.13v4.97h-1.16v-4.85a1.83 1.83 0 0 0-1.93-2.1 1.86 1.86 0 0 0-1.96 2.1v4.85h-1.16v-7.87h1.16v.86a2.87 2.87 0 0 1 2.22-.96 2.6 2.6 0 0 1 2.42 1.3 3 3 0 0 1 2.6-1.3 2.87 2.87 0 0 1 2.02.73 2.93 2.93 0 0 1 .85 2.2v5.04zM555.12 507.07v-.75a2.77 2.77 0 0 1-2.27.85 2.8 2.8 0 0 1-2.23-.72 2.27 2.27 0 0 1-.6-1.6c0-1.38.97-2.28 2.73-2.28h2.37v-.75c0-1.15-.58-1.73-2.02-1.73a2.07 2.07 0 0 0-1.98.9l-.8-.73a3.05 3.05 0 0 1 2.8-1.17c2.1 0 3.15.9 3.15 2.62v5.35zm0-3.63h-2.2c-1.2 0-1.77.48-1.77 1.4 0 .9.56 1.33 1.8 1.33a2.3 2.3 0 0 0 1.77-.52 1.82 1.82 0 0 0 .4-1.36zM561.7 507.17c-1.98 0-3.48-1.35-3.48-4.04s1.5-4.03 3.5-4.03a3.12 3.12 0 0 1 2.58 1.17l-.8.73a2.16 2.16 0 0 0-1.8-.88 2.14 2.14 0 0 0-1.82.9 4.62 4.62 0 0 0 0 4.23 2.13 2.13 0 0 0 1.83.9 2.18 2.18 0 0 0 1.8-.9l.8.75a3.12 3.12 0 0 1-2.6 1.17zM566 496.95v-1.3h1.3v1.3zm.06 10.12v-7.87h1.16v7.87zM574.72 506.27a3.3 3.3 0 0 1-4.52 0 5.6 5.6 0 0 1 0-6.27 3.3 3.3 0 0 1 4.52 0 5.6 5.6 0 0 1 0 6.27zm-.82-5.57a2.02 2.02 0 0 0-1.44-.58 1.98 1.98 0 0 0-1.42.58 4.94 4.94 0 0 0 0 4.87 1.98 1.98 0 0 0 1.42.57 2.02 2.02 0 0 0 1.44-.57 5.05 5.05 0 0 0 0-4.87zM582.78 507.07v-4.85a1.83 1.83 0 0 0-1.94-2.1 1.85 1.85 0 0 0-1.95 2.1v4.85h-1.16v-7.87h1.15v.86a2.84 2.84 0 0 1 2.2-.96 2.76 2.76 0 0 1 2.02.73 2.9 2.9 0 0 1 .8 2.2v5.04zM587.05 503.44c0 1.73.82 2.72 2.32 2.72a2.6 2.6 0 0 0 2.07-.9l.78.7a3.6 3.6 0 0 1-2.88 1.2c-2.08 0-3.44-1.24-3.44-4.03 0-2.54 1.23-4.03 3.23-4.03 2.03 0 3.23 1.47 3.23 3.8v.54zm3.92-2.18a2.02 2.02 0 0 0-3.68 0 3.3 3.3 0 0 0-.25 1.3h4.16a3.3 3.3 0 0 0-.23-1.3zM597.05 507.17a4.34 4.34 0 0 1-3.23-1.14l.77-.77a3.22 3.22 0 0 0 2.43.9c1.3 0 2.1-.45 2.1-1.38 0-.7-.4-1.07-1.3-1.15l-1.3-.1c-1.54-.14-2.36-.83-2.36-2.13 0-1.44 1.22-2.3 2.9-2.3a4.45 4.45 0 0 1 2.83.85l-.75.75a3.36 3.36 0 0 0-2.1-.62c-1.15 0-1.76.5-1.76 1.3 0 .66.37 1.06 1.37 1.14l1.26.12c1.38.12 2.32.65 2.32 2.13 0 1.52-1.3 2.4-3.2 2.4zM607.37 508.58a5.94 5.94 0 0 1-1.15-1.38 3.32 3.32 0 0 1-.34-1.65v-8.36a3.32 3.32 0 0 1 .34-1.65 5.94 5.94 0 0 1 1.15-1.38l.78.78a4 4 0 0 0-.86 1.04 2.96 2.96 0 0 0-.27 1.3v8.15a2.96 2.96 0 0 0 .26 1.3 4 4 0 0 0 .85 1.04zM613.2 507.17a4.97 4.97 0 0 1-3.9-1.5l.83-.84a3.92 3.92 0 0 0 3.1 1.25c1.67 0 2.7-.8 2.7-2.12a1.84 1.84 0 0 0-.55-1.42 2.46 2.46 0 0 0-1.5-.54l-1.32-.2a4.13 4.13 0 0 1-2.1-.88 2.7 2.7 0 0 1-.86-2.13c0-1.94 1.4-3.22 3.65-3.22a4.58 4.58 0 0 1 3.4 1.25l-.8.78a3.6 3.6 0 0 0-2.65-.97 2.1 2.1 0 0 0-2.4 2.12 1.64 1.64 0 0 0 .52 1.3 3.28 3.28 0 0 0 1.53.63l1.25.2a3.67 3.67 0 0 1 2.08.8 2.85 2.85 0 0 1 .96 2.25c0 2-1.57 3.24-3.94 3.24zM623.85 507.07v-.75a2.77 2.77 0 0 1-2.28.85 2.8 2.8 0 0 1-2.22-.72 2.27 2.27 0 0 1-.6-1.6c0-1.38.97-2.28 2.73-2.28h2.37v-.75c0-1.15-.58-1.73-2.02-1.73a2.07 2.07 0 0 0-2 .9l-.77-.73a3.05 3.05 0 0 1 2.78-1.17c2.12 0 3.16.9 3.16 2.62v5.35zm0-3.63h-2.2c-1.2 0-1.77.48-1.77 1.4 0 .9.56 1.33 1.8 1.33a2.3 2.3 0 0 0 1.77-.52 1.82 1.82 0 0 0 .4-1.36zM632.54 507.07l-2.5-4.03-1.54 1.76v2.27h-1.15v-11.4h1.15v7.62l3.56-4.1h1.44l-2.68 3 3.14 4.87zM640.66 507.07v-4.87a1.82 1.82 0 0 0-1.92-2.08 1.86 1.86 0 0 0-1.97 2.08v4.87h-1.15v-11.4h1.15v4.4a2.8 2.8 0 0 1 2.2-.97 2.66 2.66 0 0 1 2.84 2.9v5.07zM648.67 507.07v-.75a2.77 2.77 0 0 1-2.28.85 2.8 2.8 0 0 1-2.23-.72 2.27 2.27 0 0 1-.6-1.6c0-1.38.97-2.28 2.73-2.28h2.37v-.75c0-1.15-.58-1.73-2.02-1.73a2.07 2.07 0 0 0-1.98.9l-.8-.73a3.05 3.05 0 0 1 2.8-1.17c2.1 0 3.15.9 3.15 2.62v5.35zm0-3.63h-2.2c-1.2 0-1.77.48-1.77 1.4 0 .9.56 1.33 1.8 1.33a2.3 2.3 0 0 0 1.77-.52 1.82 1.82 0 0 0 .4-1.36zM654.13 507.07a1.88 1.88 0 0 1-2-2.1v-9.3h1.15v9.26c0 .76.26 1.15 1.06 1.15h.62v1zM656.53 496.95v-1.3h1.3v1.3zm.07 10.12v-7.87h1.15v7.87zM665.2 507.07v-4.85a1.83 1.83 0 0 0-1.95-2.1 1.85 1.85 0 0 0-1.95 2.1v4.85h-1.15v-7.87h1.15v.86a2.84 2.84 0 0 1 2.2-.96 2.76 2.76 0 0 1 2.03.73 2.9 2.9 0 0 1 .8 2.2v5.04zM672.7 507.07v-11.4h7.07v1.1h-5.86v4h5v1.1h-5v4.1h5.87v1.1zM686.73 507.07v-4.85a1.83 1.83 0 0 0-1.93-2.1 1.85 1.85 0 0 0-1.96 2.1v4.85h-1.15v-7.87h1.14v.86a2.84 2.84 0 0 1 2.2-.96 2.76 2.76 0 0 1 2.03.73 2.9 2.9 0 0 1 .82 2.2v5.04zM691 503.44c0 1.73.82 2.72 2.33 2.72a2.6 2.6 0 0 0 2.06-.9l.78.7a3.6 3.6 0 0 1-2.9 1.2c-2.07 0-3.43-1.24-3.43-4.03 0-2.54 1.24-4.03 3.24-4.03 2.02 0 3.22 1.47 3.22 3.8v.54zm3.93-2.18a2.02 2.02 0 0 0-3.68 0 3.3 3.3 0 0 0-.24 1.3h4.17a3.3 3.3 0 0 0-.24-1.3zM702.73 500.7a1.65 1.65 0 0 0-1.36-.58 1.92 1.92 0 0 0-1.9 2.12v4.83h-1.14v-7.87h1.15v.96a2.65 2.65 0 0 1 2.2-1.06 2.43 2.43 0 0 1 1.9.74zM707.38 510.7a3.47 3.47 0 0 1-2.67-1.07l.76-.73a2.43 2.43 0 0 0 1.9.78c1.5 0 2.15-1.07 2.15-2.42v-1.23a2.54 2.54 0 0 1-2.2 1.02 2.7 2.7 0 0 1-1.9-.7 6.1 6.1 0 0 1 0-6.56 2.75 2.75 0 0 1 1.92-.7 2.48 2.48 0 0 1 2.2 1.02v-.92h1.14v8.1a3.13 3.13 0 0 1-3.28 3.4zm.18-10.58c-1.7 0-1.97 1.48-1.97 2.95s.25 2.94 1.96 2.94 1.95-1.46 1.95-2.93-.23-2.95-1.94-2.95zM715.37 508.97a2.3 2.3 0 0 1-.57.93 2.16 2.16 0 0 1-1.53.55h-.5v-1.03h.35c.8 0 1.05-.25 1.3-.97l.56-1.54-2.83-7.7h1.25l2.16 6.32 2.14-6.32h1.25zM724.12 507.07v-11.4h1.2v11.4zM732.92 507.07v-4.85a1.83 1.83 0 0 0-1.93-2.1 1.85 1.85 0 0 0-1.96 2.1v4.85h-1.16v-7.87h1.16v.86a2.84 2.84 0 0 1 2.2-.96 2.76 2.76 0 0 1 2.02.73 2.9 2.9 0 0 1 .82 2.2v5.04zM739.1 507.07h-1.04l-2.88-7.87h1.25l2.15 6.32 2.16-6.32H742zM743.94 503.44c0 1.73.82 2.72 2.32 2.72a2.6 2.6 0 0 0 2.07-.9l.78.7a3.6 3.6 0 0 1-2.87 1.2c-2.08 0-3.44-1.24-3.44-4.03 0-2.54 1.22-4.03 3.22-4.03 2.03 0 3.23 1.47 3.23 3.8v.54zm3.92-2.18a2.02 2.02 0 0 0-3.68 0 3.3 3.3 0 0 0-.24 1.3h4.16a3.3 3.3 0 0 0-.24-1.3zM753.94 507.17a4.34 4.34 0 0 1-3.23-1.14l.78-.77a3.22 3.22 0 0 0 2.44.9c1.3 0 2.1-.45 2.1-1.38 0-.7-.4-1.07-1.3-1.15l-1.3-.1c-1.54-.14-2.36-.83-2.36-2.13 0-1.44 1.22-2.3 2.9-2.3a4.45 4.45 0 0 1 2.83.85l-.76.75a3.36 3.36 0 0 0-2.1-.62c-1.15 0-1.76.5-1.76 1.3 0 .66.38 1.06 1.38 1.14l1.26.12c1.38.12 2.32.65 2.32 2.13 0 1.52-1.3 2.4-3.2 2.4zM761.37 507.07a1.93 1.93 0 0 1-2.02-2.1v-4.85h-1v-.88h1v-2.46h1.16v2.46h1.7v.88h-1.7v4.8c0 .73.34 1.16 1.08 1.16h.6v1zM774.1 507.07v-4.85a1.96 1.96 0 1 0-3.9-.13v4.97h-1.15v-4.85a1.83 1.83 0 0 0-1.94-2.1 1.86 1.86 0 0 0-1.96 2.1v4.85H764v-7.87h1.14v.86a2.87 2.87 0 0 1 2.23-.96 2.6 2.6 0 0 1 2.42 1.3 3 3 0 0 1 2.58-1.3 2.87 2.87 0 0 1 2.03.73 2.93 2.93 0 0 1 .86 2.2v5.04zM778.4 503.44c0 1.73.8 2.72 2.3 2.72a2.6 2.6 0 0 0 2.08-.9l.78.7a3.6 3.6 0 0 1-2.88 1.2c-2.08 0-3.44-1.24-3.44-4.03 0-2.54 1.23-4.03 3.23-4.03 2.03 0 3.24 1.47 3.24 3.8v.54zm3.9-2.18a2.02 2.02 0 0 0-3.67 0 3.3 3.3 0 0 0-.24 1.3h4.15a3.3 3.3 0 0 0-.24-1.3zM790.75 507.07v-4.85a1.83 1.83 0 0 0-1.93-2.1 1.85 1.85 0 0 0-1.95 2.1v4.85h-1.16v-7.87h1.17v.86a2.84 2.84 0 0 1 2.2-.96 2.76 2.76 0 0 1 2.02.73 2.9 2.9 0 0 1 .8 2.2v5.04zM796.4 507.07a1.93 1.93 0 0 1-2.02-2.1v-4.85h-1v-.88h1v-2.46h1.16v2.46h1.68v.88h-1.68v4.8c0 .73.33 1.16 1.07 1.16h.62v1zM806.6 507.17a4.06 4.06 0 0 1-2.9-1.2c-1.08-1.06-1.08-2.18-1.08-4.6s0-3.54 1.07-4.6a4.07 4.07 0 0 1 2.9-1.2 3.84 3.84 0 0 1 3.96 3.4h-1.25a2.7 2.7 0 0 0-2.7-2.3 2.74 2.74 0 0 0-1.96.8c-.72.73-.8 1.52-.8 3.9s.08 3.17.8 3.9a2.8 2.8 0 0 0 4.7-1.5h1.22a3.84 3.84 0 0 1-3.95 3.4zM817.84 506.27a3.3 3.3 0 0 1-4.52 0 5.6 5.6 0 0 1 0-6.27 3.3 3.3 0 0 1 4.52 0 5.6 5.6 0 0 1 0 6.27zm-.82-5.57a2.02 2.02 0 0 0-1.44-.58 1.98 1.98 0 0 0-1.42.58 4.94 4.94 0 0 0 0 4.87 1.98 1.98 0 0 0 1.42.57 2.02 2.02 0 0 0 1.44-.57 5.05 5.05 0 0 0 0-4.87zM830.98 507.07v-4.85a1.96 1.96 0 1 0-3.9-.13v4.97h-1.16v-4.85a1.83 1.83 0 0 0-1.94-2.1 1.86 1.86 0 0 0-1.97 2.1v4.85h-1.14v-7.87H822v.86a2.87 2.87 0 0 1 2.24-.96 2.6 2.6 0 0 1 2.42 1.3 3 3 0 0 1 2.6-1.3 2.87 2.87 0 0 1 2.02.73 2.93 2.93 0 0 1 .85 2.2v5.04zM839.8 506.48a2.74 2.74 0 0 1-1.93.7 2.55 2.55 0 0 1-2.22-1.04v4.45h-1.15v-11.4h1.15v.92a2.5 2.5 0 0 1 2.22-1.02 2.74 2.74 0 0 1 1.92.7 6.3 6.3 0 0 1 0 6.68zm-2.17-6.36c-1.7 0-1.98 1.48-1.98 3 0 1.55.27 3.02 1.98 3.02s1.97-1.47 1.97-3c0-1.54-.25-3.02-1.97-3.02zM847.4 507.07v-.75a2.77 2.77 0 0 1-2.27.85 2.8 2.8 0 0 1-2.22-.72 2.27 2.27 0 0 1-.58-1.6c0-1.38.96-2.28 2.72-2.28h2.37v-.75c0-1.15-.57-1.73-2-1.73a2.07 2.07 0 0 0-2 .9l-.78-.73a3.05 3.05 0 0 1 2.8-1.17c2.1 0 3.14.9 3.14 2.62v5.35zm0-3.63h-2.2c-1.2 0-1.76.48-1.76 1.4 0 .9.56 1.33 1.8 1.33a2.3 2.3 0 0 0 1.77-.52 1.82 1.82 0 0 0 .4-1.36zM855.95 507.07v-4.85a1.83 1.83 0 0 0-1.93-2.1 1.85 1.85 0 0 0-1.96 2.1v4.85h-1.15v-7.87h1.16v.86a2.84 2.84 0 0 1 2.2-.96 2.76 2.76 0 0 1 2.03.73 2.9 2.9 0 0 1 .8 2.2v5.04zM861.43 508.97a2.3 2.3 0 0 1-.56.93 2.16 2.16 0 0 1-1.54.55h-.5v-1.03h.36c.8 0 1.03-.25 1.28-.97l.56-1.54-2.83-7.7h1.26l2.16 6.32 2.15-6.32H865zM870.18 507.07v-11.4h1.22v10.3h5.82v1.1zM881 507.07a1.93 1.93 0 0 1-2.03-2.1v-4.85h-1v-.88h1v-2.46h1.15v2.46h1.68v.88h-1.68v4.8c0 .73.34 1.16 1.08 1.16h.6v1zM888.28 507.07v-.94a2.55 2.55 0 0 1-2.24 1.04 2.75 2.75 0 0 1-1.92-.7 6.3 6.3 0 0 1 0-6.68 2.75 2.75 0 0 1 1.92-.7 2.53 2.53 0 0 1 2.23 1v-4.43h1.15v11.4zm-1.98-6.95c-1.72 0-2 1.48-2 3 0 1.55.28 3.02 2 3.02 1.7 0 1.97-1.47 1.97-3 0-1.54-.26-3.02-1.97-3.02zM891.9 507.07v-1.5h1.5v1.5zM895.74 509.38v-3.72h1.4v2.45zM30.2 529.07L27.6 524h-2.73v5.07h-1.22v-11.4h4.37a3.08 3.08 0 0 1 3.38 3.17 2.96 2.96 0 0 1-2.48 3.06l2.7 5.17zm-2.3-10.3h-3.03v4.17h3.04a2.1 2.1 0 1 0 0-4.18zM38.45 529.07v-.88a2.9 2.9 0 0 1-2.22.97 2.8 2.8 0 0 1-2.04-.74 2.94 2.94 0 0 1-.8-2.2v-5.03h1.14v4.84c0 1.4.74 2.1 1.93 2.1a1.86 1.86 0 0 0 1.96-2.1v-4.84h1.16v7.87zM44.56 529.17a4.34 4.34 0 0 1-3.23-1.14l.76-.77a3.22 3.22 0 0 0 2.44.9c1.3 0 2.1-.45 2.1-1.38 0-.7-.4-1.07-1.3-1.15l-1.3-.1c-1.55-.14-2.36-.83-2.36-2.13 0-1.44 1.2-2.3 2.9-2.3a4.45 4.45 0 0 1 2.83.85l-.74.75a3.36 3.36 0 0 0-2.1-.62c-1.15 0-1.76.5-1.76 1.3 0 .66.38 1.06 1.37 1.14l1.27.12c1.38.12 2.32.65 2.32 2.13 0 1.52-1.3 2.4-3.2 2.4zM49.5 518.95v-1.3h1.3v1.3zm.06 10.12v-7.87h1.15v7.87zM57.6 529.07v-.75a2.77 2.77 0 0 1-2.26.85 2.8 2.8 0 0 1-2.23-.72 2.27 2.27 0 0 1-.58-1.6c0-1.38.96-2.28 2.72-2.28h2.37v-.75c0-1.15-.57-1.73-2-1.73a2.07 2.07 0 0 0-2 .9l-.78-.73a3.05 3.05 0 0 1 2.8-1.17c2.1 0 3.14.9 3.14 2.62v5.35zm0-3.63h-2.2c-1.2 0-1.76.48-1.76 1.4 0 .9.56 1.33 1.8 1.33a2.3 2.3 0 0 0 1.77-.52 1.82 1.82 0 0 0 .4-1.36zM61.2 531.38v-3.72h1.4v2.45zM68.44 529.07v-1.02l4.5-5.72a2.6 2.6 0 0 0 .63-1.68 2 2 0 1 0-3.97.02h-1.15a2.96 2.96 0 0 1 3.14-3.1 2.92 2.92 0 0 1 3.13 3.08 3.4 3.4 0 0 1-.92 2.3l-3.97 5.1h4.9v1.02zM79.72 529.17a3 3 0 0 1-3.12-3.14v-5.32a3.12 3.12 0 1 1 6.24 0v5.33a3 3 0 0 1-3.12 3.14zm1.97-8.4a1.98 1.98 0 1 0-3.95 0v5.2a1.98 1.98 0 1 0 3.94 0zM88 529.17a3 3 0 0 1-3.1-3.14v-5.32a3.12 3.12 0 1 1 6.23 0v5.33a3 3 0 0 1-3.12 3.14zm1.98-8.4a1.98 1.98 0 1 0-3.94 0v5.2a1.98 1.98 0 1 0 3.94 0zM96.2 529.18a3.03 3.03 0 0 1-3.34-3H94a2 2 0 0 0 2.2 1.98 2.1 2.1 0 0 0 2.2-2.2 1.98 1.98 0 0 0-2.25-2.22h-.24v-1h.25a1.83 1.83 0 0 0 2.04-2.07 1.9 1.9 0 0 0-2-2.08 1.93 1.93 0 0 0-2.05 1.9H93a3.03 3.03 0 0 1 3.2-2.94 2.95 2.95 0 0 1 3.14 3.1 2.55 2.55 0 0 1-1.54 2.52 2.67 2.67 0 0 1 1.75 2.78 3.1 3.1 0 0 1-3.35 3.22zM101.5 525.3v-1.08h4.4v1.07zM111.15 529.17a3 3 0 0 1-3.12-3.14v-5.32a3.12 3.12 0 1 1 6.24 0v5.33a3 3 0 0 1-3.12 3.14zm1.97-8.4a1.98 1.98 0 1 0-3.94 0v5.2a1.98 1.98 0 1 0 3.94 0zM121.76 523.42l-2.8 5.65h-1.2l2.56-5.12a3 3 0 0 1-4.17-3 3.1 3.1 0 0 1 3.16-3.37 3.03 3.03 0 0 1 3.18 3.28 5.62 5.62 0 0 1-.72 2.56zm-2.45-4.82a2.33 2.33 0 1 0 2.02 2.3 2.03 2.03 0 0 0-2-2.3zM125.76 529.2a5.9 5.9 0 0 1-1.15 1.38l-.8-.82a4.05 4.05 0 0 0 .87-1.04 2.88 2.88 0 0 0 .23-1.27v-8.16a2.9 2.9 0 0 0-.23-1.27 4.07 4.07 0 0 0-.88-1.04l.8-.83a5.9 5.9 0 0 1 1.16 1.38 3.3 3.3 0 0 1 .32 1.64v8.35a3.3 3.3 0 0 1-.32 1.65z"/>  <path class="cls-2" d="M159.92 465.03v-.96l4.22-5.36a2.44 2.44 0 0 0 .6-1.56 1.86 1.86 0 1 0-3.72 0h-1.08a2.77 2.77 0 0 1 2.94-2.88 2.74 2.74 0 0 1 2.94 2.88 3.2 3.2 0 0 1-.86 2.16l-3.73 4.77h4.6v.96zM170.5 465.12a2.82 2.82 0 0 1-2.9-2.94v-4.98a2.92 2.92 0 1 1 5.84 0v4.98a2.82 2.82 0 0 1-2.93 2.94zm1.86-7.86a1.85 1.85 0 1 0-3.7 0v4.86a1.85 1.85 0 1 0 3.7 0zM178.3 465.12a2.82 2.82 0 0 1-2.93-2.94v-4.98a2.92 2.92 0 1 1 5.84 0v4.98a2.82 2.82 0 0 1-2.9 2.94zm1.83-7.86a1.85 1.85 0 1 0-3.68 0v4.86a1.85 1.85 0 1 0 3.68 0zM188.15 463.33v1.7h-1.07v-1.7h-4.26v-.97l3.86-8h1.15l-3.85 8h3.1v-3.03h1.07v3.03h1.3v.97zM239.26 465.03v-.96l4.2-5.36a2.44 2.44 0 0 0 .6-1.56 1.86 1.86 0 1 0-3.7 0h-1.1a2.77 2.77 0 0 1 2.95-2.88 2.74 2.74 0 0 1 2.95 2.88 3.2 3.2 0 0 1-.85 2.16l-3.74 4.77h4.6v.96zM249.84 465.12a2.82 2.82 0 0 1-2.92-2.94v-4.98a2.92 2.92 0 1 1 5.85 0v4.98a2.82 2.82 0 0 1-2.93 2.94zm1.85-7.86a1.85 1.85 0 1 0-3.7 0v4.86a1.85 1.85 0 1 0 3.7 0zM257.62 465.12a2.82 2.82 0 0 1-2.92-2.94v-4.98a2.92 2.92 0 1 1 5.85 0v4.98a2.82 2.82 0 0 1-2.93 2.94zm1.85-7.86a1.85 1.85 0 1 0-3.7 0v4.86a1.85 1.85 0 1 0 3.7 0zM267.4 464.34a2.87 2.87 0 0 1-2.13.8 3 3 0 0 1-2.15-.77 2.87 2.87 0 0 1-.75-1.86h1.08a1.66 1.66 0 0 0 1.82 1.67 1.86 1.86 0 0 0 1.32-.5 2.98 2.98 0 0 0 .57-2.17c0-1.3-.25-2.6-1.8-2.6a1.7 1.7 0 0 0-1.77 1.06h-.97v-5.6h5.4v.95h-4.43v3.4a2.5 2.5 0 0 1 1.92-.74 2.54 2.54 0 0 1 1.85.68 3.84 3.84 0 0 1 .88 2.86 3.72 3.72 0 0 1-.85 2.84zM320.6 465.03v-.96l4.2-5.36a2.44 2.44 0 0 0 .6-1.56 1.86 1.86 0 1 0-3.7 0h-1.1a2.77 2.77 0 0 1 2.95-2.88 2.74 2.74 0 0 1 2.94 2.88 3.2 3.2 0 0 1-.87 2.16l-3.73 4.77h4.6v.96zM331.18 465.12a2.82 2.82 0 0 1-2.93-2.94v-4.98a2.92 2.92 0 1 1 5.85 0v4.98a2.82 2.82 0 0 1-2.92 2.94zm1.84-7.86a1.85 1.85 0 1 0-3.7 0v4.86a1.85 1.85 0 1 0 3.7 0zM338.96 465.12a2.82 2.82 0 0 1-2.93-2.94v-4.98a2.92 2.92 0 1 1 5.85 0v4.98a2.82 2.82 0 0 1-2.92 2.94zm1.84-7.86a1.85 1.85 0 1 0-3.7 0v4.86a1.85 1.85 0 1 0 3.7 0zM346.65 465.12a2.84 2.84 0 0 1-2.97-3.08 5.27 5.27 0 0 1 .67-2.4l2.63-5.3h1.1l-2.38 4.8a2.7 2.7 0 0 1 1.13-.22 2.78 2.78 0 0 1 2.77 3.03 2.92 2.92 0 0 1-2.95 3.17zm-.02-5.28a2.18 2.18 0 1 0 1.9 2.16 1.93 1.93 0 0 0-1.9-2.16zM395.6 465.03v-.96l4.2-5.36a2.44 2.44 0 0 0 .6-1.56 1.86 1.86 0 1 0-3.72 0h-1.08a2.77 2.77 0 0 1 2.94-2.88 2.74 2.74 0 0 1 2.94 2.88 3.2 3.2 0 0 1-.85 2.16l-3.74 4.77h4.58v.96zM406.17 465.12a2.82 2.82 0 0 1-2.92-2.94v-4.98a2.92 2.92 0 1 1 5.85 0v4.98a2.82 2.82 0 0 1-2.93 2.94zm1.85-7.86a1.85 1.85 0 1 0-3.7 0v4.86a1.85 1.85 0 1 0 3.7 0zM413.95 465.12a2.82 2.82 0 0 1-2.92-2.94v-4.98a2.92 2.92 0 1 1 5.85 0v4.98a2.82 2.82 0 0 1-2.93 2.94zm1.85-7.86a1.85 1.85 0 1 0-3.7 0v4.86a1.85 1.85 0 1 0 3.7 0zM420.98 465.03h-1.14l3.7-9.72h-3.72v1.7h-1.06v-2.65h5.92v.96zM476.92 465.03v-.96l4.22-5.36a2.44 2.44 0 0 0 .6-1.56 1.86 1.86 0 1 0-3.72 0h-1.08a2.77 2.77 0 0 1 2.94-2.88 2.74 2.74 0 0 1 2.94 2.88 3.2 3.2 0 0 1-.86 2.16l-3.73 4.77h4.6v.96zM487.5 465.12a2.82 2.82 0 0 1-2.92-2.94v-4.98a2.92 2.92 0 1 1 5.85 0v4.98a2.82 2.82 0 0 1-2.92 2.94zm1.85-7.86a1.85 1.85 0 1 0-3.7 0v4.86a1.85 1.85 0 1 0 3.7 0zM495.3 465.12a2.82 2.82 0 0 1-2.94-2.94v-4.98a2.92 2.92 0 1 1 5.85 0v4.98a2.82 2.82 0 0 1-2.9 2.94zm1.83-7.86a1.85 1.85 0 1 0-3.7 0v4.86a1.85 1.85 0 1 0 3.7 0zM503.05 465.12a3 3 0 0 1-3.15-3.03 2.9 2.9 0 0 1 1.6-2.6 2.6 2.6 0 0 1-1.4-2.38 2.94 2.94 0 0 1 5.9 0 2.6 2.6 0 0 1-1.4 2.37 2.9 2.9 0 0 1 1.6 2.6 3 3 0 0 1-3.15 3.02zm0-5.13a2.08 2.08 0 1 0 2.07 2.07 2.04 2.04 0 0 0-2.07-2.08zm0-4.78a1.82 1.82 0 0 0-1.86 1.92 1.86 1.86 0 1 0 3.7 0 1.82 1.82 0 0 0-1.85-1.92zM554.72 465.03v-.96l4.2-5.36a2.44 2.44 0 0 0 .6-1.56 1.86 1.86 0 1 0-3.7 0h-1.1a2.77 2.77 0 0 1 2.95-2.88 2.74 2.74 0 0 1 2.94 2.88 3.2 3.2 0 0 1-.84 2.16l-3.74 4.77h4.6v.96zM565.3 465.12a2.82 2.82 0 0 1-2.92-2.94v-4.98a2.92 2.92 0 1 1 5.85 0v4.98a2.82 2.82 0 0 1-2.93 2.94zm1.85-7.86a1.85 1.85 0 1 0-3.7 0v4.86a1.85 1.85 0 1 0 3.7 0zM573.08 465.12a2.82 2.82 0 0 1-2.92-2.94v-4.98a2.92 2.92 0 1 1 5.85 0v4.98a2.82 2.82 0 0 1-2.92 2.94zm1.85-7.86a1.85 1.85 0 1 0-3.7 0v4.86a1.85 1.85 0 1 0 3.7 0zM583.03 459.73l-2.62 5.3h-1.12l2.4-4.8a2.8 2.8 0 0 1-3.9-2.8 2.92 2.92 0 0 1 2.96-3.17 2.84 2.84 0 0 1 2.97 3.07 5.26 5.26 0 0 1-.67 2.4zm-2.3-4.5a2.18 2.18 0 1 0 1.9 2.15 1.9 1.9 0 0 0-1.9-2.16zM636.05 465.03v-.96l4.22-5.36a2.44 2.44 0 0 0 .6-1.56 1.86 1.86 0 1 0-3.72 0h-1.08a2.77 2.77 0 0 1 2.94-2.88 2.74 2.74 0 0 1 2.95 2.88 3.2 3.2 0 0 1-.86 2.16l-3.74 4.77h4.6v.96zM646.64 465.12a2.82 2.82 0 0 1-2.93-2.94v-4.98a2.92 2.92 0 1 1 5.86 0v4.98a2.82 2.82 0 0 1-2.92 2.94zm1.84-7.86a1.85 1.85 0 1 0-3.7 0v4.86a1.85 1.85 0 1 0 3.7 0zM653.8 465.03v-9.48l-2 1.75v-1.23l2-1.72h1.08v10.68zM660.72 465.12a2.82 2.82 0 0 1-2.92-2.94v-4.98a2.92 2.92 0 1 1 5.85 0v4.98a2.82 2.82 0 0 1-2.93 2.94zm1.85-7.86a1.85 1.85 0 1 0-3.7 0v4.86a1.85 1.85 0 1 0 3.7 0zM714.02 465.03v-.96l4.2-5.36a2.44 2.44 0 0 0 .6-1.56 1.86 1.86 0 1 0-3.7 0h-1.08a2.77 2.77 0 0 1 2.93-2.88 2.74 2.74 0 0 1 2.95 2.88 3.2 3.2 0 0 1-.86 2.16l-3.73 4.77h4.58v.96zM724.6 465.12a2.82 2.82 0 0 1-2.92-2.94v-4.98a2.92 2.92 0 1 1 5.85 0v4.98a2.82 2.82 0 0 1-2.92 2.94zm1.85-7.86a1.85 1.85 0 1 0-3.7 0v4.86a1.85 1.85 0 1 0 3.7 0zM731.77 465.03v-9.48l-2 1.75v-1.23l2-1.72h1.08v10.68zM738.02 465.03v-9.48l-2 1.75v-1.23l2-1.72h1.08v10.68zM795.35 465.03v-.96l4.22-5.36a2.44 2.44 0 0 0 .6-1.56 1.86 1.86 0 1 0-3.72 0h-1.08a2.77 2.77 0 0 1 2.94-2.88 2.74 2.74 0 0 1 2.95 2.88 3.2 3.2 0 0 1-.86 2.16l-3.74 4.77h4.6v.96zM805.94 465.12a2.82 2.82 0 0 1-2.93-2.94v-4.98a2.92 2.92 0 1 1 5.86 0v4.98a2.81 2.81 0 0 1-2.92 2.94zm1.84-7.86a1.85 1.85 0 1 0-3.7 0v4.86a1.85 1.85 0 1 0 3.7 0zM813.1 465.03v-9.48l-2 1.75v-1.23l2-1.72h1.08v10.68zM816.93 465.03v-.96l4.22-5.36a2.44 2.44 0 0 0 .6-1.56 1.86 1.86 0 1 0-3.72 0h-1.08a2.77 2.77 0 0 1 2.94-2.88 2.74 2.74 0 0 1 2.93 2.88 3.2 3.2 0 0 1-.86 2.16l-3.73 4.77h4.6v.96zM874.02 465.03v-.96l4.2-5.36a2.44 2.44 0 0 0 .6-1.56 1.86 1.86 0 1 0-3.7 0h-1.08a2.77 2.77 0 0 1 2.93-2.88 2.74 2.74 0 0 1 2.95 2.88 3.2 3.2 0 0 1-.86 2.16l-3.73 4.77h4.58v.96zM884.6 465.12a2.82 2.82 0 0 1-2.92-2.94v-4.98a2.92 2.92 0 1 1 5.85 0v4.98a2.82 2.82 0 0 1-2.92 2.94zm1.85-7.86a1.85 1.85 0 1 0-3.7 0v4.86a1.85 1.85 0 1 0 3.7 0zM891.77 465.03v-9.48l-2 1.75v-1.23l2-1.72h1.08v10.68zM898.54 465.13a2.84 2.84 0 0 1-3.13-2.82h1.1a1.9 1.9 0 0 0 2.04 1.87 1.96 1.96 0 0 0 2.06-2.07 1.86 1.86 0 0 0-2.1-2.07h-.23v-.94h.23a1.72 1.72 0 0 0 1.9-1.95 1.8 1.8 0 0 0-1.86-1.95 1.8 1.8 0 0 0-1.92 1.8h-1.08a2.84 2.84 0 0 1 3-2.76 2.77 2.77 0 0 1 2.94 2.9 2.4 2.4 0 0 1-1.44 2.37 2.5 2.5 0 0 1 1.64 2.62 2.9 2.9 0 0 1-3.14 3zM41.34 355.92v1.7h-1.07v-1.7H36v-.98l3.87-8h1.15l-3.85 8h3.1v-3.03h1.07v3.04h1.3v.98zM47.18 357.7a2.82 2.82 0 0 1-2.93-2.94v-4.98a2.92 2.92 0 1 1 5.85 0v4.98a2.82 2.82 0 0 1-2.92 2.94zm1.84-7.86a1.85 1.85 0 1 0-3.7 0v4.86a1.85 1.85 0 1 0 3.7 0zM39.52 318.67a2.84 2.84 0 0 1-2.97-3.08 5.27 5.27 0 0 1 .68-2.4l2.62-5.3h1.1l-2.37 4.8a2.7 2.7 0 0 1 1.12-.23 2.78 2.78 0 0 1 2.78 3.03 2.92 2.92 0 0 1-2.96 3.17zm0-5.28a2.18 2.18 0 1 0 1.88 2.15 1.93 1.93 0 0 0-1.9-2.16zM47.18 318.67a2.82 2.82 0 0 1-2.93-2.94v-4.98a2.92 2.92 0 1 1 5.85 0v4.98a2.82 2.82 0 0 1-2.92 2.94zm1.84-7.86a1.85 1.85 0 1 0-3.7 0v4.87a1.85 1.85 0 1 0 3.7 0zM39.4 279.38a3 3 0 0 1-3.14-3.03 2.9 2.9 0 0 1 1.6-2.6 2.6 2.6 0 0 1-1.4-2.37 2.94 2.94 0 0 1 5.9 0 2.6 2.6 0 0 1-1.4 2.37 2.9 2.9 0 0 1 1.6 2.6 3 3 0 0 1-3.15 3.03zm0-5.13a2.08 2.08 0 1 0 2.08 2.08 2.04 2.04 0 0 0-2.07-2.08zm0-4.77a1.82 1.82 0 0 0-1.85 1.92 1.86 1.86 0 1 0 3.72 0 1.82 1.82 0 0 0-1.86-1.92zM47.18 279.38a2.82 2.82 0 0 1-2.93-2.94v-4.98a2.92 2.92 0 1 1 5.85 0v4.98a2.82 2.82 0 0 1-2.92 2.94zm1.84-7.86a1.85 1.85 0 1 0-3.7 0v4.86a1.85 1.85 0 1 0 3.7 0zM32.48 240.26v-9.48l-2 1.75v-1.23l2-1.72h1.08v10.68zM39.4 240.35a2.82 2.82 0 0 1-2.93-2.94v-4.97a2.92 2.92 0 1 1 5.85 0v4.98a2.82 2.82 0 0 1-2.92 2.95zm1.84-7.86a1.85 1.85 0 1 0-3.7 0v4.85a1.85 1.85 0 1 0 3.7 0zM47.18 240.35a2.82 2.82 0 0 1-2.93-2.94v-4.97a2.92 2.92 0 1 1 5.85 0v4.98a2.82 2.82 0 0 1-2.92 2.95zm1.84-7.86a1.85 1.85 0 1 0-3.7 0v4.85a1.85 1.85 0 1 0 3.7 0zM32.76 200.84v-9.48l-2 1.76v-1.23l2-1.74h1.08v10.68zM36.6 200.84v-.96l4.2-5.35a2.44 2.44 0 0 0 .6-1.58 1.86 1.86 0 1 0-3.7.02h-1.1a2.77 2.77 0 0 1 2.94-2.9 2.74 2.74 0 0 1 2.95 2.88 3.2 3.2 0 0 1-.87 2.16l-3.73 4.78h4.6v.96zM47.18 200.93a2.82 2.82 0 0 1-2.93-2.94v-5a2.92 2.92 0 1 1 5.85 0v5a2.82 2.82 0 0 1-2.92 2.93zm1.84-7.86a1.85 1.85 0 1 0-3.7 0v4.86a1.85 1.85 0 1 0 3.7 0zM32.4 161.8v-9.47l-2 1.75v-1.23l2-1.72h1.07v10.68zM41.34 160.1v1.7h-1.07v-1.7H36v-.96l3.87-8h1.15l-3.85 8h3.1v-3.03h1.07v3.04h1.3v.97zM47.18 161.9a2.82 2.82 0 0 1-2.93-2.94v-4.98a2.92 2.92 0 1 1 5.85 0v4.98a2.82 2.82 0 0 1-2.92 2.94zm1.84-7.86a1.85 1.85 0 1 0-3.7 0v4.86a1.85 1.85 0 1 0 3.7 0zM32.75 121.84v-9.48l-2 1.75v-1.22l2-1.72h1.08v10.68zM39.52 121.93a2.84 2.84 0 0 1-2.97-3.08 5.27 5.27 0 0 1 .68-2.4l2.62-5.3h1.1l-2.37 4.8a2.7 2.7 0 0 1 1.12-.22 2.78 2.78 0 0 1 2.78 3.03 2.92 2.92 0 0 1-2.96 3.17zm0-5.28a2.18 2.18 0 1 0 1.88 2.16 1.93 1.93 0 0 0-1.9-2.15zM47.18 121.93a2.82 2.82 0 0 1-2.93-2.94v-5a2.92 2.92 0 1 1 5.85 0v5a2.82 2.82 0 0 1-2.92 2.93zm1.84-7.86a1.85 1.85 0 1 0-3.7 0v4.86a1.85 1.85 0 1 0 3.7 0zM32.53 82.8v-9.47l-2 1.75v-1.23l2-1.72h1.08V82.8zM39.4 82.9a3 3 0 0 1-3.14-3.03 2.9 2.9 0 0 1 1.6-2.6 2.6 2.6 0 0 1-1.4-2.37 2.94 2.94 0 0 1 5.9 0 2.6 2.6 0 0 1-1.4 2.37 2.9 2.9 0 0 1 1.6 2.6 3 3 0 0 1-3.15 3.03zm0-5.13a2.08 2.08 0 1 0 2.08 2.08 2.04 2.04 0 0 0-2.07-2.08zm0-4.77a1.82 1.82 0 0 0-1.85 1.92 1.86 1.86 0 1 0 3.72 0A1.82 1.82 0 0 0 39.4 73zM47.18 82.9a2.82 2.82 0 0 1-2.93-2.94v-4.98a2.92 2.92 0 1 1 5.85 0v4.98a2.82 2.82 0 0 1-2.92 2.94zm1.84-7.86a1.85 1.85 0 1 0-3.7 0v4.86a1.85 1.85 0 1 0 3.7 0z"/>  <path class="cls-5" d="M515.02 187.16a5.16 5.16 0 0 1-3.74-1.52c-1.4-1.4-1.38-2.98-1.38-5.72 0-2.74-.02-4.32 1.38-5.72a5.16 5.16 0 0 1 3.74-1.52 4.9 4.9 0 0 1 5.08 4.38h-2.2a2.94 2.94 0 0 0-4.98-1.58c-.7.76-.86 1.58-.86 4.44 0 2.86.16 3.68.86 4.44a2.84 2.84 0 0 0 2.1.86 2.88 2.88 0 0 0 2.9-2.44h2.18a4.92 4.92 0 0 1-5.08 4.38zM529.2 185.96a4.1 4.1 0 0 1-3.03 1.2 4.06 4.06 0 0 1-3.02-1.2c-.96-1-1.2-2.28-1.2-4a5.32 5.32 0 0 1 1.2-3.98 4.05 4.05 0 0 1 3.02-1.2 4.1 4.1 0 0 1 3.04 1.2 5.32 5.32 0 0 1 1.2 3.98c0 1.72-.23 3-1.2 4zm-1.53-6.78a2.06 2.06 0 0 0-1.5-.58 2.02 2.02 0 0 0-1.48.58 5.87 5.87 0 0 0 0 5.56 2.03 2.03 0 0 0 1.47.6 2.08 2.08 0 0 0 1.5-.6 5.87 5.87 0 0 0 0-5.56zM538.84 187.04v-6.18a1.97 1.97 0 0 0-2.04-2.26 2.02 2.02 0 0 0-2.1 2.26v6.18h-2.04V176.9h2v1.02a3.63 3.63 0 0 1 2.7-1.14 3.52 3.52 0 0 1 2.5.92 3.73 3.73 0 0 1 1.02 2.86v6.48zM546.9 187.16a5.58 5.58 0 0 1-4.26-1.46l1.34-1.34a3.94 3.94 0 0 0 2.92 1.06c1.24 0 2.22-.44 2.22-1.4 0-.68-.38-1.12-1.36-1.2l-1.62-.14c-1.9-.16-3-1.02-3-2.8 0-1.98 1.7-3.1 3.82-3.1a5.56 5.56 0 0 1 3.76 1.14l-1.28 1.3a3.83 3.83 0 0 0-2.5-.74c-1.22 0-1.84.54-1.84 1.3 0 .6.32 1.06 1.4 1.16l1.6.14c1.9.16 3.03 1.06 3.03 2.86 0 2.12-1.8 3.22-4.23 3.22zM556.33 187.04a2.64 2.64 0 0 1-2.78-2.82v-5.58h-1.16v-1.56h1.15V174h2.04v3.08h1.95v1.56h-1.96v5.48a1.03 1.03 0 0 0 1.1 1.18h.85v1.74zM565.1 179.28a1.88 1.88 0 0 0-1.52-.68 2.1 2.1 0 0 0-2.03 2.28v6.16h-2.04V176.9h2v1.1a3.37 3.37 0 0 1 2.7-1.22 3.14 3.14 0 0 1 2.44.96zM574.32 187.04v-1.02a3.62 3.62 0 0 1-2.7 1.14 3.52 3.52 0 0 1-2.5-.92 3.73 3.73 0 0 1-1.02-2.86v-6.48h2.04v6.18a1.97 1.97 0 0 0 2.04 2.26 2.02 2.02 0 0 0 2.1-2.26v-6.18h2.04v10.14zM583.02 187.16c-2.28 0-4.52-1.4-4.52-5.2s2.24-5.18 4.52-5.18a4.16 4.16 0 0 1 3.34 1.42l-1.4 1.36a2.36 2.36 0 0 0-1.94-.96 2.28 2.28 0 0 0-1.88.9 3.75 3.75 0 0 0-.6 2.46 3.8 3.8 0 0 0 .6 2.48 2.3 2.3 0 0 0 1.88.9 2.36 2.36 0 0 0 1.94-.96l1.4 1.34a4.18 4.18 0 0 1-3.34 1.44zM592.02 187.16c-2.28 0-4.52-1.4-4.52-5.2s2.24-5.18 4.52-5.18a4.16 4.16 0 0 1 3.35 1.42l-1.4 1.36a2.36 2.36 0 0 0-1.95-.96 2.28 2.28 0 0 0-1.88.9 3.75 3.75 0 0 0-.6 2.46 3.8 3.8 0 0 0 .6 2.48 2.3 2.3 0 0 0 1.88.9 2.36 2.36 0 0 0 1.94-.96l1.4 1.34a4.18 4.18 0 0 1-3.34 1.44zM597.16 174.9v-2.16h2.16v2.16zm.06 12.14V176.9h2.04v10.14zM608.73 185.96a4.1 4.1 0 0 1-3.04 1.2 4.06 4.06 0 0 1-3.03-1.2c-.96-1-1.2-2.28-1.2-4a5.32 5.32 0 0 1 1.2-3.98 4.05 4.05 0 0 1 3.02-1.2 4.1 4.1 0 0 1 3.03 1.2 5.32 5.32 0 0 1 1.2 3.98c0 1.72-.24 3-1.2 4zm-1.54-6.78a2.06 2.06 0 0 0-1.5-.58 2.02 2.02 0 0 0-1.5.58 5.87 5.87 0 0 0 0 5.56 2.03 2.03 0 0 0 1.5.6 2.08 2.08 0 0 0 1.5-.6 5.87 5.87 0 0 0 0-5.56zm-1-4.12h-1.55l1.5-3.24h2.26zM618.36 187.04v-6.18a1.97 1.97 0 0 0-2.04-2.26 2.02 2.02 0 0 0-2.1 2.26v6.18h-2.04V176.9h2v1.02a3.63 3.63 0 0 1 2.7-1.14 3.52 3.52 0 0 1 2.5.92 3.72 3.72 0 0 1 1.02 2.86v6.48z"/>  <path class="cls-6" d="M71.6 400.4s155.56-32.3 170.77-69.8 45.62-145.5 51.7-178.5 34.98-75.6 50.18-69.3 15.2 21.3 38.02 61.8 79.5 99 95.26 109.5 70.5 61.5 93.3 75 66.9 30 124.7 36 48.65 12.9 85.14 15.45c28.25 1.97 92 4.46 119.4 5.48"/>  <path class="cls-7" d="M897.1 394.88l15.87-8.37-15.2-9.56-.68 17.94"/>  <path class="cls-8" d="M254.33 180h236.95"/>  <path class="cls-5" d="M253.33 173.5h2v13h-2zM490.28 173.5h2v13h-2z"/></svg>