<?xml version="1.0" encoding="utf-8"?>
<!-- Generator: Adobe Illustrator 21.1.0, SVG Export Plug-In . SVG Version: 6.00 Build 0)  -->
<svg version="1.1" xmlns="http://www.w3.org/2000/svg" xmlns:xlink="http://www.w3.org/1999/xlink" x="0px" y="0px"
	 viewBox="0 0 944 312.1" style="enable-background:new 0 0 944 312.1;" xml:space="preserve">
<style type="text/css">
	.st0{fill:#1D8CB2;}
	.st1{fill:#E8800F;}
	.st2{fill:none;stroke:#FFFFFF;stroke-width:2;stroke-linecap:round;stroke-linejoin:round;}
	.st3{fill:#FFFFFF;}
	.st4{fill:#59AD40;}
	.st5{fill:#5D5D5D;}
	.st6{fill:#AD3588;stroke:#FFFFFF;stroke-width:2;stroke-miterlimit:10;}
	.st7{fill:#362F2D;}
	.st8{fill:none;stroke:#A8A8A8;stroke-miterlimit:10;}
	.st9{fill:#AD3588;}
	.st10{fill:#5F6062;}
	.st11{fill:none;stroke:#999999;stroke-width:3;stroke-miterlimit:10;}
	.st12{fill:#999999;}
	.st13{fill:none;stroke:#E8800F;stroke-width:2;stroke-miterlimit:10;}
	.st14{fill:none;stroke:#5D5D5D;stroke-miterlimit:10;}
	.st15{fill:none;stroke:#E8800F;stroke-width:3;stroke-miterlimit:10;}
	.st16{fill:none;stroke:#59AD40;stroke-width:3;stroke-miterlimit:10;}
	.st17{fill:none;stroke:#AD3588;stroke-width:3;stroke-miterlimit:10;}
	.st18{fill:none;stroke:#1D8CB2;stroke-width:3;stroke-miterlimit:10;}
	.st19{fill:none;stroke:#5D5D5D;stroke-width:2;stroke-miterlimit:10;}
	.st20{fill:none;stroke:#5D5D5D;stroke-width:3;stroke-miterlimit:10;}
	.st21{display:none;}
	.st22{display:inline;}
	.st23{display:inline;fill:#1D8CB2;}
	.st24{display:inline;fill:#E8800F;}
	.st25{display:inline;fill:#59AD40;}
	.st26{display:inline;fill:#FFFFFF;}
	.st27{display:inline;fill:#AD3588;stroke:#FFFFFF;stroke-width:2;stroke-miterlimit:10;}
	.st28{display:inline;fill:none;stroke:#5D5D5D;stroke-miterlimit:10;}
	.st29{display:inline;fill:#362F2D;}
	.st30{font-family:'DINCondensed-Bold';}
	.st31{font-size:34px;}
	.st32{font-size:29px;}
	.st33{display:inline;fill:none;}
	.st34{font-family:'DIN-Medium';}
	.st35{font-size:20px;}
	.st36{display:inline;fill:#AD3588;}
</style>
<g id="Layer_1">
	<g>
		<path class="st7" d="M26.6,22.9h10.3v3.3h-6.9v7.1h6v3.3h-6v7.1h6.9v3.5H26.6V22.9z M32.4,17h3.7l-4.5,4.8h-2.2L32.4,17z"/>
		<path class="st7" d="M38.8,22.9h3.5v20.7h6.9v3.5H38.8V22.9z"/>
		<path class="st7" d="M55.6,22.9h2.9l5.4,24.2h-3.5l-1-5.2h-4.7l-1,5.2h-3.5L55.6,22.9z M57,29.8L57,29.8l-1.8,8.8h3.5L57,29.8z"/>
		<path class="st7" d="M65.4,22.9h5.1c1.1,0,2.1,0.2,2.8,0.5c0.8,0.3,1.4,0.8,1.9,1.4c0.5,0.6,0.9,1.2,1.1,2s0.3,1.5,0.3,2.3v0.9
			c0,0.7-0.1,1.2-0.2,1.7c-0.1,0.5-0.3,0.8-0.5,1.2c-0.2,0.3-0.5,0.6-0.7,0.9c-0.3,0.3-0.6,0.5-1,0.7c0.8,0.4,1.4,1,1.8,1.7
			c0.4,0.8,0.6,1.8,0.6,3v1.4c0,2.1-0.5,3.8-1.5,4.9c-1,1.1-2.7,1.7-4.9,1.7h-4.7V22.9z M68.9,32.8h1.6c1.2,0,1.9-0.3,2.3-0.9
			c0.4-0.6,0.6-1.4,0.6-2.5c0-1.1-0.2-1.9-0.7-2.4s-1.2-0.8-2.4-0.8h-1.4V32.8z M68.9,43.6h1.5c0.7,0,1.3-0.1,1.7-0.3
			c0.4-0.2,0.7-0.5,0.9-0.8c0.2-0.4,0.3-0.8,0.4-1.3c0-0.5,0.1-1,0.1-1.6c0-0.6,0-1.1-0.1-1.6c-0.1-0.5-0.2-0.8-0.4-1.1
			c-0.2-0.3-0.5-0.5-0.9-0.7c-0.4-0.2-0.9-0.2-1.5-0.2h-1.5V43.6z"/>
		<path class="st7" d="M78.9,28.6c0-1,0.2-1.8,0.5-2.6c0.3-0.7,0.8-1.4,1.3-1.9s1.2-0.9,1.9-1.1c0.7-0.2,1.4-0.4,2.1-0.4
			s1.4,0.1,2.1,0.4c0.7,0.2,1.3,0.6,1.9,1.1s1,1.1,1.3,1.9s0.5,1.6,0.5,2.6v12.8c0,1-0.2,1.9-0.5,2.6c-0.3,0.7-0.8,1.3-1.3,1.8
			c-0.6,0.5-1.2,0.9-1.9,1.1s-1.4,0.4-2.1,0.4s-1.4-0.1-2.1-0.4c-0.7-0.2-1.3-0.6-1.9-1.1c-0.6-0.5-1-1.1-1.3-1.8
			c-0.3-0.7-0.5-1.6-0.5-2.6V28.6z M82.3,41.4c0,0.8,0.2,1.5,0.7,1.9c0.5,0.4,1,0.6,1.6,0.6s1.2-0.2,1.6-0.6c0.5-0.4,0.7-1,0.7-1.9
			V28.6c0-0.8-0.2-1.5-0.7-1.9s-1-0.6-1.6-0.6s-1.2,0.2-1.6,0.6s-0.7,1-0.7,1.9V41.4z"/>
		<path class="st7" d="M92.7,22.9h5.6c4.1,0,6.1,2.4,6.1,7.1c0,1.4-0.2,2.6-0.7,3.6c-0.4,1-1.2,1.8-2.3,2.4l3.7,11h-3.7l-3.2-10.3
			h-2.1v10.3h-3.5V22.9z M96.2,33.7h2c0.6,0,1.1-0.1,1.5-0.3s0.6-0.4,0.8-0.7c0.2-0.3,0.3-0.7,0.4-1.2s0.1-1,0.1-1.6s0-1.2-0.1-1.6
			c-0.1-0.5-0.2-0.9-0.4-1.2c-0.2-0.3-0.5-0.6-0.9-0.7c-0.4-0.2-0.9-0.2-1.5-0.2h-1.8V33.7z"/>
		<path class="st7" d="M106.9,22.9h10.3v3.3h-6.9v7.1h6v3.3h-6v7.1h6.9v3.5h-10.3V22.9z"/>
		<path class="st7" d="M119.1,22.9h5.6c4.1,0,6.1,2.4,6.1,7.1c0,1.4-0.2,2.6-0.7,3.6c-0.4,1-1.2,1.8-2.3,2.4l3.7,11h-3.7l-3.2-10.3
			h-2.1v10.3h-3.5V22.9z M122.5,33.7h2c0.6,0,1.1-0.1,1.5-0.3c0.4-0.2,0.6-0.4,0.8-0.7s0.3-0.7,0.4-1.2c0.1-0.5,0.1-1,0.1-1.6
			s0-1.2-0.1-1.6c-0.1-0.5-0.2-0.9-0.4-1.2c-0.2-0.3-0.5-0.6-0.9-0.7c-0.4-0.2-0.9-0.2-1.5-0.2h-1.8V33.7z"/>
		<path class="st7" d="M150.1,41.6c0,0.8-0.1,1.5-0.4,2.2c-0.3,0.7-0.7,1.3-1.2,1.8c-0.5,0.5-1.1,0.9-1.8,1.2
			c-0.7,0.3-1.4,0.4-2.2,0.4s-1.5-0.1-2.2-0.4c-0.7-0.3-1.3-0.7-1.8-1.2c-0.5-0.5-0.9-1.1-1.2-1.8c-0.3-0.7-0.4-1.4-0.4-2.2V22.9
			h3.5v18.4c0,0.9,0.2,1.5,0.6,1.9s0.9,0.6,1.5,0.6s1.1-0.2,1.5-0.6c0.4-0.4,0.6-1,0.6-1.9V22.9h3.5V41.6z"/>
		<path class="st7" d="M152.4,22.9h3.3l5.2,14.6h0.1V22.9h3.5v24.2h-3.3L156,32.5h-0.1v14.6h-3.5V22.9z"/>
		<path class="st7" d="M173,22.9h3.3l4.5,12.8h0.1l4.4-12.8h3.4v24.2h-3.5V32.4h-0.1l-3.4,10.4h-1.7l-3.4-10.4h-0.1v14.7H173V22.9z"
			/>
		<path class="st7" d="M191,22.9h10.3v3.3h-6.9v7.1h6v3.3h-6v7.1h6.9v3.5H191V22.9z M196.9,17h3.7l-4.5,4.8h-2.2L196.9,17z"/>
		<path class="st7" d="M214.3,41.7c0,0.7-0.1,1.5-0.4,2.1c-0.3,0.7-0.7,1.3-1.2,1.8c-0.5,0.5-1.1,0.9-1.8,1.2
			c-0.7,0.3-1.4,0.5-2.2,0.5c-0.7,0-1.3-0.1-2-0.3c-0.7-0.2-1.3-0.5-1.8-0.9c-0.5-0.4-1-1-1.3-1.8s-0.5-1.6-0.5-2.8V28.2
			c0-0.8,0.1-1.5,0.4-2.2c0.3-0.7,0.7-1.3,1.2-1.8c0.5-0.5,1.1-0.9,1.8-1.2c0.7-0.3,1.5-0.4,2.3-0.4c0.8,0,1.5,0.1,2.2,0.4
			c0.7,0.3,1.3,0.7,1.8,1.2c0.5,0.5,0.9,1.1,1.2,1.8s0.4,1.5,0.4,2.3v1.4h-3.5v-1.2c0-0.7-0.2-1.3-0.6-1.8c-0.4-0.5-0.9-0.7-1.6-0.7
			c-0.9,0-1.4,0.3-1.7,0.8c-0.3,0.5-0.4,1.2-0.4,2v12.4c0,0.7,0.2,1.3,0.5,1.8c0.3,0.5,0.9,0.7,1.6,0.7c0.2,0,0.5,0,0.7-0.1
			c0.3-0.1,0.5-0.2,0.7-0.4c0.2-0.2,0.4-0.4,0.5-0.7c0.1-0.3,0.2-0.7,0.2-1.2v-1.2h3.5V41.7z"/>
		<path class="st7" d="M220.5,22.9h2.9l5.4,24.2h-3.5l-1-5.2h-4.7l-1,5.2h-3.5L220.5,22.9z M222,29.8L222,29.8l-1.8,8.8h3.5
			L222,29.8z"/>
		<path class="st7" d="M230.3,22.9h3.3l5.2,14.6h0.1V22.9h3.5v24.2h-3.3l-5.3-14.6h-0.1v14.6h-3.5V22.9z"/>
		<path class="st7" d="M244.8,22.9h3.5v24.2h-3.5V22.9z"/>
		<path class="st7" d="M262.2,29.8h-3.5v-0.8c0-0.8-0.2-1.5-0.6-2.1c-0.4-0.6-1-0.9-1.9-0.9c-0.5,0-0.9,0.1-1.2,0.3
			s-0.5,0.4-0.7,0.7s-0.3,0.6-0.4,1c-0.1,0.4-0.1,0.8-0.1,1.2c0,0.5,0,0.9,0.1,1.2c0,0.3,0.1,0.6,0.3,0.9c0.1,0.2,0.3,0.4,0.6,0.6
			c0.3,0.2,0.6,0.4,1.1,0.5l2.7,1.1c0.8,0.3,1.4,0.6,1.9,1c0.5,0.4,0.8,0.9,1.1,1.4c0.3,0.5,0.4,1.1,0.5,1.8
			c0.1,0.7,0.1,1.5,0.1,2.4c0,1-0.1,2-0.3,2.8c-0.2,0.9-0.5,1.6-1,2.2c-0.5,0.6-1.1,1.1-1.9,1.5c-0.8,0.4-1.7,0.5-2.8,0.5
			c-0.8,0-1.6-0.1-2.3-0.4c-0.7-0.3-1.3-0.7-1.9-1.2c-0.5-0.5-0.9-1.1-1.2-1.8c-0.3-0.7-0.5-1.5-0.5-2.3v-1.3h3.5v1.1
			c0,0.6,0.2,1.2,0.6,1.7c0.4,0.5,1,0.8,1.9,0.8c0.6,0,1-0.1,1.4-0.3c0.3-0.2,0.6-0.4,0.7-0.7c0.2-0.3,0.3-0.7,0.3-1.1
			c0-0.5,0.1-1,0.1-1.5c0-0.6,0-1.2-0.1-1.6c0-0.4-0.1-0.7-0.3-1c-0.1-0.2-0.4-0.5-0.6-0.6c-0.3-0.2-0.6-0.3-1-0.5l-2.5-1
			c-1.5-0.6-2.5-1.4-3-2.4c-0.5-1-0.8-2.3-0.8-3.8c0-0.9,0.1-1.8,0.4-2.6c0.2-0.8,0.6-1.5,1.1-2.1c0.5-0.6,1.1-1.1,1.9-1.4
			s1.6-0.5,2.6-0.5c0.9,0,1.6,0.2,2.4,0.5s1.3,0.7,1.8,1.3s0.9,1.1,1.2,1.8c0.3,0.6,0.4,1.3,0.4,2V29.8z"/>
		<path class="st7" d="M264.2,22.9h3.3l4.5,12.8h0.1l4.4-12.8h3.4v24.2h-3.5V32.4h-0.1l-3.4,10.4h-1.7l-3.4-10.4h-0.1v14.7h-3.5
			V22.9z"/>
		<path class="st7" d="M282.3,22.9h10.3v3.3h-6.9v7.1h6v3.3h-6v7.1h6.9v3.5h-10.3V22.9z"/>
		<path class="st7" d="M300.2,22.9h5.1c2,0,3.5,0.5,4.5,1.6s1.6,2.6,1.6,4.6v11.3c0,2.3-0.6,3.9-1.6,5c-1.1,1.1-2.7,1.6-4.7,1.6
			h-4.8V22.9z M303.6,43.8h1.6c1,0,1.7-0.2,2.1-0.7c0.4-0.5,0.6-1.3,0.6-2.3V29.1c0-1-0.2-1.7-0.6-2.2c-0.4-0.5-1.1-0.8-2.1-0.8
			h-1.6V43.8z"/>
		<path class="st7" d="M313.7,22.9h10.3v3.3h-6.9v7.1h6v3.3h-6v7.1h6.9v3.5h-10.3V22.9z"/>
		<path class="st7" d="M331.6,22.9h5.6c4.1,0,6.1,2.4,6.1,7.1c0,1.4-0.2,2.6-0.7,3.6c-0.4,1-1.2,1.8-2.3,2.4l3.7,11h-3.7l-3.2-10.3
			h-2.1v10.3h-3.5V22.9z M335.1,33.7h2c0.6,0,1.1-0.1,1.5-0.3c0.4-0.2,0.6-0.4,0.8-0.7s0.3-0.7,0.4-1.2c0.1-0.5,0.1-1,0.1-1.6
			s0-1.2-0.1-1.6c-0.1-0.5-0.2-0.9-0.4-1.2c-0.2-0.3-0.5-0.6-0.9-0.7c-0.4-0.2-0.9-0.2-1.5-0.2h-1.8V33.7z"/>
		<path class="st7" d="M345.8,22.9h10.3v3.3h-6.9v7.1h6v3.3h-6v7.1h6.9v3.5h-10.3V22.9z M353,21.8h-2.2l-4.5-4.8h3.7L353,21.8z"/>
		<path class="st7" d="M357.8,28.6c0-1,0.2-1.8,0.5-2.6c0.3-0.7,0.8-1.4,1.3-1.9s1.2-0.9,1.9-1.1c0.7-0.2,1.4-0.4,2.1-0.4
			s1.4,0.1,2.1,0.4c0.7,0.2,1.3,0.6,1.9,1.1s1,1.1,1.3,1.9s0.5,1.6,0.5,2.6v1.2h-3.5v-1.2c0-0.8-0.2-1.5-0.7-1.9s-1-0.6-1.6-0.6
			s-1.2,0.2-1.6,0.6s-0.7,1-0.7,1.9v12.8c0,0.8,0.2,1.5,0.7,1.9c0.5,0.4,1,0.6,1.6,0.6s1.2-0.2,1.6-0.6c0.5-0.4,0.7-1,0.7-1.9v-4.6
			h-2.8v-3.1h6.2v7.6c0,1-0.2,1.9-0.5,2.6c-0.3,0.7-0.8,1.3-1.3,1.8c-0.6,0.5-1.2,0.9-1.9,1.1s-1.4,0.4-2.1,0.4s-1.4-0.1-2.1-0.4
			c-0.7-0.2-1.3-0.6-1.9-1.1c-0.6-0.5-1-1.1-1.3-1.8c-0.3-0.7-0.5-1.6-0.5-2.6V28.6z"/>
		<path class="st7" d="M371.6,22.9h3.5v20.7h6.9v3.5h-10.3V22.9z"/>
		<path class="st7" d="M383.8,22.9h10.3v3.3h-6.9v7.1h6v3.3h-6v7.1h6.9v3.5h-10.3V22.9z"/>
		<path class="st7" d="M395.9,22.9h3.3l4.5,12.8h0.1l4.4-12.8h3.4v24.2h-3.5V32.4H408l-3.4,10.4h-1.7l-3.4-10.4h-0.1v14.7h-3.5V22.9
			z"/>
		<path class="st7" d="M414,22.9h10.3v3.3h-6.9v7.1h6v3.3h-6v7.1h6.9v3.5H414V22.9z"/>
		<path class="st7" d="M426.1,22.9h3.3l5.2,14.6h0.1V22.9h3.5v24.2h-3.3l-5.3-14.6h-0.1v14.6h-3.5V22.9z"/>
		<path class="st7" d="M443.6,26.1h-4v-3.3h11.5v3.3h-4v20.9h-3.5V26.1z"/>
		<path class="st7" d="M457.9,22.9h5.1c2,0,3.5,0.5,4.5,1.6c1,1.1,1.6,2.6,1.6,4.6v11.3c0,2.3-0.5,3.9-1.6,5
			c-1.1,1.1-2.7,1.6-4.7,1.6h-4.8V22.9z M461.4,43.8h1.6c1,0,1.7-0.2,2.1-0.7c0.4-0.5,0.6-1.3,0.6-2.3V29.1c0-1-0.2-1.7-0.6-2.2
			c-0.4-0.5-1.1-0.8-2.1-0.8h-1.6V43.8z"/>
		<path class="st7" d="M471.5,22.9h10.3v3.3h-6.9v7.1h6v3.3h-6v7.1h6.9v3.5h-10.3V22.9z"/>
		<path class="st7" d="M495.1,29.8h-3.5v-0.8c0-0.8-0.2-1.5-0.6-2.1c-0.4-0.6-1-0.9-1.9-0.9c-0.5,0-0.9,0.1-1.2,0.3
			c-0.3,0.2-0.5,0.4-0.7,0.7s-0.3,0.6-0.4,1s-0.1,0.8-0.1,1.2c0,0.5,0,0.9,0.1,1.2c0,0.3,0.1,0.6,0.3,0.9c0.1,0.2,0.3,0.4,0.6,0.6
			s0.6,0.4,1.1,0.5l2.7,1.1c0.8,0.3,1.4,0.6,1.9,1c0.5,0.4,0.8,0.9,1.1,1.4c0.3,0.5,0.4,1.1,0.5,1.8c0.1,0.7,0.1,1.5,0.1,2.4
			c0,1-0.1,2-0.3,2.8c-0.2,0.9-0.5,1.6-1,2.2c-0.5,0.6-1.1,1.1-1.9,1.5c-0.8,0.4-1.7,0.5-2.8,0.5c-0.8,0-1.6-0.1-2.3-0.4
			c-0.7-0.3-1.3-0.7-1.9-1.2c-0.5-0.5-0.9-1.1-1.2-1.8c-0.3-0.7-0.5-1.5-0.5-2.3v-1.3h3.5v1.1c0,0.6,0.2,1.2,0.6,1.7
			c0.4,0.5,1,0.8,1.9,0.8c0.6,0,1-0.1,1.4-0.3c0.3-0.2,0.6-0.4,0.7-0.7c0.2-0.3,0.3-0.7,0.3-1.1c0-0.5,0.1-1,0.1-1.5
			c0-0.6,0-1.2-0.1-1.6c0-0.4-0.1-0.7-0.3-1c-0.1-0.2-0.4-0.5-0.6-0.6c-0.3-0.2-0.6-0.3-1-0.5l-2.5-1c-1.5-0.6-2.5-1.4-3-2.4
			c-0.5-1-0.8-2.3-0.8-3.8c0-0.9,0.1-1.8,0.4-2.6c0.2-0.8,0.6-1.5,1.1-2.1c0.5-0.6,1.1-1.1,1.9-1.4s1.6-0.5,2.6-0.5
			c0.9,0,1.6,0.2,2.4,0.5c0.7,0.3,1.3,0.7,1.8,1.3c0.5,0.5,0.9,1.1,1.2,1.8c0.3,0.6,0.4,1.3,0.4,2V29.8z"/>
		<path class="st7" d="M503,22.9h5.2c1,0,1.8,0.1,2.5,0.4c0.7,0.2,1.4,0.7,2,1.3c0.6,0.6,1,1.4,1.2,2.2c0.2,0.9,0.3,2,0.3,3.5
			c0,1.1-0.1,2-0.2,2.7c-0.1,0.8-0.4,1.5-0.8,2.1c-0.5,0.8-1.1,1.4-1.9,1.9c-0.8,0.4-1.8,0.7-3.1,0.7h-1.8v9.5H503V22.9z
			 M506.5,34.4h1.7c0.7,0,1.2-0.1,1.6-0.3c0.4-0.2,0.7-0.5,0.8-0.8c0.2-0.4,0.3-0.8,0.3-1.3c0-0.5,0.1-1.1,0.1-1.7
			c0-0.6,0-1.1-0.1-1.6c0-0.5-0.1-1-0.3-1.3s-0.4-0.7-0.8-0.9c-0.4-0.2-0.9-0.3-1.6-0.3h-1.8V34.4z"/>
		<path class="st7" d="M516.2,22.9h3.5v20.7h6.9v3.5h-10.3V22.9z"/>
		<path class="st7" d="M533,22.9h2.9l5.4,24.2h-3.5l-1-5.2h-4.7l-1,5.2h-3.5L533,22.9z M534.5,29.8L534.5,29.8l-1.8,8.8h3.5
			L534.5,29.8z"/>
		<path class="st7" d="M543,22.9h3.5v24.2H543V22.9z"/>
		<path class="st7" d="M548.8,22.9h3.3l5.2,14.6h0.1V22.9h3.5v24.2h-3.3l-5.3-14.6h-0.1v14.6h-3.5V22.9z"/>
		<path class="st7" d="M566.3,26.1h-4v-3.3h11.5v3.3h-4v20.9h-3.5V26.1z"/>
		<path class="st7" d="M575.3,22.9h10.3v3.3h-6.9v7.1h6v3.3h-6v7.1h6.9v3.5h-10.3V22.9z"/>
		<path class="st7" d="M598.9,29.8h-3.5v-0.8c0-0.8-0.2-1.5-0.6-2.1c-0.4-0.6-1-0.9-1.9-0.9c-0.5,0-0.9,0.1-1.2,0.3
			c-0.3,0.2-0.5,0.4-0.7,0.7s-0.3,0.6-0.4,1s-0.1,0.8-0.1,1.2c0,0.5,0,0.9,0.1,1.2c0,0.3,0.1,0.6,0.3,0.9c0.1,0.2,0.3,0.4,0.6,0.6
			s0.6,0.4,1.1,0.5l2.7,1.1c0.8,0.3,1.4,0.6,1.9,1c0.5,0.4,0.8,0.9,1.1,1.4c0.3,0.5,0.4,1.1,0.5,1.8c0.1,0.7,0.1,1.5,0.1,2.4
			c0,1-0.1,2-0.3,2.8c-0.2,0.9-0.5,1.6-1,2.2c-0.5,0.6-1.1,1.1-1.9,1.5c-0.8,0.4-1.7,0.5-2.8,0.5c-0.8,0-1.6-0.1-2.3-0.4
			c-0.7-0.3-1.3-0.7-1.9-1.2c-0.5-0.5-0.9-1.1-1.2-1.8c-0.3-0.7-0.5-1.5-0.5-2.3v-1.3h3.5v1.1c0,0.6,0.2,1.2,0.6,1.7
			c0.4,0.5,1,0.8,1.9,0.8c0.6,0,1-0.1,1.4-0.3c0.3-0.2,0.6-0.4,0.7-0.7c0.2-0.3,0.3-0.7,0.3-1.1c0-0.5,0.1-1,0.1-1.5
			c0-0.6,0-1.2-0.1-1.6c0-0.4-0.1-0.7-0.3-1c-0.1-0.2-0.4-0.5-0.6-0.6c-0.3-0.2-0.6-0.3-1-0.5l-2.5-1c-1.5-0.6-2.5-1.4-3-2.4
			c-0.5-1-0.8-2.3-0.8-3.8c0-0.9,0.1-1.8,0.4-2.6c0.2-0.8,0.6-1.5,1.1-2.1c0.5-0.6,1.1-1.1,1.9-1.4s1.6-0.5,2.6-0.5
			c0.9,0,1.6,0.2,2.4,0.5c0.7,0.3,1.3,0.7,1.8,1.3c0.5,0.5,0.9,1.1,1.2,1.8c0.3,0.6,0.4,1.3,0.4,2V29.8z"/>
	</g>
	<rect x="22" y="87.9" class="st0" width="207.2" height="207.2"/>
	<g>
		<path class="st3" d="M38.7,120.8h8.8v2.8h-5.9v6.1h5.1v2.8h-5.1v6.1h5.9v3h-8.8V120.8z M43.7,115.8h3.1l-3.8,4.1H41L43.7,115.8z"
			/>
		<path class="st3" d="M51.8,123.6h-3.4v-2.8h9.8v2.8h-3.4v17.9h-3V123.6z"/>
		<path class="st3" d="M61.7,120.8h2.5l4.6,20.6h-3l-0.9-4.4h-4l-0.9,4.4h-3L61.7,120.8z M62.9,126.7L62.9,126.7l-1.5,7.5h3
			L62.9,126.7z"/>
		<path class="st3" d="M70.1,120.8h4.4c0.8,0,1.5,0.1,2.1,0.3c0.6,0.2,1.2,0.6,1.7,1.1c0.5,0.5,0.9,1.2,1,1.9
			c0.2,0.7,0.3,1.7,0.3,2.9c0,0.9-0.1,1.7-0.2,2.3c-0.1,0.6-0.3,1.3-0.7,1.8c-0.4,0.7-0.9,1.2-1.6,1.6c-0.7,0.4-1.6,0.6-2.7,0.6
			h-1.5v8.1h-3V120.8z M73.1,130.6h1.4c0.6,0,1.1-0.1,1.4-0.3c0.3-0.2,0.6-0.4,0.7-0.7c0.2-0.3,0.2-0.7,0.3-1.1c0-0.4,0-0.9,0-1.4
			c0-0.5,0-0.9,0-1.4c0-0.4-0.1-0.8-0.3-1.1c-0.1-0.3-0.4-0.6-0.7-0.8c-0.3-0.2-0.8-0.3-1.3-0.3h-1.5V130.6z"/>
		<path class="st3" d="M81.5,120.8h8.8v2.8h-5.9v6.1h5.1v2.8h-5.1v6.1h5.9v3h-8.8V120.8z"/>
		<path class="st3" d="M99.8,123.9l-3,2.2V123l3-2.2h3v20.6h-3V123.9z"/>
	</g>
	<g>
		<path class="st3" d="M39.5,172.6v-14.2h2.2v14.2H39.5z"/>
		<path class="st3" d="M50.5,172.6v-1.1c-0.8,0.9-1.6,1.2-2.7,1.2c-1,0-1.9-0.3-2.5-0.9c-1-1-1.1-2.8-1.1-4.3s0.1-3.3,1.1-4.3
			c0.6-0.6,1.4-0.9,2.5-0.9c1.1,0,1.9,0.3,2.7,1.1v-5.1h2v14.2H50.5z M48.3,164.2c-1.8,0-2.1,1.6-2.1,3.4s0.3,3.4,2.1,3.4
			c1.8,0,2.1-1.6,2.1-3.4S50.2,164.2,48.3,164.2z"/>
		<path class="st3" d="M56.7,168.1c0,1.7,0.9,2.8,2.6,2.8c1.1,0,1.7-0.3,2.5-1l1.3,1.2c-1,1-2,1.6-3.8,1.6c-2.5,0-4.6-1.3-4.6-5.2
			c0-3.3,1.7-5.2,4.3-5.2c2.7,0,4.3,2,4.3,4.9v0.9H56.7z M61,165.3c-0.3-0.8-1-1.3-2-1.3s-1.7,0.5-2,1.3c-0.2,0.5-0.2,0.8-0.3,1.4
			h4.6C61.2,166.1,61.2,165.8,61,165.3z"/>
		<path class="st3" d="M71.6,172.6v-6.2c0-1.6-0.9-2.3-2-2.3c-1.1,0-2.1,0.7-2.1,2.3v6.2h-2v-10.1h2v1c0.7-0.8,1.7-1.1,2.7-1.1
			c1,0,1.9,0.3,2.5,0.9c0.8,0.8,1,1.7,1,2.9v6.5H71.6z"/>
		<path class="st3" d="M79.2,172.6c-1.9,0-2.8-1.4-2.8-2.8v-5.6h-1.2v-1.6h1.2v-3.1h2v3.1h2v1.6h-2v5.5c0,0.7,0.4,1.2,1.1,1.2h0.8
			v1.7H79.2z"/>
		<path class="st3" d="M82.4,160.5v-2.2h2.2v2.2H82.4z M82.4,172.6v-10.1h2v10.1H82.4z"/>
		<path class="st3" d="M89.5,164.2v8.4h-2v-8.4h-1.2v-1.6h1.2v-1.6c0-1.5,0.9-2.8,2.8-2.8h1.3v1.7h-0.9c-0.8,0-1.1,0.4-1.1,1.2v1.5
			h2v1.6H89.5z"/>
		<path class="st3" d="M93.3,160.5v-2.2h2.2v2.2H93.3z M93.3,172.6v-10.1h2v10.1H93.3z"/>
		<path class="st3" d="M99.6,168.1c0,1.7,0.9,2.8,2.6,2.8c1.1,0,1.7-0.3,2.5-1l1.3,1.2c-1,1-2,1.6-3.8,1.6c-2.5,0-4.6-1.3-4.6-5.2
			c0-3.3,1.7-5.2,4.3-5.2c2.7,0,4.3,2,4.3,4.9v0.9H99.6z M103.8,165.3c-0.3-0.8-1-1.3-2-1.3s-1.7,0.5-2,1.3
			c-0.2,0.5-0.2,0.8-0.3,1.4h4.6C104.1,166.1,104,165.8,103.8,165.3z"/>
		<path class="st3" d="M113.9,164.8c-0.5-0.5-0.8-0.7-1.5-0.7c-1.1,0-2,0.9-2,2.3v6.2h-2v-10.1h2v1.1c0.5-0.7,1.6-1.2,2.7-1.2
			c1,0,1.7,0.3,2.4,1L113.9,164.8z"/>
		<path class="st3" d="M122.6,168.1c0,1.7,0.9,2.8,2.6,2.8c1.1,0,1.7-0.3,2.5-1l1.3,1.2c-1,1-2,1.6-3.8,1.6c-2.5,0-4.6-1.3-4.6-5.2
			c0-3.3,1.7-5.2,4.3-5.2c2.7,0,4.3,2,4.3,4.9v0.9H122.6z M126.9,165.3c-0.3-0.8-1-1.3-2-1.3s-1.7,0.5-2,1.3
			c-0.2,0.5-0.2,0.8-0.3,1.4h4.6C127.1,166.1,127.1,165.8,126.9,165.3z"/>
		<path class="st3" d="M134.4,172.6c-1.9,0-2.8-1.4-2.8-2.8v-5.6h-1.2v-1.6h1.2v-3.1h2v3.1h2v1.6h-2v5.5c0,0.7,0.4,1.2,1.1,1.2h0.8
			v1.7H134.4z"/>
		<path class="st3" d="M39.2,184.5v-2.2h2.2v2.2H39.2z M39.3,196.6v-10.1h2v10.1H39.3z"/>
		<path class="st3" d="M56.3,196.6v-6.2c0-1.6-0.9-2.3-2-2.3c-1.1,0-2.1,0.7-2.1,2.2v6.3h-2v-6.2c0-1.6-0.9-2.3-2-2.3
			c-1.1,0-2.1,0.7-2.1,2.3v6.2h-2v-10.1h2v1c0.7-0.7,1.7-1.1,2.7-1.1c1.3,0,2.2,0.5,2.9,1.5c0.8-1,1.8-1.5,3.2-1.5
			c1,0,2,0.3,2.6,0.9c0.8,0.8,1.1,1.7,1.1,2.9v6.5H56.3z"/>
		<path class="st3" d="M68.1,195.8c-0.6,0.6-1.4,0.9-2.5,0.9c-1.1,0-1.9-0.3-2.7-1.2v5.1h-2v-14.2h2v1.1c0.8-0.9,1.6-1.2,2.7-1.2
			c1,0,1.9,0.3,2.5,0.9c1,1,1.1,2.7,1.1,4.3S69.1,194.8,68.1,195.8z M65.1,188.2c-1.8,0-2.1,1.6-2.1,3.4s0.3,3.4,2.1,3.4
			s2.1-1.6,2.1-3.4S67,188.2,65.1,188.2z"/>
		<path class="st3" d="M74.3,196.6c-1.9,0-2.8-1.3-2.8-2.8v-11.4h2v11.3c0,0.8,0.3,1.2,1.1,1.2h0.9v1.7H74.3z"/>
		<path class="st3" d="M77.2,184.5v-2.2h2.2v2.2H77.2z M77.3,196.6v-10.1h2v10.1H77.3z"/>
		<path class="st3" d="M87.8,200.7v-5.1c-0.7,0.9-1.6,1.2-2.7,1.2c-1,0-1.9-0.3-2.5-0.9c-1-1-1.1-2.8-1.1-4.3s0.1-3.3,1.1-4.3
			c0.6-0.6,1.5-0.9,2.5-0.9c1.1,0,1.9,0.3,2.7,1.2v-1.1h2v14.2H87.8z M85.7,188.2c-1.8,0-2.1,1.6-2.1,3.4s0.3,3.4,2.1,3.4
			c1.8,0,2.1-1.6,2.1-3.4S87.6,188.2,85.7,188.2z"/>
		<path class="st3" d="M98.7,196.6v-1c-0.7,0.8-1.7,1.1-2.7,1.1c-1,0-1.9-0.3-2.5-0.9c-0.8-0.8-1-1.7-1-2.9v-6.5h2v6.2
			c0,1.6,0.9,2.3,2,2.3c1.1,0,2.1-0.7,2.1-2.3v-6.2h2v10.1H98.7z"/>
		<path class="st3" d="M104.9,192.1c0,1.7,0.9,2.8,2.6,2.8c1.1,0,1.7-0.3,2.5-1l1.3,1.2c-1,1-2,1.6-3.8,1.6c-2.5,0-4.6-1.3-4.6-5.2
			c0-3.3,1.7-5.2,4.3-5.2c2.7,0,4.3,2,4.3,4.9v0.9H104.9z M109.2,189.3c-0.3-0.8-1-1.3-2-1.3s-1.7,0.5-2,1.3
			c-0.2,0.5-0.2,0.8-0.3,1.4h4.6C109.4,190.1,109.4,189.8,109.2,189.3z"/>
		<path class="st3" d="M119.2,188.8c-0.5-0.5-0.8-0.7-1.5-0.7c-1.1,0-2,0.9-2,2.3v6.2h-2v-10.1h2v1.1c0.5-0.7,1.6-1.2,2.7-1.2
			c1,0,1.7,0.3,2.4,1L119.2,188.8z"/>
		<path class="st3" d="M129.1,196.6c-1.9,0-2.8-1.3-2.8-2.8v-11.4h2v11.3c0,0.8,0.3,1.2,1.1,1.2h0.9v1.7H129.1z"/>
		<path class="st3" d="M133.6,192.1c0,1.7,0.9,2.8,2.6,2.8c1.1,0,1.7-0.3,2.5-1l1.3,1.2c-1,1-2,1.6-3.8,1.6c-2.5,0-4.6-1.3-4.6-5.2
			c0-3.3,1.7-5.2,4.3-5.2c2.7,0,4.3,2,4.3,4.9v0.9H133.6z M137.9,189.3c-0.3-0.8-1-1.3-2-1.3s-1.7,0.5-2,1.3
			c-0.2,0.5-0.2,0.8-0.3,1.4h4.6C138.2,190.1,138.1,189.8,137.9,189.3z"/>
		<path class="st3" d="M145.9,196.7c-1.7,0-3.1-0.3-4.3-1.5l1.3-1.3c0.8,0.8,1.9,1.1,2.9,1.1c1.2,0,2.2-0.4,2.2-1.4
			c0-0.7-0.4-1.1-1.4-1.2l-1.6-0.1c-1.9-0.2-3-1-3-2.8c0-2,1.7-3.1,3.8-3.1c1.5,0,2.8,0.3,3.8,1.1l-1.3,1.3
			c-0.6-0.5-1.5-0.7-2.5-0.7c-1.2,0-1.8,0.5-1.8,1.3c0,0.6,0.3,1.1,1.4,1.2l1.6,0.1c1.9,0.2,3,1.1,3,2.9
			C150.1,195.6,148.3,196.7,145.9,196.7z"/>
		<path class="st3" d="M44.7,220.6v-0.9c-0.7,0.7-1.4,1-2.7,1c-1.3,0-2.1-0.3-2.7-0.9c-0.5-0.5-0.8-1.3-0.8-2.2
			c0-1.7,1.2-2.9,3.5-2.9h2.7V214c0-1.3-0.6-1.9-2.2-1.9c-1.1,0-1.7,0.3-2.2,1l-1.3-1.3c1-1.1,2-1.5,3.6-1.5c2.8,0,4.2,1.2,4.2,3.5
			v6.8H44.7z M44.7,216.1h-2.4c-1.2,0-1.8,0.5-1.8,1.5c0,0.9,0.6,1.4,1.9,1.4c0.8,0,1.4-0.1,1.9-0.6c0.3-0.3,0.4-0.8,0.4-1.5V216.1z
			"/>
		<path class="st3" d="M53.3,220.7c-2.3,0-4.5-1.4-4.5-5.2s2.2-5.2,4.5-5.2c1.4,0,2.4,0.4,3.3,1.4l-1.4,1.4c-0.6-0.7-1.1-1-1.9-1
			c-0.8,0-1.4,0.3-1.9,0.9c-0.4,0.6-0.6,1.3-0.6,2.5s0.2,1.9,0.6,2.5c0.4,0.6,1.1,0.9,1.9,0.9c0.8,0,1.3-0.3,1.9-1l1.4,1.3
			C55.7,220.3,54.7,220.7,53.3,220.7z"/>
		<path class="st3" d="M62,220.6c-1.9,0-2.8-1.4-2.8-2.8v-5.6h-1.2v-1.6h1.2v-3.1h2v3.1h2v1.6h-2v5.5c0,0.7,0.4,1.2,1.1,1.2h0.8v1.7
			H62z"/>
		<path class="st3" d="M66.6,216.1c0,1.7,0.9,2.8,2.6,2.8c1.1,0,1.7-0.3,2.5-1l1.3,1.2c-1,1-2,1.6-3.8,1.6c-2.5,0-4.6-1.3-4.6-5.2
			c0-3.3,1.7-5.2,4.3-5.2c2.7,0,4.3,2,4.3,4.9v0.9H66.6z M70.9,213.3c-0.3-0.8-1-1.3-2-1.3s-1.7,0.5-2,1.3c-0.2,0.5-0.2,0.8-0.3,1.4
			h4.6C71.2,214.1,71.1,213.8,70.9,213.3z"/>
		<path class="st3" d="M81.5,220.6v-1c-0.7,0.8-1.7,1.1-2.7,1.1c-1,0-1.9-0.3-2.5-0.9c-0.8-0.8-1-1.7-1-2.9v-6.5h2v6.2
			c0,1.6,0.9,2.3,2,2.3c1.1,0,2.1-0.7,2.1-2.3v-6.2h2v10.1H81.5z"/>
		<path class="st3" d="M91.7,212.8c-0.5-0.5-0.8-0.7-1.5-0.7c-1.1,0-2,0.9-2,2.3v6.2h-2v-10.1h2v1.1c0.5-0.7,1.6-1.2,2.7-1.2
			c1,0,1.7,0.3,2.4,1L91.7,212.8z"/>
		<path class="st3" d="M98,220.7c-1.7,0-3.1-0.3-4.3-1.5l1.3-1.3c0.8,0.8,1.9,1.1,2.9,1.1c1.2,0,2.2-0.4,2.2-1.4
			c0-0.7-0.4-1.1-1.4-1.2l-1.6-0.1c-1.9-0.2-3-1-3-2.8c0-2,1.7-3.1,3.8-3.1c1.5,0,2.8,0.3,3.8,1.1l-1.3,1.3
			c-0.6-0.5-1.5-0.7-2.5-0.7c-1.2,0-1.8,0.5-1.8,1.3c0,0.6,0.3,1.1,1.4,1.2l1.6,0.1c1.9,0.2,3,1.1,3,2.9
			C102.2,219.6,100.4,220.7,98,220.7z"/>
		<path class="st3" d="M112.7,220.7c-2.3,0-4.5-1.4-4.5-5.2s2.2-5.2,4.5-5.2c1.4,0,2.4,0.4,3.3,1.4l-1.4,1.4c-0.6-0.7-1.1-1-1.9-1
			c-0.8,0-1.4,0.3-1.9,0.9c-0.4,0.6-0.6,1.3-0.6,2.5s0.2,1.9,0.6,2.5c0.4,0.6,1.1,0.9,1.9,0.9c0.8,0,1.3-0.3,1.9-1l1.4,1.3
			C115.1,220.3,114.1,220.7,112.7,220.7z"/>
		<path class="st3" d="M120.7,220.6c-1.9,0-2.8-1.3-2.8-2.8v-11.4h2v11.3c0,0.8,0.3,1.2,1.1,1.2h0.9v1.7H120.7z"/>
		<path class="st3" d="M125.1,216.1c0,1.7,0.9,2.8,2.6,2.8c1.1,0,1.7-0.3,2.5-1l1.3,1.2c-1,1-2,1.6-3.8,1.6c-2.5,0-4.6-1.3-4.6-5.2
			c0-3.3,1.7-5.2,4.3-5.2c2.7,0,4.3,2,4.3,4.9v0.9H125.1z M129.4,213.3c-0.3-0.8-1-1.3-2-1.3s-1.7,0.5-2,1.3
			c-0.2,0.5-0.2,0.8-0.3,1.4h4.6C129.7,214.1,129.6,213.8,129.4,213.3z M128,208.6h-1.5l1.5-3.2h2.3L128,208.6z"/>
		<path class="st3" d="M137.4,220.7c-1.7,0-3.1-0.3-4.3-1.5l1.3-1.3c0.8,0.8,1.9,1.1,2.9,1.1c1.2,0,2.2-0.4,2.2-1.4
			c0-0.7-0.4-1.1-1.4-1.2l-1.6-0.1c-1.9-0.2-3-1-3-2.8c0-2,1.7-3.1,3.8-3.1c1.5,0,2.8,0.3,3.8,1.1l-1.3,1.3
			c-0.6-0.5-1.5-0.7-2.5-0.7c-1.2,0-1.8,0.5-1.8,1.3c0,0.6,0.3,1.1,1.4,1.2l1.6,0.1c1.9,0.2,3,1.1,3,2.9
			C141.6,219.6,139.8,220.7,137.4,220.7z"/>
		<path class="st3" d="M153.9,220.6v-1.1c-0.8,0.9-1.6,1.2-2.7,1.2c-1,0-1.9-0.3-2.5-0.9c-1-1-1.1-2.8-1.1-4.3s0.1-3.3,1.1-4.3
			c0.6-0.6,1.4-0.9,2.5-0.9c1.1,0,1.9,0.3,2.7,1.1v-5.1h2v14.2H153.9z M151.8,212.2c-1.8,0-2.1,1.6-2.1,3.4s0.3,3.4,2.1,3.4
			c1.8,0,2.1-1.6,2.1-3.4S153.6,212.2,151.8,212.2z"/>
		<path class="st3" d="M160.1,216.1c0,1.7,0.9,2.8,2.6,2.8c1.1,0,1.7-0.3,2.5-1l1.3,1.2c-1,1-2,1.6-3.8,1.6c-2.5,0-4.6-1.3-4.6-5.2
			c0-3.3,1.7-5.2,4.3-5.2c2.7,0,4.3,2,4.3,4.9v0.9H160.1z M164.4,213.3c-0.3-0.8-1-1.3-2-1.3s-1.7,0.5-2,1.3
			c-0.2,0.5-0.2,0.8-0.3,1.4h4.6C164.7,214.1,164.6,213.8,164.4,213.3z"/>
		<path class="st3" d="M42,244.6c-1.9,0-2.8-1.3-2.8-2.8v-11.4h2v11.3c0,0.8,0.3,1.2,1.1,1.2h0.9v1.7H42z"/>
		<path class="st3" d="M44.2,234.3v-3.9h2.2v2.1L44.2,234.3z"/>
		<path class="st3" d="M49.2,240.1c0,1.7,0.9,2.8,2.6,2.8c1.1,0,1.7-0.3,2.5-1l1.3,1.2c-1,1-2,1.6-3.8,1.6c-2.5,0-4.6-1.3-4.6-5.2
			c0-3.3,1.7-5.2,4.3-5.2c2.7,0,4.3,2,4.3,4.9v0.9H49.2z M53.5,237.3c-0.3-0.8-1-1.3-2-1.3s-1.7,0.5-2,1.3c-0.2,0.5-0.2,0.8-0.3,1.4
			h4.6C53.7,238.1,53.7,237.8,53.5,237.3z"/>
		<path class="st3" d="M64.1,244.6v-6.2c0-1.6-0.9-2.3-2-2.3c-1.1,0-2.1,0.7-2.1,2.3v6.2h-2v-10.1h2v1c0.7-0.8,1.7-1.1,2.7-1.1
			c1,0,1.9,0.3,2.5,0.9c0.8,0.8,1,1.7,1,2.9v6.5H64.1z"/>
		<path class="st3" d="M71.7,244.6c-1.9,0-2.8-1.4-2.8-2.8v-5.6h-1.2v-1.6H69v-3.1h2v3.1h2v1.6h-2v5.5c0,0.7,0.4,1.2,1.1,1.2H73v1.7
			H71.7z"/>
		<path class="st3" d="M80.5,236.8c-0.5-0.5-0.8-0.7-1.5-0.7c-1.1,0-2,0.9-2,2.3v6.2h-2v-10.1h2v1.1c0.5-0.7,1.6-1.2,2.7-1.2
			c1,0,1.7,0.3,2.4,1L80.5,236.8z"/>
		<path class="st3" d="M84.7,240.1c0,1.7,0.9,2.8,2.6,2.8c1.1,0,1.7-0.3,2.5-1l1.3,1.2c-1,1-2,1.6-3.8,1.6c-2.5,0-4.6-1.3-4.6-5.2
			c0-3.3,1.7-5.2,4.3-5.2c2.7,0,4.3,2,4.3,4.9v0.9H84.7z M89,237.3c-0.3-0.8-1-1.3-2-1.3s-1.7,0.5-2,1.3c-0.2,0.5-0.2,0.8-0.3,1.4
			h4.6C89.2,238.1,89.2,237.8,89,237.3z"/>
		<path class="st3" d="M100.6,243.8c-0.6,0.6-1.4,0.9-2.5,0.9c-1.1,0-1.9-0.3-2.7-1.2v5.1h-2v-14.2h2v1.1c0.8-0.9,1.6-1.2,2.7-1.2
			c1,0,1.9,0.3,2.5,0.9c1,1,1.1,2.7,1.1,4.3S101.6,242.8,100.6,243.8z M97.6,236.2c-1.8,0-2.1,1.6-2.1,3.4s0.3,3.4,2.1,3.4
			s2.1-1.6,2.1-3.4S99.5,236.2,97.6,236.2z"/>
		<path class="st3" d="M109.6,236.8c-0.5-0.5-0.8-0.7-1.5-0.7c-1.1,0-2,0.9-2,2.3v6.2h-2v-10.1h2v1.1c0.5-0.7,1.6-1.2,2.7-1.2
			c1,0,1.7,0.3,2.4,1L109.6,236.8z"/>
		<path class="st3" d="M112.6,232.5v-2.2h2.2v2.2H112.6z M112.7,244.6v-10.1h2v10.1H112.7z"/>
		<path class="st3" d="M120.8,244.7c-1.7,0-3.1-0.3-4.3-1.5l1.3-1.3c0.8,0.8,1.9,1.1,2.9,1.1c1.2,0,2.2-0.4,2.2-1.4
			c0-0.7-0.4-1.1-1.4-1.2l-1.6-0.1c-1.9-0.2-3-1-3-2.8c0-2,1.7-3.1,3.8-3.1c1.5,0,2.8,0.3,3.8,1.1l-1.3,1.3
			c-0.6-0.5-1.5-0.7-2.5-0.7c-1.2,0-1.8,0.5-1.8,1.3c0,0.6,0.3,1.1,1.4,1.2l1.6,0.1c1.9,0.2,3,1.1,3,2.9
			C125,243.6,123.2,244.7,120.8,244.7z"/>
		<path class="st3" d="M128.6,240.1c0,1.7,0.9,2.8,2.6,2.8c1.1,0,1.7-0.3,2.5-1l1.3,1.2c-1,1-2,1.6-3.8,1.6c-2.5,0-4.6-1.3-4.6-5.2
			c0-3.3,1.7-5.2,4.3-5.2c2.7,0,4.3,2,4.3,4.9v0.9H128.6z M132.9,237.3c-0.3-0.8-1-1.3-2-1.3s-1.7,0.5-2,1.3
			c-0.2,0.5-0.2,0.8-0.3,1.4h4.6C133.2,238.1,133.1,237.8,132.9,237.3z"/>
		<path class="st3" d="M143.4,240.1c0,1.7,0.9,2.8,2.6,2.8c1.1,0,1.7-0.3,2.5-1l1.3,1.2c-1,1-2,1.6-3.8,1.6c-2.5,0-4.6-1.3-4.6-5.2
			c0-3.3,1.7-5.2,4.3-5.2c2.7,0,4.3,2,4.3,4.9v0.9H143.4z M147.7,237.3c-0.3-0.8-1-1.3-2-1.3s-1.7,0.5-2,1.3
			c-0.2,0.5-0.2,0.8-0.3,1.4h4.6C147.9,238.1,147.9,237.8,147.7,237.3z"/>
		<path class="st3" d="M155.2,244.6c-1.9,0-2.8-1.4-2.8-2.8v-5.6h-1.2v-1.6h1.2v-3.1h2v3.1h2v1.6h-2v5.5c0,0.7,0.4,1.2,1.1,1.2h0.8
			v1.7H155.2z"/>
		<path class="st3" d="M168.8,244.6v-1.1c-0.8,0.9-1.6,1.2-2.7,1.2c-1,0-1.9-0.3-2.5-0.9c-1-1-1.1-2.8-1.1-4.3s0.1-3.3,1.1-4.3
			c0.6-0.6,1.4-0.9,2.5-0.9c1.1,0,1.9,0.3,2.7,1.1v-5.1h2v14.2H168.8z M166.7,236.2c-1.8,0-2.1,1.6-2.1,3.4s0.3,3.4,2.1,3.4
			c1.8,0,2.1-1.6,2.1-3.4S168.5,236.2,166.7,236.2z"/>
		<path class="st3" d="M175.1,240.1c0,1.7,0.9,2.8,2.6,2.8c1.1,0,1.7-0.3,2.5-1l1.3,1.2c-1,1-2,1.6-3.8,1.6c-2.5,0-4.6-1.3-4.6-5.2
			c0-3.3,1.7-5.2,4.3-5.2c2.7,0,4.3,2,4.3,4.9v0.9H175.1z M179.3,237.3c-0.3-0.8-1-1.3-2-1.3s-1.7,0.5-2,1.3
			c-0.2,0.5-0.2,0.8-0.3,1.4h4.6C179.6,238.1,179.5,237.8,179.3,237.3z"/>
		<path class="st3" d="M191.1,244.6c-1.9,0-2.8-1.3-2.8-2.8v-11.4h2v11.3c0,0.8,0.3,1.2,1.1,1.2h0.9v1.7H191.1z"/>
		<path class="st3" d="M199.9,244.6v-0.9c-0.7,0.7-1.4,1-2.7,1c-1.3,0-2.1-0.3-2.7-0.9c-0.5-0.5-0.8-1.3-0.8-2.2
			c0-1.7,1.2-2.9,3.5-2.9h2.7V238c0-1.3-0.6-1.9-2.2-1.9c-1.1,0-1.7,0.3-2.2,1l-1.3-1.3c1-1.1,2-1.5,3.6-1.5c2.8,0,4.2,1.2,4.2,3.5
			v6.8H199.9z M199.8,240.1h-2.4c-1.2,0-1.8,0.5-1.8,1.5c0,0.9,0.6,1.4,1.9,1.4c0.8,0,1.4-0.1,1.9-0.6c0.3-0.3,0.4-0.8,0.4-1.5
			V240.1z"/>
		<path class="st3" d="M43.3,268.7c-2.3,0-4.5-1.4-4.5-5.2s2.2-5.2,4.5-5.2c1.4,0,2.4,0.4,3.3,1.4l-1.4,1.4c-0.6-0.7-1.1-1-1.9-1
			c-0.8,0-1.4,0.3-1.9,0.9c-0.4,0.6-0.6,1.3-0.6,2.5s0.2,1.9,0.6,2.5c0.4,0.6,1.1,0.9,1.9,0.9c0.8,0,1.3-0.3,1.9-1l1.4,1.3
			C45.6,268.3,44.7,268.7,43.3,268.7z"/>
		<path class="st3" d="M55.1,267.5c-0.7,0.7-1.7,1.2-3,1.2c-1.4,0-2.4-0.5-3-1.2c-1-1-1.2-2.3-1.2-4c0-1.7,0.2-3,1.2-4
			c0.7-0.7,1.6-1.2,3-1.2c1.4,0,2.4,0.5,3,1.2c1,1,1.2,2.3,1.2,4C56.3,265.2,56.1,266.5,55.1,267.5z M53.6,260.7
			c-0.4-0.4-0.9-0.6-1.5-0.6c-0.6,0-1.1,0.2-1.5,0.6c-0.6,0.6-0.7,1.7-0.7,2.8s0.1,2.2,0.7,2.8c0.4,0.4,0.9,0.6,1.5,0.6
			c0.6,0,1.1-0.2,1.5-0.6c0.6-0.6,0.7-1.7,0.7-2.8S54.2,261.4,53.6,260.7z"/>
		<path class="st3" d="M70.9,268.6v-6.2c0-1.6-0.9-2.3-2-2.3c-1.1,0-2.1,0.7-2.1,2.2v6.3h-2v-6.2c0-1.6-0.9-2.3-2-2.3
			c-1.1,0-2.1,0.7-2.1,2.3v6.2h-2v-10.1h2v1c0.7-0.7,1.7-1.1,2.7-1.1c1.3,0,2.2,0.5,2.9,1.5c0.8-1,1.8-1.5,3.2-1.5
			c1,0,2,0.3,2.6,0.9c0.8,0.8,1.1,1.7,1.1,2.9v6.5H70.9z"/>
		<path class="st3" d="M87.9,268.6v-6.2c0-1.6-0.9-2.3-2-2.3c-1.1,0-2.1,0.7-2.1,2.2v6.3h-2v-6.2c0-1.6-0.9-2.3-2-2.3
			c-1.1,0-2.1,0.7-2.1,2.3v6.2h-2v-10.1h2v1c0.7-0.7,1.7-1.1,2.7-1.1c1.3,0,2.2,0.5,2.9,1.5c0.8-1,1.8-1.5,3.2-1.5
			c1,0,2,0.3,2.6,0.9c0.8,0.8,1.1,1.7,1.1,2.9v6.5H87.9z"/>
		<path class="st3" d="M98.7,268.6v-1c-0.7,0.8-1.7,1.1-2.7,1.1c-1,0-1.9-0.3-2.5-0.9c-0.8-0.8-1-1.7-1-2.9v-6.5h2v6.2
			c0,1.6,0.9,2.3,2,2.3c1.1,0,2.1-0.7,2.1-2.3v-6.2h2v10.1H98.7z"/>
		<path class="st3" d="M109.5,268.6v-6.2c0-1.6-0.9-2.3-2-2.3c-1.1,0-2.1,0.7-2.1,2.3v6.2h-2v-10.1h2v1c0.7-0.8,1.7-1.1,2.7-1.1
			c1,0,1.9,0.3,2.5,0.9c0.8,0.8,1,1.7,1,2.9v6.5H109.5z"/>
		<path class="st3" d="M119.7,268.6v-0.9c-0.7,0.7-1.4,1-2.7,1c-1.3,0-2.1-0.3-2.7-0.9c-0.5-0.5-0.8-1.3-0.8-2.2
			c0-1.7,1.2-2.9,3.5-2.9h2.7V262c0-1.3-0.6-1.9-2.2-1.9c-1.1,0-1.7,0.3-2.2,1l-1.3-1.3c1-1.1,2-1.5,3.6-1.5c2.8,0,4.2,1.2,4.2,3.5
			v6.8H119.7z M119.6,264.1h-2.4c-1.2,0-1.8,0.5-1.8,1.5c0,0.9,0.6,1.4,1.9,1.4c0.8,0,1.4-0.1,1.9-0.6c0.3-0.3,0.4-0.8,0.4-1.5
			V264.1z"/>
		<path class="st3" d="M130.4,268.6v-1c-0.7,0.8-1.7,1.1-2.7,1.1c-1,0-1.9-0.3-2.5-0.9c-0.8-0.8-1-1.7-1-2.9v-6.5h2v6.2
			c0,1.6,0.9,2.3,2,2.3c1.1,0,2.1-0.7,2.1-2.3v-6.2h2v10.1H130.4z"/>
		<path class="st3" d="M138.1,268.6c-1.9,0-2.8-1.4-2.8-2.8v-5.6h-1.2v-1.6h1.2v-3.1h2v3.1h2v1.6h-2v5.5c0,0.7,0.4,1.2,1.1,1.2h0.8
			v1.7H138.1z"/>
		<path class="st3" d="M142.8,264.1c0,1.7,0.9,2.8,2.6,2.8c1.1,0,1.7-0.3,2.5-1l1.3,1.2c-1,1-2,1.6-3.8,1.6c-2.5,0-4.6-1.3-4.6-5.2
			c0-3.3,1.7-5.2,4.3-5.2c2.7,0,4.3,2,4.3,4.9v0.9H142.8z M147,261.3c-0.3-0.8-1-1.3-2-1.3s-1.7,0.5-2,1.3c-0.2,0.5-0.2,0.8-0.3,1.4
			h4.6C147.3,262.1,147.2,261.8,147,261.3z M145.6,256.6h-1.5l1.5-3.2h2.3L145.6,256.6z"/>
	</g>
	<rect x="254.9" y="87.9" class="st1" width="207.2" height="207.2"/>
	<g>
		<path class="st3" d="M271.5,120.8h8.8v2.8h-5.9v6.1h5.1v2.8h-5.1v6.1h5.9v3h-8.8V120.8z M276.5,115.8h3.1l-3.8,4.1h-1.9
			L276.5,115.8z"/>
		<path class="st3" d="M284.6,123.6h-3.4v-2.8h9.8v2.8h-3.4v17.9h-3V123.6z"/>
		<path class="st3" d="M294.5,120.8h2.5l4.6,20.6h-3l-0.9-4.4h-4l-0.9,4.4h-3L294.5,120.8z M295.8,126.7L295.8,126.7l-1.5,7.5h3
			L295.8,126.7z"/>
		<path class="st3" d="M303,120.8h4.4c0.8,0,1.5,0.1,2.1,0.3c0.6,0.2,1.2,0.6,1.7,1.1c0.5,0.5,0.9,1.2,1,1.9
			c0.2,0.7,0.3,1.7,0.3,2.9c0,0.9-0.1,1.7-0.2,2.3c-0.1,0.6-0.3,1.3-0.7,1.8c-0.4,0.7-0.9,1.2-1.6,1.6c-0.7,0.4-1.6,0.6-2.7,0.6
			h-1.5v8.1h-3V120.8z M305.9,130.6h1.4c0.6,0,1.1-0.1,1.4-0.3c0.3-0.2,0.6-0.4,0.7-0.7c0.2-0.3,0.2-0.7,0.3-1.1c0-0.4,0-0.9,0-1.4
			c0-0.5,0-0.9,0-1.4c0-0.4-0.1-0.8-0.3-1.1c-0.1-0.3-0.4-0.6-0.7-0.8c-0.3-0.2-0.8-0.3-1.3-0.3h-1.5V130.6z"/>
		<path class="st3" d="M314.3,120.8h8.8v2.8h-5.9v6.1h5.1v2.8h-5.1v6.1h5.9v3h-8.8V120.8z"/>
		<path class="st3" d="M329.2,138.7l5.3-10.1c0.3-0.5,0.4-0.9,0.5-1.3c0-0.4,0.1-0.8,0.1-1.4c0-0.3,0-0.5,0-0.8
			c0-0.3-0.1-0.5-0.2-0.7c-0.1-0.2-0.2-0.4-0.4-0.5c-0.2-0.1-0.5-0.2-0.8-0.2c-0.4,0-0.8,0.1-1.1,0.4c-0.3,0.3-0.4,0.6-0.4,1.1v1.7
			h-3v-1.6c0-0.6,0.1-1.2,0.3-1.7c0.2-0.5,0.5-1,0.9-1.4c0.4-0.4,0.9-0.7,1.4-1c0.5-0.2,1.1-0.4,1.7-0.4c0.8,0,1.4,0.1,2,0.4
			c0.6,0.3,1,0.7,1.4,1.1c0.4,0.5,0.6,1,0.8,1.7c0.2,0.6,0.2,1.3,0.2,2c0,0.5,0,0.9,0,1.3c0,0.3-0.1,0.7-0.1,1
			c-0.1,0.3-0.2,0.6-0.3,0.9c-0.1,0.3-0.3,0.7-0.6,1.1l-4.4,8.4h5.3v3h-8.8V138.7z"/>
	</g>
	<g>
		<path class="st3" d="M277,172.7c-1.5,0-2.8-0.5-3.7-1.5c-1.4-1.4-1.4-3-1.4-5.7s0-4.3,1.4-5.7c1-1,2.3-1.5,3.7-1.5
			c2.6,0,4.6,1.5,5.1,4.4h-2.2c-0.3-1.4-1.3-2.4-2.9-2.4c-0.8,0-1.6,0.3-2.1,0.9c-0.7,0.8-0.9,1.6-0.9,4.4c0,2.9,0.2,3.7,0.9,4.4
			c0.5,0.5,1.3,0.9,2.1,0.9c1.6,0,2.6-1,2.9-2.4h2.2C281.6,171.2,279.5,172.7,277,172.7z"/>
		<path class="st3" d="M291.1,171.5c-0.7,0.7-1.7,1.2-3,1.2c-1.4,0-2.4-0.5-3-1.2c-1-1-1.2-2.3-1.2-4c0-1.7,0.2-3,1.2-4
			c0.7-0.7,1.6-1.2,3-1.2c1.4,0,2.4,0.5,3,1.2c1,1,1.2,2.3,1.2,4C292.3,169.2,292.1,170.5,291.1,171.5z M289.6,164.7
			c-0.4-0.4-0.9-0.6-1.5-0.6c-0.6,0-1.1,0.2-1.5,0.6c-0.6,0.6-0.7,1.7-0.7,2.8s0.1,2.2,0.7,2.8c0.4,0.4,0.9,0.6,1.5,0.6
			c0.6,0,1.1-0.2,1.5-0.6c0.6-0.6,0.7-1.7,0.7-2.8S290.2,165.4,289.6,164.7z"/>
		<path class="st3" d="M307,172.6v-6.2c0-1.6-0.9-2.3-2-2.3c-1.1,0-2.1,0.7-2.1,2.2v6.3h-2v-6.2c0-1.6-0.9-2.3-2-2.3
			c-1.1,0-2.1,0.7-2.1,2.3v6.2h-2v-10.1h2v1c0.7-0.7,1.7-1.1,2.7-1.1c1.3,0,2.2,0.5,2.9,1.5c0.8-1,1.8-1.5,3.2-1.5
			c1,0,2,0.3,2.6,0.9c0.8,0.8,1.1,1.7,1.1,2.9v6.5H307z"/>
		<path class="st3" d="M318.8,171.8c-0.6,0.6-1.4,0.9-2.5,0.9c-1.1,0-1.9-0.3-2.7-1.2v5.1h-2v-14.2h2v1.1c0.8-0.9,1.6-1.2,2.7-1.2
			c1,0,1.9,0.3,2.5,0.9c1,1,1.1,2.7,1.1,4.3S319.8,170.8,318.8,171.8z M315.8,164.2c-1.8,0-2.1,1.6-2.1,3.4s0.3,3.4,2.1,3.4
			s2.1-1.6,2.1-3.4S317.6,164.2,315.8,164.2z"/>
		<path class="st3" d="M327.8,164.8c-0.5-0.5-0.8-0.7-1.5-0.7c-1.1,0-2,0.9-2,2.3v6.2h-2v-10.1h2v1.1c0.5-0.7,1.6-1.2,2.7-1.2
			c1,0,1.7,0.3,2.4,1L327.8,164.8z"/>
		<path class="st3" d="M332,168.1c0,1.7,0.9,2.8,2.6,2.8c1.1,0,1.7-0.3,2.5-1l1.3,1.2c-1,1-2,1.6-3.8,1.6c-2.5,0-4.6-1.3-4.6-5.2
			c0-3.3,1.7-5.2,4.3-5.2c2.7,0,4.3,2,4.3,4.9v0.9H332z M336.3,165.3c-0.3-0.8-1-1.3-2-1.3s-1.7,0.5-2,1.3c-0.2,0.5-0.2,0.8-0.3,1.4
			h4.6C336.5,166.1,336.5,165.8,336.3,165.3z"/>
		<path class="st3" d="M346.9,172.6v-6.2c0-1.6-0.9-2.3-2-2.3c-1.1,0-2.1,0.7-2.1,2.3v6.2h-2v-10.1h2v1c0.7-0.8,1.7-1.1,2.7-1.1
			c1,0,1.9,0.3,2.5,0.9c0.8,0.8,1,1.7,1,2.9v6.5H346.9z"/>
		<path class="st3" d="M357.5,172.6v-1.1c-0.8,0.9-1.6,1.2-2.7,1.2c-1,0-1.9-0.3-2.5-0.9c-1-1-1.1-2.8-1.1-4.3s0.1-3.3,1.1-4.3
			c0.6-0.6,1.4-0.9,2.5-0.9c1.1,0,1.9,0.3,2.7,1.1v-5.1h2v14.2H357.5z M355.3,164.2c-1.8,0-2.1,1.6-2.1,3.4s0.3,3.4,2.1,3.4
			c1.8,0,2.1-1.6,2.1-3.4S357.2,164.2,355.3,164.2z"/>
		<path class="st3" d="M367.7,164.8c-0.5-0.5-0.8-0.7-1.5-0.7c-1.1,0-2,0.9-2,2.3v6.2h-2v-10.1h2v1.1c0.5-0.7,1.6-1.2,2.7-1.2
			c1,0,1.7,0.3,2.4,1L367.7,164.8z"/>
		<path class="st3" d="M371.9,168.1c0,1.7,0.9,2.8,2.6,2.8c1.1,0,1.7-0.3,2.5-1l1.3,1.2c-1,1-2,1.6-3.8,1.6c-2.5,0-4.6-1.3-4.6-5.2
			c0-3.3,1.7-5.2,4.3-5.2c2.7,0,4.3,2,4.3,4.9v0.9H371.9z M376.2,165.3c-0.3-0.8-1-1.3-2-1.3s-1.7,0.5-2,1.3
			c-0.2,0.5-0.2,0.8-0.3,1.4h4.6C376.4,166.1,376.4,165.8,376.2,165.3z"/>
		<path class="st3" d="M387.9,172.6c-1.9,0-2.8-1.3-2.8-2.8v-11.4h2v11.3c0,0.8,0.3,1.2,1.1,1.2h0.9v1.7H387.9z"/>
		<path class="st3" d="M392.4,168.1c0,1.7,0.9,2.8,2.6,2.8c1.1,0,1.7-0.3,2.5-1l1.3,1.2c-1,1-2,1.6-3.8,1.6c-2.5,0-4.6-1.3-4.6-5.2
			c0-3.3,1.7-5.2,4.3-5.2c2.7,0,4.3,2,4.3,4.9v0.9H392.4z M396.7,165.3c-0.3-0.8-1-1.3-2-1.3s-1.7,0.5-2,1.3
			c-0.2,0.5-0.2,0.8-0.3,1.4h4.6C396.9,166.1,396.9,165.8,396.7,165.3z"/>
		<path class="st3" d="M276.1,196.7c-2.3,0-4.5-1.4-4.5-5.2s2.2-5.2,4.5-5.2c1.4,0,2.4,0.4,3.3,1.4l-1.4,1.4c-0.6-0.7-1.1-1-1.9-1
			c-0.8,0-1.4,0.3-1.9,0.9c-0.4,0.6-0.6,1.3-0.6,2.5s0.2,1.9,0.6,2.5c0.4,0.6,1.1,0.9,1.9,0.9c0.8,0,1.3-0.3,1.9-1l1.4,1.3
			C278.5,196.3,277.5,196.7,276.1,196.7z"/>
		<path class="st3" d="M288,195.5c-0.7,0.7-1.7,1.2-3,1.2c-1.4,0-2.4-0.5-3-1.2c-1-1-1.2-2.3-1.2-4c0-1.7,0.2-3,1.2-4
			c0.7-0.7,1.6-1.2,3-1.2c1.4,0,2.4,0.5,3,1.2c1,1,1.2,2.3,1.2,4C289.2,193.2,288.9,194.5,288,195.5z M286.4,188.7
			c-0.4-0.4-0.9-0.6-1.5-0.6c-0.6,0-1.1,0.2-1.5,0.6c-0.6,0.6-0.7,1.7-0.7,2.8s0.1,2.2,0.7,2.8c0.4,0.4,0.9,0.6,1.5,0.6
			c0.6,0,1.1-0.2,1.5-0.6c0.6-0.6,0.7-1.7,0.7-2.8S287,189.4,286.4,188.7z"/>
		<path class="st3" d="M297.6,196.6v-6.2c0-1.6-0.9-2.3-2-2.3c-1.1,0-2.1,0.7-2.1,2.3v6.2h-2v-10.1h2v1c0.7-0.8,1.7-1.1,2.7-1.1
			c1,0,1.9,0.3,2.5,0.9c0.8,0.8,1,1.7,1,2.9v6.5H297.6z"/>
		<path class="st3" d="M305.2,196.6c-1.9,0-2.8-1.4-2.8-2.8v-5.6h-1.2v-1.6h1.2v-3.1h2v3.1h2v1.6h-2v5.5c0,0.7,0.4,1.2,1.1,1.2h0.8
			v1.7H305.2z"/>
		<path class="st3" d="M309.9,192.1c0,1.7,0.9,2.8,2.6,2.8c1.1,0,1.7-0.3,2.5-1l1.3,1.2c-1,1-2,1.6-3.8,1.6c-2.5,0-4.6-1.3-4.6-5.2
			c0-3.3,1.7-5.2,4.3-5.2c2.7,0,4.3,2,4.3,4.9v0.9H309.9z M314.1,189.3c-0.3-0.8-1-1.3-2-1.3s-1.7,0.5-2,1.3
			c-0.2,0.5-0.2,0.8-0.3,1.4h4.6C314.4,190.1,314.3,189.8,314.1,189.3z"/>
		<path class="st3" d="M324.1,196.6l-2.1-3.5l-2.1,3.5h-2.5l3.5-5.2l-3.3-5h2.5l2,3.3l2-3.3h2.5l-3.3,5l3.5,5.2H324.1z"/>
		<path class="st3" d="M331.7,196.6c-1.9,0-2.8-1.4-2.8-2.8v-5.6h-1.2v-1.6h1.2v-3.1h2v3.1h2v1.6h-2v5.5c0,0.7,0.4,1.2,1.1,1.2h0.8
			v1.7H331.7z"/>
		<path class="st3" d="M336.3,192.1c0,1.7,0.9,2.8,2.6,2.8c1.1,0,1.7-0.3,2.5-1l1.3,1.2c-1,1-2,1.6-3.8,1.6c-2.5,0-4.6-1.3-4.6-5.2
			c0-3.3,1.7-5.2,4.3-5.2c2.7,0,4.3,2,4.3,4.9v0.9H336.3z M340.6,189.3c-0.3-0.8-1-1.3-2-1.3s-1.7,0.5-2,1.3
			c-0.2,0.5-0.2,0.8-0.3,1.4h4.6C340.9,190.1,340.8,189.8,340.6,189.3z"/>
		<path class="st3" d="M352.3,196.6c-1.9,0-2.8-1.3-2.8-2.8v-11.4h2v11.3c0,0.8,0.3,1.2,1.1,1.2h0.9v1.7H352.3z"/>
		<path class="st3" d="M362.1,195.5c-0.7,0.7-1.7,1.2-3,1.2c-1.4,0-2.4-0.5-3-1.2c-1-1-1.2-2.3-1.2-4c0-1.7,0.2-3,1.2-4
			c0.7-0.7,1.6-1.2,3-1.2c1.4,0,2.4,0.5,3,1.2c1,1,1.2,2.3,1.2,4C363.3,193.2,363.1,194.5,362.1,195.5z M360.6,188.7
			c-0.4-0.4-0.9-0.6-1.5-0.6c-0.6,0-1.1,0.2-1.5,0.6c-0.6,0.6-0.7,1.7-0.7,2.8s0.1,2.2,0.7,2.8c0.4,0.4,0.9,0.6,1.5,0.6
			c0.6,0,1.1-0.2,1.5-0.6c0.6-0.6,0.7-1.7,0.7-2.8S361.2,189.4,360.6,188.7z"/>
		<path class="st3" d="M369.6,196.7c-2.3,0-4.5-1.4-4.5-5.2s2.2-5.2,4.5-5.2c1.4,0,2.4,0.4,3.3,1.4l-1.4,1.4c-0.6-0.7-1.1-1-1.9-1
			c-0.8,0-1.4,0.3-1.9,0.9c-0.4,0.6-0.6,1.3-0.6,2.5s0.2,1.9,0.6,2.5c0.4,0.6,1.1,0.9,1.9,0.9c0.8,0,1.3-0.3,1.9-1l1.4,1.3
			C372,196.3,371,196.7,369.6,196.7z"/>
		<path class="st3" d="M380.5,196.6v-0.9c-0.7,0.7-1.4,1-2.7,1c-1.3,0-2.1-0.3-2.7-0.9c-0.5-0.5-0.8-1.3-0.8-2.2
			c0-1.7,1.2-2.9,3.5-2.9h2.7V190c0-1.3-0.6-1.9-2.2-1.9c-1.1,0-1.7,0.3-2.2,1l-1.3-1.3c1-1.1,2-1.5,3.6-1.5c2.8,0,4.2,1.2,4.2,3.5
			v6.8H380.5z M380.5,192.1h-2.4c-1.2,0-1.8,0.5-1.8,1.5c0,0.9,0.6,1.4,1.9,1.4c0.8,0,1.4-0.1,1.9-0.6c0.3-0.3,0.4-0.8,0.4-1.5
			V192.1z"/>
		<path class="st3" d="M387.8,196.6c-1.9,0-2.8-1.3-2.8-2.8v-11.4h2v11.3c0,0.8,0.3,1.2,1.1,1.2h0.9v1.7H387.8z"/>
	</g>
	<rect x="484.9" y="87.9" class="st4" width="207.2" height="207.2"/>
	<g>
		<path class="st3" d="M501.5,120.8h8.8v2.8h-5.9v6.1h5.1v2.8h-5.1v6.1h5.9v3h-8.8V120.8z M506.5,115.8h3.1l-3.8,4.1h-1.9
			L506.5,115.8z"/>
		<path class="st3" d="M514.6,123.6h-3.4v-2.8h9.8v2.8h-3.4v17.9h-3V123.6z"/>
		<path class="st3" d="M524.5,120.8h2.5l4.6,20.6h-3l-0.9-4.4h-4l-0.9,4.4h-3L524.5,120.8z M525.8,126.7L525.8,126.7l-1.5,7.5h3
			L525.8,126.7z"/>
		<path class="st3" d="M533,120.8h4.4c0.8,0,1.5,0.1,2.1,0.3c0.6,0.2,1.2,0.6,1.7,1.1c0.5,0.5,0.9,1.2,1,1.9
			c0.2,0.7,0.3,1.7,0.3,2.9c0,0.9-0.1,1.7-0.2,2.3c-0.1,0.6-0.3,1.3-0.7,1.8c-0.4,0.7-0.9,1.2-1.6,1.6c-0.7,0.4-1.6,0.6-2.7,0.6
			h-1.5v8.1h-3V120.8z M535.9,130.6h1.4c0.6,0,1.1-0.1,1.4-0.3c0.3-0.2,0.6-0.4,0.7-0.7c0.2-0.3,0.2-0.7,0.3-1.1c0-0.4,0-0.9,0-1.4
			c0-0.5,0-0.9,0-1.4c0-0.4-0.1-0.8-0.3-1.1c-0.1-0.3-0.4-0.6-0.7-0.8c-0.3-0.2-0.8-0.3-1.3-0.3h-1.5V130.6z"/>
		<path class="st3" d="M544.3,120.8h8.8v2.8h-5.9v6.1h5.1v2.8h-5.1v6.1h5.9v3h-8.8V120.8z"/>
		<path class="st3" d="M562.7,129.5c0.9,0,1.5-0.1,1.8-0.3c0.3-0.2,0.5-0.7,0.5-1.5V125c0-0.4-0.1-0.8-0.4-1
			c-0.3-0.3-0.6-0.4-1.1-0.4c-0.5,0-0.9,0.2-1.1,0.5c-0.2,0.3-0.3,0.6-0.3,1v1.7h-3V125c0-0.6,0.1-1.2,0.3-1.7c0.2-0.5,0.6-1,1-1.4
			s0.9-0.7,1.4-0.9c0.5-0.2,1.1-0.3,1.7-0.3c0.8,0,1.5,0.2,2,0.5c0.5,0.3,0.9,0.6,1.2,1c0.2,0.2,0.4,0.5,0.5,0.7
			c0.1,0.2,0.3,0.5,0.3,0.8c0.1,0.3,0.2,0.7,0.2,1.2c0,0.5,0.1,1,0.1,1.7c0,0.7,0,1.3,0,1.7c0,0.4-0.1,0.8-0.2,1.1
			c-0.1,0.3-0.3,0.6-0.6,0.8c-0.2,0.2-0.6,0.4-1,0.7c0.5,0.3,0.8,0.6,1.1,0.8c0.2,0.3,0.4,0.5,0.5,0.9c0.1,0.3,0.2,0.7,0.2,1.2
			c0,0.5,0,1.1,0,1.8c0,0.7,0,1.2,0,1.7c0,0.4-0.1,0.8-0.1,1.1s-0.1,0.6-0.2,0.8c-0.1,0.2-0.2,0.4-0.4,0.7c-0.4,0.5-0.8,1-1.4,1.3
			s-1.3,0.5-2.2,0.5c-0.5,0-1-0.1-1.5-0.2c-0.5-0.2-1-0.4-1.4-0.8c-0.4-0.3-0.8-0.8-1.1-1.4s-0.4-1.2-0.4-2.1v-1.7h3v1.5
			c0,0.5,0.1,0.8,0.4,1.1c0.3,0.3,0.6,0.4,1.1,0.4c0.4,0,0.8-0.1,1.1-0.4c0.3-0.3,0.4-0.7,0.4-1.2v-3c0-0.4,0-0.7-0.1-1
			s-0.2-0.4-0.4-0.6c-0.2-0.1-0.4-0.2-0.7-0.3c-0.3,0-0.7-0.1-1.2-0.1V129.5z"/>
	</g>
	<g>
		<path class="st3" d="M511,171.3c-0.9,0.9-2.2,1.3-3.7,1.3h-5v-14.2h5c1.5,0,2.8,0.4,3.7,1.3c1.5,1.5,1.4,3.6,1.4,5.7
			C512.5,167.4,512.6,169.7,511,171.3z M509.6,161.3c-0.6-0.7-1.4-1-2.4-1h-2.6v10.4h2.6c1,0,1.8-0.3,2.4-1c0.7-0.8,0.8-2.4,0.8-4.3
			S510.3,162.1,509.6,161.3z"/>
		<path class="st3" d="M516.5,168.1c0,1.7,0.9,2.8,2.6,2.8c1.1,0,1.7-0.3,2.5-1l1.3,1.2c-1,1-2,1.6-3.8,1.6c-2.5,0-4.6-1.3-4.6-5.2
			c0-3.3,1.7-5.2,4.3-5.2c2.7,0,4.3,2,4.3,4.9v0.9H516.5z M520.7,165.3c-0.3-0.8-1-1.3-2-1.3s-1.7,0.5-2,1.3
			c-0.2,0.5-0.2,0.8-0.3,1.4h4.6C521,166.1,520.9,165.8,520.7,165.3z M519.3,160.6h-1.5l1.5-3.2h2.3L519.3,160.6z"/>
		<path class="st3" d="M527.5,164.2v8.4h-2v-8.4h-1.2v-1.6h1.2v-1.6c0-1.5,0.9-2.8,2.8-2.8h1.3v1.7h-0.9c-0.8,0-1.1,0.4-1.1,1.2v1.5
			h2v1.6H527.5z"/>
		<path class="st3" d="M531.3,160.5v-2.2h2.2v2.2H531.3z M531.4,172.6v-10.1h2v10.1H531.4z"/>
		<path class="st3" d="M542.2,172.6v-6.2c0-1.6-0.9-2.3-2-2.3c-1.1,0-2.1,0.7-2.1,2.3v6.2h-2v-10.1h2v1c0.7-0.8,1.7-1.1,2.7-1.1
			c1,0,1.9,0.3,2.5,0.9c0.8,0.8,1,1.7,1,2.9v6.5H542.2z"/>
		<path class="st3" d="M546.8,160.5v-2.2h2.2v2.2H546.8z M546.8,172.6v-10.1h2v10.1H546.8z"/>
		<path class="st3" d="M557.1,164.8c-0.5-0.5-0.8-0.7-1.5-0.7c-1.1,0-2,0.9-2,2.3v6.2h-2v-10.1h2v1.1c0.5-0.7,1.6-1.2,2.7-1.2
			c1,0,1.7,0.3,2.4,1L557.1,164.8z"/>
		<path class="st3" d="M567,172.6c-1.9,0-2.8-1.3-2.8-2.8v-11.4h2v11.3c0,0.8,0.3,1.2,1.1,1.2h0.9v1.7H567z"/>
		<path class="st3" d="M571.5,168.1c0,1.7,0.9,2.8,2.6,2.8c1.1,0,1.7-0.3,2.5-1l1.3,1.2c-1,1-2,1.6-3.8,1.6c-2.5,0-4.6-1.3-4.6-5.2
			c0-3.3,1.7-5.2,4.3-5.2c2.7,0,4.3,2,4.3,4.9v0.9H571.5z M575.8,165.3c-0.3-0.8-1-1.3-2-1.3s-1.7,0.5-2,1.3
			c-0.2,0.5-0.2,0.8-0.3,1.4h4.6C576,166.1,576,165.8,575.8,165.3z"/>
		<path class="st3" d="M588.8,172.7c-2.3,0-4.5-1.4-4.5-5.2s2.2-5.2,4.5-5.2c1.4,0,2.4,0.4,3.3,1.4l-1.4,1.4c-0.6-0.7-1.1-1-1.9-1
			c-0.8,0-1.4,0.3-1.9,0.9c-0.4,0.6-0.6,1.3-0.6,2.5s0.2,1.9,0.6,2.5c0.4,0.6,1.1,0.9,1.9,0.9c0.8,0,1.3-0.3,1.9-1l1.4,1.3
			C591.2,172.3,590.2,172.7,588.8,172.7z"/>
		<path class="st3" d="M600.1,172.6v-6.2c0-1.5-0.9-2.2-2-2.2c-1.1,0-2.1,0.7-2.1,2.2v6.2h-2v-14.2h2v5.1c0.7-0.8,1.6-1.1,2.6-1.1
			c2.3,0,3.5,1.5,3.5,3.7v6.5H600.1z"/>
		<path class="st3" d="M610.3,172.6v-0.9c-0.7,0.7-1.4,1-2.7,1c-1.3,0-2.1-0.3-2.7-0.9c-0.5-0.5-0.8-1.3-0.8-2.2
			c0-1.7,1.2-2.9,3.5-2.9h2.7V166c0-1.3-0.6-1.9-2.2-1.9c-1.1,0-1.7,0.3-2.2,1l-1.3-1.3c1-1.1,2-1.5,3.6-1.5c2.8,0,4.2,1.2,4.2,3.5
			v6.8H610.3z M610.2,168.1h-2.4c-1.2,0-1.8,0.5-1.8,1.5c0,0.9,0.6,1.4,1.9,1.4c0.8,0,1.4-0.1,1.9-0.6c0.3-0.3,0.4-0.8,0.4-1.5
			V168.1z"/>
		<path class="st3" d="M627.2,172.6v-6.2c0-1.6-0.9-2.3-2-2.3c-1.1,0-2.1,0.7-2.1,2.2v6.3h-2v-6.2c0-1.6-0.9-2.3-2-2.3
			c-1.1,0-2.1,0.7-2.1,2.3v6.2h-2v-10.1h2v1c0.7-0.7,1.7-1.1,2.7-1.1c1.3,0,2.2,0.5,2.9,1.5c0.8-1,1.8-1.5,3.2-1.5
			c1,0,2,0.3,2.6,0.9c0.8,0.8,1.1,1.7,1.1,2.9v6.5H627.2z"/>
		<path class="st3" d="M639,171.8c-0.6,0.6-1.4,0.9-2.5,0.9c-1.1,0-1.9-0.3-2.7-1.2v5.1h-2v-14.2h2v1.1c0.8-0.9,1.6-1.2,2.7-1.2
			c1,0,1.9,0.3,2.5,0.9c1,1,1.1,2.7,1.1,4.3S640,170.8,639,171.8z M636,164.2c-1.8,0-2.1,1.6-2.1,3.4s0.3,3.4,2.1,3.4
			s2.1-1.6,2.1-3.4S637.9,164.2,636,164.2z"/>
		<path class="st3" d="M507.9,196.6v-1.1c-0.8,0.9-1.6,1.2-2.7,1.2c-1,0-1.9-0.3-2.5-0.9c-1-1-1.1-2.8-1.1-4.3s0.1-3.3,1.1-4.3
			c0.6-0.6,1.4-0.9,2.5-0.9c1.1,0,1.9,0.3,2.7,1.1v-5.1h2v14.2H507.9z M505.8,188.2c-1.8,0-2.1,1.6-2.1,3.4s0.3,3.4,2.1,3.4
			c1.8,0,2.1-1.6,2.1-3.4S507.6,188.2,505.8,188.2z"/>
		<path class="st3" d="M514.2,192.1c0,1.7,0.9,2.8,2.6,2.8c1.1,0,1.7-0.3,2.5-1l1.3,1.2c-1,1-2,1.6-3.8,1.6c-2.5,0-4.6-1.3-4.6-5.2
			c0-3.3,1.7-5.2,4.3-5.2c2.7,0,4.3,2,4.3,4.9v0.9H514.2z M518.4,189.3c-0.3-0.8-1-1.3-2-1.3s-1.7,0.5-2,1.3
			c-0.2,0.5-0.2,0.8-0.3,1.4h4.6C518.7,190.1,518.6,189.8,518.4,189.3z"/>
		<path class="st3" d="M526.4,196.7c-1.7,0-3.1-0.3-4.3-1.5l1.3-1.3c0.8,0.8,1.9,1.1,2.9,1.1c1.2,0,2.2-0.4,2.2-1.4
			c0-0.7-0.4-1.1-1.4-1.2l-1.6-0.1c-1.9-0.2-3-1-3-2.8c0-2,1.7-3.1,3.8-3.1c1.5,0,2.8,0.3,3.8,1.1l-1.3,1.3
			c-0.6-0.5-1.5-0.7-2.5-0.7c-1.2,0-1.8,0.5-1.8,1.3c0,0.6,0.3,1.1,1.4,1.2l1.6,0.1c1.9,0.2,3,1.1,3,2.9
			C530.6,195.6,528.8,196.7,526.4,196.7z"/>
		<path class="st3" d="M544.3,195.8c-0.6,0.6-1.4,0.9-2.5,0.9c-1.1,0-1.9-0.3-2.7-1.2v5.1h-2v-14.2h2v1.1c0.8-0.9,1.6-1.2,2.7-1.2
			c1,0,1.9,0.3,2.5,0.9c1,1,1.1,2.7,1.1,4.3S545.3,194.8,544.3,195.8z M541.3,188.2c-1.8,0-2.1,1.6-2.1,3.4s0.3,3.4,2.1,3.4
			s2.1-1.6,2.1-3.4S543.1,188.2,541.3,188.2z"/>
		<path class="st3" d="M550.4,196.6c-1.9,0-2.8-1.3-2.8-2.8v-11.4h2v11.3c0,0.8,0.3,1.2,1.1,1.2h0.9v1.7H550.4z"/>
		<path class="st3" d="M559.2,196.6v-0.9c-0.7,0.7-1.4,1-2.7,1c-1.3,0-2.1-0.3-2.7-0.9c-0.5-0.5-0.8-1.3-0.8-2.2
			c0-1.7,1.2-2.9,3.5-2.9h2.7V190c0-1.3-0.6-1.9-2.2-1.9c-1.1,0-1.7,0.3-2.2,1l-1.3-1.3c1-1.1,2-1.5,3.6-1.5c2.8,0,4.2,1.2,4.2,3.5
			v6.8H559.2z M559.2,192.1h-2.4c-1.2,0-1.8,0.5-1.8,1.5c0,0.9,0.6,1.4,1.9,1.4c0.8,0,1.4-0.1,1.9-0.6c0.3-0.3,0.4-0.8,0.4-1.5
			V192.1z"/>
		<path class="st3" d="M563.8,184.5v-2.2h2.2v2.2H563.8z M563.8,196.6v-10.1h2v10.1H563.8z"/>
		<path class="st3" d="M574.7,196.6v-6.2c0-1.6-0.9-2.3-2-2.3c-1.1,0-2.1,0.7-2.1,2.3v6.2h-2v-10.1h2v1c0.7-0.8,1.7-1.1,2.7-1.1
			c1,0,1.9,0.3,2.5,0.9c0.8,0.8,1,1.7,1,2.9v6.5H574.7z"/>
		<path class="st3" d="M582.3,196.6c-1.9,0-2.8-1.4-2.8-2.8v-5.6h-1.2v-1.6h1.2v-3.1h2v3.1h2v1.6h-2v5.5c0,0.7,0.4,1.2,1.1,1.2h0.8
			v1.7H582.3z"/>
		<path class="st3" d="M586.9,192.1c0,1.7,0.9,2.8,2.6,2.8c1.1,0,1.7-0.3,2.5-1l1.3,1.2c-1,1-2,1.6-3.8,1.6c-2.5,0-4.6-1.3-4.6-5.2
			c0-3.3,1.7-5.2,4.3-5.2c2.7,0,4.3,2,4.3,4.9v0.9H586.9z M591.2,189.3c-0.3-0.8-1-1.3-2-1.3s-1.7,0.5-2,1.3
			c-0.2,0.5-0.2,0.8-0.3,1.4h4.6C591.5,190.1,591.4,189.8,591.2,189.3z"/>
		<path class="st3" d="M599.2,196.7c-1.7,0-3.1-0.3-4.3-1.5l1.3-1.3c0.8,0.8,1.9,1.1,2.9,1.1c1.2,0,2.2-0.4,2.2-1.4
			c0-0.7-0.4-1.1-1.4-1.2l-1.6-0.1c-1.9-0.2-3-1-3-2.8c0-2,1.7-3.1,3.8-3.1c1.5,0,2.8,0.3,3.8,1.1l-1.3,1.3
			c-0.6-0.5-1.5-0.7-2.5-0.7c-1.2,0-1.8,0.5-1.8,1.3c0,0.6,0.3,1.1,1.4,1.2l1.6,0.1c1.9,0.2,3,1.1,3,2.9
			C603.4,195.6,601.6,196.7,599.2,196.7z"/>
	</g>
	<rect x="714.8" y="87.9" class="st9" width="207.2" height="207.2"/>
	<g>
		<path class="st3" d="M731.5,120.8h8.8v2.8h-5.9v6.1h5.1v2.8h-5.1v6.1h5.9v3h-8.8V120.8z M736.5,115.8h3.1l-3.8,4.1h-1.9
			L736.5,115.8z"/>
		<path class="st3" d="M744.6,123.6h-3.4v-2.8h9.8v2.8h-3.4v17.9h-3V123.6z"/>
		<path class="st3" d="M754.5,120.8h2.5l4.6,20.6h-3l-0.9-4.4h-4l-0.9,4.4h-3L754.5,120.8z M755.7,126.7L755.7,126.7l-1.5,7.5h3
			L755.7,126.7z"/>
		<path class="st3" d="M762.9,120.8h4.4c0.8,0,1.5,0.1,2.1,0.3c0.6,0.2,1.2,0.6,1.7,1.1c0.5,0.5,0.9,1.2,1,1.9
			c0.2,0.7,0.3,1.7,0.3,2.9c0,0.9-0.1,1.7-0.2,2.3c-0.1,0.6-0.3,1.3-0.7,1.8c-0.4,0.7-0.9,1.2-1.6,1.6c-0.7,0.4-1.6,0.6-2.7,0.6
			h-1.5v8.1h-3V120.8z M765.9,130.6h1.4c0.6,0,1.1-0.1,1.4-0.3c0.3-0.2,0.6-0.4,0.7-0.7c0.2-0.3,0.2-0.7,0.3-1.1c0-0.4,0-0.9,0-1.4
			c0-0.5,0-0.9,0-1.4c0-0.4-0.1-0.8-0.3-1.1c-0.1-0.3-0.4-0.6-0.7-0.8c-0.3-0.2-0.8-0.3-1.3-0.3h-1.5V130.6z"/>
		<path class="st3" d="M774.3,120.8h8.8v2.8h-5.9v6.1h5.1v2.8h-5.1v6.1h5.9v3h-8.8V120.8z"/>
		<path class="st3" d="M794.3,138.4h-5.9v-2.8l4.3-14.8h3.1l-4.4,14.8h2.9v-5.9h3v5.9h1.4v2.8h-1.4v3.1h-3V138.4z"/>
	</g>
	<g>
		<path class="st3" d="M741,171.3c-0.9,0.9-2.2,1.3-3.7,1.3h-5v-14.2h5c1.5,0,2.8,0.4,3.7,1.3c1.5,1.5,1.4,3.6,1.4,5.7
			C742.4,167.4,742.5,169.7,741,171.3z M739.5,161.3c-0.6-0.7-1.4-1-2.4-1h-2.6v10.4h2.6c1,0,1.8-0.3,2.4-1c0.7-0.8,0.8-2.4,0.8-4.3
			S740.2,162.1,739.5,161.3z"/>
		<path class="st3" d="M746.4,168.1c0,1.7,0.9,2.8,2.6,2.8c1.1,0,1.7-0.3,2.5-1l1.3,1.2c-1,1-2,1.6-3.8,1.6c-2.5,0-4.6-1.3-4.6-5.2
			c0-3.3,1.7-5.2,4.3-5.2c2.7,0,4.3,2,4.3,4.9v0.9H746.4z M750.7,165.3c-0.3-0.8-1-1.3-2-1.3s-1.7,0.5-2,1.3
			c-0.2,0.5-0.2,0.8-0.3,1.4h4.6C751,166.1,750.9,165.8,750.7,165.3z M749.3,160.6h-1.5l1.5-3.2h2.3L749.3,160.6z"/>
		<path class="st3" d="M758.2,172.6c-1.9,0-2.8-1.4-2.8-2.8v-5.6h-1.2v-1.6h1.2v-3.1h2v3.1h2v1.6h-2v5.5c0,0.7,0.4,1.2,1.1,1.2h0.8
			v1.7H758.2z"/>
		<path class="st3" d="M762.8,168.1c0,1.7,0.9,2.8,2.6,2.8c1.1,0,1.7-0.3,2.5-1l1.3,1.2c-1,1-2,1.6-3.8,1.6c-2.5,0-4.6-1.3-4.6-5.2
			c0-3.3,1.7-5.2,4.3-5.2c2.7,0,4.3,2,4.3,4.9v0.9H762.8z M767.1,165.3c-0.3-0.8-1-1.3-2-1.3s-1.7,0.5-2,1.3
			c-0.2,0.5-0.2,0.8-0.3,1.4h4.6C767.4,166.1,767.3,165.8,767.1,165.3z"/>
		<path class="st3" d="M777.2,164.8c-0.5-0.5-0.8-0.7-1.5-0.7c-1.1,0-2,0.9-2,2.3v6.2h-2v-10.1h2v1.1c0.5-0.7,1.6-1.2,2.7-1.2
			c1,0,1.7,0.3,2.4,1L777.2,164.8z"/>
		<path class="st3" d="M792.6,172.6v-6.2c0-1.6-0.9-2.3-2-2.3c-1.1,0-2.1,0.7-2.1,2.2v6.3h-2v-6.2c0-1.6-0.9-2.3-2-2.3
			c-1.1,0-2.1,0.7-2.1,2.3v6.2h-2v-10.1h2v1c0.7-0.7,1.7-1.1,2.7-1.1c1.3,0,2.2,0.5,2.9,1.5c0.8-1,1.8-1.5,3.2-1.5
			c1,0,2,0.3,2.6,0.9c0.8,0.8,1.1,1.7,1.1,2.9v6.5H792.6z"/>
		<path class="st3" d="M797.1,160.5v-2.2h2.2v2.2H797.1z M797.2,172.6v-10.1h2v10.1H797.2z"/>
		<path class="st3" d="M808.1,172.6v-6.2c0-1.6-0.9-2.3-2-2.3c-1.1,0-2.1,0.7-2.1,2.3v6.2h-2v-10.1h2v1c0.7-0.8,1.7-1.1,2.7-1.1
			c1,0,1.9,0.3,2.5,0.9c0.8,0.8,1,1.7,1,2.9v6.5H808.1z"/>
		<path class="st3" d="M814.2,168.1c0,1.7,0.9,2.8,2.6,2.8c1.1,0,1.7-0.3,2.5-1l1.3,1.2c-1,1-2,1.6-3.8,1.6c-2.5,0-4.6-1.3-4.6-5.2
			c0-3.3,1.7-5.2,4.3-5.2c2.7,0,4.3,2,4.3,4.9v0.9H814.2z M818.5,165.3c-0.3-0.8-1-1.3-2-1.3s-1.7,0.5-2,1.3
			c-0.2,0.5-0.2,0.8-0.3,1.4h4.6C818.8,166.1,818.7,165.8,818.5,165.3z"/>
		<path class="st3" d="M828.6,164.8c-0.5-0.5-0.8-0.7-1.5-0.7c-1.1,0-2,0.9-2,2.3v6.2h-2v-10.1h2v1.1c0.5-0.7,1.6-1.2,2.7-1.2
			c1,0,1.7,0.3,2.4,1L828.6,164.8z"/>
		<path class="st3" d="M838.5,172.6c-1.9,0-2.8-1.3-2.8-2.8v-11.4h2v11.3c0,0.8,0.3,1.2,1.1,1.2h0.9v1.7H838.5z"/>
		<path class="st3" d="M847.3,172.6v-0.9c-0.7,0.7-1.4,1-2.7,1c-1.3,0-2.1-0.3-2.7-0.9c-0.5-0.5-0.8-1.3-0.8-2.2
			c0-1.7,1.2-2.9,3.5-2.9h2.7V166c0-1.3-0.6-1.9-2.2-1.9c-1.1,0-1.7,0.3-2.2,1l-1.3-1.3c1-1.1,2-1.5,3.6-1.5c2.8,0,4.2,1.2,4.2,3.5
			v6.8H847.3z M847.2,168.1h-2.4c-1.2,0-1.8,0.5-1.8,1.5c0,0.9,0.6,1.4,1.9,1.4c0.8,0,1.4-0.1,1.9-0.6c0.3-0.3,0.4-0.8,0.4-1.5
			V168.1z"/>
		<path class="st3" d="M862,164.8c-0.5-0.5-0.8-0.7-1.5-0.7c-1.1,0-2,0.9-2,2.3v6.2h-2v-10.1h2v1.1c0.5-0.7,1.6-1.2,2.7-1.2
			c1,0,1.7,0.3,2.4,1L862,164.8z"/>
		<path class="st3" d="M870.6,172.6v-0.9c-0.7,0.7-1.4,1-2.7,1c-1.3,0-2.1-0.3-2.7-0.9c-0.5-0.5-0.8-1.3-0.8-2.2
			c0-1.7,1.2-2.9,3.5-2.9h2.7V166c0-1.3-0.6-1.9-2.2-1.9c-1.1,0-1.7,0.3-2.2,1l-1.3-1.3c1-1.1,2-1.5,3.6-1.5c2.8,0,4.2,1.2,4.2,3.5
			v6.8H870.6z M870.6,168.1h-2.4c-1.2,0-1.8,0.5-1.8,1.5c0,0.9,0.6,1.4,1.9,1.4c0.8,0,1.4-0.1,1.9-0.6c0.3-0.3,0.4-0.8,0.4-1.5
			V168.1z"/>
		<path class="st3" d="M875.2,160.5v-2.2h2.2v2.2H875.2z M875.2,172.6v-10.1h2v10.1H875.2z"/>
		<path class="st3" d="M883.3,172.7c-1.7,0-3.1-0.3-4.3-1.5l1.3-1.3c0.8,0.8,1.9,1.1,2.9,1.1c1.2,0,2.2-0.4,2.2-1.4
			c0-0.7-0.4-1.1-1.4-1.2l-1.6-0.1c-1.9-0.2-3-1-3-2.8c0-2,1.7-3.1,3.8-3.1c1.5,0,2.8,0.3,3.8,1.1l-1.3,1.3
			c-0.6-0.5-1.5-0.7-2.5-0.7c-1.2,0-1.8,0.5-1.8,1.3c0,0.6,0.3,1.1,1.4,1.2l1.6,0.1c1.9,0.2,3,1.1,3,2.9
			C887.5,171.6,885.7,172.7,883.3,172.7z"/>
		<path class="st3" d="M896.4,171.5c-0.7,0.7-1.7,1.2-3,1.2c-1.4,0-2.4-0.5-3-1.2c-1-1-1.2-2.3-1.2-4c0-1.7,0.2-3,1.2-4
			c0.7-0.7,1.6-1.2,3-1.2c1.4,0,2.4,0.5,3,1.2c1,1,1.2,2.3,1.2,4C897.6,169.2,897.4,170.5,896.4,171.5z M894.9,164.7
			c-0.4-0.4-0.9-0.6-1.5-0.6c-0.6,0-1.1,0.2-1.5,0.6c-0.6,0.6-0.7,1.7-0.7,2.8s0.1,2.2,0.7,2.8c0.4,0.4,0.9,0.6,1.5,0.6
			c0.6,0,1.1-0.2,1.5-0.6c0.6-0.6,0.7-1.7,0.7-2.8S895.5,165.4,894.9,164.7z"/>
		<path class="st3" d="M906.1,172.6v-6.2c0-1.6-0.9-2.3-2-2.3c-1.1,0-2.1,0.7-2.1,2.3v6.2h-2v-10.1h2v1c0.7-0.8,1.7-1.1,2.7-1.1
			c1,0,1.9,0.3,2.5,0.9c0.8,0.8,1,1.7,1,2.9v6.5H906.1z"/>
		<path class="st3" d="M737.9,196.6v-1.1c-0.8,0.9-1.6,1.2-2.7,1.2c-1,0-1.9-0.3-2.5-0.9c-1-1-1.1-2.8-1.1-4.3s0.1-3.3,1.1-4.3
			c0.6-0.6,1.4-0.9,2.5-0.9c1.1,0,1.9,0.3,2.7,1.1v-5.1h2v14.2H737.9z M735.7,188.2c-1.8,0-2.1,1.6-2.1,3.4s0.3,3.4,2.1,3.4
			c1.8,0,2.1-1.6,2.1-3.4S737.6,188.2,735.7,188.2z"/>
		<path class="st3" d="M742.4,186.3v-3.9h2.2v2.1L742.4,186.3z"/>
		<path class="st3" d="M748.2,192.1c0,1.7,0.9,2.8,2.6,2.8c1.1,0,1.7-0.3,2.5-1l1.3,1.2c-1,1-2,1.6-3.8,1.6c-2.5,0-4.6-1.3-4.6-5.2
			c0-3.3,1.7-5.2,4.3-5.2c2.7,0,4.3,2,4.3,4.9v0.9H748.2z M752.3,184.6l-1.7-1.9l-1.7,1.9h-1.7l2.6-3.2h1.7l2.6,3.2H752.3z
			 M752.5,189.3c-0.3-0.8-1-1.3-2-1.3s-1.7,0.5-2,1.3c-0.2,0.5-0.2,0.8-0.3,1.4h4.6C752.8,190.1,752.7,189.8,752.5,189.3z"/>
		<path class="st3" d="M760,196.6c-1.9,0-2.8-1.4-2.8-2.8v-5.6h-1.2v-1.6h1.2v-3.1h2v3.1h2v1.6h-2v5.5c0,0.7,0.4,1.2,1.1,1.2h0.8
			v1.7H760z"/>
		<path class="st3" d="M768.8,188.8c-0.5-0.5-0.8-0.7-1.5-0.7c-1.1,0-2,0.9-2,2.3v6.2h-2v-10.1h2v1.1c0.5-0.7,1.6-1.2,2.7-1.2
			c1,0,1.7,0.3,2.4,1L768.8,188.8z"/>
		<path class="st3" d="M773,192.1c0,1.7,0.9,2.8,2.6,2.8c1.1,0,1.7-0.3,2.5-1l1.3,1.2c-1,1-2,1.6-3.8,1.6c-2.5,0-4.6-1.3-4.6-5.2
			c0-3.3,1.7-5.2,4.3-5.2c2.7,0,4.3,2,4.3,4.9v0.9H773z M777.3,189.3c-0.3-0.8-1-1.3-2-1.3s-1.7,0.5-2,1.3c-0.2,0.5-0.2,0.8-0.3,1.4
			h4.6C777.5,190.1,777.5,189.8,777.3,189.3z"/>
		<path class="st3" d="M787.8,192.1c0,1.7,0.9,2.8,2.6,2.8c1.1,0,1.7-0.3,2.5-1l1.3,1.2c-1,1-2,1.6-3.8,1.6c-2.5,0-4.6-1.3-4.6-5.2
			c0-3.3,1.7-5.2,4.3-5.2c2.7,0,4.3,2,4.3,4.9v0.9H787.8z M792,189.3c-0.3-0.8-1-1.3-2-1.3s-1.7,0.5-2,1.3c-0.2,0.5-0.2,0.8-0.3,1.4
			h4.6C792.3,190.1,792.2,189.8,792,189.3z"/>
		<path class="st3" d="M799.5,196.6c-1.9,0-2.8-1.4-2.8-2.8v-5.6h-1.2v-1.6h1.2v-3.1h2v3.1h2v1.6h-2v5.5c0,0.7,0.4,1.2,1.1,1.2h0.8
			v1.7H799.5z"/>
		<path class="st3" d="M810.1,196.6c-1.9,0-2.8-1.3-2.8-2.8v-11.4h2v11.3c0,0.8,0.3,1.2,1.1,1.2h0.9v1.7H810.1z"/>
		<path class="st3" d="M814.6,192.1c0,1.7,0.9,2.8,2.6,2.8c1.1,0,1.7-0.3,2.5-1l1.3,1.2c-1,1-2,1.6-3.8,1.6c-2.5,0-4.6-1.3-4.6-5.2
			c0-3.3,1.7-5.2,4.3-5.2c2.7,0,4.3,2,4.3,4.9v0.9H814.6z M818.8,189.3c-0.3-0.8-1-1.3-2-1.3s-1.7,0.5-2,1.3
			c-0.2,0.5-0.2,0.8-0.3,1.4h4.6C819.1,190.1,819,189.8,818.8,189.3z"/>
		<path class="st3" d="M826.8,196.7c-1.7,0-3.1-0.3-4.3-1.5l1.3-1.3c0.8,0.8,1.9,1.1,2.9,1.1c1.2,0,2.2-0.4,2.2-1.4
			c0-0.7-0.4-1.1-1.4-1.2l-1.6-0.1c-1.9-0.2-3-1-3-2.8c0-2,1.7-3.1,3.8-3.1c1.5,0,2.8,0.3,3.8,1.1l-1.3,1.3
			c-0.6-0.5-1.5-0.7-2.5-0.7c-1.2,0-1.8,0.5-1.8,1.3c0,0.6,0.3,1.1,1.4,1.2l1.6,0.1c1.9,0.2,3,1.1,3,2.9
			C831,195.6,829.2,196.7,826.8,196.7z"/>
		<path class="st3" d="M844.3,195.5c-0.7,0.7-1.7,1.2-3,1.2c-1.4,0-2.4-0.5-3-1.2c-1-1-1.2-2.3-1.2-4c0-1.7,0.2-3,1.2-4
			c0.7-0.7,1.6-1.2,3-1.2c1.4,0,2.4,0.5,3,1.2c1,1,1.2,2.3,1.2,4C845.5,193.2,845.3,194.5,844.3,195.5z M842.8,188.7
			c-0.4-0.4-0.9-0.6-1.5-0.6c-0.6,0-1.1,0.2-1.5,0.6c-0.6,0.6-0.7,1.7-0.7,2.8s0.1,2.2,0.7,2.8c0.4,0.4,0.9,0.6,1.5,0.6
			c0.6,0,1.1-0.2,1.5-0.6c0.6-0.6,0.7-1.7,0.7-2.8S843.4,189.4,842.8,188.7z"/>
		<path class="st3" d="M854.9,195.8c-0.6,0.6-1.5,0.9-2.5,0.9c-1.1,0-1.9-0.3-2.7-1.2v1.1h-2v-14.2h2v5.1c0.7-0.9,1.6-1.1,2.7-1.1
			c1,0,1.9,0.3,2.5,0.9c1,1,1.1,2.7,1.1,4.3S855.9,194.8,854.9,195.8z M851.9,188.2c-1.8,0-2.1,1.6-2.1,3.4s0.3,3.4,2.1,3.4
			s2.1-1.6,2.1-3.4S853.7,188.2,851.9,188.2z"/>
		<path class="st3" d="M857.5,200.7h-1.3V199h0.9c0.8,0,1.1-0.4,1.1-1.2v-11.4h2v11.5C860.3,199.4,859.4,200.7,857.5,200.7z
			 M858.2,184.5v-2.2h2.2v2.2H858.2z"/>
		<path class="st3" d="M864.5,192.1c0,1.7,0.9,2.8,2.6,2.8c1.1,0,1.7-0.3,2.5-1l1.3,1.2c-1,1-2,1.6-3.8,1.6c-2.5,0-4.6-1.3-4.6-5.2
			c0-3.3,1.7-5.2,4.3-5.2c2.7,0,4.3,2,4.3,4.9v0.9H864.5z M868.7,189.3c-0.3-0.8-1-1.3-2-1.3s-1.7,0.5-2,1.3
			c-0.2,0.5-0.2,0.8-0.3,1.4h4.6C869,190.1,868.9,189.8,868.7,189.3z"/>
		<path class="st3" d="M877.3,196.7c-2.3,0-4.5-1.4-4.5-5.2s2.2-5.2,4.5-5.2c1.4,0,2.4,0.4,3.3,1.4l-1.4,1.4c-0.6-0.7-1.1-1-1.9-1
			c-0.8,0-1.4,0.3-1.9,0.9c-0.4,0.6-0.6,1.3-0.6,2.5s0.2,1.9,0.6,2.5c0.4,0.6,1.1,0.9,1.9,0.9c0.8,0,1.3-0.3,1.9-1l1.4,1.3
			C879.7,196.3,878.7,196.7,877.3,196.7z"/>
		<path class="st3" d="M886,196.6c-1.9,0-2.8-1.4-2.8-2.8v-5.6h-1.2v-1.6h1.2v-3.1h2v3.1h2v1.6h-2v5.5c0,0.7,0.4,1.2,1.1,1.2h0.8
			v1.7H886z"/>
		<path class="st3" d="M889.1,184.5v-2.2h2.2v2.2H889.1z M889.2,196.6v-10.1h2v10.1H889.2z"/>
		<path class="st3" d="M896.3,188.2v8.4h-2v-8.4h-1.2v-1.6h1.2v-1.6c0-1.5,0.9-2.8,2.8-2.8h1.3v1.7h-0.9c-0.8,0-1.1,0.4-1.1,1.2v1.5
			h2v1.6H896.3z"/>
		<path class="st3" d="M903.5,196.7c-1.7,0-3.1-0.3-4.3-1.5l1.3-1.3c0.8,0.8,1.9,1.1,2.9,1.1c1.2,0,2.2-0.4,2.2-1.4
			c0-0.7-0.4-1.1-1.4-1.2l-1.6-0.1c-1.9-0.2-3-1-3-2.8c0-2,1.7-3.1,3.8-3.1c1.5,0,2.8,0.3,3.8,1.1l-1.3,1.3
			c-0.6-0.5-1.5-0.7-2.5-0.7c-1.2,0-1.8,0.5-1.8,1.3c0,0.6,0.3,1.1,1.4,1.2l1.6,0.1c1.9,0.2,3,1.1,3,2.9
			C907.8,195.6,905.9,196.7,903.5,196.7z"/>
		<path class="st3" d="M737.9,220.6v-1.1c-0.8,0.9-1.6,1.2-2.7,1.2c-1,0-1.9-0.3-2.5-0.9c-1-1-1.1-2.8-1.1-4.3s0.1-3.3,1.1-4.3
			c0.6-0.6,1.4-0.9,2.5-0.9c1.1,0,1.9,0.3,2.7,1.1v-5.1h2v14.2H737.9z M735.7,212.2c-1.8,0-2.1,1.6-2.1,3.4s0.3,3.4,2.1,3.4
			c1.8,0,2.1-1.6,2.1-3.4S737.6,212.2,735.7,212.2z"/>
		<path class="st3" d="M748.7,220.6v-1c-0.7,0.8-1.7,1.1-2.7,1.1c-1,0-1.9-0.3-2.5-0.9c-0.8-0.8-1-1.7-1-2.9v-6.5h2v6.2
			c0,1.6,0.9,2.3,2,2.3c1.1,0,2.1-0.7,2.1-2.3v-6.2h2v10.1H748.7z"/>
		<path class="st3" d="M770.3,220.6v-6.2c0-1.6-0.9-2.3-2-2.3c-1.1,0-2.1,0.7-2.1,2.2v6.3h-2v-6.2c0-1.6-0.9-2.3-2-2.3
			c-1.1,0-2.1,0.7-2.1,2.3v6.2h-2v-10.1h2v1c0.7-0.7,1.7-1.1,2.7-1.1c1.3,0,2.2,0.5,2.9,1.5c0.8-1,1.8-1.5,3.2-1.5
			c1,0,2,0.3,2.6,0.9c0.8,0.8,1.1,1.7,1.1,2.9v6.5H770.3z"/>
		<path class="st3" d="M776.5,216.1c0,1.7,0.9,2.8,2.6,2.8c1.1,0,1.7-0.3,2.5-1l1.3,1.2c-1,1-2,1.6-3.8,1.6c-2.5,0-4.6-1.3-4.6-5.2
			c0-3.3,1.7-5.2,4.3-5.2c2.7,0,4.3,2,4.3,4.9v0.9H776.5z M780.7,213.3c-0.3-0.8-1-1.3-2-1.3s-1.7,0.5-2,1.3
			c-0.2,0.5-0.2,0.8-0.3,1.4h4.6C781,214.1,780.9,213.8,780.7,213.3z M779.3,208.6h-1.5l1.5-3.2h2.3L779.3,208.6z"/>
		<path class="st3" d="M789.3,220.7c-2.3,0-4.5-1.4-4.5-5.2s2.2-5.2,4.5-5.2c1.4,0,2.4,0.4,3.3,1.4l-1.4,1.4c-0.6-0.7-1.1-1-1.9-1
			c-0.8,0-1.4,0.3-1.9,0.9c-0.4,0.6-0.6,1.3-0.6,2.5s0.2,1.9,0.6,2.5c0.4,0.6,1.1,0.9,1.9,0.9c0.8,0,1.3-0.3,1.9-1l1.4,1.3
			C791.7,220.3,790.7,220.7,789.3,220.7z"/>
		<path class="st3" d="M800.2,220.6v-0.9c-0.7,0.7-1.4,1-2.7,1c-1.3,0-2.1-0.3-2.7-0.9c-0.5-0.5-0.8-1.3-0.8-2.2
			c0-1.7,1.2-2.9,3.5-2.9h2.7V214c0-1.3-0.6-1.9-2.2-1.9c-1.1,0-1.7,0.3-2.2,1l-1.3-1.3c1-1.1,2-1.5,3.6-1.5c2.8,0,4.2,1.2,4.2,3.5
			v6.8H800.2z M800.2,216.1h-2.4c-1.2,0-1.8,0.5-1.8,1.5c0,0.9,0.6,1.4,1.9,1.4c0.8,0,1.4-0.1,1.9-0.6c0.3-0.3,0.4-0.8,0.4-1.5
			V216.1z"/>
		<path class="st3" d="M811,220.6v-6.2c0-1.6-0.9-2.3-2-2.3c-1.1,0-2.1,0.7-2.1,2.3v6.2h-2v-10.1h2v1c0.7-0.8,1.7-1.1,2.7-1.1
			c1,0,1.9,0.3,2.5,0.9c0.8,0.8,1,1.7,1,2.9v6.5H811z"/>
		<path class="st3" d="M815.6,208.5v-2.2h2.2v2.2H815.6z M815.6,220.6v-10.1h2v10.1H815.6z"/>
		<path class="st3" d="M823.7,220.7c-1.7,0-3.1-0.3-4.3-1.5l1.3-1.3c0.8,0.8,1.9,1.1,2.9,1.1c1.2,0,2.2-0.4,2.2-1.4
			c0-0.7-0.4-1.1-1.4-1.2l-1.6-0.1c-1.9-0.2-3-1-3-2.8c0-2,1.7-3.1,3.8-3.1c1.5,0,2.8,0.3,3.8,1.1l-1.3,1.3
			c-0.6-0.5-1.5-0.7-2.5-0.7c-1.2,0-1.8,0.5-1.8,1.3c0,0.6,0.3,1.1,1.4,1.2l1.6,0.1c1.9,0.2,3,1.1,3,2.9
			C827.9,219.6,826.1,220.7,823.7,220.7z"/>
		<path class="st3" d="M842.3,220.6v-6.2c0-1.6-0.9-2.3-2-2.3c-1.1,0-2.1,0.7-2.1,2.2v6.3h-2v-6.2c0-1.6-0.9-2.3-2-2.3
			c-1.1,0-2.1,0.7-2.1,2.3v6.2h-2v-10.1h2v1c0.7-0.7,1.7-1.1,2.7-1.1c1.3,0,2.2,0.5,2.9,1.5c0.8-1,1.8-1.5,3.2-1.5
			c1,0,2,0.3,2.6,0.9c0.8,0.8,1.1,1.7,1.1,2.9v6.5H842.3z"/>
		<path class="st3" d="M848.4,216.1c0,1.7,0.9,2.8,2.6,2.8c1.1,0,1.7-0.3,2.5-1l1.3,1.2c-1,1-2,1.6-3.8,1.6c-2.5,0-4.6-1.3-4.6-5.2
			c0-3.3,1.7-5.2,4.3-5.2c2.7,0,4.3,2,4.3,4.9v0.9H848.4z M852.7,213.3c-0.3-0.8-1-1.3-2-1.3s-1.7,0.5-2,1.3
			c-0.2,0.5-0.2,0.8-0.3,1.4h4.6C853,214.1,852.9,213.8,852.7,213.3z"/>
		<path class="st3" d="M867.5,220.6v-1.1c-0.8,0.9-1.6,1.2-2.7,1.2c-1,0-1.9-0.3-2.5-0.9c-1-1-1.1-2.8-1.1-4.3s0.1-3.3,1.1-4.3
			c0.6-0.6,1.4-0.9,2.5-0.9c1.1,0,1.9,0.3,2.7,1.1v-5.1h2v14.2H867.5z M865.4,212.2c-1.8,0-2.1,1.6-2.1,3.4s0.3,3.4,2.1,3.4
			c1.8,0,2.1-1.6,2.1-3.4S867.2,212.2,865.4,212.2z"/>
		<path class="st3" d="M873.8,216.1c0,1.7,0.9,2.8,2.6,2.8c1.1,0,1.7-0.3,2.5-1l1.3,1.2c-1,1-2,1.6-3.8,1.6c-2.5,0-4.6-1.3-4.6-5.2
			c0-3.3,1.7-5.2,4.3-5.2c2.7,0,4.3,2,4.3,4.9v0.9H873.8z M878,213.3c-0.3-0.8-1-1.3-2-1.3s-1.7,0.5-2,1.3c-0.2,0.5-0.2,0.8-0.3,1.4
			h4.6C878.3,214.1,878.2,213.8,878,213.3z"/>
		<path class="st3" d="M737.6,236.8c-0.5-0.5-0.8-0.7-1.5-0.7c-1.1,0-2,0.9-2,2.3v6.2h-2v-10.1h2v1.1c0.5-0.7,1.6-1.2,2.7-1.2
			c1,0,1.7,0.3,2.4,1L737.6,236.8z"/>
		<path class="st3" d="M741.8,240.1c0,1.7,0.9,2.8,2.6,2.8c1.1,0,1.7-0.3,2.5-1l1.3,1.2c-1,1-2,1.6-3.8,1.6c-2.5,0-4.6-1.3-4.6-5.2
			c0-3.3,1.7-5.2,4.3-5.2c2.7,0,4.3,2,4.3,4.9v0.9H741.8z M743.7,232.6l-2.2-3.2h2.3l1.5,3.2H743.7z M746.1,237.3
			c-0.3-0.8-1-1.3-2-1.3s-1.7,0.5-2,1.3c-0.2,0.5-0.2,0.8-0.3,1.4h4.6C746.4,238.1,746.3,237.8,746.1,237.3z"/>
		<path class="st3" d="M754.1,248.8c-1.5,0-2.5-0.4-3.6-1.3l1.3-1.3c0.6,0.6,1.2,0.9,2.2,0.9c1.7,0,2.4-1.2,2.4-2.6v-1.3
			c-0.7,0.9-1.6,1.2-2.6,1.2c-1,0-1.9-0.3-2.4-0.9c-1-1-1.1-2.4-1.1-4.1c0-1.7,0.2-3.1,1.1-4.1c0.6-0.6,1.4-0.9,2.4-0.9
			c1.1,0,1.9,0.3,2.7,1.2v-1.1h2v10.1C758.4,247,756.8,248.8,754.1,248.8z M754.3,236.2c-1.8,0-2.1,1.6-2.1,3.2
			c0,1.6,0.2,3.2,2.1,3.2c1.8,0,2.1-1.6,2.1-3.2C756.4,237.7,756.2,236.2,754.3,236.2z"/>
		<path class="st3" d="M763.8,244.6c-1.9,0-2.8-1.3-2.8-2.8v-11.4h2v11.3c0,0.8,0.3,1.2,1.1,1.2h0.9v1.7H763.8z"/>
		<path class="st3" d="M768.3,240.1c0,1.7,0.9,2.8,2.6,2.8c1.1,0,1.7-0.3,2.5-1l1.3,1.2c-1,1-2,1.6-3.8,1.6c-2.5,0-4.6-1.3-4.6-5.2
			c0-3.3,1.7-5.2,4.3-5.2c2.7,0,4.3,2,4.3,4.9v0.9H768.3z M772.6,237.3c-0.3-0.8-1-1.3-2-1.3s-1.7,0.5-2,1.3
			c-0.2,0.5-0.2,0.8-0.3,1.4h4.6C772.9,238.1,772.8,237.8,772.6,237.3z"/>
		<path class="st3" d="M789.4,244.6v-6.2c0-1.6-0.9-2.3-2-2.3c-1.1,0-2.1,0.7-2.1,2.2v6.3h-2v-6.2c0-1.6-0.9-2.3-2-2.3
			c-1.1,0-2.1,0.7-2.1,2.3v6.2h-2v-10.1h2v1c0.7-0.7,1.7-1.1,2.7-1.1c1.3,0,2.2,0.5,2.9,1.5c0.8-1,1.8-1.5,3.2-1.5
			c1,0,2,0.3,2.6,0.9c0.8,0.8,1.1,1.7,1.1,2.9v6.5H789.4z"/>
		<path class="st3" d="M795.6,240.1c0,1.7,0.9,2.8,2.6,2.8c1.1,0,1.7-0.3,2.5-1l1.3,1.2c-1,1-2,1.6-3.8,1.6c-2.5,0-4.6-1.3-4.6-5.2
			c0-3.3,1.7-5.2,4.3-5.2c2.7,0,4.3,2,4.3,4.9v0.9H795.6z M799.9,237.3c-0.3-0.8-1-1.3-2-1.3s-1.7,0.5-2,1.3
			c-0.2,0.5-0.2,0.8-0.3,1.4h4.6C800.1,238.1,800.1,237.8,799.9,237.3z"/>
		<path class="st3" d="M810.5,244.6v-6.2c0-1.6-0.9-2.3-2-2.3c-1.1,0-2.1,0.7-2.1,2.3v6.2h-2v-10.1h2v1c0.7-0.8,1.7-1.1,2.7-1.1
			c1,0,1.9,0.3,2.5,0.9c0.8,0.8,1,1.7,1,2.9v6.5H810.5z"/>
		<path class="st3" d="M818.2,244.6c-1.9,0-2.8-1.4-2.8-2.8v-5.6h-1.2v-1.6h1.2v-3.1h2v3.1h2v1.6h-2v5.5c0,0.7,0.4,1.2,1.1,1.2h0.8
			v1.7H818.2z"/>
		<path class="st3" d="M831.8,244.6v-1.1c-0.8,0.9-1.6,1.2-2.7,1.2c-1,0-1.9-0.3-2.5-0.9c-1-1-1.1-2.8-1.1-4.3s0.1-3.3,1.1-4.3
			c0.6-0.6,1.4-0.9,2.5-0.9c1.1,0,1.9,0.3,2.7,1.1v-5.1h2v14.2H831.8z M829.7,236.2c-1.8,0-2.1,1.6-2.1,3.4s0.3,3.4,2.1,3.4
			c1.8,0,2.1-1.6,2.1-3.4S831.5,236.2,829.7,236.2z"/>
		<path class="st3" d="M838,240.1c0,1.7,0.9,2.8,2.6,2.8c1.1,0,1.7-0.3,2.5-1l1.3,1.2c-1,1-2,1.6-3.8,1.6c-2.5,0-4.6-1.3-4.6-5.2
			c0-3.3,1.7-5.2,4.3-5.2c2.7,0,4.3,2,4.3,4.9v0.9H838z M842.3,237.3c-0.3-0.8-1-1.3-2-1.3s-1.7,0.5-2,1.3c-0.2,0.5-0.2,0.8-0.3,1.4
			h4.6C842.6,238.1,842.5,237.8,842.3,237.3z"/>
		<path class="st3" d="M850.3,244.7c-1.7,0-3.1-0.3-4.3-1.5l1.3-1.3c0.8,0.8,1.9,1.1,2.9,1.1c1.2,0,2.2-0.4,2.2-1.4
			c0-0.7-0.4-1.1-1.4-1.2l-1.6-0.1c-1.9-0.2-3-1-3-2.8c0-2,1.7-3.1,3.8-3.1c1.5,0,2.8,0.3,3.8,1.1l-1.3,1.3
			c-0.6-0.5-1.5-0.7-2.5-0.7c-1.2,0-1.8,0.5-1.8,1.3c0,0.6,0.3,1.1,1.4,1.2l1.6,0.1c1.9,0.2,3,1.1,3,2.9
			C854.5,243.6,852.7,244.7,850.3,244.7z"/>
		<path class="st3" d="M739.2,267.8c-0.6,0.6-1.4,0.9-2.5,0.9c-1.1,0-1.9-0.3-2.7-1.2v5.1h-2v-14.2h2v1.1c0.8-0.9,1.6-1.2,2.7-1.2
			c1,0,1.9,0.3,2.5,0.9c1,1,1.1,2.7,1.1,4.3S740.2,266.8,739.2,267.8z M736.2,260.2c-1.8,0-2.1,1.6-2.1,3.4s0.3,3.4,2.1,3.4
			s2.1-1.6,2.1-3.4S738.1,260.2,736.2,260.2z"/>
		<path class="st3" d="M745.4,268.6c-1.9,0-2.8-1.3-2.8-2.8v-11.4h2v11.3c0,0.8,0.3,1.2,1.1,1.2h0.9v1.7H745.4z"/>
		<path class="st3" d="M754.2,268.6v-0.9c-0.7,0.7-1.4,1-2.7,1c-1.3,0-2.1-0.3-2.7-0.9c-0.5-0.5-0.8-1.3-0.8-2.2
			c0-1.7,1.2-2.9,3.5-2.9h2.7V262c0-1.3-0.6-1.9-2.2-1.9c-1.1,0-1.7,0.3-2.2,1l-1.3-1.3c1-1.1,2-1.5,3.6-1.5c2.8,0,4.2,1.2,4.2,3.5
			v6.8H754.2z M754.1,264.1h-2.4c-1.2,0-1.8,0.5-1.8,1.5c0,0.9,0.6,1.4,1.9,1.4c0.8,0,1.4-0.1,1.9-0.6c0.3-0.3,0.4-0.8,0.4-1.5
			V264.1z"/>
		<path class="st3" d="M758.7,256.5v-2.2h2.2v2.2H758.7z M758.8,268.6v-10.1h2v10.1H758.8z"/>
		<path class="st3" d="M769.6,268.6v-6.2c0-1.6-0.9-2.3-2-2.3c-1.1,0-2.1,0.7-2.1,2.3v6.2h-2v-10.1h2v1c0.7-0.8,1.7-1.1,2.7-1.1
			c1,0,1.9,0.3,2.5,0.9c0.8,0.8,1,1.7,1,2.9v6.5H769.6z"/>
		<path class="st3" d="M777.3,268.6c-1.9,0-2.8-1.4-2.8-2.8v-5.6h-1.2v-1.6h1.2v-3.1h2v3.1h2v1.6h-2v5.5c0,0.7,0.4,1.2,1.1,1.2h0.8
			v1.7H777.3z"/>
		<path class="st3" d="M781.9,264.1c0,1.7,0.9,2.8,2.6,2.8c1.1,0,1.7-0.3,2.5-1l1.3,1.2c-1,1-2,1.6-3.8,1.6c-2.5,0-4.6-1.3-4.6-5.2
			c0-3.3,1.7-5.2,4.3-5.2c2.7,0,4.3,2,4.3,4.9v0.9H781.9z M786.2,261.3c-0.3-0.8-1-1.3-2-1.3s-1.7,0.5-2,1.3
			c-0.2,0.5-0.2,0.8-0.3,1.4h4.6C786.4,262.1,786.4,261.8,786.2,261.3z"/>
		<path class="st3" d="M794.2,268.7c-1.7,0-3.1-0.3-4.3-1.5l1.3-1.3c0.8,0.8,1.9,1.1,2.9,1.1c1.2,0,2.2-0.4,2.2-1.4
			c0-0.7-0.4-1.1-1.4-1.2l-1.6-0.1c-1.9-0.2-3-1-3-2.8c0-2,1.7-3.1,3.8-3.1c1.5,0,2.8,0.3,3.8,1.1l-1.3,1.3
			c-0.6-0.5-1.5-0.7-2.5-0.7c-1.2,0-1.8,0.5-1.8,1.3c0,0.6,0.3,1.1,1.4,1.2l1.6,0.1c1.9,0.2,3,1.1,3,2.9
			C798.4,267.6,796.6,268.7,794.2,268.7z"/>
	</g>
	<g>
		<g>
			<line class="st20" x1="231" y1="191.4" x2="242.4" y2="191.4"/>
			<g>
				<polygon class="st5" points="240.7,197.4 251,191.4 240.7,185.5 				"/>
			</g>
		</g>
	</g>
	<g>
		<g>
			<line class="st20" x1="463" y1="191.4" x2="474.4" y2="191.4"/>
			<g>
				<polygon class="st5" points="472.7,197.4 483,191.4 472.7,185.5 				"/>
			</g>
		</g>
	</g>
	<g>
		<g>
			<line class="st20" x1="692.4" y1="191.4" x2="703.8" y2="191.4"/>
			<g>
				<polygon class="st5" points="702.1,197.4 712.4,191.4 702.1,185.5 				"/>
			</g>
		</g>
	</g>
</g>
<g id="Text_Reference-_do_not_print" class="st21">
	<text transform="matrix(1 0 0 1 26.1646 47.0796)" class="st29 st30 st31">LABORER UN MCANISME DE RGLEMENT DES PLAINTES</text>
	<rect x="22" y="87.9" class="st23" width="207.2" height="207.2"/>
	<text transform="matrix(1 0 0 1 37.553 141.443)" class="st26 st30 st32">TAPE 1</text>
	<rect x="37.6" y="158.4" class="st33" width="171.7" height="162.8"/>
	<text transform="matrix(1 0 0 1 37.6318 172.6055)" class="st22"><tspan x="0" y="0" class="st3 st34 st35">Identifier et </tspan><tspan x="0" y="24" class="st3 st34 st35">impliquer les </tspan><tspan x="0" y="48" class="st3 st34 st35">acteurs cls de </tspan><tspan x="0" y="72" class="st3 st34 st35">lentreprise et de la </tspan><tspan x="0" y="96" class="st3 st34 st35">communaut</tspan></text>
	<rect x="254.9" y="87.9" class="st24" width="207.2" height="207.2"/>
	<text transform="matrix(1 0 0 1 270.4104 141.443)" class="st26 st30 st32">TAPE 2</text>
	<rect x="270.5" y="158.4" class="st33" width="164.7" height="162.8"/>
	<text transform="matrix(1 0 0 1 270.4893 172.6055)" class="st22"><tspan x="0" y="0" class="st3 st34 st35">Comprendre le </tspan><tspan x="0" y="24" class="st3 st34 st35">contexte local</tspan></text>
	<rect x="484.9" y="87.9" class="st25" width="207.2" height="207.2"/>
	<text transform="matrix(1 0 0 1 500.4104 141.443)" class="st26 st30 st32">TAPE 3</text>
	<rect x="500.5" y="158.4" class="st33" width="171.7" height="162.8"/>
	<text transform="matrix(1 0 0 1 500.49 172.6055)" class="st22"><tspan x="0" y="0" class="st3 st34 st35">Dfinir le champ </tspan><tspan x="0" y="24" class="st3 st34 st35">des plaintes</tspan></text>
	<rect x="714.8" y="87.9" class="st36" width="207.2" height="207.2"/>
	<text transform="matrix(1 0 0 1 730.3672 141.443)" class="st26 st30 st32">TAPE 4</text>
	<rect x="730.4" y="158.4" class="st33" width="180.4" height="162.8"/>
	<text transform="matrix(1 0 0 1 730.4467 172.6055)" class="st22"><tspan x="0" y="0" class="st3 st34 st35">Dterminer la raison </tspan><tspan x="0" y="24" class="st3 st34 st35">dtre et les objectifs </tspan><tspan x="0" y="48" class="st3 st34 st35">du mcanisme de </tspan><tspan x="0" y="72" class="st3 st34 st35">rglement des </tspan><tspan x="0" y="96" class="st3 st34 st35">plaintes</tspan></text>
	<g class="st22">
		<g>
			<line class="st20" x1="231" y1="191.4" x2="242.4" y2="191.4"/>
			<g>
				<polygon class="st5" points="240.7,197.4 251,191.4 240.7,185.5 				"/>
			</g>
		</g>
	</g>
	<g class="st22">
		<g>
			<line class="st20" x1="463" y1="191.4" x2="474.4" y2="191.4"/>
			<g>
				<polygon class="st5" points="472.7,197.4 483,191.4 472.7,185.5 				"/>
			</g>
		</g>
	</g>
	<g class="st22">
		<g>
			<line class="st20" x1="692.4" y1="191.4" x2="703.8" y2="191.4"/>
			<g>
				<polygon class="st5" points="702.1,197.4 712.4,191.4 702.1,185.5 				"/>
			</g>
		</g>
	</g>
</g>
</svg>
