<svg version="1.1" baseProfile="full" xmlns="http://www.w3.org/2000/svg" viewBox="0 0 944 312.11688" preserveAspectRatio="xMidYMid meet">
    <defs><style>.cls-1{fill:#362f2d;}.cls-2{fill:#1d8cb2;}.cls-3{fill:#fff;}.cls-4{fill:#e8800f;}.cls-5{fill:#59ad40;}.cls-6{fill:#ad3588;}.cls-7{fill:none;stroke:#5d5d5d;stroke-miterlimit:10;stroke-width:3px;}.cls-8{fill:#5d5d5d;}</style></defs>
  <path class="cls-1" d="M25.97 22.87h5.13a5.94 5.94 0 0 1 4.52 1.65 6.43 6.43 0 0 1 1.57 4.6v11.33q0 3.4-1.66 5a6.5 6.5 0 0 1-4.75 1.63h-4.83zm3.46 20.95h1.6a2.57 2.57 0 0 0 2.08-.74 3.54 3.54 0 0 0 .62-2.3V29.14a3.66 3.66 0 0 0-.58-2.2 2.47 2.47 0 0 0-2.1-.8h-1.6zM39.53 22.87h10.33v3.27H43v7.1h5.98v3.27H43v7.1h6.86v3.48H39.53zM63.17 29.84H59.7v-.78a3.7 3.7 0 0 0-.56-2.06 2.08 2.08 0 0 0-1.88-.86 2.27 2.27 0 0 0-1.18.27 2 2 0 0 0-.7.7 2.9 2.9 0 0 0-.37 1 6.52 6.52 0 0 0-.1 1.16q0 .72.06 1.2a2.13 2.13 0 0 0 .26.86 1.96 1.96 0 0 0 .6.63 5.44 5.44 0 0 0 1.06.54l2.65 1.05a6.58 6.58 0 0 1 1.87 1.03 4.23 4.23 0 0 1 1.1 1.4 5.92 5.92 0 0 1 .54 1.83 18.3 18.3 0 0 1 .13 2.38 12.45 12.45 0 0 1-.3 2.84 6 6 0 0 1-1 2.24A4.82 4.82 0 0 1 60 46.74a6.6 6.6 0 0 1-2.8.54 6.16 6.16 0 0 1-2.36-.44 5.66 5.66 0 0 1-3.57-5.3v-1.3h3.47v1.1a2.83 2.83 0 0 0 .56 1.7 2.18 2.18 0 0 0 1.9.78 3.05 3.05 0 0 0 1.37-.26 1.76 1.76 0 0 0 .74-.7 2.94 2.94 0 0 0 .34-1.15q.06-.67.06-1.5a14.78 14.78 0 0 0-.06-1.55 2.5 2.5 0 0 0-.3-1 1.78 1.78 0 0 0-.6-.6 8.17 8.17 0 0 0-1.04-.5l-2.48-1.03a5.5 5.5 0 0 1-3-2.43 8.36 8.36 0 0 1-.78-3.8 8.78 8.78 0 0 1 .38-2.6 6.02 6.02 0 0 1 1.1-2.1 5.27 5.27 0 0 1 1.85-1.4 6.1 6.1 0 0 1 2.62-.53 5.75 5.75 0 0 1 2.35.47 5.87 5.87 0 0 1 1.84 1.26 5.6 5.6 0 0 1 1.16 1.75 5.08 5.08 0 0 1 .4 2zM69.26 22.87h2.9l5.4 24.2H74.1l-1.03-5.2h-4.72l-1.02 5.2h-3.47zm1.47 6.97h-.07l-1.7 8.77h3.47zM79.12 22.87h5.58q6.12 0 6.12 7.1a8.97 8.97 0 0 1-.66 3.63 5.13 5.13 0 0 1-2.33 2.43l3.74 11.05H87.9l-3.23-10.34H82.6v10.34H79.1zm3.47 10.8h1.97a3.5 3.5 0 0 0 1.46-.24 1.88 1.88 0 0 0 .83-.73 3.1 3.1 0 0 0 .4-1.18 12.77 12.77 0 0 0 0-3.23 2.9 2.9 0 0 0-.43-1.2 1.92 1.92 0 0 0-.9-.73 4.1 4.1 0 0 0-1.53-.23h-1.8zM93.3 22.87h5.57q6.12 0 6.12 7.1a8.97 8.97 0 0 1-.67 3.63 5.13 5.13 0 0 1-2.33 2.43l3.74 11.05h-3.67l-3.23-10.34h-2.08v10.34H93.3zm3.46 10.8h1.98a3.5 3.5 0 0 0 1.46-.24 1.88 1.88 0 0 0 .83-.73 3.1 3.1 0 0 0 .4-1.18 12.77 12.77 0 0 0 0-3.23 2.9 2.9 0 0 0-.43-1.2 1.92 1.92 0 0 0-.9-.73 4.1 4.1 0 0 0-1.53-.23h-1.8zM106.98 28.58a6.17 6.17 0 0 1 .5-2.58 5.38 5.38 0 0 1 1.35-1.85 5.8 5.8 0 0 1 1.87-1.1 6.03 6.03 0 0 1 4.18 0 5.8 5.8 0 0 1 1.87 1.1A5.4 5.4 0 0 1 118.1 26a6.2 6.2 0 0 1 .5 2.58v12.8a6.15 6.15 0 0 1-.5 2.6 5.42 5.42 0 0 1-1.35 1.82 5.77 5.77 0 0 1-1.87 1.1 6.03 6.03 0 0 1-4.18 0 5.75 5.75 0 0 1-1.87-1.1 5.4 5.4 0 0 1-1.34-1.83 6.14 6.14 0 0 1-.52-2.6zm3.47 12.8a2.3 2.3 0 0 0 .7 1.84 2.58 2.58 0 0 0 3.3 0 2.3 2.3 0 0 0 .7-1.85v-12.8a2.3 2.3 0 0 0-.7-1.84 2.58 2.58 0 0 0-3.3 0 2.3 2.3 0 0 0-.7 1.85zM120.86 22.87h3.47V43.6h6.86v3.48h-10.34zM133.02 22.87h3.47V43.6h6.86v3.48h-10.34zM145 28.58a6.17 6.17 0 0 1 .5-2.58 5.38 5.38 0 0 1 1.35-1.85 5.8 5.8 0 0 1 1.87-1.1 6.03 6.03 0 0 1 4.18 0 5.8 5.8 0 0 1 1.87 1.1A5.4 5.4 0 0 1 156.1 26a6.2 6.2 0 0 1 .52 2.58v12.8a6.15 6.15 0 0 1-.5 2.6 5.42 5.42 0 0 1-1.35 1.82 5.77 5.77 0 0 1-1.87 1.1 6.03 6.03 0 0 1-4.18 0 5.75 5.75 0 0 1-1.87-1.1 5.4 5.4 0 0 1-1.34-1.83 6.14 6.14 0 0 1-.5-2.6zm3.46 12.8a2.3 2.3 0 0 0 .7 1.84 2.58 2.58 0 0 0 3.3 0 2.3 2.3 0 0 0 .7-1.85v-12.8a2.3 2.3 0 0 0-.7-1.84 2.58 2.58 0 0 0-3.3 0 2.3 2.3 0 0 0-.7 1.85zM165 22.87h5.12a5.94 5.94 0 0 1 4.52 1.65 6.43 6.43 0 0 1 1.56 4.6v11.33q0 3.4-1.64 5a6.5 6.5 0 0 1-4.75 1.63H165zm3.45 20.95h1.6a2.57 2.57 0 0 0 2.08-.74 3.54 3.54 0 0 0 .6-2.3V29.14a3.66 3.66 0 0 0-.57-2.2 2.47 2.47 0 0 0-2.1-.8h-1.6zM178.55 22.87h10.33v3.27h-6.86v7.1H188v3.27h-5.98v7.1h6.86v3.48h-10.33zM207.65 41.64a5.5 5.5 0 0 1-.44 2.2 5.68 5.68 0 0 1-2.98 3 5.57 5.57 0 0 1-4.36 0 5.68 5.68 0 0 1-3-3 5.5 5.5 0 0 1-.43-2.2V22.87h3.47V41.3a2.6 2.6 0 0 0 .6 1.9 2.22 2.22 0 0 0 3.07 0 2.6 2.6 0 0 0 .6-1.9V22.87h3.48zM210 22.87h3.33l5.24 14.6h.07v-14.6h3.46v24.2h-3.26l-5.3-14.54h-.07v14.55H210zM230.53 22.87h3.34l4.45 12.82h.07l4.4-12.83h3.37v24.2h-3.46v-14.7h-.06l-3.44 10.4h-1.73l-3.4-10.4H234v14.7h-3.47zM248.6 22.87h10.34v3.27h-6.87v7.1h5.98v3.27h-5.98v7.1h6.87v3.48H248.6zM271.83 41.67a5.52 5.52 0 0 1-.42 2.15 5.64 5.64 0 0 1-1.17 1.78 5.8 5.8 0 0 1-1.75 1.22 5.13 5.13 0 0 1-2.16.46 7.75 7.75 0 0 1-2-.27 4.85 4.85 0 0 1-1.84-.92 5.05 5.05 0 0 1-1.34-1.75 6.3 6.3 0 0 1-.53-2.76V28.24a5.9 5.9 0 0 1 .42-2.2 5.2 5.2 0 0 1 1.16-1.77 5.38 5.38 0 0 1 1.78-1.18 6 6 0 0 1 2.3-.43 5.7 5.7 0 0 1 2.2.42 5.3 5.3 0 0 1 1.77 1.18 5.5 5.5 0 0 1 1.18 1.84 6.26 6.26 0 0 1 .43 2.33v1.36h-3.47v-1.15a2.8 2.8 0 0 0-.58-1.77 1.87 1.87 0 0 0-1.56-.74 1.76 1.76 0 0 0-1.72.8 4.27 4.27 0 0 0-.42 2.02v12.37a3.2 3.2 0 0 0 .46 1.77 1.8 1.8 0 0 0 1.65.72 2.53 2.53 0 0 0 .72-.12 2 2 0 0 0 .7-.4 1.96 1.96 0 0 0 .54-.74 3 3 0 0 0 .2-1.2V40.2h3.47zM278.1 22.87h2.9l5.4 24.2h-3.46l-1.02-5.2h-4.73l-1.03 5.2h-3.47zm1.47 6.97h-.07l-1.7 8.77h3.47zM287.9 22.87h3.33l5.24 14.6h.07v-14.6H300v24.2h-3.26l-5.3-14.54h-.07v14.55h-3.47zM302.4 22.87h3.47v24.2h-3.47zM319.8 29.84h-3.46v-.78a3.7 3.7 0 0 0-.56-2.06 2.08 2.08 0 0 0-1.9-.86 2.27 2.27 0 0 0-1.17.27 2 2 0 0 0-.7.7 2.9 2.9 0 0 0-.36 1 6.52 6.52 0 0 0-.1 1.16q0 .72.05 1.2a2.13 2.13 0 0 0 .25.86 1.96 1.96 0 0 0 .6.63 5.44 5.44 0 0 0 1.06.54l2.67 1.05a6.58 6.58 0 0 1 1.87 1.03 4.23 4.23 0 0 1 1.1 1.4 5.92 5.92 0 0 1 .53 1.83 18.3 18.3 0 0 1 .13 2.38 12.45 12.45 0 0 1-.3 2.84 6 6 0 0 1-1 2.24 4.82 4.82 0 0 1-1.86 1.48 6.6 6.6 0 0 1-2.82.54 6.16 6.16 0 0 1-2.35-.44 5.66 5.66 0 0 1-3.57-5.3v-1.3h3.47v1.1a2.83 2.83 0 0 0 .56 1.7 2.18 2.18 0 0 0 1.9.78 3.05 3.05 0 0 0 1.37-.26 1.76 1.76 0 0 0 .74-.7 2.94 2.94 0 0 0 .33-1.15q.07-.67.07-1.5a14.78 14.78 0 0 0-.07-1.55 2.5 2.5 0 0 0-.3-1 1.78 1.78 0 0 0-.6-.6 8.17 8.17 0 0 0-1.04-.5l-2.48-1.03a5.5 5.5 0 0 1-3-2.43 8.36 8.36 0 0 1-.78-3.8 8.78 8.78 0 0 1 .38-2.6 6.02 6.02 0 0 1 1.1-2.1 5.27 5.27 0 0 1 1.86-1.4 6.1 6.1 0 0 1 2.62-.53 5.75 5.75 0 0 1 2.37.47 5.87 5.87 0 0 1 1.82 1.26 5.6 5.6 0 0 1 1.18 1.75 5.08 5.08 0 0 1 .4 2zM321.8 22.87h3.32l4.46 12.82h.07l4.42-12.83h3.36v24.2h-3.47v-14.7h-.06l-3.44 10.4h-1.73l-3.4-10.4h-.07v14.7h-3.47zM339.7 28.58a6.17 6.17 0 0 1 .5-2.58 5.38 5.38 0 0 1 1.35-1.85 5.8 5.8 0 0 1 1.87-1.1 6.03 6.03 0 0 1 4.2 0 5.8 5.8 0 0 1 1.86 1.1 5.4 5.4 0 0 1 1.34 1.85 6.2 6.2 0 0 1 .5 2.58v12.8a6.15 6.15 0 0 1-.5 2.6 5.42 5.42 0 0 1-1.34 1.82 5.77 5.77 0 0 1-1.87 1.1 6.03 6.03 0 0 1-4.18 0 5.75 5.75 0 0 1-1.87-1.1 5.4 5.4 0 0 1-1.34-1.83 6.14 6.14 0 0 1-.5-2.6zm3.47 12.8a2.3 2.3 0 0 0 .7 1.84 2.58 2.58 0 0 0 3.3 0 2.3 2.3 0 0 0 .7-1.85v-12.8a2.3 2.3 0 0 0-.7-1.84 2.58 2.58 0 0 0-3.3 0 2.3 2.3 0 0 0-.7 1.85zM359.7 22.87h5.12a5.94 5.94 0 0 1 4.53 1.65 6.43 6.43 0 0 1 1.56 4.6v11.33q0 3.4-1.64 5a6.5 6.5 0 0 1-4.74 1.63h-4.83zm3.46 20.95h1.6a2.57 2.57 0 0 0 2.07-.74 3.54 3.54 0 0 0 .6-2.3V29.14a3.66 3.66 0 0 0-.57-2.2 2.47 2.47 0 0 0-2.1-.8h-1.6zM373.25 22.87h10.34v3.27h-6.88v7.1h6v3.27h-6v7.1h6.87v3.48h-10.35zM391.14 22.87h5.57q6.13 0 6.13 7.1a8.97 8.97 0 0 1-.66 3.63 5.13 5.13 0 0 1-2.33 2.43l3.74 11.05h-3.67l-3.22-10.34h-2.08v10.34h-3.46zm3.46 10.8h1.98a3.5 3.5 0 0 0 1.46-.24 1.88 1.88 0 0 0 .83-.73 3.1 3.1 0 0 0 .4-1.18 12.77 12.77 0 0 0 0-3.23 2.9 2.9 0 0 0-.43-1.2 1.92 1.92 0 0 0-.9-.73 4.1 4.1 0 0 0-1.53-.23h-1.8zM405.3 22.87h10.34v3.27h-6.87v7.1h6v3.27h-6v7.1h6.87v3.48H405.3zM428.54 41.67a5.52 5.52 0 0 1-.43 2.15 5.64 5.64 0 0 1-1.16 1.78 5.8 5.8 0 0 1-1.75 1.22 5.13 5.13 0 0 1-2.17.46 7.75 7.75 0 0 1-2-.27 4.85 4.85 0 0 1-1.84-.92 5.05 5.05 0 0 1-1.36-1.75 6.3 6.3 0 0 1-.52-2.76V28.24a5.9 5.9 0 0 1 .4-2.2 5.2 5.2 0 0 1 1.16-1.77 5.38 5.38 0 0 1 1.8-1.18 6 6 0 0 1 2.28-.43 5.7 5.7 0 0 1 2.2.42 5.3 5.3 0 0 1 1.78 1.18 5.5 5.5 0 0 1 1.17 1.84 6.26 6.26 0 0 1 .44 2.33v1.36h-3.47v-1.15a2.8 2.8 0 0 0-.58-1.77 1.87 1.87 0 0 0-1.57-.74 1.76 1.76 0 0 0-1.72.8 4.27 4.27 0 0 0-.42 2.02v12.37a3.2 3.2 0 0 0 .46 1.77 1.8 1.8 0 0 0 1.65.72 2.53 2.53 0 0 0 .72-.12 2 2 0 0 0 .72-.4 1.96 1.96 0 0 0 .52-.74 3 3 0 0 0 .2-1.2V40.2h3.48zM430.62 22.87h3.47V43.6h6.86v3.48h-10.34zM447.43 22.87h2.9l5.4 24.2h-3.47l-1.02-5.2h-4.72l-1.02 5.2h-3.47zm1.47 6.97h-.07l-1.7 8.77h3.47zM457.3 22.87h3.33l4.45 12.82h.07l4.42-12.83h3.36v24.2h-3.46v-14.7h-.07l-3.44 10.4h-1.73l-3.4-10.4h-.07v14.7h-3.47zM479.9 22.87h2.9l5.4 24.2h-3.47l-1.02-5.2H479l-1.03 5.2h-3.47zm1.46 6.97h-.06l-1.7 8.77h3.46zM500.43 41.67a5.52 5.52 0 0 1-.43 2.15 5.64 5.64 0 0 1-1.17 1.78 5.8 5.8 0 0 1-1.75 1.22 5.13 5.13 0 0 1-2.16.46 7.75 7.75 0 0 1-2-.27 4.85 4.85 0 0 1-1.84-.92 5.05 5.05 0 0 1-1.35-1.75 6.3 6.3 0 0 1-.52-2.76V28.24a5.9 5.9 0 0 1 .4-2.2 5.2 5.2 0 0 1 1.17-1.77 5.38 5.38 0 0 1 1.8-1.18 6 6 0 0 1 2.28-.43 5.7 5.7 0 0 1 2.2.42 5.3 5.3 0 0 1 1.78 1.18 5.5 5.5 0 0 1 1.17 1.84 6.26 6.26 0 0 1 .43 2.33v1.36h-3.47v-1.15a2.8 2.8 0 0 0-.58-1.77 1.87 1.87 0 0 0-1.56-.74 1.76 1.76 0 0 0-1.72.8 4.27 4.27 0 0 0-.43 2.02v12.37a3.2 3.2 0 0 0 .46 1.77 1.8 1.8 0 0 0 1.65.72 2.53 2.53 0 0 0 .73-.12 2 2 0 0 0 .73-.4 1.96 1.96 0 0 0 .52-.74 3 3 0 0 0 .2-1.2V40.2h3.48zM502.56 22.87h3.47v24.2h-3.47zM508.36 28.58a6.17 6.17 0 0 1 .5-2.58 5.38 5.38 0 0 1 1.36-1.85 5.8 5.8 0 0 1 1.87-1.1 6.03 6.03 0 0 1 4.17 0 5.8 5.8 0 0 1 1.87 1.1 5.4 5.4 0 0 1 1.34 1.85 6.2 6.2 0 0 1 .5 2.58v12.8a6.15 6.15 0 0 1-.5 2.6 5.42 5.42 0 0 1-1.34 1.82 5.77 5.77 0 0 1-1.87 1.1 6.03 6.03 0 0 1-4.18 0 5.75 5.75 0 0 1-1.88-1.1 5.4 5.4 0 0 1-1.35-1.83 6.14 6.14 0 0 1-.5-2.6zm3.47 12.8a2.3 2.3 0 0 0 .7 1.84 2.58 2.58 0 0 0 3.3 0 2.3 2.3 0 0 0 .7-1.85v-12.8a2.3 2.3 0 0 0-.7-1.84 2.58 2.58 0 0 0-3.3 0 2.3 2.3 0 0 0-.7 1.85zM522.18 22.87h3.33l5.25 14.6h.06v-14.6h3.48v24.2h-3.26l-5.3-14.54h-.07v14.55h-3.47zM536.63 22.87h10.33v3.27h-6.86v7.1h5.98v3.27h-5.98v7.1h6.86v3.48h-10.33zM560.27 29.84h-3.47v-.78a3.7 3.7 0 0 0-.56-2.06 2.08 2.08 0 0 0-1.88-.86 2.27 2.27 0 0 0-1.18.27 2 2 0 0 0-.7.7 2.9 2.9 0 0 0-.37 1 6.52 6.52 0 0 0-.1 1.16q0 .72.06 1.2a2.13 2.13 0 0 0 .26.86 1.96 1.96 0 0 0 .6.63 5.44 5.44 0 0 0 1.06.54l2.65 1.05a6.58 6.58 0 0 1 1.87 1.03 4.23 4.23 0 0 1 1.1 1.4 5.92 5.92 0 0 1 .54 1.83 18.3 18.3 0 0 1 .13 2.38 12.45 12.45 0 0 1-.3 2.84 6 6 0 0 1-1 2.24 4.82 4.82 0 0 1-1.86 1.48 6.6 6.6 0 0 1-2.8.54 6.16 6.16 0 0 1-2.36-.44 5.66 5.66 0 0 1-3.57-5.3v-1.3h3.47v1.1a2.83 2.83 0 0 0 .56 1.7 2.18 2.18 0 0 0 1.9.78 3.05 3.05 0 0 0 1.36-.26 1.76 1.76 0 0 0 .75-.7 2.94 2.94 0 0 0 .34-1.15q.06-.67.06-1.5a14.78 14.78 0 0 0-.06-1.55 2.5 2.5 0 0 0-.3-1 1.78 1.78 0 0 0-.6-.6 8.17 8.17 0 0 0-1.04-.5l-2.48-1.03a5.5 5.5 0 0 1-3-2.43 8.36 8.36 0 0 1-.78-3.8 8.78 8.78 0 0 1 .38-2.6 6.02 6.02 0 0 1 1.1-2.1 5.27 5.27 0 0 1 1.85-1.4 6.1 6.1 0 0 1 2.62-.53 5.75 5.75 0 0 1 2.35.47 5.87 5.87 0 0 1 1.84 1.26 5.6 5.6 0 0 1 1.16 1.75 5.08 5.08 0 0 1 .4 2z"/>
    <path class="cls-2" d="M22 87.86h207.2v207.2H22z"/>
    <path class="cls-3" d="M44.4 120.8h4.45a6.6 6.6 0 0 1 2.15.3 4.12 4.12 0 0 1 1.68 1.14 4.44 4.44 0 0 1 1.04 1.9 11.93 11.93 0 0 1 .3 2.95 14.64 14.64 0 0 1-.17 2.32 4.92 4.92 0 0 1-.68 1.8 4.32 4.32 0 0 1-1.62 1.6 5.47 5.47 0 0 1-2.67.56h-1.5v8.06H44.4zm2.97 9.8h1.42a3 3 0 0 0 1.4-.26 1.66 1.66 0 0 0 .7-.7 2.75 2.75 0 0 0 .3-1.1q.03-.64.03-1.42c0-.5 0-.95-.04-1.38a3.22 3.22 0 0 0-.27-1.13 1.66 1.66 0 0 0-.7-.75 2.64 2.64 0 0 0-1.32-.27h-1.53zM58.33 120.8h2.47l4.6 20.64h-2.95l-.87-4.43h-4.03l-.87 4.44h-2.96zm1.25 5.94h-.06l-1.45 7.48h2.96zM76.24 126.74h-2.96v-.67a3.15 3.15 0 0 0-.47-1.75 1.77 1.77 0 0 0-1.6-.74 1.95 1.95 0 0 0-1 .23 1.7 1.7 0 0 0-.6.6 2.46 2.46 0 0 0-.32.85 5.6 5.6 0 0 0-.1 1 10.16 10.16 0 0 0 .06 1.03 1.8 1.8 0 0 0 .22.72 1.66 1.66 0 0 0 .5.54 4.58 4.58 0 0 0 .92.46l2.26.9a5.65 5.65 0 0 1 1.6.9 3.6 3.6 0 0 1 .94 1.17 5.05 5.05 0 0 1 .45 1.57 15.68 15.68 0 0 1 .1 2.02 10.63 10.63 0 0 1-.25 2.42 5.1 5.1 0 0 1-.85 1.9 4.1 4.1 0 0 1-1.6 1.27 5.64 5.64 0 0 1-2.4.47 5.27 5.27 0 0 1-2-.38 4.76 4.76 0 0 1-2.65-2.58 4.8 4.8 0 0 1-.4-1.94v-1.1h2.97v.92a2.42 2.42 0 0 0 .48 1.47 1.87 1.87 0 0 0 1.6.66 2.6 2.6 0 0 0 1.18-.22 1.5 1.5 0 0 0 .65-.6 2.52 2.52 0 0 0 .28-.98q.05-.58.05-1.28a12.68 12.68 0 0 0-.05-1.33 2.12 2.12 0 0 0-.25-.84 1.5 1.5 0 0 0-.52-.5 6.93 6.93 0 0 0-.9-.45l-2.1-.87a4.7 4.7 0 0 1-2.57-2.07 7.14 7.14 0 0 1-.66-3.22 7.5 7.5 0 0 1 .32-2.2 5.12 5.12 0 0 1 .94-1.8 4.5 4.5 0 0 1 1.58-1.2 5.2 5.2 0 0 1 2.23-.46 4.9 4.9 0 0 1 2.03.4 5 5 0 0 1 1.56 1.08 4.77 4.77 0 0 1 1 1.5 4.34 4.34 0 0 1 .34 1.7zM77.9 125.67a5.28 5.28 0 0 1 .44-2.2 4.6 4.6 0 0 1 1.14-1.6 4.95 4.95 0 0 1 1.6-.93 5.14 5.14 0 0 1 3.57 0 4.97 4.97 0 0 1 1.6.94 4.6 4.6 0 0 1 1.14 1.58 5.28 5.28 0 0 1 .42 2.2v10.9a5.25 5.25 0 0 1-.43 2.23 4.63 4.63 0 0 1-1.16 1.55 4.96 4.96 0 0 1-1.6.95 5.16 5.16 0 0 1-3.56 0 4.93 4.93 0 0 1-1.6-.95 4.62 4.62 0 0 1-1.14-1.56 5.25 5.25 0 0 1-.44-2.23zm2.96 10.9a1.97 1.97 0 0 0 .6 1.58 2.2 2.2 0 0 0 2.8 0 1.97 1.97 0 0 0 .6-1.58v-10.9a1.97 1.97 0 0 0-.6-1.58 2.2 2.2 0 0 0-2.8 0 1.97 1.97 0 0 0-.6 1.57zM98.06 123.93l-2.96 2.17v-3.13l2.96-2.18h2.96v20.64h-2.96zM46.5 172.6v-14.24h2.16v14.25zM57.47 172.6v-1.07a3.12 3.12 0 0 1-2.68 1.2 3.5 3.5 0 0 1-2.5-.9c-1-1.02-1.13-2.77-1.13-4.3s.12-3.27 1.14-4.3a3.46 3.46 0 0 1 2.47-.9 3.14 3.14 0 0 1 2.66 1.15v-5.12h2.04v14.25zm-2.14-8.44c-1.84 0-2.12 1.56-2.12 3.36s.3 3.4 2.13 3.4 2.1-1.6 2.1-3.4-.26-3.36-2.1-3.36zM63.7 168.12c0 1.74.9 2.85 2.57 2.85a3.03 3.03 0 0 0 2.46-1.05l1.3 1.23a4.76 4.76 0 0 1-3.8 1.58c-2.54 0-4.56-1.34-4.56-5.2 0-3.3 1.7-5.2 4.3-5.2 2.72 0 4.3 2 4.3 4.9v.9zm4.27-2.8a2.1 2.1 0 0 0-2-1.28 2.12 2.12 0 0 0-2.02 1.28 3.22 3.22 0 0 0-.26 1.38h4.55a3.2 3.2 0 0 0-.28-1.38zM78.62 172.6v-6.18a1.97 1.97 0 0 0-2.04-2.26 2.02 2.02 0 0 0-2.1 2.26v6.2h-2.04v-10.16h2v1.02a3.62 3.62 0 0 1 2.7-1.14 3.52 3.52 0 0 1 2.5.92 3.73 3.73 0 0 1 1.02 2.86v6.5zM86.25 172.6a2.64 2.64 0 0 1-2.77-2.82v-5.58H82.3v-1.56h1.18v-3.08h2.03v3.08h1.98v1.56H85.5v5.5a1.03 1.03 0 0 0 1.14 1.17h.84v1.74zM89.38 160.46v-2.16h2.16v2.16zm.06 12.15v-10.14h2.04v10.15zM96.54 164.2v8.4H94.5v-8.4h-1.16v-1.56h1.16v-1.56a2.64 2.64 0 0 1 2.78-2.82h1.28V160h-.9a1.03 1.03 0 0 0-1.12 1.18v1.46h2.02v1.56zM100.3 160.46v-2.16h2.15v2.16zm.05 12.15v-10.14h2.05v10.15zM109.07 172.73c-2.28 0-4.52-1.4-4.52-5.2s2.24-5.2 4.52-5.2a4.16 4.16 0 0 1 3.34 1.43l-1.4 1.36a2.36 2.36 0 0 0-1.93-.96 2.28 2.28 0 0 0-1.88.9 3.74 3.74 0 0 0-.6 2.46 3.8 3.8 0 0 0 .6 2.48 2.28 2.28 0 0 0 1.87.9 2.36 2.36 0 0 0 1.94-.96l1.4 1.35a4.18 4.18 0 0 1-3.33 1.43zM119.97 172.6v-.9a3.34 3.34 0 0 1-2.7 1.03 3.58 3.58 0 0 1-2.72-.92 3.1 3.1 0 0 1-.8-2.18c0-1.7 1.18-2.92 3.5-2.92h2.68v-.72c0-1.28-.64-1.9-2.22-1.9a2.38 2.38 0 0 0-2.2.98l-1.35-1.26a4.16 4.16 0 0 1 3.64-1.46c2.77 0 4.17 1.18 4.17 3.48v6.8zm-.04-4.48h-2.38c-1.2 0-1.82.54-1.82 1.46 0 .92.58 1.44 1.86 1.44a2.42 2.42 0 0 0 1.9-.58 2.03 2.03 0 0 0 .43-1.5zM130.15 164.84a1.88 1.88 0 0 0-1.52-.68 2.1 2.1 0 0 0-2.02 2.28v6.17h-2.03v-10.14h2v1.1a3.36 3.36 0 0 1 2.7-1.22 3.14 3.14 0 0 1 2.42.96zM138.85 168.12c0 1.74.92 2.85 2.58 2.85a3.03 3.03 0 0 0 2.46-1.05l1.3 1.23a4.76 4.76 0 0 1-3.8 1.58c-2.55 0-4.57-1.34-4.57-5.2 0-3.3 1.7-5.2 4.3-5.2 2.72 0 4.3 2 4.3 4.9v.9zm4.28-2.8a2.1 2.1 0 0 0-2-1.28 2.12 2.12 0 0 0-2.02 1.28 3.22 3.22 0 0 0-.25 1.38h4.56a3.2 3.2 0 0 0-.27-1.38zM46.2 184.46v-2.16h2.16v2.16zm.06 12.15v-10.14h2.04v10.15zM57.12 196.6v-6.18a1.97 1.97 0 0 0-2.04-2.26 2.02 2.02 0 0 0-2.1 2.26v6.2h-2.04v-10.16h2v1.02a3.62 3.62 0 0 1 2.7-1.14 3.52 3.52 0 0 1 2.5.92 3.73 3.73 0 0 1 1.02 2.86v6.5zM65.64 196.6h-1.66l-3.72-10.14h2.16l2.4 7.14 2.38-7.14h2.16zM77.4 195.53a4.1 4.1 0 0 1-3.05 1.2 4.06 4.06 0 0 1-3.02-1.2c-.96-1-1.2-2.3-1.2-4a5.32 5.32 0 0 1 1.2-4 4.06 4.06 0 0 1 3.02-1.2 4.1 4.1 0 0 1 3.04 1.2 5.32 5.32 0 0 1 1.2 4c0 1.7-.25 3-1.2 4zm-1.55-6.8a2.07 2.07 0 0 0-1.5-.57 2.02 2.02 0 0 0-1.48.58 5.86 5.86 0 0 0 0 5.57 2.03 2.03 0 0 0 1.48.6 2.08 2.08 0 0 0 1.5-.6 5.88 5.88 0 0 0 0-5.56zM83.54 196.6a2.58 2.58 0 0 1-2.78-2.8v-11.44h2.04v11.33c0 .76.28 1.17 1.1 1.17h.9v1.74zM92.62 196.6v-1a3.63 3.63 0 0 1-2.7 1.13 3.52 3.52 0 0 1-2.5-.92 3.73 3.73 0 0 1-1.02-2.86v-6.48h2.04v6.18a1.97 1.97 0 0 0 2.04 2.27 2.02 2.02 0 0 0 2.1-2.26v-6.18h2.04v10.15zM101.32 196.73c-2.28 0-4.52-1.4-4.52-5.2s2.24-5.2 4.52-5.2a4.16 4.16 0 0 1 3.34 1.43l-1.4 1.36a2.36 2.36 0 0 0-1.94-.96 2.28 2.28 0 0 0-1.88.9 3.74 3.74 0 0 0-.6 2.46 3.8 3.8 0 0 0 .6 2.48 2.28 2.28 0 0 0 1.88.9 2.36 2.36 0 0 0 1.94-.96l1.4 1.35a4.18 4.18 0 0 1-3.34 1.43zM112.1 188.84a1.88 1.88 0 0 0-1.52-.68 2.1 2.1 0 0 0-2.02 2.28v6.17h-2.04v-10.14h2v1.1a3.37 3.37 0 0 1 2.7-1.22 3.14 3.14 0 0 1 2.42.96zM120.74 196.6v-.9a3.33 3.33 0 0 1-2.7 1.03 3.58 3.58 0 0 1-2.72-.92 3.12 3.12 0 0 1-.8-2.18c0-1.7 1.18-2.92 3.5-2.92h2.68v-.72c0-1.28-.64-1.9-2.22-1.9a2.38 2.38 0 0 0-2.22.98l-1.34-1.26a4.16 4.16 0 0 1 3.64-1.46c2.78 0 4.18 1.18 4.18 3.48v6.8zm-.04-4.48h-2.38c-1.2 0-1.82.54-1.82 1.46 0 .92.58 1.44 1.86 1.44a2.42 2.42 0 0 0 1.9-.58 2.04 2.04 0 0 0 .44-1.5zM130.9 188.84a1.88 1.88 0 0 0-1.5-.68 2.1 2.1 0 0 0-2.03 2.28v6.17h-2.04v-10.14h2v1.1a3.37 3.37 0 0 1 2.7-1.22 3.14 3.14 0 0 1 2.42.96zM143.57 196.6v-.9a3.34 3.34 0 0 1-2.7 1.03 3.58 3.58 0 0 1-2.72-.92 3.1 3.1 0 0 1-.8-2.18c0-1.7 1.18-2.92 3.5-2.92h2.68v-.72c0-1.28-.64-1.9-2.22-1.9a2.38 2.38 0 0 0-2.2.98l-1.35-1.26a4.16 4.16 0 0 1 3.64-1.46c2.77 0 4.17 1.18 4.17 3.48v6.8zm-.04-4.48h-2.38c-1.2 0-1.82.54-1.82 1.46 0 .92.58 1.44 1.86 1.44a2.42 2.42 0 0 0 1.9-.58 2.03 2.03 0 0 0 .43-1.5zM152.18 196.73c-2.28 0-4.52-1.4-4.52-5.2s2.24-5.2 4.52-5.2a4.16 4.16 0 0 1 3.35 1.43l-1.4 1.36a2.36 2.36 0 0 0-1.95-.96 2.28 2.28 0 0 0-1.87.9 3.74 3.74 0 0 0-.6 2.46 3.8 3.8 0 0 0 .6 2.48 2.28 2.28 0 0 0 1.88.9 2.36 2.36 0 0 0 1.95-.96l1.4 1.35a4.18 4.18 0 0 1-3.35 1.43zM160.87 196.6a2.64 2.64 0 0 1-2.78-2.82v-5.58h-1.17v-1.56h1.16v-3.08h2.03v3.08h1.96v1.56h-1.97v5.5a1.03 1.03 0 0 0 1.12 1.17h.84v1.74zM170.8 195.53a4.1 4.1 0 0 1-3.04 1.2 4.05 4.05 0 0 1-3.02-1.2c-.96-1-1.2-2.3-1.2-4a5.32 5.32 0 0 1 1.2-4 4.05 4.05 0 0 1 3.02-1.2 4.1 4.1 0 0 1 3.04 1.2 5.32 5.32 0 0 1 1.2 4c0 1.7-.24 3-1.2 4zm-1.54-6.8a2.07 2.07 0 0 0-1.5-.57 2.02 2.02 0 0 0-1.48.58 5.88 5.88 0 0 0 0 5.57 2.04 2.04 0 0 0 1.48.6 2.08 2.08 0 0 0 1.5-.6 5.86 5.86 0 0 0 0-5.56zM179.83 188.84a1.88 1.88 0 0 0-1.52-.68 2.1 2.1 0 0 0-2 2.28v6.17h-2.05v-10.14h2v1.1a3.37 3.37 0 0 1 2.7-1.22 3.14 3.14 0 0 1 2.42.96zM184.03 192.12c0 1.74.92 2.85 2.58 2.85a3.03 3.03 0 0 0 2.47-1.05l1.3 1.23a4.76 4.76 0 0 1-3.8 1.58c-2.54 0-4.56-1.34-4.56-5.2 0-3.3 1.7-5.2 4.3-5.2 2.73 0 4.3 2 4.3 4.9v.9zm4.28-2.8a2.1 2.1 0 0 0-2-1.28 2.12 2.12 0 0 0-2 1.28 3.2 3.2 0 0 0-.27 1.38h4.56a3.18 3.18 0 0 0-.3-1.38zM196.3 196.73a5.58 5.58 0 0 1-4.27-1.46l1.34-1.35a3.94 3.94 0 0 0 2.92 1.07c1.23 0 2.2-.46 2.2-1.42 0-.68-.37-1.12-1.35-1.2l-1.62-.14c-1.9-.16-3-1.02-3-2.8 0-1.98 1.7-3.1 3.82-3.1a5.57 5.57 0 0 1 3.76 1.14l-1.27 1.3a3.83 3.83 0 0 0-2.5-.74c-1.22 0-1.84.54-1.84 1.3 0 .6.3 1.06 1.4 1.16l1.6.14c1.9.16 3 1.06 3 2.86 0 2.13-1.8 3.23-4.2 3.23zM50.26 220.73c-2.28 0-4.52-1.4-4.52-5.2s2.24-5.2 4.52-5.2a4.16 4.16 0 0 1 3.34 1.43l-1.4 1.36a2.36 2.36 0 0 0-1.94-.96 2.28 2.28 0 0 0-1.88.9 3.74 3.74 0 0 0-.6 2.46 3.8 3.8 0 0 0 .6 2.48 2.28 2.28 0 0 0 1.88.9 2.36 2.36 0 0 0 1.94-.96l1.4 1.35a4.18 4.18 0 0 1-3.34 1.43zM58.2 220.6a2.58 2.58 0 0 1-2.77-2.8v-11.44h2.04v11.33c0 .76.28 1.17 1.1 1.17h.9v1.74zM67.02 220.6v-.9a3.34 3.34 0 0 1-2.7 1.03 3.58 3.58 0 0 1-2.72-.92 3.1 3.1 0 0 1-.8-2.18c0-1.7 1.18-2.92 3.5-2.92h2.68v-.72c0-1.28-.64-1.9-2.22-1.9a2.38 2.38 0 0 0-2.22.98l-1.34-1.26a4.16 4.16 0 0 1 3.64-1.46c2.78 0 4.18 1.18 4.18 3.48v6.8zm-.04-4.48H64.6c-1.2 0-1.82.54-1.82 1.46 0 .92.58 1.44 1.86 1.44a2.42 2.42 0 0 0 1.9-.58 2.03 2.03 0 0 0 .44-1.5zM75.53 220.6h-1.66l-3.72-10.14h2.16l2.4 7.14 2.4-7.14h2.15zM81.98 216.12c0 1.74.92 2.85 2.58 2.85a3.03 3.03 0 0 0 2.46-1.05l1.3 1.23a4.76 4.76 0 0 1-3.8 1.58c-2.54 0-4.56-1.34-4.56-5.2 0-3.3 1.7-5.2 4.3-5.2 2.72 0 4.3 2 4.3 4.9v.9zm4.28-2.8a2.1 2.1 0 0 0-2-1.28 2.12 2.12 0 0 0-2.02 1.28 3.22 3.22 0 0 0-.26 1.38h4.56a3.2 3.2 0 0 0-.28-1.38zM96.76 216.12c0 1.74.92 2.85 2.58 2.85a3.03 3.03 0 0 0 2.46-1.05l1.3 1.23a4.76 4.76 0 0 1-3.8 1.58c-2.54 0-4.56-1.34-4.56-5.2 0-3.3 1.7-5.2 4.3-5.2 2.72 0 4.3 2 4.3 4.9v.9zm4.28-2.8a2.1 2.1 0 0 0-2-1.28 2.12 2.12 0 0 0-2.02 1.28 3.22 3.22 0 0 0-.26 1.38h4.56a3.2 3.2 0 0 0-.28-1.38zM111.68 220.6v-6.18a1.97 1.97 0 0 0-2.04-2.26 2.02 2.02 0 0 0-2.1 2.26v6.2h-2.04v-10.16h2v1.02a3.62 3.62 0 0 1 2.7-1.14 3.52 3.52 0 0 1 2.5.92 3.73 3.73 0 0 1 1.03 2.86v6.5zM123.58 220.6a2.58 2.58 0 0 1-2.78-2.8v-11.44h2.04v11.33c0 .76.28 1.17 1.1 1.17h.9v1.74zM132.4 220.6v-.9a3.34 3.34 0 0 1-2.7 1.03 3.58 3.58 0 0 1-2.72-.92 3.1 3.1 0 0 1-.8-2.18c0-1.7 1.18-2.92 3.5-2.92h2.68v-.72c0-1.28-.64-1.9-2.22-1.9a2.38 2.38 0 0 0-2.22.98l-1.34-1.26a4.16 4.16 0 0 1 3.64-1.46c2.78 0 4.18 1.18 4.18 3.48v6.8zm-.04-4.48h-2.38c-1.2 0-1.82.54-1.82 1.46 0 .92.58 1.44 1.86 1.44a2.42 2.42 0 0 0 1.9-.58 2.03 2.03 0 0 0 .44-1.5zM50.26 244.73c-2.28 0-4.52-1.4-4.52-5.2s2.24-5.2 4.52-5.2a4.16 4.16 0 0 1 3.34 1.43l-1.4 1.36a2.36 2.36 0 0 0-1.94-.96 2.28 2.28 0 0 0-1.88.9 3.74 3.74 0 0 0-.6 2.46 3.8 3.8 0 0 0 .6 2.48 2.28 2.28 0 0 0 1.88.9 2.36 2.36 0 0 0 1.94-.96l1.4 1.35a4.18 4.18 0 0 1-3.34 1.43zM62.1 243.53a4.1 4.1 0 0 1-3.03 1.2 4.06 4.06 0 0 1-3.02-1.2c-.96-1-1.2-2.3-1.2-4a5.32 5.32 0 0 1 1.2-4 4.06 4.06 0 0 1 3.02-1.2 4.1 4.1 0 0 1 3.04 1.2 5.32 5.32 0 0 1 1.2 4c0 1.7-.23 3-1.2 4zm-1.53-6.8a2.07 2.07 0 0 0-1.5-.57 2.02 2.02 0 0 0-1.48.58 5.86 5.86 0 0 0 0 5.57 2.03 2.03 0 0 0 1.47.6 2.08 2.08 0 0 0 1.5-.6 5.88 5.88 0 0 0 0-5.56zM77.92 244.6v-6.18a1.97 1.97 0 0 0-2.04-2.26 2 2 0 0 0-2.1 2.16v6.3h-2.04v-6.2a1.97 1.97 0 0 0-2.04-2.26 2.02 2.02 0 0 0-2.1 2.26v6.2h-2.04v-10.16h2v1.02a3.67 3.67 0 0 1 2.7-1.14 3.24 3.24 0 0 1 2.88 1.48 3.85 3.85 0 0 1 3.18-1.48 3.67 3.67 0 0 1 2.56.92 3.77 3.77 0 0 1 1.08 2.86v6.5zM89.74 243.83a3.46 3.46 0 0 1-2.46.9 3.16 3.16 0 0 1-2.66-1.16v5.14h-2.05v-14.24h2v1.08a3.12 3.12 0 0 1 2.7-1.2 3.5 3.5 0 0 1 2.47.9c1.02 1.02 1.14 2.74 1.14 4.28s-.12 3.3-1.14 4.3zm-3-7.67c-1.84 0-2.12 1.56-2.12 3.36s.28 3.4 2.12 3.4 2.1-1.6 2.1-3.4-.26-3.36-2.1-3.36zM98.75 244.6v-.9a3.34 3.34 0 0 1-2.7 1.03 3.58 3.58 0 0 1-2.72-.92 3.1 3.1 0 0 1-.8-2.18c0-1.7 1.18-2.92 3.5-2.92h2.68v-.72c0-1.28-.63-1.9-2.2-1.9a2.38 2.38 0 0 0-2.23.98l-1.34-1.26a4.16 4.16 0 0 1 3.64-1.46c2.78 0 4.18 1.18 4.18 3.48v6.8zm-.04-4.48h-2.37c-1.2 0-1.82.54-1.82 1.46 0 .92.6 1.44 1.87 1.44a2.42 2.42 0 0 0 1.9-.58 2.03 2.03 0 0 0 .44-1.5zM109.52 244.6v-6.18a1.97 1.97 0 0 0-2.04-2.26 2.02 2.02 0 0 0-2.1 2.26v6.2h-2.04v-10.16h2v1.02a3.62 3.62 0 0 1 2.7-1.14 3.52 3.52 0 0 1 2.5.92 3.73 3.73 0 0 1 1.02 2.86v6.5zm-.76-12.24a2.75 2.75 0 0 1-1.5-.46 2.2 2.2 0 0 0-1.12-.38c-.34 0-.6.04-1.16.6l-.96-.94a2.75 2.75 0 0 1 2.08-1.1 2.67 2.67 0 0 1 1.5.48 2.02 2.02 0 0 0 1.1.38 1.56 1.56 0 0 0 1.18-.62l.96.94a2.8 2.8 0 0 1-2.08 1.1zM115.36 232.62h-1.54l1.5-3.24h2.26zm-1.24 12v-10.16h2.04v10.15zM124.28 244.6v-.9a3.34 3.34 0 0 1-2.7 1.03 3.58 3.58 0 0 1-2.72-.92 3.1 3.1 0 0 1-.8-2.18c0-1.7 1.18-2.92 3.5-2.92h2.68v-.72c0-1.28-.64-1.9-2.22-1.9a2.38 2.38 0 0 0-2.22.98l-1.34-1.26a4.16 4.16 0 0 1 3.64-1.46c2.78 0 4.18 1.18 4.18 3.48v6.8zm-.04-4.48h-2.38c-1.2 0-1.82.54-1.82 1.46 0 .92.58 1.44 1.86 1.44a2.42 2.42 0 0 0 1.9-.58 2.03 2.03 0 0 0 .44-1.5zM136.6 246.63a3.27 3.27 0 0 1-.74 1.26 2.8 2.8 0 0 1-2.08.73h-.82v-1.84h.52c.86 0 1.16-.27 1.46-1.1l.56-1.57-3.54-9.67h2.16l2.42 7.14 2.36-7.14h2.18zM50.26 268.73c-2.28 0-4.52-1.4-4.52-5.2s2.24-5.2 4.52-5.2a4.16 4.16 0 0 1 3.34 1.43l-1.4 1.36a2.36 2.36 0 0 0-1.94-.96 2.28 2.28 0 0 0-1.88.9 3.74 3.74 0 0 0-.6 2.46 3.8 3.8 0 0 0 .6 2.48 2.28 2.28 0 0 0 1.88.9 2.36 2.36 0 0 0 1.94-.96l1.4 1.35a4.18 4.18 0 0 1-3.34 1.43zM62.1 267.53a4.1 4.1 0 0 1-3.03 1.2 4.06 4.06 0 0 1-3.02-1.2c-.96-1-1.2-2.3-1.2-4a5.32 5.32 0 0 1 1.2-4 4.06 4.06 0 0 1 3.02-1.2 4.1 4.1 0 0 1 3.04 1.2 5.32 5.32 0 0 1 1.2 4c0 1.7-.23 3-1.2 4zm-1.53-6.8a2.07 2.07 0 0 0-1.5-.57 2.02 2.02 0 0 0-1.48.58 5.86 5.86 0 0 0 0 5.57 2.03 2.03 0 0 0 1.47.6 2.08 2.08 0 0 0 1.5-.6 5.88 5.88 0 0 0 0-5.56zM77.92 268.6v-6.18a1.97 1.97 0 0 0-2.04-2.26 2 2 0 0 0-2.1 2.16v6.3h-2.04v-6.2a1.97 1.97 0 0 0-2.04-2.26 2.02 2.02 0 0 0-2.1 2.26v6.2h-2.04v-10.16h2v1.02a3.67 3.67 0 0 1 2.7-1.14 3.24 3.24 0 0 1 2.88 1.48 3.85 3.85 0 0 1 3.18-1.48 3.67 3.67 0 0 1 2.56.92 3.77 3.77 0 0 1 1.08 2.86v6.5zM88.68 268.6v-1a3.63 3.63 0 0 1-2.7 1.13 3.5 3.5 0 0 1-2.5-.92 3.72 3.72 0 0 1-1.02-2.86v-6.48h2.04v6.18a1.97 1.97 0 0 0 2.04 2.27 2.02 2.02 0 0 0 2.1-2.26v-6.18h2.04v10.15zM99.52 268.6v-6.18a1.97 1.97 0 0 0-2.04-2.26 2.02 2.02 0 0 0-2.1 2.26v6.2h-2.04v-10.16h2v1.02a3.63 3.63 0 0 1 2.7-1.14 3.52 3.52 0 0 1 2.5.92 3.73 3.73 0 0 1 1.02 2.86v6.5zM104.07 256.46v-2.16h2.17v2.16zm.07 12.15v-10.14h2.04v10.15zM114.7 268.6v-1.07a3.12 3.12 0 0 1-2.67 1.2 3.5 3.5 0 0 1-2.48-.9c-1.02-1.02-1.14-2.77-1.14-4.3s.13-3.27 1.15-4.3a3.46 3.46 0 0 1 2.46-.9 3.14 3.14 0 0 1 2.67 1.15v-5.12h2.04v14.25zm-2.13-8.44c-1.84 0-2.12 1.56-2.12 3.36s.28 3.4 2.12 3.4 2.1-1.6 2.1-3.4-.26-3.36-2.1-3.36zM124.92 268.6v-.9a3.34 3.34 0 0 1-2.7 1.03 3.58 3.58 0 0 1-2.72-.92 3.1 3.1 0 0 1-.8-2.18c0-1.7 1.18-2.92 3.5-2.92h2.68v-.72c0-1.28-.64-1.9-2.22-1.9a2.38 2.38 0 0 0-2.22.98l-1.34-1.26a4.16 4.16 0 0 1 3.64-1.46c2.78 0 4.18 1.18 4.18 3.48v6.8zm-.04-4.48h-2.38c-1.2 0-1.82.54-1.82 1.46 0 .92.58 1.44 1.86 1.44a2.42 2.42 0 0 0 1.9-.58 2.03 2.03 0 0 0 .44-1.5zM135.43 268.6v-1.07a3.12 3.12 0 0 1-2.7 1.2 3.5 3.5 0 0 1-2.47-.9c-1.02-1.02-1.13-2.77-1.13-4.3s.1-3.27 1.13-4.3a3.46 3.46 0 0 1 2.47-.9 3.14 3.14 0 0 1 2.66 1.15v-5.12h2.03v14.25zm-2.14-8.44c-1.85 0-2.14 1.56-2.14 3.36s.3 3.4 2.13 3.4 2.1-1.6 2.1-3.4-.27-3.36-2.1-3.36z"/>
    <path class="cls-4" d="M254.86 87.86h207.2v207.2h-207.2z"/>
    <path class="cls-3" d="M277.27 120.8h4.44a6.58 6.58 0 0 1 2.15.3 4.13 4.13 0 0 1 1.7 1.14 4.43 4.43 0 0 1 1.03 1.9 11.88 11.88 0 0 1 .3 2.95 14.75 14.75 0 0 1-.17 2.32 4.93 4.93 0 0 1-.67 1.8 4.32 4.32 0 0 1-1.62 1.6 5.47 5.47 0 0 1-2.66.56h-1.5v8.06h-2.97zm2.96 9.8h1.42a3.02 3.02 0 0 0 1.4-.26 1.66 1.66 0 0 0 .72-.7 2.78 2.78 0 0 0 .27-1.1q.05-.64.05-1.42c0-.5-.03-.95-.06-1.38a3.22 3.22 0 0 0-.26-1.13 1.66 1.66 0 0 0-.68-.75 2.64 2.64 0 0 0-1.33-.27h-1.54zM291.2 120.8h2.46l4.6 20.64h-2.95l-.86-4.43h-4.03l-.86 4.44h-2.96zm1.24 5.94h-.06l-1.45 7.48h2.96zM309.1 126.74h-2.96v-.67a3.16 3.16 0 0 0-.48-1.75 1.77 1.77 0 0 0-1.6-.74 1.95 1.95 0 0 0-1 .23 1.7 1.7 0 0 0-.62.6 2.42 2.42 0 0 0-.3.85 5.52 5.52 0 0 0-.1 1 10.12 10.12 0 0 0 .06 1.03 1.78 1.78 0 0 0 .2.72 1.65 1.65 0 0 0 .52.54 4.55 4.55 0 0 0 .9.46l2.28.9a5.64 5.64 0 0 1 1.6.9 3.6 3.6 0 0 1 .93 1.17 5.1 5.1 0 0 1 .45 1.57 15.87 15.87 0 0 1 .12 2.02 10.63 10.63 0 0 1-.26 2.42 5.12 5.12 0 0 1-.86 1.9 4.1 4.1 0 0 1-1.58 1.27 5.63 5.63 0 0 1-2.4.47 5.26 5.26 0 0 1-2-.38 4.76 4.76 0 0 1-2.66-2.58 4.8 4.8 0 0 1-.4-1.94v-1.1h2.97v.92a2.42 2.42 0 0 0 .5 1.47 1.86 1.86 0 0 0 1.6.66 2.58 2.58 0 0 0 1.17-.22 1.5 1.5 0 0 0 .64-.6 2.52 2.52 0 0 0 .28-.98 12.76 12.76 0 0 0 .06-1.28 12.4 12.4 0 0 0-.06-1.33 2.13 2.13 0 0 0-.24-.84 1.52 1.52 0 0 0-.52-.5 6.93 6.93 0 0 0-.9-.45l-2.1-.87a4.7 4.7 0 0 1-2.57-2.07 7.12 7.12 0 0 1-.66-3.22 7.5 7.5 0 0 1 .3-2.2 5.14 5.14 0 0 1 .96-1.8 4.47 4.47 0 0 1 1.58-1.2 5.2 5.2 0 0 1 2.23-.46 4.9 4.9 0 0 1 2 .4 5.02 5.02 0 0 1 1.58 1.08 4.76 4.76 0 0 1 1 1.5 4.32 4.32 0 0 1 .35 1.7zM310.76 125.67a5.26 5.26 0 0 1 .44-2.2 4.58 4.58 0 0 1 1.14-1.6 4.96 4.96 0 0 1 1.6-.93 5.14 5.14 0 0 1 3.56 0 4.96 4.96 0 0 1 1.6.94 4.6 4.6 0 0 1 1.14 1.58 5.26 5.26 0 0 1 .44 2.2v10.9a5.24 5.24 0 0 1-.44 2.23 4.63 4.63 0 0 1-1.14 1.55 4.95 4.95 0 0 1-1.6.95 5.15 5.15 0 0 1-3.56 0 4.95 4.95 0 0 1-1.6-.95 4.6 4.6 0 0 1-1.14-1.56 5.24 5.24 0 0 1-.44-2.23zm2.96 10.9a1.97 1.97 0 0 0 .6 1.58 2.2 2.2 0 0 0 2.8 0 1.97 1.97 0 0 0 .6-1.58v-10.9a1.97 1.97 0 0 0-.6-1.58 2.2 2.2 0 0 0-2.8 0 1.97 1.97 0 0 0-.6 1.57zM327.4 138.66l5.34-10.06a3.67 3.67 0 0 0 .47-1.32c.04-.38.06-.85.06-1.4 0-.26 0-.53-.03-.8a2.42 2.42 0 0 0-.16-.75 1.28 1.28 0 0 0-.42-.53 1.4 1.4 0 0 0-.84-.22 1.33 1.33 0 0 0-1.44 1.48v1.68h-2.96v-1.62a4.37 4.37 0 0 1 .35-1.74 4.63 4.63 0 0 1 .95-1.43 4.54 4.54 0 0 1 1.4-.97 4.22 4.22 0 0 1 1.74-.36 4.34 4.34 0 0 1 2 .42 3.85 3.85 0 0 1 1.35 1.15 4.87 4.87 0 0 1 .78 1.64 7.66 7.66 0 0 1 .24 1.97q0 .77-.03 1.27a7.9 7.9 0 0 1-.12.97 4.36 4.36 0 0 1-.3.93q-.2.47-.55 1.13l-4.34 8.38h5.32v2.96h-8.82zM279.36 172.6v-14.24h9.1v1.94h-6.94v4.16h5.92v1.92h-5.92v4.28h6.94v1.95zM296.75 172.6v-6.18a1.97 1.97 0 0 0-2.04-2.26 2.02 2.02 0 0 0-2.1 2.26v6.2h-2.03v-10.16h2v1.02a3.63 3.63 0 0 1 2.7-1.14 3.52 3.52 0 0 1 2.5.92 3.72 3.72 0 0 1 1.02 2.86v6.5zM304.4 172.6a2.64 2.64 0 0 1-2.8-2.82v-5.58h-1.15v-1.56h1.16v-3.08h2.05v3.08h1.96v1.56h-1.95v5.5a1.03 1.03 0 0 0 1.12 1.17h.84v1.74zM309.02 168.12c0 1.74.92 2.85 2.58 2.85a3.03 3.03 0 0 0 2.46-1.05l1.3 1.23a4.76 4.76 0 0 1-3.8 1.58c-2.54 0-4.56-1.34-4.56-5.2 0-3.3 1.7-5.2 4.3-5.2 2.72 0 4.3 2 4.3 4.9v.9zm4.28-2.8a2.1 2.1 0 0 0-2-1.28 2.12 2.12 0 0 0-2.02 1.28 3.2 3.2 0 0 0-.26 1.38h4.56a3.2 3.2 0 0 0-.28-1.38zM323.94 172.6v-6.18a1.97 1.97 0 0 0-2.04-2.26 2.02 2.02 0 0 0-2.1 2.26v6.2h-2.04v-10.16h2v1.02a3.63 3.63 0 0 1 2.7-1.14 3.52 3.52 0 0 1 2.5.92 3.72 3.72 0 0 1 1.02 2.86v6.5zM334.5 172.6v-1.07a3.12 3.12 0 0 1-2.7 1.2 3.5 3.5 0 0 1-2.48-.9c-1.02-1.02-1.14-2.77-1.14-4.3s.12-3.27 1.14-4.3a3.46 3.46 0 0 1 2.46-.9 3.14 3.14 0 0 1 2.66 1.15v-5.12h2.05v14.25zm-2.16-8.44c-1.84 0-2.12 1.56-2.12 3.36s.28 3.4 2.12 3.4c1.85 0 2.1-1.6 2.1-3.4s-.25-3.36-2.1-3.36zM340.7 168.12c0 1.74.93 2.85 2.6 2.85a3.03 3.03 0 0 0 2.45-1.05l1.3 1.23a4.76 4.76 0 0 1-3.8 1.58c-2.54 0-4.56-1.34-4.56-5.2 0-3.3 1.7-5.2 4.3-5.2 2.7 0 4.3 2 4.3 4.9v.9zm4.3-2.8a2.1 2.1 0 0 0-2-1.28 2.12 2.12 0 0 0-2.03 1.28 3.2 3.2 0 0 0-.26 1.38h4.57a3.2 3.2 0 0 0-.28-1.38zM355.03 164.84a1.88 1.88 0 0 0-1.5-.68 2.1 2.1 0 0 0-2.04 2.28v6.17h-2.05v-10.14h2v1.1a3.37 3.37 0 0 1 2.7-1.22 3.14 3.14 0 0 1 2.43.96zM363.74 168.12c0 1.74.9 2.85 2.58 2.85a3.03 3.03 0 0 0 2.46-1.05l1.3 1.23a4.76 4.76 0 0 1-3.8 1.58c-2.54 0-4.57-1.34-4.57-5.2 0-3.3 1.7-5.2 4.32-5.2 2.72 0 4.3 2 4.3 4.9v.9zm4.28-2.8a2.1 2.1 0 0 0-2-1.28 2.12 2.12 0 0 0-2.03 1.28 3.2 3.2 0 0 0-.27 1.38h4.57a3.2 3.2 0 0 0-.28-1.38zM375.16 172.6a2.58 2.58 0 0 1-2.78-2.8v-11.44h2.04v11.33c0 .76.28 1.17 1.1 1.17h.9v1.74zM280.62 192.12c0 1.74.92 2.85 2.58 2.85a3.03 3.03 0 0 0 2.46-1.05l1.3 1.23a4.76 4.76 0 0 1-3.8 1.58c-2.54 0-4.56-1.34-4.56-5.2 0-3.3 1.7-5.2 4.3-5.2 2.72 0 4.3 2 4.3 4.9v.9zm4.28-2.8a2.1 2.1 0 0 0-2-1.28 2.12 2.12 0 0 0-2.02 1.28 3.2 3.2 0 0 0-.26 1.38h4.56a3.2 3.2 0 0 0-.28-1.38zM295.54 196.6v-6.18a1.97 1.97 0 0 0-2.04-2.26 2.02 2.02 0 0 0-2.1 2.26v6.2h-2.04v-10.16h2v1.02a3.63 3.63 0 0 1 2.7-1.14 3.52 3.52 0 0 1 2.5.92 3.72 3.72 0 0 1 1.02 2.86v6.5zM303.18 196.6a2.64 2.64 0 0 1-2.78-2.82v-5.58h-1.16v-1.56h1.16v-3.08h2.04v3.08h1.96v1.56h-1.96v5.5a1.03 1.03 0 0 0 1.12 1.17h.84v1.74zM313.1 195.53a4.1 4.1 0 0 1-3.03 1.2 4.06 4.06 0 0 1-3.02-1.2c-.96-1-1.2-2.3-1.2-4a5.32 5.32 0 0 1 1.2-4 4.06 4.06 0 0 1 3.02-1.2 4.1 4.1 0 0 1 3.04 1.2 5.32 5.32 0 0 1 1.2 4c0 1.7-.23 3-1.2 4zm-1.53-6.8a2.07 2.07 0 0 0-1.5-.57 2.02 2.02 0 0 0-1.48.58 5.87 5.87 0 0 0 0 5.57 2.04 2.04 0 0 0 1.47.6 2.08 2.08 0 0 0 1.5-.6 5.87 5.87 0 0 0 0-5.56zM322.14 188.84a1.88 1.88 0 0 0-1.52-.68 2.1 2.1 0 0 0-2.02 2.28v6.17h-2.04v-10.14h2v1.1a3.37 3.37 0 0 1 2.7-1.22 3.14 3.14 0 0 1 2.42.96zM331.37 196.6v-6.18a1.97 1.97 0 0 0-2.04-2.26 2.02 2.02 0 0 0-2.1 2.26v6.2h-2.04v-10.16h2v1.02a3.63 3.63 0 0 1 2.7-1.14 3.52 3.52 0 0 1 2.5.92 3.72 3.72 0 0 1 1 2.86v6.5zM342.82 195.53a4.1 4.1 0 0 1-3.04 1.2 4.06 4.06 0 0 1-3.02-1.2c-.96-1-1.2-2.3-1.2-4a5.32 5.32 0 0 1 1.2-4 4.06 4.06 0 0 1 3.02-1.2 4.1 4.1 0 0 1 3.04 1.2 5.32 5.32 0 0 1 1.2 4c0 1.7-.24 3-1.2 4zm-1.54-6.8a2.07 2.07 0 0 0-1.5-.57 2.02 2.02 0 0 0-1.48.58 5.87 5.87 0 0 0 0 5.57 2.04 2.04 0 0 0 1.48.6 2.08 2.08 0 0 0 1.5-.6 5.87 5.87 0 0 0 0-5.56zM356.24 196.6v-.9a3.33 3.33 0 0 1-2.7 1.03 3.58 3.58 0 0 1-2.72-.92 3.1 3.1 0 0 1-.8-2.18c0-1.7 1.18-2.92 3.5-2.92h2.68v-.72c0-1.28-.64-1.9-2.22-1.9a2.38 2.38 0 0 0-2.22.98l-1.34-1.26a4.16 4.16 0 0 1 3.64-1.46c2.78 0 4.18 1.18 4.18 3.48v6.8zm-.04-4.48h-2.38c-1.2 0-1.82.54-1.82 1.46 0 .92.58 1.44 1.86 1.44a2.42 2.42 0 0 0 1.9-.58 2.04 2.04 0 0 0 .44-1.5zM364.85 196.73c-2.28 0-4.52-1.4-4.52-5.2s2.24-5.2 4.52-5.2a4.16 4.16 0 0 1 3.34 1.43l-1.4 1.36a2.36 2.36 0 0 0-1.95-.96 2.3 2.3 0 0 0-1.88.9 3.75 3.75 0 0 0-.6 2.46 3.8 3.8 0 0 0 .6 2.48 2.3 2.3 0 0 0 1.88.9 2.36 2.36 0 0 0 1.94-.96l1.4 1.35a4.18 4.18 0 0 1-3.35 1.43zM373.54 196.6a2.64 2.64 0 0 1-2.78-2.82v-5.58h-1.16v-1.56h1.16v-3.08h2.04v3.08h1.96v1.56h-1.96v5.5a1.03 1.03 0 0 0 1.12 1.17h.84v1.74zM382.9 196.6v-1a3.63 3.63 0 0 1-2.7 1.13 3.52 3.52 0 0 1-2.5-.92 3.72 3.72 0 0 1-1.02-2.86v-6.48h2.04v6.18a1.97 1.97 0 0 0 2.04 2.27 2.02 2.02 0 0 0 2.1-2.26v-6.18h2.04v10.15zM393.1 196.6v-.9a3.33 3.33 0 0 1-2.7 1.03 3.58 3.58 0 0 1-2.7-.92 3.1 3.1 0 0 1-.8-2.18c0-1.7 1.17-2.92 3.5-2.92h2.67v-.72c0-1.28-.64-1.9-2.22-1.9a2.38 2.38 0 0 0-2.22.98l-1.34-1.26a4.16 4.16 0 0 1 3.63-1.46c2.78 0 4.18 1.18 4.18 3.48v6.8zm-.03-4.48h-2.38c-1.2 0-1.83.54-1.83 1.46 0 .92.58 1.44 1.86 1.44a2.42 2.42 0 0 0 1.9-.58 2.04 2.04 0 0 0 .44-1.5zM400.42 196.6a2.58 2.58 0 0 1-2.78-2.8v-11.44h2.04v11.33c0 .76.28 1.17 1.1 1.17h.9v1.74z"/>
    <path class="cls-5" d="M484.86 87.86h207.2v207.2h-207.2z"/>
    <path class="cls-3" d="M507.27 120.8h4.44a6.58 6.58 0 0 1 2.15.3 4.13 4.13 0 0 1 1.7 1.14 4.43 4.43 0 0 1 1.03 1.9 11.88 11.88 0 0 1 .3 2.95 14.75 14.75 0 0 1-.17 2.32 4.93 4.93 0 0 1-.67 1.8 4.32 4.32 0 0 1-1.62 1.6 5.47 5.47 0 0 1-2.66.56h-1.5v8.06h-2.97zm2.96 9.8h1.42a3.02 3.02 0 0 0 1.4-.26 1.66 1.66 0 0 0 .72-.7 2.78 2.78 0 0 0 .27-1.1q.05-.64.05-1.42c0-.5-.03-.95-.06-1.38a3.22 3.22 0 0 0-.26-1.13 1.66 1.66 0 0 0-.68-.75 2.64 2.64 0 0 0-1.33-.27h-1.54zM521.2 120.8h2.46l4.6 20.64h-2.95l-.86-4.43h-4.03l-.86 4.44h-2.96zm1.24 5.94h-.06l-1.45 7.48h2.96zM539.1 126.74h-2.96v-.67a3.16 3.16 0 0 0-.48-1.75 1.77 1.77 0 0 0-1.6-.74 1.95 1.95 0 0 0-1 .23 1.7 1.7 0 0 0-.62.6 2.42 2.42 0 0 0-.3.85 5.52 5.52 0 0 0-.1 1 10.12 10.12 0 0 0 .06 1.03 1.78 1.78 0 0 0 .2.72 1.65 1.65 0 0 0 .52.54 4.55 4.55 0 0 0 .9.46l2.28.9a5.64 5.64 0 0 1 1.6.9 3.6 3.6 0 0 1 .93 1.17 5.1 5.1 0 0 1 .45 1.57 15.87 15.87 0 0 1 .12 2.02 10.63 10.63 0 0 1-.26 2.42 5.12 5.12 0 0 1-.86 1.9 4.1 4.1 0 0 1-1.58 1.27 5.63 5.63 0 0 1-2.4.47 5.26 5.26 0 0 1-2-.38 4.76 4.76 0 0 1-2.66-2.58 4.8 4.8 0 0 1-.4-1.94v-1.1h2.97v.92a2.42 2.42 0 0 0 .5 1.47 1.86 1.86 0 0 0 1.6.66 2.58 2.58 0 0 0 1.17-.22 1.5 1.5 0 0 0 .64-.6 2.52 2.52 0 0 0 .28-.98 12.76 12.76 0 0 0 .06-1.28 12.4 12.4 0 0 0-.06-1.33 2.13 2.13 0 0 0-.24-.84 1.52 1.52 0 0 0-.52-.5 6.93 6.93 0 0 0-.9-.45l-2.1-.87a4.7 4.7 0 0 1-2.57-2.07 7.12 7.12 0 0 1-.66-3.22 7.5 7.5 0 0 1 .3-2.2 5.14 5.14 0 0 1 .96-1.8 4.47 4.47 0 0 1 1.58-1.2 5.2 5.2 0 0 1 2.23-.46 4.9 4.9 0 0 1 2 .4 5.02 5.02 0 0 1 1.58 1.08 4.76 4.76 0 0 1 1 1.5 4.32 4.32 0 0 1 .35 1.7zM540.76 125.67a5.26 5.26 0 0 1 .44-2.2 4.58 4.58 0 0 1 1.14-1.6 4.96 4.96 0 0 1 1.6-.93 5.14 5.14 0 0 1 3.56 0 4.96 4.96 0 0 1 1.6.94 4.6 4.6 0 0 1 1.14 1.58 5.26 5.26 0 0 1 .44 2.2v10.9a5.24 5.24 0 0 1-.44 2.23 4.63 4.63 0 0 1-1.14 1.55 4.95 4.95 0 0 1-1.6.95 5.15 5.15 0 0 1-3.56 0 4.95 4.95 0 0 1-1.6-.95 4.6 4.6 0 0 1-1.14-1.56 5.24 5.24 0 0 1-.44-2.23zm2.96 10.9a1.97 1.97 0 0 0 .6 1.58 2.2 2.2 0 0 0 2.8 0 1.97 1.97 0 0 0 .6-1.58v-10.9a1.97 1.97 0 0 0-.6-1.58 2.2 2.2 0 0 0-2.8 0 1.97 1.97 0 0 0-.6 1.57zM560.9 129.5a3.74 3.74 0 0 0 1.86-.32q.5-.32.5-1.48v-2.67a1.44 1.44 0 0 0-.4-1.05 1.4 1.4 0 0 0-1.05-.4 1.25 1.25 0 0 0-1.1.5 1.7 1.7 0 0 0-.34.95v1.68h-2.96V125a4.3 4.3 0 0 1 .35-1.7 4.16 4.16 0 0 1 .96-1.4 4.75 4.75 0 0 1 1.43-.93 4.36 4.36 0 0 1 1.74-.35 3.88 3.88 0 0 1 2.02.48 4.68 4.68 0 0 1 1.2.97 5.8 5.8 0 0 1 .5.7 3.37 3.37 0 0 1 .35.85 7.67 7.67 0 0 1 .2 1.16 16.56 16.56 0 0 1 .07 1.67c0 .72 0 1.3-.04 1.74a3.5 3.5 0 0 1-.23 1.1 2.1 2.1 0 0 1-.55.77 6.7 6.7 0 0 1-1 .7 5.56 5.56 0 0 1 1.05.8 2.36 2.36 0 0 1 .54.9 4.36 4.36 0 0 1 .2 1.22q.02.7.02 1.8c0 .68 0 1.24-.04 1.68a9.5 9.5 0 0 1-.13 1.12 3.54 3.54 0 0 1-.24.76 4.93 4.93 0 0 1-.36.67 4.63 4.63 0 0 1-1.42 1.35 4.2 4.2 0 0 1-2.24.54 5.22 5.22 0 0 1-1.47-.23 4.06 4.06 0 0 1-1.42-.77 4.1 4.1 0 0 1-1.06-1.36 4.6 4.6 0 0 1-.42-2.06v-1.67h2.96v1.53a1.68 1.68 0 0 0 .4 1.15 1.47 1.47 0 0 0 2.1 0 1.76 1.76 0 0 0 .4-1.2v-2.95a3.87 3.87 0 0 0-.1-1 1.13 1.13 0 0 0-.36-.58 1.46 1.46 0 0 0-.7-.3 7.73 7.73 0 0 0-1.2-.06zM518.04 171.27a5.08 5.08 0 0 1-3.68 1.34h-5v-14.24h5a5.1 5.1 0 0 1 3.68 1.34c1.54 1.54 1.44 3.62 1.44 5.68 0 2.06.1 4.35-1.44 5.9zm-1.48-10a3.08 3.08 0 0 0-2.42-.97h-2.62v10.36h2.62a3.08 3.08 0 0 0 2.42-.96c.74-.82.76-2.36.76-4.32s-.02-3.3-.76-4.12zM523.47 168.12c0 1.74.92 2.85 2.58 2.85a3.03 3.03 0 0 0 2.46-1.05l1.3 1.23a4.76 4.76 0 0 1-3.8 1.58c-2.53 0-4.55-1.34-4.55-5.2 0-3.3 1.7-5.2 4.3-5.2 2.72 0 4.3 2 4.3 4.9v.9zm4.28-2.8a2.1 2.1 0 0 0-2-1.28 2.12 2.12 0 0 0-2.02 1.28 3.2 3.2 0 0 0-.26 1.38h4.56a3.2 3.2 0 0 0-.28-1.38zM534.55 164.2v8.4h-2.04v-8.4h-1.15v-1.56h1.16v-1.56a2.64 2.64 0 0 1 2.8-2.82h1.27V160h-.9a1.03 1.03 0 0 0-1.12 1.18v1.46h2.02v1.56zM538.3 160.46v-2.16h2.16v2.16zm.06 12.15v-10.14h2.04v10.15zM549.23 172.6v-6.18a1.97 1.97 0 0 0-2.04-2.26 2.02 2.02 0 0 0-2.1 2.26v6.2h-2.05v-10.16h2v1.02a3.63 3.63 0 0 1 2.7-1.14 3.52 3.52 0 0 1 2.5.92 3.72 3.72 0 0 1 1.02 2.86v6.5zM553.78 160.46v-2.16h2.16v2.16zm.06 12.15v-10.14h2.04v10.15zM564.1 164.84a1.88 1.88 0 0 0-1.5-.68 2.1 2.1 0 0 0-2.03 2.28v6.17h-2.04v-10.14h2v1.1a3.37 3.37 0 0 1 2.7-1.22 3.14 3.14 0 0 1 2.42.96zM572.8 168.12c0 1.74.93 2.85 2.6 2.85a3.03 3.03 0 0 0 2.45-1.05l1.3 1.23a4.76 4.76 0 0 1-3.8 1.58c-2.54 0-4.56-1.34-4.56-5.2 0-3.3 1.7-5.2 4.3-5.2 2.7 0 4.3 2 4.3 4.9v.9zm4.3-2.8a2.1 2.1 0 0 0-2-1.28 2.12 2.12 0 0 0-2.03 1.28 3.2 3.2 0 0 0-.26 1.38h4.57a3.2 3.2 0 0 0-.28-1.38zM584.24 172.6a2.58 2.58 0 0 1-2.78-2.8v-11.44h2.04v11.33c0 .76.28 1.17 1.1 1.17h.9v1.74zM597.2 172.6v-.9a3.33 3.33 0 0 1-2.7 1.03 3.58 3.58 0 0 1-2.72-.92 3.1 3.1 0 0 1-.8-2.18c0-1.7 1.18-2.92 3.5-2.92h2.68v-.72c0-1.28-.64-1.9-2.22-1.9a2.38 2.38 0 0 0-2.22.98l-1.34-1.26a4.16 4.16 0 0 1 3.64-1.46c2.78 0 4.18 1.18 4.18 3.48v6.8zm-.04-4.48h-2.38c-1.2 0-1.82.54-1.82 1.46 0 .92.58 1.44 1.86 1.44a2.42 2.42 0 0 0 1.9-.58 2.04 2.04 0 0 0 .44-1.5zM604.5 172.6a2.58 2.58 0 0 1-2.77-2.8v-11.44h2.04v11.33c0 .76.28 1.17 1.1 1.17h.9v1.74zM611.46 172.73c-2.28 0-4.52-1.4-4.52-5.2s2.24-5.2 4.52-5.2a4.16 4.16 0 0 1 3.34 1.43l-1.4 1.36a2.36 2.36 0 0 0-1.94-.96 2.3 2.3 0 0 0-1.88.9 3.75 3.75 0 0 0-.6 2.46 3.8 3.8 0 0 0 .6 2.48 2.3 2.3 0 0 0 1.88.9 2.36 2.36 0 0 0 1.94-.96l1.4 1.35a4.18 4.18 0 0 1-3.34 1.43zM622.36 172.6v-.9a3.33 3.33 0 0 1-2.7 1.03 3.58 3.58 0 0 1-2.72-.92 3.1 3.1 0 0 1-.8-2.18c0-1.7 1.18-2.92 3.5-2.92h2.68v-.72c0-1.28-.64-1.9-2.22-1.9a2.38 2.38 0 0 0-2.22.98l-1.34-1.26a4.16 4.16 0 0 1 3.64-1.46c2.78 0 4.18 1.18 4.18 3.48v6.8zm-.04-4.48h-2.38c-1.2 0-1.82.54-1.82 1.46 0 .92.58 1.44 1.86 1.44a2.42 2.42 0 0 0 1.9-.58 2.04 2.04 0 0 0 .44-1.5zM633.14 172.6v-6.18a1.97 1.97 0 0 0-2.04-2.26 2.02 2.02 0 0 0-2.1 2.26v6.2h-2.04v-10.16h2v1.02a3.63 3.63 0 0 1 2.7-1.14 3.52 3.52 0 0 1 2.5.92 3.73 3.73 0 0 1 1.02 2.86v6.5zM641.8 172.73c-2.3 0-4.53-1.4-4.53-5.2s2.24-5.2 4.52-5.2a4.16 4.16 0 0 1 3.33 1.43l-1.4 1.36a2.36 2.36 0 0 0-1.94-.96 2.3 2.3 0 0 0-1.9.9 3.75 3.75 0 0 0-.6 2.46 3.8 3.8 0 0 0 .6 2.48 2.3 2.3 0 0 0 1.9.9 2.36 2.36 0 0 0 1.93-.96l1.4 1.35a4.18 4.18 0 0 1-3.34 1.43zM648.34 168.12c0 1.74.92 2.85 2.58 2.85a3.03 3.03 0 0 0 2.46-1.05l1.3 1.23a4.76 4.76 0 0 1-3.8 1.58c-2.54 0-4.56-1.34-4.56-5.2 0-3.3 1.7-5.2 4.3-5.2 2.72 0 4.3 2 4.3 4.9v.9zm4.28-2.8a2.1 2.1 0 0 0-2-1.28 2.12 2.12 0 0 0-2.02 1.28 3.2 3.2 0 0 0-.26 1.38h4.56a3.2 3.2 0 0 0-.28-1.38zM514.94 196.6v-1.07a3.12 3.12 0 0 1-2.68 1.2 3.5 3.5 0 0 1-2.48-.9c-1.02-1.02-1.14-2.77-1.14-4.3s.12-3.27 1.14-4.3a3.46 3.46 0 0 1 2.46-.9 3.14 3.14 0 0 1 2.66 1.15v-5.12h2.04v14.25zm-2.14-8.44c-1.84 0-2.12 1.56-2.12 3.36s.28 3.4 2.12 3.4 2.1-1.6 2.1-3.4-.26-3.36-2.1-3.36zM521.16 192.12c0 1.74.92 2.85 2.58 2.85a3.03 3.03 0 0 0 2.46-1.05l1.3 1.23a4.76 4.76 0 0 1-3.8 1.58c-2.54 0-4.56-1.34-4.56-5.2 0-3.3 1.7-5.2 4.3-5.2 2.72 0 4.3 2 4.3 4.9v.9zm4.28-2.8a2.1 2.1 0 0 0-2-1.28 2.12 2.12 0 0 0-2.02 1.28 3.2 3.2 0 0 0-.26 1.38h4.56a3.2 3.2 0 0 0-.28-1.38zM537.16 196.6a2.58 2.58 0 0 1-2.78-2.8v-11.44h2.04v11.33c0 .76.28 1.17 1.1 1.17h.9v1.74zM545.98 196.6v-.9a3.33 3.33 0 0 1-2.7 1.03 3.58 3.58 0 0 1-2.72-.92 3.1 3.1 0 0 1-.8-2.18c0-1.7 1.18-2.92 3.5-2.92h2.68v-.72c0-1.28-.64-1.9-2.22-1.9a2.38 2.38 0 0 0-2.22.98l-1.34-1.26a4.16 4.16 0 0 1 3.64-1.46c2.78 0 4.18 1.18 4.18 3.48v6.8zm-.04-4.48h-2.38c-1.2 0-1.82.54-1.82 1.46 0 .92.58 1.44 1.86 1.44a2.42 2.42 0 0 0 1.9-.58 2.04 2.04 0 0 0 .44-1.5zM554 196.73a5.58 5.58 0 0 1-4.27-1.46l1.34-1.35A3.94 3.94 0 0 0 554 195c1.24 0 2.22-.46 2.22-1.42 0-.68-.38-1.12-1.36-1.2l-1.63-.14c-1.9-.16-3-1.02-3-2.8 0-1.98 1.7-3.1 3.83-3.1a5.56 5.56 0 0 1 3.76 1.14l-1.28 1.3a3.83 3.83 0 0 0-2.5-.74c-1.22 0-1.85.54-1.85 1.3 0 .6.32 1.06 1.4 1.16l1.6.14c1.9.16 3.02 1.06 3.02 2.86 0 2.13-1.8 3.23-4.22 3.23zM514.7 212.84a1.88 1.88 0 0 0-1.52-.68 2.1 2.1 0 0 0-2.02 2.28v6.17h-2.05v-10.14h2.02v1.1a3.37 3.37 0 0 1 2.7-1.22 3.14 3.14 0 0 1 2.42.96zM518.9 216.12c0 1.74.92 2.85 2.58 2.85a3.03 3.03 0 0 0 2.46-1.05l1.3 1.23a4.76 4.76 0 0 1-3.8 1.58c-2.54 0-4.56-1.34-4.56-5.2 0-3.3 1.7-5.2 4.3-5.2 2.72 0 4.3 2 4.3 4.9v.9zm4.28-2.8a2.1 2.1 0 0 0-2-1.28 2.12 2.12 0 0 0-2.02 1.28 3.2 3.2 0 0 0-.26 1.38h4.56a3.2 3.2 0 0 0-.28-1.38zM531.77 220.73c-2.28 0-4.52-1.4-4.52-5.2s2.24-5.2 4.52-5.2a4.16 4.16 0 0 1 3.34 1.43l-1.4 1.36a2.36 2.36 0 0 0-1.93-.96 2.3 2.3 0 0 0-1.88.9 3.75 3.75 0 0 0-.6 2.46 3.8 3.8 0 0 0 .6 2.48 2.3 2.3 0 0 0 1.87.9 2.36 2.36 0 0 0 1.94-.96l1.4 1.35a4.18 4.18 0 0 1-3.33 1.43zM539.72 220.6a2.58 2.58 0 0 1-2.78-2.8v-11.44h2.04v11.33c0 .76.28 1.17 1.1 1.17h.9v1.74zM548.53 220.6v-.9a3.33 3.33 0 0 1-2.7 1.03 3.58 3.58 0 0 1-2.72-.92 3.1 3.1 0 0 1-.8-2.18c0-1.7 1.2-2.92 3.5-2.92h2.7v-.72c0-1.28-.65-1.9-2.23-1.9a2.38 2.38 0 0 0-2.22.98l-1.34-1.26a4.16 4.16 0 0 1 3.65-1.46c2.78 0 4.18 1.18 4.18 3.48v6.8zm-.04-4.48h-2.4c-1.2 0-1.8.54-1.8 1.46 0 .92.57 1.44 1.85 1.44a2.42 2.42 0 0 0 1.9-.58 2.04 2.04 0 0 0 .44-1.5zM565.5 220.6v-6.18a1.97 1.97 0 0 0-2.05-2.26 2 2 0 0 0-2.1 2.16v6.3h-2.04v-6.2a1.97 1.97 0 0 0-2.03-2.26 2.02 2.02 0 0 0-2.1 2.26v6.2h-2.04v-10.16h2v1.02a3.67 3.67 0 0 1 2.7-1.14 3.24 3.24 0 0 1 2.88 1.48 3.85 3.85 0 0 1 3.2-1.48 3.67 3.67 0 0 1 2.55.92 3.77 3.77 0 0 1 1.08 2.86v6.5zM575.64 220.6v-.9a3.33 3.33 0 0 1-2.7 1.03 3.58 3.58 0 0 1-2.72-.92 3.1 3.1 0 0 1-.8-2.18c0-1.7 1.18-2.92 3.5-2.92h2.68v-.72c0-1.28-.64-1.9-2.22-1.9a2.38 2.38 0 0 0-2.22.98l-1.34-1.26a4.16 4.16 0 0 1 3.64-1.46c2.78 0 4.18 1.18 4.18 3.48v6.8zm-.04-4.48h-2.38c-1.2 0-1.82.54-1.82 1.46 0 .92.58 1.44 1.86 1.44a2.42 2.42 0 0 0 1.9-.58 2.04 2.04 0 0 0 .44-1.5zM584.25 220.73c-2.28 0-4.52-1.4-4.52-5.2s2.24-5.2 4.52-5.2a4.16 4.16 0 0 1 3.34 1.43l-1.4 1.36a2.36 2.36 0 0 0-1.95-.96 2.3 2.3 0 0 0-1.88.9 3.75 3.75 0 0 0-.6 2.46 3.8 3.8 0 0 0 .6 2.48 2.3 2.3 0 0 0 1.88.9 2.36 2.36 0 0 0 1.94-.96l1.4 1.35a4.18 4.18 0 0 1-3.35 1.43zM589.4 208.46v-2.16h2.15v2.16zm.05 12.15v-10.14h2.04v10.15zM600.96 219.53a4.1 4.1 0 0 1-3.04 1.2 4.06 4.06 0 0 1-3.02-1.2c-.96-1-1.2-2.3-1.2-4a5.32 5.32 0 0 1 1.2-4 4.06 4.06 0 0 1 3.02-1.2 4.1 4.1 0 0 1 3.04 1.2 5.32 5.32 0 0 1 1.2 4c0 1.7-.24 3-1.2 4zm-1.54-6.8a2.07 2.07 0 0 0-1.5-.57 2.02 2.02 0 0 0-1.48.58 5.87 5.87 0 0 0 0 5.57 2.04 2.04 0 0 0 1.48.6 2.08 2.08 0 0 0 1.5-.6 5.87 5.87 0 0 0 0-5.56zM610.6 220.6v-6.18a1.97 1.97 0 0 0-2.05-2.26 2.02 2.02 0 0 0-2.1 2.26v6.2h-2.04v-10.16h2v1.02a3.63 3.63 0 0 1 2.7-1.14 3.52 3.52 0 0 1 2.5.92 3.73 3.73 0 0 1 1.03 2.86v6.5zM616.74 216.12c0 1.74.92 2.85 2.58 2.85a3.03 3.03 0 0 0 2.46-1.05l1.3 1.23a4.76 4.76 0 0 1-3.8 1.58c-2.54 0-4.56-1.34-4.56-5.2 0-3.3 1.7-5.2 4.3-5.2 2.72 0 4.3 2 4.3 4.9v.9zm4.28-2.8a2.1 2.1 0 0 0-2-1.28 2.12 2.12 0 0 0-2.02 1.28 3.2 3.2 0 0 0-.26 1.38h4.56a3.2 3.2 0 0 0-.28-1.38zM629 220.73a5.58 5.58 0 0 1-4.26-1.46l1.34-1.35A3.94 3.94 0 0 0 629 219c1.24 0 2.22-.46 2.22-1.42 0-.68-.38-1.12-1.36-1.2l-1.62-.14c-1.9-.16-3-1.02-3-2.8 0-1.98 1.7-3.1 3.82-3.1a5.56 5.56 0 0 1 3.76 1.14l-1.28 1.3a3.83 3.83 0 0 0-2.5-.74c-1.22 0-1.84.54-1.84 1.3 0 .6.32 1.06 1.4 1.16l1.6.14c1.9.16 3.02 1.06 3.02 2.86 0 2.13-1.8 3.23-4.22 3.23z"/>
    <path class="cls-6" d="M714.8 87.86H922v207.2H714.8z"/>
    <path class="cls-3" d="M737.23 120.8h4.44a6.6 6.6 0 0 1 2.14.3 4.12 4.12 0 0 1 1.7 1.14 4.44 4.44 0 0 1 1.04 1.9 11.93 11.93 0 0 1 .3 2.95 14.64 14.64 0 0 1-.17 2.32 4.92 4.92 0 0 1-.68 1.8 4.32 4.32 0 0 1-1.64 1.6 5.47 5.47 0 0 1-2.67.56h-1.5v8.06h-2.97zm2.96 9.8h1.4a3 3 0 0 0 1.4-.26 1.66 1.66 0 0 0 .72-.7 2.75 2.75 0 0 0 .28-1.1q.04-.64.04-1.42c0-.5 0-.95-.04-1.38a3.22 3.22 0 0 0-.26-1.13 1.66 1.66 0 0 0-.68-.75 2.64 2.64 0 0 0-1.34-.27h-1.53zM751.15 120.8h2.46l4.62 20.64h-2.95l-.87-4.43h-4.04l-.87 4.44h-2.96zm1.25 5.94h-.06l-1.45 7.48h2.95zM769.06 126.74h-2.96v-.67a3.15 3.15 0 0 0-.48-1.75 1.77 1.77 0 0 0-1.6-.74 1.95 1.95 0 0 0-1 .23 1.7 1.7 0 0 0-.62.6 2.46 2.46 0 0 0-.3.85 5.6 5.6 0 0 0-.1 1 10.16 10.16 0 0 0 .05 1.03 1.8 1.8 0 0 0 .22.72 1.66 1.66 0 0 0 .5.54 4.58 4.58 0 0 0 .92.46l2.25.9a5.65 5.65 0 0 1 1.6.9 3.6 3.6 0 0 1 .94 1.17 5.05 5.05 0 0 1 .44 1.57 15.68 15.68 0 0 1 .12 2.02 10.63 10.63 0 0 1-.27 2.42 5.1 5.1 0 0 1-.86 1.9 4.1 4.1 0 0 1-1.58 1.27 5.64 5.64 0 0 1-2.4.47 5.27 5.27 0 0 1-2-.38 4.76 4.76 0 0 1-2.66-2.58 4.8 4.8 0 0 1-.4-1.94v-1.1h2.96v.92a2.42 2.42 0 0 0 .48 1.47 1.87 1.87 0 0 0 1.6.66 2.6 2.6 0 0 0 1.2-.22 1.5 1.5 0 0 0 .62-.6 2.52 2.52 0 0 0 .28-.98q.06-.58.06-1.28a12.68 12.68 0 0 0-.06-1.33 2.12 2.12 0 0 0-.25-.84 1.5 1.5 0 0 0-.53-.5 6.93 6.93 0 0 0-.88-.45l-2.13-.87a4.7 4.7 0 0 1-2.57-2.07 7.14 7.14 0 0 1-.65-3.22 7.5 7.5 0 0 1 .32-2.2 5.12 5.12 0 0 1 .94-1.8 4.5 4.5 0 0 1 1.6-1.2 5.2 5.2 0 0 1 2.23-.46 4.9 4.9 0 0 1 2 .4 5 5 0 0 1 1.58 1.08 4.77 4.77 0 0 1 1 1.5 4.34 4.34 0 0 1 .36 1.7zM770.72 125.67a5.28 5.28 0 0 1 .43-2.2 4.6 4.6 0 0 1 1.15-1.6 4.95 4.95 0 0 1 1.6-.93 5.14 5.14 0 0 1 3.56 0 4.97 4.97 0 0 1 1.6.94 4.6 4.6 0 0 1 1.14 1.58 5.28 5.28 0 0 1 .43 2.2v10.9a5.25 5.25 0 0 1-.43 2.23 4.63 4.63 0 0 1-1.15 1.55 4.96 4.96 0 0 1-1.6.95 5.16 5.16 0 0 1-3.56 0 4.93 4.93 0 0 1-1.6-.95 4.62 4.62 0 0 1-1.15-1.56 5.25 5.25 0 0 1-.43-2.23zm2.95 10.9a1.97 1.97 0 0 0 .6 1.58 2.2 2.2 0 0 0 2.8 0 1.97 1.97 0 0 0 .6-1.58v-10.9a1.97 1.97 0 0 0-.6-1.58 2.2 2.2 0 0 0-2.8 0 1.97 1.97 0 0 0-.6 1.57zM792.52 138.37h-5.88v-2.8l4.26-14.78h3.13l-4.44 14.78h2.92v-5.88h2.96v5.88h1.42v2.8h-1.42v3.06h-2.96zM748 171.27a5.08 5.08 0 0 1-3.7 1.34h-5v-14.24h5a5.1 5.1 0 0 1 3.7 1.34c1.53 1.54 1.43 3.62 1.43 5.68 0 2.06.1 4.35-1.44 5.9zm-1.5-10a3.08 3.08 0 0 0-2.4-.97h-2.63v10.36h2.62a3.08 3.08 0 0 0 2.4-.96c.75-.82.77-2.36.77-4.32s-.02-3.3-.76-4.12zM753.43 168.12c0 1.74.92 2.85 2.58 2.85a3.03 3.03 0 0 0 2.47-1.05l1.3 1.23a4.76 4.76 0 0 1-3.8 1.58c-2.54 0-4.56-1.34-4.56-5.2 0-3.3 1.7-5.2 4.3-5.2 2.73 0 4.3 2 4.3 4.9v.9zm4.28-2.8a2.1 2.1 0 0 0-2-1.28 2.12 2.12 0 0 0-2 1.28 3.2 3.2 0 0 0-.27 1.38H758a3.2 3.2 0 0 0-.3-1.38zM765.2 172.6a2.64 2.64 0 0 1-2.77-2.82v-5.58h-1.16v-1.56h1.16v-3.08h2.04v3.08h1.96v1.56h-1.96v5.5a1.03 1.03 0 0 0 1.12 1.17h.83v1.74zM769.84 168.12c0 1.74.92 2.85 2.58 2.85a3.03 3.03 0 0 0 2.46-1.05l1.3 1.23a4.76 4.76 0 0 1-3.8 1.58c-2.54 0-4.56-1.34-4.56-5.2 0-3.3 1.7-5.2 4.3-5.2 2.72 0 4.3 2 4.3 4.9v.9zm4.28-2.8a2.1 2.1 0 0 0-2-1.28 2.12 2.12 0 0 0-2.02 1.28 3.2 3.2 0 0 0-.26 1.38h4.56a3.2 3.2 0 0 0-.28-1.38zM784.16 164.84a1.88 1.88 0 0 0-1.52-.68 2.1 2.1 0 0 0-2.02 2.28v6.17h-2.04v-10.14h2v1.1a3.37 3.37 0 0 1 2.7-1.22 3.14 3.14 0 0 1 2.42.96zM799.58 172.6v-6.18a1.97 1.97 0 0 0-2.04-2.26 2 2 0 0 0-2.1 2.16v6.3h-2.04v-6.2a1.97 1.97 0 0 0-2.04-2.26 2.02 2.02 0 0 0-2.1 2.26v6.2h-2.04v-10.16h2v1.02a3.67 3.67 0 0 1 2.7-1.14 3.24 3.24 0 0 1 2.88 1.48 3.85 3.85 0 0 1 3.18-1.48 3.67 3.67 0 0 1 2.56.92 3.77 3.77 0 0 1 1.08 2.86v6.5zM804.15 160.46v-2.16h2.16v2.16zm.06 12.15v-10.14h2.05v10.15zM815.08 172.6v-6.18a1.97 1.97 0 0 0-2.04-2.26 2.02 2.02 0 0 0-2.1 2.26v6.2h-2.04v-10.16h2v1.02a3.63 3.63 0 0 1 2.7-1.14 3.52 3.52 0 0 1 2.5.92 3.73 3.73 0 0 1 1.02 2.86v6.5zM825.2 172.6v-.9a3.33 3.33 0 0 1-2.7 1.03 3.58 3.58 0 0 1-2.7-.92 3.1 3.1 0 0 1-.8-2.18c0-1.7 1.17-2.92 3.5-2.92h2.67v-.72c0-1.28-.64-1.9-2.22-1.9a2.38 2.38 0 0 0-2.22.98l-1.34-1.26a4.16 4.16 0 0 1 3.63-1.46c2.78 0 4.18 1.18 4.18 3.48v6.8zm-.03-4.48h-2.38c-1.2 0-1.83.54-1.83 1.46 0 .92.58 1.44 1.86 1.44a2.42 2.42 0 0 0 1.9-.58 2.04 2.04 0 0 0 .44-1.5zM835.38 164.84a1.88 1.88 0 0 0-1.52-.68 2.1 2.1 0 0 0-2.02 2.28v6.17h-2.04v-10.14h2v1.1a3.37 3.37 0 0 1 2.7-1.22 3.14 3.14 0 0 1 2.42.96zM844.08 168.12c0 1.74.92 2.85 2.58 2.85a3.03 3.03 0 0 0 2.46-1.05l1.3 1.23a4.76 4.76 0 0 1-3.8 1.58c-2.54 0-4.56-1.34-4.56-5.2 0-3.3 1.7-5.2 4.3-5.2 2.72 0 4.3 2 4.3 4.9v.9zm4.28-2.8a2.1 2.1 0 0 0-2-1.28 2.12 2.12 0 0 0-2.02 1.28 3.2 3.2 0 0 0-.26 1.38h4.56a3.2 3.2 0 0 0-.28-1.38zM855.5 172.6a2.58 2.58 0 0 1-2.77-2.8v-11.44h2.04v11.33c0 .76.28 1.17 1.1 1.17h.9v1.74zM746.23 195.83a3.46 3.46 0 0 1-2.46.9 3.16 3.16 0 0 1-2.66-1.16v5.14h-2.03v-14.24h2v1.08a3.12 3.12 0 0 1 2.68-1.2 3.5 3.5 0 0 1 2.48.9c1.02 1.02 1.14 2.74 1.14 4.28s-.12 3.3-1.14 4.3zm-3-7.67c-1.84 0-2.12 1.56-2.12 3.36s.3 3.4 2.13 3.4 2.1-1.6 2.1-3.4-.26-3.36-2.1-3.36zM755.25 188.84a1.88 1.88 0 0 0-1.52-.68 2.1 2.1 0 0 0-2.02 2.28v6.17h-2.03v-10.14h2v1.1a3.37 3.37 0 0 1 2.7-1.22 3.14 3.14 0 0 1 2.43.96zM764.78 195.53a4.1 4.1 0 0 1-3.04 1.2 4.06 4.06 0 0 1-3.02-1.2c-.96-1-1.2-2.3-1.2-4a5.32 5.32 0 0 1 1.2-4 4.06 4.06 0 0 1 3.02-1.2 4.1 4.1 0 0 1 3.04 1.2 5.32 5.32 0 0 1 1.2 4c0 1.7-.24 3-1.2 4zm-1.54-6.8a2.07 2.07 0 0 0-1.5-.57 2.02 2.02 0 0 0-1.48.58 5.87 5.87 0 0 0 0 5.57 2.04 2.04 0 0 0 1.48.6 2.08 2.08 0 0 0 1.5-.6 5.87 5.87 0 0 0 0-5.56zM775.4 195.83a3.46 3.46 0 0 1-2.47.9 3.16 3.16 0 0 1-2.66-1.16v5.14h-2.04v-14.24h2v1.08a3.12 3.12 0 0 1 2.68-1.2 3.5 3.5 0 0 1 2.5.9c1 1.02 1.13 2.74 1.13 4.28s-.12 3.3-1.14 4.3zm-3-7.67c-1.85 0-2.13 1.56-2.13 3.36s.28 3.4 2.12 3.4 2.1-1.6 2.1-3.4-.27-3.36-2.1-3.36zM785.65 195.53a4.1 4.1 0 0 1-3.04 1.2 4.06 4.06 0 0 1-3-1.2c-.97-1-1.2-2.3-1.2-4a5.32 5.32 0 0 1 1.2-4 4.06 4.06 0 0 1 3-1.2 4.1 4.1 0 0 1 3.05 1.2 5.32 5.32 0 0 1 1.2 4c0 1.7-.24 3-1.2 4zm-1.54-6.8a2.07 2.07 0 0 0-1.5-.57 2.02 2.02 0 0 0-1.47.58 5.87 5.87 0 0 0 0 5.57 2.04 2.04 0 0 0 1.48.6 2.08 2.08 0 0 0 1.5-.6 5.87 5.87 0 0 0 0-5.56zm-1-4.1h-1.53l1.5-3.25h2.26zM792.4 196.73a5.58 5.58 0 0 1-4.27-1.46l1.34-1.35a3.94 3.94 0 0 0 2.92 1.07c1.23 0 2.2-.46 2.2-1.42 0-.68-.37-1.12-1.35-1.2l-1.62-.14c-1.9-.16-3-1.02-3-2.8 0-1.98 1.7-3.1 3.82-3.1a5.56 5.56 0 0 1 3.76 1.14l-1.27 1.3a3.83 3.83 0 0 0-2.5-.74c-1.22 0-1.84.54-1.84 1.3 0 .6.3 1.06 1.4 1.16l1.6.14c1.9.16 3 1.06 3 2.86 0 2.13-1.8 3.23-4.2 3.23zM798.5 184.46v-2.16h2.15v2.16zm.05 12.15v-10.14h2.05v10.15zM806.36 196.6a2.64 2.64 0 0 1-2.8-2.82v-5.58h-1.15v-1.56h1.17v-3.08h2.04v3.08h1.98v1.56h-1.97v5.5a1.03 1.03 0 0 0 1.14 1.17h.84v1.74zM816.28 195.53a4.1 4.1 0 0 1-3.04 1.2 4.06 4.06 0 0 1-3.02-1.2c-.96-1-1.2-2.3-1.2-4a5.32 5.32 0 0 1 1.2-4 4.06 4.06 0 0 1 3.02-1.2 4.1 4.1 0 0 1 3.04 1.2 5.32 5.32 0 0 1 1.2 4c0 1.7-.24 3-1.2 4zm-1.54-6.8a2.07 2.07 0 0 0-1.5-.57 2.02 2.02 0 0 0-1.48.58 5.87 5.87 0 0 0 0 5.57 2.04 2.04 0 0 0 1.48.6 2.08 2.08 0 0 0 1.5-.6 5.87 5.87 0 0 0 0-5.56zM827.42 198.63a3.28 3.28 0 0 1-.74 1.26 2.8 2.8 0 0 1-2.08.73h-.82v-1.84h.52c.86 0 1.16-.27 1.46-1.1l.56-1.57-3.54-9.67h2.16l2.42 7.14 2.36-7.14h2.18zM840.32 196.6a2.58 2.58 0 0 1-2.78-2.8v-11.44h2.04v11.33c0 .76.28 1.17 1.1 1.17h.9v1.74zM850.1 195.53a4.1 4.1 0 0 1-3.04 1.2 4.06 4.06 0 0 1-3.02-1.2c-.96-1-1.2-2.3-1.2-4a5.32 5.32 0 0 1 1.2-4 4.06 4.06 0 0 1 3.02-1.2 4.1 4.1 0 0 1 3.04 1.2 5.32 5.32 0 0 1 1.2 4c0 1.7-.24 3-1.2 4zm-1.54-6.8a2.07 2.07 0 0 0-1.5-.57 2.02 2.02 0 0 0-1.48.58 5.87 5.87 0 0 0 0 5.57 2.04 2.04 0 0 0 1.48.6 2.08 2.08 0 0 0 1.5-.6 5.87 5.87 0 0 0 0-5.56zM856.84 196.73a5.58 5.58 0 0 1-4.26-1.46l1.34-1.35a3.94 3.94 0 0 0 2.92 1.07c1.24 0 2.22-.46 2.22-1.42 0-.68-.38-1.12-1.36-1.2l-1.62-.14c-1.9-.16-3-1.02-3-2.8 0-1.98 1.7-3.1 3.82-3.1a5.56 5.56 0 0 1 3.76 1.14l-1.28 1.3a3.83 3.83 0 0 0-2.5-.74c-1.22 0-1.84.54-1.84 1.3 0 .6.32 1.06 1.4 1.16l1.6.14c1.9.16 3.02 1.06 3.02 2.86 0 2.13-1.8 3.23-4.22 3.23zM745.85 219.53a4.1 4.1 0 0 1-3.04 1.2 4.06 4.06 0 0 1-3-1.2c-.97-1-1.2-2.3-1.2-4a5.32 5.32 0 0 1 1.2-4 4.06 4.06 0 0 1 3-1.2 4.1 4.1 0 0 1 3.05 1.2 5.32 5.32 0 0 1 1.2 4c0 1.7-.24 3-1.2 4zm-1.54-6.8a2.07 2.07 0 0 0-1.5-.57 2.02 2.02 0 0 0-1.47.58 5.87 5.87 0 0 0 0 5.57 2.04 2.04 0 0 0 1.48.6 2.08 2.08 0 0 0 1.5-.6 5.87 5.87 0 0 0 0-5.56zM756.47 219.83a3.5 3.5 0 0 1-2.48.9 3.12 3.12 0 0 1-2.7-1.2v1.08h-2v-14.24h2.05v5.12a3.14 3.14 0 0 1 2.66-1.14 3.46 3.46 0 0 1 2.47.9c1.02 1.02 1.14 2.74 1.14 4.28s-.1 3.3-1.13 4.3zm-3-7.67c-1.85 0-2.12 1.56-2.12 3.36s.27 3.4 2.12 3.4 2.1-1.6 2.1-3.4-.26-3.36-2.1-3.36zM759.07 224.75h-1.26V223h.9c.83 0 1.1-.4 1.1-1.17v-11.37h2.05v11.5a2.6 2.6 0 0 1-2.78 2.8zm.68-16.3v-2.15h2.16v2.16zM766.02 216.12c0 1.74.92 2.85 2.58 2.85a3.03 3.03 0 0 0 2.46-1.05l1.3 1.23a4.76 4.76 0 0 1-3.8 1.58c-2.54 0-4.56-1.34-4.56-5.2 0-3.3 1.7-5.2 4.3-5.2 2.72 0 4.3 2 4.3 4.9v.9zm4.28-2.8a2.1 2.1 0 0 0-2-1.28 2.12 2.12 0 0 0-2.02 1.28 3.2 3.2 0 0 0-.26 1.38h4.56a3.2 3.2 0 0 0-.28-1.38zM777.8 220.6a2.64 2.64 0 0 1-2.78-2.82v-5.58h-1.16v-1.56h1.16v-3.08h2.04v3.08h1.96v1.56h-1.96v5.5a1.03 1.03 0 0 0 1.12 1.17h.84v1.74zM780.93 208.46v-2.16h2.16v2.16zm.06 12.15v-10.14h2.03v10.15zM789.96 220.6h-1.66l-3.72-10.14h2.16l2.4 7.14 2.4-7.14h2.15zM801.7 219.53a4.1 4.1 0 0 1-3.03 1.2 4.06 4.06 0 0 1-3.02-1.2c-.96-1-1.2-2.3-1.2-4a5.32 5.32 0 0 1 1.2-4 4.06 4.06 0 0 1 3.02-1.2 4.1 4.1 0 0 1 3.04 1.2 5.32 5.32 0 0 1 1.2 4c0 1.7-.22 3-1.2 4zm-1.53-6.8a2.07 2.07 0 0 0-1.5-.57 2.02 2.02 0 0 0-1.48.58 5.87 5.87 0 0 0 0 5.57 2.04 2.04 0 0 0 1.47.6 2.08 2.08 0 0 0 1.5-.6 5.87 5.87 0 0 0 0-5.56zM808.45 220.73a5.58 5.58 0 0 1-4.26-1.46l1.33-1.35a3.94 3.94 0 0 0 2.92 1.07c1.24 0 2.22-.46 2.22-1.42 0-.68-.38-1.12-1.36-1.2l-1.6-.14c-1.9-.16-3-1.02-3-2.8 0-1.98 1.7-3.1 3.8-3.1a5.56 5.56 0 0 1 3.77 1.14l-1.28 1.3a3.83 3.83 0 0 0-2.5-.74c-1.23 0-1.85.54-1.85 1.3 0 .6.32 1.06 1.4 1.16l1.6.14c1.9.16 3.02 1.06 3.02 2.86 0 2.13-1.8 3.23-4.22 3.23zM824.97 220.6v-1.07a3.12 3.12 0 0 1-2.68 1.2 3.5 3.5 0 0 1-2.5-.9c-1-1.02-1.13-2.77-1.13-4.3s.12-3.27 1.14-4.3a3.46 3.46 0 0 1 2.47-.9 3.14 3.14 0 0 1 2.66 1.15v-5.12h2.04v14.25zm-2.14-8.44c-1.84 0-2.12 1.56-2.12 3.36s.3 3.4 2.13 3.4c1.84 0 2.1-1.6 2.1-3.4s-.26-3.36-2.1-3.36zM831.2 216.12c0 1.74.92 2.85 2.58 2.85a3.03 3.03 0 0 0 2.46-1.05l1.3 1.23a4.76 4.76 0 0 1-3.8 1.58c-2.54 0-4.56-1.34-4.56-5.2 0-3.3 1.7-5.2 4.3-5.2 2.72 0 4.3 2 4.3 4.9v.9zm4.28-2.8a2.1 2.1 0 0 0-2-1.28 2.12 2.12 0 0 0-2.02 1.28 3.2 3.2 0 0 0-.26 1.38h4.56a3.2 3.2 0 0 0-.28-1.38zM842.63 220.6a2.58 2.58 0 0 1-2.78-2.8v-11.44h2.04v11.33c0 .76.27 1.17 1.1 1.17h.9v1.74zM751.44 244.6v-6.18a1.97 1.97 0 0 0-2.05-2.26 2 2 0 0 0-2.1 2.16v6.3h-2.05v-6.2a1.97 1.97 0 0 0-2.04-2.26 2.02 2.02 0 0 0-2.1 2.26v6.2h-2.03v-10.16h2v1.02a3.67 3.67 0 0 1 2.7-1.14 3.24 3.24 0 0 1 2.88 1.48 3.85 3.85 0 0 1 3.18-1.48 3.67 3.67 0 0 1 2.57.92 3.77 3.77 0 0 1 1.08 2.86v6.5zM757.6 240.12c0 1.74.93 2.85 2.6 2.85a3.03 3.03 0 0 0 2.45-1.05l1.3 1.23a4.76 4.76 0 0 1-3.8 1.58c-2.54 0-4.56-1.34-4.56-5.2 0-3.3 1.7-5.2 4.3-5.2 2.7 0 4.3 2 4.3 4.9v.9zm4.3-2.8a2.1 2.1 0 0 0-2-1.28 2.12 2.12 0 0 0-2.03 1.28 3.2 3.2 0 0 0-.26 1.38h4.57a3.2 3.2 0 0 0-.28-1.38zM770.48 244.73c-2.28 0-4.52-1.4-4.52-5.2s2.24-5.2 4.52-5.2a4.16 4.16 0 0 1 3.34 1.43l-1.4 1.36a2.36 2.36 0 0 0-1.94-.96 2.3 2.3 0 0 0-1.88.9 3.75 3.75 0 0 0-.6 2.46 3.8 3.8 0 0 0 .6 2.48 2.3 2.3 0 0 0 1.88.9 2.36 2.36 0 0 0 1.94-.96l1.4 1.35a4.18 4.18 0 0 1-3.34 1.43zM781.38 244.6v-.9a3.33 3.33 0 0 1-2.7 1.03 3.58 3.58 0 0 1-2.72-.92 3.1 3.1 0 0 1-.8-2.18c0-1.7 1.18-2.92 3.5-2.92h2.68v-.72c0-1.28-.64-1.9-2.22-1.9a2.38 2.38 0 0 0-2.22.98l-1.34-1.26a4.16 4.16 0 0 1 3.64-1.46c2.78 0 4.18 1.18 4.18 3.48v6.8zm-.04-4.48h-2.38c-1.2 0-1.82.54-1.82 1.46 0 .92.58 1.44 1.86 1.44a2.42 2.42 0 0 0 1.9-.58 2.04 2.04 0 0 0 .44-1.5zM792.16 244.6v-6.18a1.97 1.97 0 0 0-2.04-2.26 2.02 2.02 0 0 0-2.1 2.26v6.2h-2.04v-10.16h2v1.02a3.63 3.63 0 0 1 2.7-1.14 3.52 3.52 0 0 1 2.5.92 3.72 3.72 0 0 1 1.02 2.86v6.5zM796.7 232.46v-2.16h2.17v2.16zm.07 12.15v-10.14h2.04v10.15zM804.86 244.73a5.58 5.58 0 0 1-4.26-1.46l1.34-1.35a3.94 3.94 0 0 0 2.92 1.07c1.24 0 2.22-.46 2.22-1.42 0-.68-.38-1.12-1.36-1.2l-1.62-.14c-1.9-.16-3-1.02-3-2.8 0-1.98 1.7-3.1 3.82-3.1a5.56 5.56 0 0 1 3.76 1.14l-1.28 1.3a3.83 3.83 0 0 0-2.5-.74c-1.22 0-1.84.54-1.84 1.3 0 .6.32 1.06 1.4 1.16l1.6.14c1.9.16 3.02 1.06 3.02 2.86 0 2.13-1.8 3.23-4.22 3.23zM823.4 244.6v-6.18a1.97 1.97 0 0 0-2.04-2.26 2 2 0 0 0-2.1 2.16v6.3h-2.04v-6.2a1.97 1.97 0 0 0-2.04-2.26 2.02 2.02 0 0 0-2.1 2.26v6.2h-2.04v-10.16h2v1.02a3.67 3.67 0 0 1 2.7-1.14 3.24 3.24 0 0 1 2.88 1.48 3.85 3.85 0 0 1 3.18-1.48 3.67 3.67 0 0 1 2.56.92 3.77 3.77 0 0 1 1.08 2.86v6.5zM834.87 243.53a4.1 4.1 0 0 1-3.04 1.2 4.06 4.06 0 0 1-3.02-1.2c-.96-1-1.2-2.3-1.2-4a5.32 5.32 0 0 1 1.2-4 4.06 4.06 0 0 1 3.03-1.2 4.1 4.1 0 0 1 3.04 1.2 5.32 5.32 0 0 1 1.2 4c0 1.7-.24 3-1.2 4zm-1.54-6.8a2.07 2.07 0 0 0-1.5-.57 2.02 2.02 0 0 0-1.48.58 5.87 5.87 0 0 0 0 5.57 2.04 2.04 0 0 0 1.48.6 2.08 2.08 0 0 0 1.5-.6 5.87 5.87 0 0 0 0-5.56zM848.64 244.6v-1.07a3.12 3.12 0 0 1-2.68 1.2 3.5 3.5 0 0 1-2.48-.9c-1.02-1.02-1.14-2.77-1.14-4.3s.12-3.27 1.14-4.3a3.46 3.46 0 0 1 2.46-.9 3.14 3.14 0 0 1 2.66 1.15v-5.12h2.05v14.25zm-2.14-8.44c-1.84 0-2.12 1.56-2.12 3.36s.28 3.4 2.12 3.4 2.1-1.6 2.1-3.4-.26-3.36-2.1-3.36zM854.87 240.12c0 1.74.92 2.85 2.58 2.85a3.03 3.03 0 0 0 2.46-1.05l1.3 1.23a4.76 4.76 0 0 1-3.8 1.58c-2.53 0-4.55-1.34-4.55-5.2 0-3.3 1.7-5.2 4.3-5.2 2.72 0 4.3 2 4.3 4.9v.9zm4.28-2.8a2.1 2.1 0 0 0-2-1.28 2.12 2.12 0 0 0-2.02 1.28 3.2 3.2 0 0 0-.26 1.38h4.56a3.2 3.2 0 0 0-.28-1.38zM744.65 260.84a1.88 1.88 0 0 0-1.52-.68 2.1 2.1 0 0 0-2.02 2.28v6.17h-2.03v-10.14h2v1.1a3.37 3.37 0 0 1 2.7-1.22 3.14 3.14 0 0 1 2.42.96zM748.85 264.12c0 1.74.92 2.85 2.58 2.85a3.03 3.03 0 0 0 2.46-1.05l1.3 1.23a4.76 4.76 0 0 1-3.8 1.58c-2.55 0-4.57-1.34-4.57-5.2 0-3.3 1.7-5.2 4.3-5.2 2.72 0 4.3 2 4.3 4.9v.9zm4.28-2.8a2.1 2.1 0 0 0-2-1.28 2.12 2.12 0 0 0-2.02 1.28 3.2 3.2 0 0 0-.25 1.38h4.56a3.2 3.2 0 0 0-.27-1.38zM761.72 268.73c-2.28 0-4.52-1.4-4.52-5.2s2.24-5.2 4.52-5.2a4.16 4.16 0 0 1 3.35 1.43l-1.4 1.36a2.36 2.36 0 0 0-1.95-.96 2.3 2.3 0 0 0-1.88.9 3.75 3.75 0 0 0-.6 2.46 3.8 3.8 0 0 0 .6 2.48 2.3 2.3 0 0 0 1.88.9 2.36 2.36 0 0 0 1.94-.96l1.4 1.35a4.18 4.18 0 0 1-3.34 1.43zM769.67 268.6a2.58 2.58 0 0 1-2.78-2.8v-11.44h2.03v11.33c0 .76.28 1.17 1.1 1.17h.9v1.74zM778.5 268.6v-.9a3.33 3.33 0 0 1-2.7 1.03 3.58 3.58 0 0 1-2.73-.92 3.1 3.1 0 0 1-.8-2.18c0-1.7 1.18-2.92 3.5-2.92h2.68v-.72c0-1.28-.64-1.9-2.22-1.9a2.38 2.38 0 0 0-2.22.98l-1.33-1.26a4.16 4.16 0 0 1 3.64-1.46c2.8 0 4.2 1.18 4.2 3.48v6.8zm-.05-4.48h-2.38c-1.2 0-1.82.54-1.82 1.46 0 .92.58 1.44 1.86 1.44a2.42 2.42 0 0 0 1.9-.58 2.04 2.04 0 0 0 .45-1.5zM795.45 268.6v-6.18a1.97 1.97 0 0 0-2.05-2.26 2 2 0 0 0-2.1 2.16v6.3h-2.04v-6.2a1.97 1.97 0 0 0-2.04-2.26 2.02 2.02 0 0 0-2.1 2.26v6.2h-2.04v-10.16h2v1.02a3.67 3.67 0 0 1 2.7-1.14 3.24 3.24 0 0 1 2.88 1.48 3.85 3.85 0 0 1 3.2-1.48 3.67 3.67 0 0 1 2.55.92 3.77 3.77 0 0 1 1.1 2.86v6.5zM805.6 268.6v-.9a3.33 3.33 0 0 1-2.7 1.03 3.58 3.58 0 0 1-2.73-.92 3.1 3.1 0 0 1-.8-2.18c0-1.7 1.18-2.92 3.5-2.92h2.7v-.72c0-1.28-.66-1.9-2.24-1.9a2.38 2.38 0 0 0-2.22.98l-1.33-1.26a4.16 4.16 0 0 1 3.64-1.46c2.8 0 4.2 1.18 4.2 3.48v6.8zm-.04-4.48h-2.4c-1.2 0-1.8.54-1.8 1.46 0 .92.57 1.44 1.85 1.44a2.42 2.42 0 0 0 1.9-.58 2.04 2.04 0 0 0 .46-1.5zM814.2 268.73c-2.27 0-4.5-1.4-4.5-5.2s2.23-5.2 4.5-5.2a4.16 4.16 0 0 1 3.35 1.43l-1.4 1.36a2.36 2.36 0 0 0-1.94-.96 2.3 2.3 0 0 0-1.87.9 3.75 3.75 0 0 0-.6 2.46 3.8 3.8 0 0 0 .6 2.48 2.3 2.3 0 0 0 1.88.9 2.36 2.36 0 0 0 1.95-.96l1.4 1.35a4.18 4.18 0 0 1-3.34 1.43zM819.35 256.46v-2.16h2.16v2.16zm.06 12.15v-10.14h2.05v10.15zM830.9 267.53a4.1 4.1 0 0 1-3.03 1.2 4.06 4.06 0 0 1-3.02-1.2c-.96-1-1.2-2.3-1.2-4a5.32 5.32 0 0 1 1.2-4 4.06 4.06 0 0 1 3.02-1.2 4.1 4.1 0 0 1 3.04 1.2 5.32 5.32 0 0 1 1.2 4c0 1.7-.23 3-1.2 4zm-1.53-6.8a2.07 2.07 0 0 0-1.5-.57 2.02 2.02 0 0 0-1.48.58 5.87 5.87 0 0 0 0 5.57 2.04 2.04 0 0 0 1.47.6 2.08 2.08 0 0 0 1.5-.6 5.87 5.87 0 0 0 0-5.56zM840.54 268.6v-6.18a1.97 1.97 0 0 0-2.04-2.26 2.02 2.02 0 0 0-2.1 2.26v6.2h-2.04v-10.16h2v1.02a3.63 3.63 0 0 1 2.7-1.14 3.52 3.52 0 0 1 2.5.92 3.73 3.73 0 0 1 1.02 2.86v6.5zM846.7 264.12c0 1.74.92 2.85 2.58 2.85a3.03 3.03 0 0 0 2.46-1.05l1.3 1.23a4.76 4.76 0 0 1-3.8 1.58c-2.54 0-4.56-1.34-4.56-5.2 0-3.3 1.7-5.2 4.3-5.2 2.72 0 4.3 2 4.3 4.9v.9zm4.28-2.8a2.1 2.1 0 0 0-2-1.28 2.12 2.12 0 0 0-2.02 1.28 3.2 3.2 0 0 0-.26 1.38h4.56a3.2 3.2 0 0 0-.28-1.38zM858.96 268.73a5.58 5.58 0 0 1-4.26-1.46l1.34-1.35a3.94 3.94 0 0 0 2.92 1.07c1.24 0 2.22-.46 2.22-1.42 0-.68-.38-1.12-1.36-1.2l-1.62-.14c-1.9-.16-3-1.02-3-2.8 0-1.98 1.7-3.1 3.82-3.1a5.56 5.56 0 0 1 3.76 1.14l-1.28 1.3a3.83 3.83 0 0 0-2.5-.74c-1.22 0-1.84.54-1.84 1.3 0 .6.32 1.06 1.4 1.16l1.6.14c1.9.16 3.02 1.06 3.02 2.86 0 2.13-1.8 3.23-4.22 3.23z"/>
  <path class="cls-7" d="M231 191.45h11.43"/>
  <path class="cls-8" d="M240.68 197.43l10.36-5.98-10.36-5.98v11.96"/>
  <path class="cls-7" d="M462.98 191.45h11.43"/>
  <path class="cls-8" d="M472.65 197.43l10.37-5.98-10.37-5.98v11.96"/>
  <path class="cls-7" d="M692.4 191.45h11.42"/>
  <path class="cls-8" d="M702.07 197.43l10.36-5.98-10.36-5.98v11.96"/>
</svg>