<?xml version="1.0" encoding="utf-8"?>
<!-- Generator: Adobe Illustrator 21.1.0, SVG Export Plug-In . SVG Version: 6.00 Build 0)  -->
<svg version="1.1" id="Layer_1" xmlns="http://www.w3.org/2000/svg" xmlns:xlink="http://www.w3.org/1999/xlink" x="0px" y="0px"
	 viewBox="0 0 984.8 190" style="enable-background:new 0 0 984.8 190;" xml:space="preserve">
<style type="text/css">
	.st0{fill:#FFFFFF;}
	.st1{opacity:0.2;fill:#FFFFFF;}
	.st2{fill:#59AD40;}
	.st3{clip-path:url(#SVGID_2_);fill:url(#SVGID_3_);}
	.st4{clip-path:url(#SVGID_5_);fill:url(#SVGID_6_);}
</style>
<path class="st0" d="M337.9,59.9c0-3.6,0.3-6.3,0.9-8s1.3-3,2-3.8c1.5-1.7,3.8-2.6,6.7-2.6c4.1,0,6.8,1.8,8,5.5c0.7,2.1,1,4.9,1,8.3
	v5.3H351v-5.3c0-3.1-0.2-5.1-0.5-6.2c-0.3-1.1-0.7-1.8-1.2-2.1c-0.5-0.4-1.1-0.5-1.8-0.5c-1.5,0-2.5,0.7-3.1,2.1
	c-0.6,1.4-0.9,3.7-0.9,6.7V80c0,3.6,0.3,6.2,0.8,7.6c0.5,1.4,1.5,2.2,3,2.2c1.5,0,2.5-0.7,3-2.2c0.5-1.5,0.7-4,0.7-7.6v-5.3h5.6v5.3
	c0,5-0.7,8.7-2.1,11.1c-1.4,2.4-3.8,3.6-7.2,3.6c-3.4,0-5.8-1.2-7.3-3.7c-1.5-2.4-2.2-6.1-2.2-11V59.9z"/>
<path class="st0" d="M368.5,46h6.8l7.9,47.9h-5.3l-1.4-9.1h-8.7l-1.3,9.1h-5.4L368.5,46z M368.5,80.2h7.3l-3.8-25.3H372L368.5,80.2z
	"/>
<path class="st0" d="M399.4,46h5.6v36.3c0,8.1-2.8,12.2-8.5,12.2c-3,0-5.2-0.9-6.6-2.8c-1.4-1.8-2.1-4.6-2.1-8.4v-6.3h5.5V83
	c0,2.4,0.1,3.9,0.3,4.5s0.4,1,0.7,1.3c0.4,0.6,1.2,1,2.2,1s1.7-0.3,2.1-1c0.4-0.7,0.7-1.5,0.8-2.5c0.1-1,0.1-2.2,0.1-3.6V46z"/>
<path class="st0" d="M417.5,46h6.8l7.9,47.9h-5.3l-1.4-9.1h-8.7l-1.3,9.1h-5.4L417.5,46z M417.5,80.2h7.3l-3.8-25.3H421L417.5,80.2z
	"/>
<path class="st0" d="M451.6,46h9c3.7,0,6.2,1.1,7.6,3.4c1.4,2.3,2.1,5.5,2.1,9.6l0,21c0,4.9-0.8,8.5-2.3,10.6
	c-1.5,2.2-4,3.2-7.6,3.2h-8.8V46z M464.6,58.9c0-3-0.4-5.1-1.1-6.4s-1.9-2-3.5-2h-2.9v38.9h2.9c1.1,0,1.9-0.2,2.6-0.7
	c1.3-0.9,2-3.5,2-7.8V58.9z"/>
<path class="st0" d="M477,46h14.3v4.7h-8.7v16.4h8.2v4.7h-8.2v17.5h8.8v4.7H477V46z"/>
<path class="st0" d="M524.9,46h5.6v47.9h-5.6V70.7h-7.7v23.2h-5.6V46h5.6v20.1h7.7V46z"/>
<path class="st0" d="M537.7,46H552v4.7h-8.7v16.4h8.2v4.7h-8.2v17.5h8.8v4.7h-14.4V46z"/>
<path class="st0" d="M558.4,46h10c2.8,0,4.9,0.6,6.2,1.8c1.3,1.2,2,3.2,2.3,6c0.1,1.2,0.2,3,0.2,5.4c0,2.5-0.3,4.5-1,6.2
	c-0.6,1.7-1.8,2.7-3.4,3.2c1.2,0.2,2.1,0.8,2.7,1.9c0.6,1.1,1.1,2.7,1.3,5.1c0.3,2.3,0.4,5.8,0.4,10.3c0,4.6,0.1,7.2,0.4,8h-5.6
	c-0.3-0.6-0.4-6-0.4-16.1c0-3.4-0.3-5.4-1-6c-0.7-0.6-1.7-0.8-3-0.8l-3.3-0.2v23.1h-5.6V46z M571.5,57.8c0-3.7-0.3-5.8-1-6.4
	c-0.7-0.6-1.6-0.9-2.9-0.9h-3.5v16.2h3.6c1.1,0,1.9-0.2,2.4-0.6c0.5-0.4,0.9-1.2,1.1-2.4s0.3-3,0.3-5.6V57.8z"/>
<path class="st0" d="M584,46h10c2.8,0,4.9,0.6,6.2,1.8c1.3,1.2,2,3.2,2.3,6c0.1,1.2,0.2,3,0.2,5.4c0,2.5-0.3,4.5-1,6.2
	c-0.6,1.7-1.8,2.7-3.4,3.2c1.2,0.2,2.1,0.8,2.7,1.9c0.6,1.1,1.1,2.7,1.3,5.1c0.3,2.3,0.4,5.8,0.4,10.3c0,4.6,0.1,7.2,0.4,8h-5.6
	c-0.3-0.6-0.4-6-0.4-16.1c0-3.4-0.3-5.4-1-6c-0.7-0.6-1.7-0.8-3-0.8l-3.3-0.2v23.1H584V46z M597,57.8c0-3.7-0.3-5.8-1-6.4
	c-0.7-0.6-1.6-0.9-2.9-0.9h-3.5v16.2h3.6c1.1,0,1.9-0.2,2.4-0.6c0.5-0.4,0.9-1.2,1.1-2.4s0.3-3,0.3-5.6V57.8z"/>
<path class="st0" d="M615.8,46h6.8l7.9,47.9h-5.3l-1.4-9.1h-8.7l-1.3,9.1h-5.4L615.8,46z M615.8,80.2h7.3l-3.8-25.3h-0.1L615.8,80.2
	z"/>
<path class="st0" d="M656.8,46h7v47.9h-5V74.7l0.5-17.9l-6.5,37h-5.1l-6.8-37l0.5,17.9v19.2h-5V46h7l6.9,39.4L656.8,46z"/>
<path class="st0" d="M671.1,46h5.6v47.9h-5.6V46z"/>
<path class="st0" d="M684,46h14.3v4.7h-8.7v16.4h8.2v4.7h-8.2v17.5h8.8v4.7H684V46z"/>
<path class="st0" d="M719.6,46h5v47.9h-4.1l-10.7-32.9l0.3,12.1v20.8h-5.2V46h4.2l11.1,32.6l-0.6-13.9V46z"/>
<path class="st0" d="M730,46h15.8v4.7h-4.9v43.2h-5.6V50.7H730V46z"/>
<path class="st0" d="M754.9,46h6.8l7.9,47.9h-5.3l-1.4-9.1h-8.7l-1.3,9.1h-5.4L754.9,46z M754.9,80.2h7.3l-3.8-25.3h-0.1L754.9,80.2
	z"/>
<path class="st0" d="M774.6,60.9c-0.3-1.1-0.5-2.5-0.5-4.1c0-3.5,0.6-6.2,1.9-8.3c1.3-2,3.7-3.1,7.3-3.1c4.6,0,7.4,2.2,8.2,6.7
	c0.4,1.9,0.5,4.3,0.5,7.3v2.8h-5.4V59c0-3-0.2-5.1-0.5-6.2c-0.3-1.1-0.7-1.8-1.1-2.1c-0.5-0.3-1-0.5-1.8-0.5c-1.4,0-2.3,0.5-2.9,1.5
	c-0.6,1-0.9,2.5-0.9,4.4c0,2,0.3,3.4,0.8,4.3s1.2,1.8,2,2.6c0.8,0.8,1.2,1.3,1.3,1.4L787,68c3.9,4.1,5.9,8.7,5.9,13.8
	c0,4.1-0.6,7.3-1.9,9.5c-1.3,2.2-3.7,3.3-7.3,3.3c-4.3,0-7.1-1.9-8.2-5.7c-0.7-2.1-1-4.9-1-8.4c0-0.1,0-0.2,0-0.3v-4.7h5.5v4.9
	c0,3.5,0.3,5.9,0.8,7.3c0.5,1.4,1.5,2.1,2.8,2.1c1.4,0,2.3-0.3,2.9-1c0.5-0.6,0.8-1.6,0.9-3c0.1-1.3,0.1-2.8,0.1-4.5
	c0-3.3-1.5-6.4-4.4-9.4l-3.1-3.1C777,65.9,775.3,63.3,774.6,60.9z"/>
<path class="st0" d="M812.6,46h9c3.7,0,6.2,1.1,7.6,3.4c1.4,2.3,2.1,5.5,2.1,9.6l0,21c0,4.9-0.8,8.5-2.3,10.6
	c-1.5,2.2-4,3.2-7.6,3.2h-8.8V46z M825.6,58.9c0-3-0.4-5.1-1.1-6.4c-0.7-1.3-1.9-2-3.5-2h-2.9v38.9h2.9c1.1,0,1.9-0.2,2.6-0.7
	c1.3-0.9,2-3.5,2-7.8V58.9z"/>
<path class="st0" d="M837.9,46h14.3v4.7h-8.7v16.4h8.2v4.7h-8.2v17.5h8.8v4.7h-14.4V46z"/>
<path class="st0" d="M858.7,46h5.6v43.2h8.8v4.7h-14.5V46z"/>
<path class="st0" d="M358.8,101.8h7v47.9h-5v-19.2l0.5-17.9l-6.5,37h-5.1l-6.8-37l0.5,17.9v19.2h-5v-47.9h7l6.9,39.4L358.8,101.8z"
	/>
<path class="st0" d="M372.9,101.8h14.3v4.7h-8.7v16.4h8.2v4.7h-8.2V145h8.8v4.7h-14.4V101.8z"/>
<path class="st0" d="M393.1,115.6c0-3.6,0.3-6.3,0.9-8s1.3-3,2-3.8c1.5-1.7,3.8-2.6,6.7-2.6c4.1,0,6.8,1.8,8,5.5
	c0.7,2.1,1,4.9,1,8.3v5.3h-5.5V115c0-3.1-0.2-5.1-0.5-6.2c-0.3-1.1-0.7-1.8-1.2-2.1c-0.5-0.4-1.1-0.5-1.8-0.5
	c-1.5,0-2.5,0.7-3.1,2.1c-0.6,1.4-0.9,3.7-0.9,6.7v20.7c0,3.6,0.3,6.2,0.8,7.6c0.5,1.4,1.5,2.2,3,2.2c1.5,0,2.5-0.7,3-2.2
	c0.5-1.5,0.7-4,0.7-7.6v-5.3h5.6v5.3c0,5-0.7,8.7-2.1,11.1c-1.4,2.4-3.8,3.6-7.2,3.6c-3.4,0-5.8-1.2-7.3-3.7
	c-1.5-2.4-2.2-6.1-2.2-11V115.6z"/>
<path class="st0" d="M423.8,101.8h6.8l7.9,47.9h-5.3l-1.4-9.1h-8.7l-1.3,9.1h-5.4L423.8,101.8z M423.8,136h7.3l-3.8-25.3h-0.1
	L423.8,136z"/>
<path class="st0" d="M459.2,101.8h5v47.9H460l-10.7-32.9l0.3,12.1v20.8h-5.2v-47.9h4.2l11.1,32.6l-0.6-13.9V101.8z"/>
<path class="st0" d="M471.4,101.8h5.6v47.9h-5.6V101.8z"/>
<path class="st0" d="M484.2,116.6c-0.3-1.1-0.5-2.5-0.5-4.1c0-3.5,0.6-6.2,1.9-8.3c1.3-2,3.7-3.1,7.3-3.1c4.6,0,7.4,2.2,8.2,6.7
	c0.4,1.9,0.5,4.3,0.5,7.3v2.8h-5.4v-3.2c0-3-0.2-5.1-0.5-6.2c-0.3-1.1-0.7-1.8-1.1-2.1c-0.5-0.3-1-0.5-1.8-0.5
	c-1.4,0-2.3,0.5-2.9,1.5c-0.6,1-0.9,2.5-0.9,4.4c0,2,0.3,3.4,0.8,4.3c0.5,0.9,1.2,1.8,2,2.6c0.8,0.8,1.2,1.3,1.3,1.4l3.3,3.5
	c3.9,4.1,5.9,8.7,5.9,13.8c0,4.1-0.6,7.3-1.9,9.5c-1.3,2.2-3.7,3.3-7.3,3.3c-4.3,0-7.1-1.9-8.2-5.7c-0.7-2.1-1-4.9-1-8.4
	c0-0.1,0-0.2,0-0.3v-4.7h5.5v4.9c0,3.5,0.3,5.9,0.8,7.3c0.5,1.4,1.5,2.1,2.8,2.1c1.4,0,2.3-0.3,2.9-1c0.5-0.6,0.8-1.6,0.9-3
	c0.1-1.3,0.1-2.8,0.1-4.5c0-3.3-1.5-6.4-4.4-9.4l-3.1-3.1C486.6,121.7,484.9,119,484.2,116.6z"/>
<path class="st0" d="M933.1,116.6c-0.3-1.1-0.5-2.5-0.5-4.1c0-3.5,0.6-6.2,1.9-8.3c1.3-2,3.7-3.1,7.3-3.1c4.6,0,7.4,2.2,8.2,6.7
	c0.4,1.9,0.5,4.3,0.5,7.3v2.8h-5.4v-3.2c0-3-0.2-5.1-0.5-6.2c-0.3-1.1-0.7-1.8-1.1-2.1c-0.5-0.3-1-0.5-1.8-0.5
	c-1.4,0-2.3,0.5-2.9,1.5s-0.9,2.5-0.9,4.4c0,2,0.3,3.4,0.8,4.3c0.5,0.9,1.2,1.8,2,2.6c0.8,0.8,1.2,1.3,1.3,1.4l3.3,3.5
	c3.9,4.1,5.9,8.7,5.9,13.8c0,4.1-0.6,7.3-1.9,9.5c-1.3,2.2-3.7,3.3-7.3,3.3c-4.3,0-7.1-1.9-8.2-5.7c-0.7-2.1-1-4.9-1-8.4
	c0-0.1,0-0.2,0-0.3v-4.7h5.5v4.9c0,3.5,0.3,5.9,0.8,7.3c0.5,1.4,1.5,2.1,2.8,2.1c1.4,0,2.3-0.3,2.9-1c0.5-0.6,0.8-1.6,0.9-3
	c0.1-1.3,0.1-2.8,0.1-4.5c0-3.3-1.5-6.4-4.4-9.4l-3.1-3.1C935.5,121.7,933.8,119,933.1,116.6z"/>
<path class="st0" d="M528.9,101.8h7v47.9h-5v-19.2l0.5-17.9l-6.5,37h-5.1l-6.8-37l0.5,17.9v19.2h-5v-47.9h7l6.9,39.4L528.9,101.8z"
	/>
<path class="st0" d="M542.8,114.8c0-5.4,1-9.2,2.9-11.2c1.5-1.6,3.8-2.4,6.7-2.4c4.3,0,7,1.8,8.2,5.3c0.7,2.1,1.1,4.9,1.1,8.3v21.1
	c0,5-0.7,8.6-2.1,10.9c-1.4,2.3-3.8,3.4-7.3,3.4c-3.5,0-5.9-1.1-7.4-3.4c-1.4-2.3-2.1-5.9-2.1-10.9V114.8z M556.1,114.5
	c0-3.1-0.2-5.2-0.7-6.5c-0.5-1.3-1.5-1.9-3-1.9c-1.5,0-2.5,0.7-3.1,2c-0.6,1.3-0.9,3.5-0.9,6.4V136c0,3.6,0.3,6.1,0.8,7.4
	c0.5,1.3,1.5,2,3.1,2c1.5,0,2.6-0.7,3.1-2c0.5-1.3,0.8-3.8,0.8-7.4V114.5z"/>
<path class="st0" d="M582.6,101.8h9c3.7,0,6.2,1.1,7.6,3.4c1.4,2.3,2.1,5.5,2.1,9.6l0,21c0,4.9-0.8,8.5-2.3,10.6
	c-1.5,2.2-4,3.2-7.6,3.2h-8.8V101.8z M595.7,114.6c0-3-0.4-5.1-1.1-6.4c-0.7-1.3-1.9-2-3.5-2h-2.9v38.9h2.9c1.1,0,1.9-0.2,2.6-0.7
	c1.3-0.9,2-3.5,2-7.8V114.6z"/>
<path class="st0" d="M608,101.8h14.3v4.7h-8.7v16.4h8.2v4.7h-8.2V145h8.8v4.7H608V101.8z"/>
<path class="st0" d="M642.7,101.8h10c2.8,0,4.9,0.6,6.2,1.8s2,3.2,2.3,6c0.1,1.2,0.2,3,0.2,5.4c0,2.5-0.3,4.5-1,6.2
	c-0.6,1.7-1.8,2.7-3.4,3.2c1.2,0.2,2.1,0.8,2.7,1.9c0.6,1.1,1.1,2.7,1.3,5.1c0.3,2.3,0.4,5.8,0.4,10.3c0,4.6,0.1,7.2,0.4,8h-5.6
	c-0.3-0.6-0.4-6-0.4-16.1c0-3.4-0.3-5.4-1-6c-0.7-0.6-1.7-0.8-3-0.8l-3.3-0.2v23.1h-5.6V101.8z M655.7,113.5c0-3.7-0.3-5.8-1-6.4
	c-0.7-0.6-1.6-0.9-2.9-0.9h-3.5v16.2h3.6c1.1,0,1.9-0.2,2.4-0.6c0.5-0.4,0.9-1.2,1.1-2.4c0.2-1.2,0.3-3,0.3-5.6V113.5z"/>
<path class="st0" d="M668.2,101.8h14.3v4.7h-8.7v16.4h8.2v4.7h-8.2V145h8.8v4.7h-14.4V101.8z"/>
<path class="st0" d="M688.5,115.6c0-3.6,0.3-6.3,0.9-8s1.3-3,2-3.8c1.5-1.7,3.8-2.6,6.7-2.6c4.1,0,6.8,1.8,8,5.5
	c0.7,2.1,1,4.9,1,8.3v5.3h-5.5V115c0-3.1-0.2-5.1-0.5-6.2c-0.3-1.1-0.7-1.8-1.2-2.1c-0.5-0.4-1.1-0.5-1.8-0.5
	c-1.5,0-2.5,0.7-3.1,2.1c-0.6,1.4-0.9,3.7-0.9,6.7v20.7c0,3.6,0.3,6.2,0.8,7.6c0.5,1.4,1.5,2.2,3,2.2c1.5,0,2.5-0.7,3-2.2
	c0.5-1.5,0.7-4,0.7-7.6v-5.3h5.6v5.3c0,5-0.7,8.7-2.1,11.1c-1.4,2.4-3.8,3.6-7.2,3.6c-3.4,0-5.8-1.2-7.3-3.7
	c-1.5-2.4-2.2-6.1-2.2-11V115.6z"/>
<path class="st0" d="M713.6,101.8h5.6V145h8.8v4.7h-14.5V101.8z"/>
<path class="st0" d="M739.9,101.8h6.8l7.9,47.9h-5.3l-1.4-9.1h-8.7l-1.3,9.1h-5.4L739.9,101.8z M739.8,136h7.3l-3.8-25.3h-0.1
	L739.8,136z"/>
<path class="st0" d="M780.9,101.8h7v47.9h-5v-19.2l0.5-17.9l-6.5,37h-5.1l-6.8-37l0.5,17.9v19.2h-5v-47.9h7l6.9,39.4L780.9,101.8z"
	/>
<path class="st0" d="M801.1,101.8h6.8l7.9,47.9h-5.3l-1.4-9.1h-8.7l-1.3,9.1h-5.4L801.1,101.8z M801.1,136h7.3l-3.8-25.3h-0.1
	L801.1,136z"/>
<path class="st0" d="M820.7,115.6c0-3.6,0.3-6.3,0.9-8s1.3-3,2-3.8c1.5-1.7,3.8-2.6,6.7-2.6c4.1,0,6.8,1.8,8,5.5
	c0.7,2.1,1,4.9,1,8.3v5.3h-5.5V115c0-3.1-0.2-5.1-0.5-6.2c-0.3-1.1-0.7-1.8-1.2-2.1c-0.5-0.4-1.1-0.5-1.8-0.5
	c-1.5,0-2.5,0.7-3.1,2.1c-0.6,1.4-0.9,3.7-0.9,6.7v20.7c0,3.6,0.3,6.2,0.8,7.6c0.5,1.4,1.5,2.2,3,2.2c1.5,0,2.5-0.7,3-2.2
	c0.5-1.5,0.7-4,0.7-7.6v-5.3h5.6v5.3c0,5-0.7,8.7-2.1,11.1c-1.4,2.4-3.8,3.6-7.2,3.6c-3.4,0-5.8-1.2-7.3-3.7
	c-1.5-2.4-2.2-6.1-2.2-11V115.6z"/>
<path class="st0" d="M846,101.8h5.6v47.9H846V101.8z"/>
<path class="st0" d="M858.7,114.8c0-5.4,1-9.2,2.9-11.2c1.5-1.6,3.8-2.4,6.7-2.4c4.3,0,7,1.8,8.2,5.3c0.7,2.1,1.1,4.9,1.1,8.3v21.1
	c0,5-0.7,8.6-2.1,10.9c-1.4,2.3-3.8,3.4-7.3,3.4c-3.5,0-6-1.1-7.4-3.4c-1.4-2.3-2.1-5.9-2.1-10.9V114.8z M872,114.5
	c0-3.1-0.2-5.2-0.7-6.5c-0.5-1.3-1.5-1.9-3-1.9c-1.5,0-2.5,0.7-3.1,2c-0.6,1.3-0.9,3.5-0.9,6.4V136c0,3.6,0.3,6.1,0.8,7.4
	c0.5,1.3,1.5,2,3.1,2c1.5,0,2.6-0.7,3.1-2c0.5-1.3,0.8-3.8,0.8-7.4V114.5z"/>
<path class="st0" d="M899.1,101.8h5v47.9H900l-10.7-32.9l0.3,12.1v20.8h-5.2v-47.9h4.2l11.1,32.6l-0.6-13.9V101.8z"/>
<path class="st0" d="M911.2,101.8h14.3v4.7h-8.7v16.4h8.2v4.7h-8.2V145h8.8v4.7h-14.4V101.8z"/>
<path class="st1" d="M317.1,179.8h-2.5v-2.5h2.5V179.8z M317.1,174.3h-2.5v-2.5h2.5V174.3z M317.1,168.8h-2.5v-2.5h2.5V168.8z
	 M317.1,163.3h-2.5v-2.5h2.5V163.3z M317.1,157.8h-2.5v-2.5h2.5V157.8z M317.1,152.3h-2.5v-2.5h2.5V152.3z M317.1,146.8h-2.5v-2.5
	h2.5V146.8z M317.1,141.3h-2.5v-2.5h2.5V141.3z M317.1,135.8h-2.5v-2.5h2.5V135.8z M317.1,130.3h-2.5v-2.5h2.5V130.3z M317.1,124.8
	h-2.5v-2.5h2.5V124.8z M317.1,119.3h-2.5v-2.5h2.5V119.3z M317.1,113.8h-2.5v-2.5h2.5V113.8z M317.1,108.3h-2.5v-2.5h2.5V108.3z
	 M317.1,102.8h-2.5v-2.5h2.5V102.8z M317.1,97.3h-2.5v-2.5h2.5V97.3z M317.1,91.8h-2.5v-2.5h2.5V91.8z M317.1,86.3h-2.5v-2.5h2.5
	V86.3z M317.1,80.8h-2.5v-2.5h2.5V80.8z M317.1,75.3h-2.5v-2.5h2.5V75.3z M317.1,69.8h-2.5v-2.5h2.5V69.8z M317.1,64.3h-2.5v-2.5
	h2.5V64.3z M317.1,58.8h-2.5v-2.5h2.5V58.8z M317.1,53.3h-2.5v-2.5h2.5V53.3z M317.1,47.8h-2.5v-2.5h2.5V47.8z M317.1,42.3h-2.5
	v-2.5h2.5V42.3z M317.1,36.8h-2.5v-2.5h2.5V36.8z M317.1,31.3h-2.5v-2.5h2.5V31.3z M317.1,25.8h-2.5v-2.5h2.5V25.8z M317.1,20.3
	h-2.5v-2.5h2.5V20.3z M317.1,14.8h-2.5v-2.5h2.5V14.8z"/>
<g>
	<g>
		<path class="st0" d="M153,108.2l4.9,13.3c0.6,1.8,1.4,3.4,1.4,5.4c0,1.5-2.8,3.2-4.4,4.3v2.3c3.8,0,7.6-0.5,11.4-0.5
			c3.8,0,7.6,0.5,11.4,0.5v-2.3c-6.1-2.3-7.8-4.5-10-10.6l-27.4-76.8h-2.2l-30.6,76.8c-2.3,5.6-3.2,8.6-9.5,10.6v2.3
			c3.9,0,7.2-0.5,10.5-0.5c3.2,0,6.4,0.5,9.6,0.5v-2.3c-3.2-1.1-5.4-2.8-5.4-5.1c0-1.3,0-4.4,0.9-6.8l4-11.1H153z M136.4,61.8
			L147.7,93l0.6,1.8l3,8.2h-31.7L136.4,61.8z"/>
		<path class="st0" d="M183.2,87.6c0-23.1,10-41.6,33.6-41.6c23.6,0,33.6,18.4,33.6,41.6c0,23.1-10,41.6-33.6,41.6
			C193.1,129.2,183.2,110.7,183.2,87.6 M171.2,87.6c0,25.9,19.3,45.6,45.6,45.6c26.3,0,45.6-19.7,45.6-45.6
			c0-25.9-19.3-45.6-45.6-45.6C190.5,42,171.2,61.7,171.2,87.6"/>
		<path class="st0" d="M91.5,130.6c-8,2.3-18.7,3.5-26.9,3.5c-30.2,0-50.3-18.5-50.3-45.6c0-27.2,20.1-45.6,50.3-45.6
			c11.4,0,23.4,4.6,25.9,4.6c0.5,0,1.1-0.5,1.8-0.6l1.4,13.5h-2.3C86.9,50.6,74,46.9,64.6,46.9c-22.6,0-38.3,14.9-38.3,41.6
			c0,19.1,17.2,41.6,38.3,41.6c15,0,23.6-3.8,29.7-13.2l1.6,0.9L91.5,130.6z"/>
		<path class="st2" d="M22.5,144.9c0-0.3-0.3-1.1-1.2-1.1c-1.1,0-1.4,1-1.4,2.1c0,1,0.4,2.1,1.4,2.1c0.8,0,1.1-0.5,1.2-1.2h2.3
			c0,1.5-1.2,3.1-3.4,3.1c-2.4,0-3.8-1.7-3.8-3.9c0-2.4,1.5-3.9,3.8-3.9c2.1,0,3.2,1.1,3.4,3H22.5z"/>
		<path class="st2" d="M30.7,141.9c2.3,0,3.8,1.6,3.8,3.9c0,2.3-1.5,3.9-3.8,3.9c-2.3,0-3.8-1.6-3.8-3.9
			C26.9,143.6,28.4,141.9,30.7,141.9 M30.7,148c0.6,0,1.5-0.4,1.5-2.1c0-1.7-0.9-2.1-1.5-2.1c-0.6,0-1.5,0.4-1.5,2.1
			C29.2,147.6,30.1,148,30.7,148"/>
		<polygon class="st2" points="36.8,142.1 40.1,142.1 41.2,146.5 41.2,146.5 42.3,142.1 45.6,142.1 45.6,149.7 43.4,149.7 
			43.4,144.8 43.4,144.8 42.1,149.7 40.3,149.7 39,144.8 39,144.8 39,149.7 36.8,149.7 		"/>
		<path class="st2" d="M48.1,142.1H52c2,0,2.8,1.5,2.8,2.6c0,1.8-1.2,2.7-2.9,2.7h-1.4v2.3h-2.3V142.1z M50.4,145.6h0.9
			c0.6,0,1.2,0,1.2-0.8c0-0.7-0.5-0.7-1.1-0.7h-1V145.6z"/>
		<polygon class="st2" points="56.9,142.1 59.2,142.1 59.2,147.7 62.6,147.7 62.6,149.7 56.9,149.7 		"/>
		<rect x="64.9" y="142.1" class="st2" width="2.3" height="7.5"/>
		<path class="st2" d="M71.9,142.1h2.3l2.7,7.5h-2.4l-0.3-1.1h-2.4l-0.3,1.1h-2.3L71.9,142.1z M73.7,147l-0.7-2.3h0l-0.7,2.3H73.7z"
			/>
		<polygon class="st2" points="78.8,142.1 81.1,142.1 83.3,146.2 83.4,146.2 83.4,142.1 85.6,142.1 85.6,149.7 83.3,149.7 81,145.5 
			81,145.5 81,149.7 78.8,149.7 		"/>
		<path class="st2" d="M92.9,144.9c0-0.3-0.3-1.1-1.2-1.1c-1.1,0-1.4,1-1.4,2.1c0,1,0.3,2.1,1.4,2.1c0.8,0,1.1-0.5,1.2-1.2h2.3
			c0,1.5-1.2,3.1-3.4,3.1c-2.4,0-3.8-1.7-3.8-3.9c0-2.4,1.5-3.9,3.8-3.9c2.1,0,3.2,1.1,3.4,3H92.9z"/>
		<polygon class="st2" points="97.5,142.1 103.7,142.1 103.7,144.1 99.8,144.1 99.8,145 103.4,145 103.4,146.8 99.8,146.8 
			99.8,147.7 103.8,147.7 103.8,149.7 97.5,149.7 		"/>
		<path class="st2" d="M113.2,142.1h2.3l2.7,7.5h-2.4l-0.3-1.1h-2.4l-0.3,1.1h-2.3L113.2,142.1z M115.1,147l-0.7-2.3h0l-0.7,2.3
			H115.1z"/>
		<path class="st2" d="M120.1,142.1h3.8c2.5,0,3.4,1.8,3.4,3.8c0,2.3-1.2,3.8-3.8,3.8h-3.3V142.1z M122.5,147.7h0.9
			c1.4,0,1.6-1.2,1.6-1.9c0-0.5-0.1-1.8-1.8-1.8h-0.7V147.7z"/>
		<polygon class="st2" points="133.8,149.7 131.2,149.7 128.9,142.1 131.3,142.1 132.5,146.7 132.5,146.7 133.7,142.1 136.1,142.1 
					"/>
		<rect x="137.9" y="142.1" class="st2" width="2.3" height="7.5"/>
		<path class="st2" d="M144.6,147.1c0,0.2,0,0.3,0.1,0.5c0.2,0.5,0.7,0.5,1.1,0.5c0.4,0,1-0.1,1-0.7c0-0.4-0.3-0.5-1.6-0.9
			c-1.2-0.3-2.6-0.7-2.6-2.2c0-1.7,1.5-2.5,3-2.5c1.6,0,3.1,0.6,3.1,2.5h-2.2c0.1-0.3-0.1-0.5-0.3-0.6c-0.2-0.1-0.5-0.2-0.7-0.2
			c-0.3,0-0.8,0.1-0.8,0.5c0,0.5,1.1,0.6,2.2,0.9c1.1,0.3,2.1,0.8,2.1,2.2c0,2-1.8,2.6-3.5,2.6c-0.9,0-3.3-0.3-3.3-2.7H144.6z"/>
		<path class="st2" d="M154.8,141.9c2.3,0,3.8,1.6,3.8,3.9c0,2.3-1.5,3.9-3.8,3.9c-2.3,0-3.8-1.6-3.8-3.9
			C150.9,143.6,152.5,141.9,154.8,141.9 M154.8,148c0.6,0,1.5-0.4,1.5-2.1c0-1.7-0.9-2.1-1.5-2.1c-0.6,0-1.5,0.4-1.5,2.1
			C153.3,147.6,154.2,148,154.8,148"/>
		<path class="st2" d="M160.9,142.1h4.4c1.3,0,2.5,0.7,2.5,2.2c0,0.8-0.4,1.6-1.1,1.9c0.6,0.3,1,0.9,1.1,1.9c0,0.4,0,1.3,0.2,1.6
			h-2.3c-0.1-0.4-0.2-0.8-0.2-1.2c-0.1-0.7-0.1-1.5-1-1.5h-1.2v2.6h-2.3V142.1z M163.2,145.4h1.2c0.4,0,1-0.1,1-0.7
			c0-0.5-0.3-0.8-1.2-0.8h-1.1V145.4z"/>
		<path class="st2" d="M183.5,141.9c2.3,0,3.8,1.6,3.8,3.9c0,2.3-1.5,3.9-3.8,3.9c-2.3,0-3.8-1.6-3.8-3.9
			C179.6,143.6,181.2,141.9,183.5,141.9 M183.5,148c0.6,0,1.5-0.4,1.5-2.1c0-1.7-0.9-2.1-1.5-2.1c-0.6,0-1.5,0.4-1.5,2.1
			C182,147.6,182.9,148,183.5,148"/>
		<polygon class="st2" points="189.6,142.1 192.9,142.1 194,146.5 194,146.5 195.1,142.1 198.4,142.1 198.4,149.7 196.2,149.7 
			196.2,144.8 196.2,144.8 194.9,149.7 193.1,149.7 191.8,144.8 191.8,144.8 191.8,149.7 189.6,149.7 		"/>
		<path class="st2" d="M200.9,142.1h4.1c2,0,2.4,1.1,2.4,1.9c0,0.8-0.4,1.2-0.9,1.5c0.7,0.2,1.3,0.8,1.3,1.9c0,1.5-1.3,2.3-2.6,2.3
			h-4.3V142.1z M203.2,145.1h1.2c0.5,0,0.8-0.1,0.8-0.6c0-0.4-0.3-0.5-0.8-0.5h-1.2V145.1z M203.2,147.9h1.4c0.5,0,0.9-0.1,0.9-0.7
			c0-0.4-0.3-0.7-0.8-0.7h-1.5V147.9z"/>
		<path class="st2" d="M216.9,146.7c0,2.1-1.1,3.1-3.4,3.1c-2.3,0-3.4-1-3.4-3.1v-4.6h2.3v4.1c0,0.8,0,1.7,1.1,1.7
			c1.1,0,1.1-1,1.1-1.7v-4.1h2.3V146.7z"/>
		<path class="st2" d="M219.5,142.1h3.8c2.5,0,3.4,1.8,3.4,3.8c0,2.3-1.2,3.8-3.8,3.8h-3.4V142.1z M221.8,147.7h0.9
			c1.4,0,1.7-1.2,1.7-1.9c0-0.5-0.2-1.8-1.8-1.8h-0.7V147.7z"/>
		<path class="st2" d="M230.9,147.1c0,0.2,0,0.3,0.1,0.5c0.2,0.5,0.7,0.5,1.1,0.5c0.4,0,1-0.1,1-0.7c0-0.4-0.3-0.5-1.6-0.9
			c-1.2-0.3-2.6-0.7-2.6-2.2c0-1.7,1.5-2.5,3-2.5c1.6,0,3.1,0.6,3.1,2.5h-2.2c0-0.3-0.1-0.5-0.3-0.6c-0.2-0.1-0.4-0.2-0.7-0.2
			c-0.3,0-0.8,0.1-0.8,0.5c0,0.5,1.1,0.6,2.2,0.9c1.1,0.3,2.1,0.8,2.1,2.2c0,2-1.8,2.6-3.5,2.6c-0.9,0-3.3-0.3-3.3-2.7H230.9z"/>
		<polygon class="st2" points="237.4,142.1 240.7,142.1 241.8,146.5 241.8,146.5 242.9,142.1 246.2,142.1 246.2,149.7 244,149.7 
			244,144.8 244,144.8 242.6,149.7 240.9,149.7 239.6,144.8 239.6,144.8 239.6,149.7 237.4,149.7 		"/>
		<path class="st2" d="M250.8,142.1h2.3l2.7,7.5h-2.4l-0.3-1.1h-2.4l-0.3,1.1H248L250.8,142.1z M252.6,147l-0.7-2.3h0l-0.7,2.3
			H252.6z"/>
		<polygon class="st2" points="257.7,142.1 260.1,142.1 262.3,146.2 262.3,146.2 262.3,142.1 264.5,142.1 264.5,149.7 262.2,149.7 
			259.9,145.5 259.9,145.5 259.9,149.7 257.7,149.7 		"/>
	</g>
	<g>
		<defs>
			<path id="SVGID_1_" d="M261.7,43.5c-25.2,7.9-36.2,9.5-53.2,19.2c-35.7,20.3-32.8,63.7-32.8,63.7s12.8-18.9,33-30.2
				c14.4-8.1,40.8-17.5,58.4-32.1c15.8-13.2,26-39.2,26.2-39.8v0C293.1,24.6,283.5,36.7,261.7,43.5"/>
		</defs>
		<clipPath id="SVGID_2_">
			<use xlink:href="#SVGID_1_"  style="overflow:visible;"/>
		</clipPath>
		
			<linearGradient id="SVGID_3_" gradientUnits="userSpaceOnUse" x1="628.7186" y1="496.5928" x2="632.1112" y2="496.5928" gradientTransform="matrix(38.4995 -6.2764 -6.2764 -38.4995 -20918.8691 23150.4355)">
			<stop  offset="0" style="stop-color:#F0B653"/>
			<stop  offset="2.260482e-02" style="stop-color:#E9B552"/>
			<stop  offset="0.1838" style="stop-color:#BEB34D"/>
			<stop  offset="0.347" style="stop-color:#99B148"/>
			<stop  offset="0.5101" style="stop-color:#7DAF45"/>
			<stop  offset="0.6732" style="stop-color:#69AE42"/>
			<stop  offset="0.8364" style="stop-color:#5DAD41"/>
			<stop  offset="1" style="stop-color:#59AD40"/>
		</linearGradient>
		<polygon class="st3" points="156.6,27 290.2,5.2 309.6,123.8 175.9,145.6 		"/>
	</g>
	<g>
		<defs>
			<path id="SVGID_4_" d="M260.9,74.4c-11.1,7.8-34.2,18.5-42.6,22.2c-17.8,7.7-30.4,23.4-35.9,31.6c-12.6,18.8-17,37.9-17,37.9
				s1.1,4,4.5,4.2c-0.3-3.1-0.9-20.5,12.8-32.9c10.3-9.3,39.7-2.9,71.5-25c25.4-17.6,28.1-58.9,28.2-59.9l0,0
				C282.3,52.7,275.7,63.9,260.9,74.4"/>
		</defs>
		<clipPath id="SVGID_5_">
			<use xlink:href="#SVGID_4_"  style="overflow:visible;"/>
		</clipPath>
		
			<linearGradient id="SVGID_6_" gradientUnits="userSpaceOnUse" x1="628.5783" y1="495.9778" x2="631.9709" y2="495.9778" gradientTransform="matrix(38.8729 -6.3999 -6.2547 -38.738 -21173.5625 23358.082)">
			<stop  offset="0" style="stop-color:#F0B653"/>
			<stop  offset="2.260482e-02" style="stop-color:#E9B552"/>
			<stop  offset="0.1838" style="stop-color:#BEB34D"/>
			<stop  offset="0.347" style="stop-color:#99B148"/>
			<stop  offset="0.5101" style="stop-color:#7DAF45"/>
			<stop  offset="0.6732" style="stop-color:#69AE42"/>
			<stop  offset="0.8364" style="stop-color:#5DAD41"/>
			<stop  offset="1" style="stop-color:#59AD40"/>
		</linearGradient>
		<polygon class="st4" points="146.9,55.5 279.4,33.7 301,167.2 168.5,189.1 		"/>
	</g>
	<g>
		<path class="st0" d="M183.2,90.1c0,0-0.1,10.1,5,22.2l-5.9,5.9c0,0-4.6-5.7-5.5-7.9C176.8,110.3,177.4,90.9,183.2,90.1"/>
		<path class="st0" d="M190.9,116.8c0,0,6.7,11.4,23.2,12.4l-0.2,4c0,0-15.1-0.2-27.5-11L190.9,116.8z"/>
	</g>
</g>
</svg>
