<?xml version="1.0" encoding="utf-8"?>
<!-- Generator: Adobe Illustrator 21.1.0, SVG Export Plug-In . SVG Version: 6.00 Build 0)  -->
<svg version="1.1" xmlns="http://www.w3.org/2000/svg" xmlns:xlink="http://www.w3.org/1999/xlink" x="0px" y="0px"
	 viewBox="0 0 944 554.1" style="enable-background:new 0 0 944 554.1;" xml:space="preserve">
<style type="text/css">
	.st0{fill:#1D8CB2;}
	.st1{fill:#E8800F;}
	.st2{fill:none;stroke:#FFFFFF;stroke-width:2;stroke-linecap:round;stroke-linejoin:round;}
	.st3{fill:#FFFFFF;}
	.st4{fill:#59AD40;}
	.st5{fill:#5D5D5D;}
	.st6{fill:#AD3588;stroke:#FFFFFF;stroke-width:2;stroke-miterlimit:10;}
	.st7{fill:#362F2D;}
	.st8{fill:none;stroke:#A8A8A8;stroke-miterlimit:10;}
	.st9{fill:#AD3588;}
	.st10{fill:#5F6062;}
	.st11{fill:none;stroke:#999999;stroke-width:3;stroke-miterlimit:10;}
	.st12{fill:#999999;}
	.st13{fill:none;stroke:#E8800F;stroke-width:2;stroke-miterlimit:10;}
	.st14{fill:none;stroke:#5D5D5D;stroke-miterlimit:10;}
	.st15{fill:none;stroke:#E8800F;stroke-width:3;stroke-miterlimit:10;}
	.st16{fill:none;stroke:#59AD40;stroke-width:3;stroke-miterlimit:10;}
	.st17{fill:none;stroke:#AD3588;stroke-width:3;stroke-miterlimit:10;}
	.st18{fill:none;stroke:#1D8CB2;stroke-width:3;stroke-miterlimit:10;}
	.st19{fill:none;stroke:#5D5D5D;stroke-width:2;stroke-miterlimit:10;}
	.st20{fill:none;stroke:#5D5D5D;stroke-width:3;stroke-miterlimit:10;}
	.st21{display:none;}
	.st22{display:inline;}
	.st23{display:inline;fill:#1D8CB2;}
	.st24{display:inline;fill:#E8800F;}
	.st25{display:inline;fill:#59AD40;}
	.st26{display:inline;fill:#362F2D;}
	.st27{font-family:'DINCondensed-Bold';}
	.st28{font-size:34px;}
	.st29{display:inline;fill:#FFFFFF;}
	.st30{display:inline;fill:#AD3588;stroke:#FFFFFF;stroke-width:2;stroke-miterlimit:10;}
	.st31{font-family:'DIN-Regular';}
	.st32{font-size:15px;}
	.st33{font-size:16px;}
	.st34{font-family:'DIN-Medium';}
	.st35{font-size:20px;}
	.st36{display:inline;fill:none;stroke:#5D5D5D;stroke-miterlimit:10;}
	.st37{display:inline;fill:#AD3588;}
</style>
<g id="Layer_1">
	<g>
		<line class="st8" x1="63.4" y1="82.2" x2="922" y2="82.2"/>
		<line class="st8" x1="63.4" y1="122.4" x2="922" y2="122.4"/>
		<line class="st8" x1="63.4" y1="162.7" x2="922" y2="162.7"/>
		<line class="st8" x1="63.4" y1="203" x2="922" y2="203"/>
		<line class="st8" x1="63.4" y1="238.7" x2="922" y2="238.7"/>
		<line class="st8" x1="63.4" y1="279" x2="922" y2="279"/>
		<line class="st8" x1="63.4" y1="319.2" x2="922" y2="319.2"/>
		<line class="st8" x1="63.4" y1="359.5" x2="922" y2="359.5"/>
		<line class="st8" x1="63.4" y1="394.3" x2="922" y2="394.3"/>
		<line class="st8" x1="63.4" y1="434.5" x2="922" y2="434.5"/>
	</g>
	<g>
		<path class="st7" d="M31.9,22.9h5.2c1,0,1.8,0.1,2.5,0.4c0.7,0.2,1.4,0.7,2,1.3c0.6,0.6,1,1.4,1.2,2.2c0.2,0.9,0.3,2,0.3,3.5
			c0,1.1-0.1,2-0.2,2.7c-0.1,0.8-0.4,1.5-0.8,2.1c-0.5,0.8-1.1,1.4-1.9,1.9c-0.8,0.4-1.8,0.7-3.1,0.7h-1.8v9.5h-3.5V22.9z
			 M35.3,34.4H37c0.7,0,1.2-0.1,1.6-0.3c0.4-0.2,0.7-0.5,0.8-0.8c0.2-0.4,0.3-0.8,0.3-1.3c0-0.5,0.1-1.1,0.1-1.7
			c0-0.6,0-1.1-0.1-1.6s-0.1-1-0.3-1.3s-0.4-0.7-0.8-0.9c-0.4-0.2-0.9-0.3-1.6-0.3h-1.8V34.4z"/>
		<path class="st7" d="M45.1,22.9h3.5v20.7h6.9v3.5H45.1V22.9z"/>
		<path class="st7" d="M61.9,22.9h2.9l5.4,24.2h-3.5l-1-5.2H61l-1,5.2h-3.5L61.9,22.9z M63.4,29.8L63.4,29.8l-1.8,8.8h3.5L63.4,29.8
			z"/>
		<path class="st7" d="M71.8,22.9h3.5v24.2h-3.5V22.9z"/>
		<path class="st7" d="M77.7,22.9H81l5.2,14.6h0.1V22.9h3.5v24.2h-3.3l-5.3-14.6h-0.1v14.6h-3.5V22.9z"/>
		<path class="st7" d="M95.2,26.1h-4v-3.3h11.5v3.3h-4v20.9h-3.5V26.1z"/>
		<path class="st7" d="M104.1,22.9h10.3v3.3h-6.9v7.1h6v3.3h-6v7.1h6.9v3.5h-10.3V22.9z"/>
		<path class="st7" d="M127.8,29.8h-3.5v-0.8c0-0.8-0.2-1.5-0.6-2.1s-1-0.9-1.9-0.9c-0.5,0-0.9,0.1-1.2,0.3
			c-0.3,0.2-0.5,0.4-0.7,0.7s-0.3,0.6-0.4,1c-0.1,0.4-0.1,0.8-0.1,1.2c0,0.5,0,0.9,0.1,1.2c0,0.3,0.1,0.6,0.3,0.9
			c0.1,0.2,0.3,0.4,0.6,0.6c0.3,0.2,0.6,0.4,1.1,0.5l2.7,1.1c0.8,0.3,1.4,0.6,1.9,1s0.8,0.9,1.1,1.4c0.3,0.5,0.4,1.1,0.5,1.8
			s0.1,1.5,0.1,2.4c0,1-0.1,2-0.3,2.8c-0.2,0.9-0.5,1.6-1,2.2c-0.5,0.6-1.1,1.1-1.9,1.5c-0.8,0.4-1.7,0.5-2.8,0.5
			c-0.8,0-1.6-0.1-2.3-0.4c-0.7-0.3-1.3-0.7-1.9-1.2c-0.5-0.5-0.9-1.1-1.2-1.8c-0.3-0.7-0.5-1.5-0.5-2.3v-1.3h3.5v1.1
			c0,0.6,0.2,1.2,0.6,1.7c0.4,0.5,1,0.8,1.9,0.8c0.6,0,1-0.1,1.4-0.3c0.3-0.2,0.6-0.4,0.7-0.7c0.2-0.3,0.3-0.7,0.3-1.1
			c0-0.5,0.1-1,0.1-1.5c0-0.6,0-1.2-0.1-1.6c0-0.4-0.1-0.7-0.3-1c-0.1-0.2-0.4-0.5-0.6-0.6c-0.3-0.2-0.6-0.3-1-0.5l-2.5-1
			c-1.5-0.6-2.5-1.4-3-2.4c-0.5-1-0.8-2.3-0.8-3.8c0-0.9,0.1-1.8,0.4-2.6c0.2-0.8,0.6-1.5,1.1-2.1c0.5-0.6,1.1-1.1,1.9-1.4
			s1.6-0.5,2.6-0.5c0.9,0,1.6,0.2,2.4,0.5c0.7,0.3,1.3,0.7,1.8,1.3c0.5,0.5,0.9,1.1,1.2,1.8c0.3,0.6,0.4,1.3,0.4,2V29.8z"/>
		<path class="st7" d="M135.7,22.9H146v3.3h-6.9v7.1h6v3.3h-6v7.1h6.9v3.5h-10.3V22.9z"/>
		<path class="st7" d="M147.8,22.9h3.3l5.2,14.6h0.1V22.9h3.5v24.2h-3.3l-5.3-14.6h-0.1v14.6h-3.5V22.9z"/>
		<path class="st7" d="M168.3,22.9h10.3v3.3h-6.9v7.3h6v3.3h-6v10.3h-3.5V22.9z"/>
		<path class="st7" d="M180.2,28.6c0-1,0.2-1.8,0.5-2.6c0.3-0.7,0.8-1.4,1.3-1.9c0.6-0.5,1.2-0.9,1.9-1.1c0.7-0.2,1.4-0.4,2.1-0.4
			c0.7,0,1.4,0.1,2.1,0.4c0.7,0.2,1.3,0.6,1.9,1.1c0.6,0.5,1,1.1,1.3,1.9s0.5,1.6,0.5,2.6v12.8c0,1-0.2,1.9-0.5,2.6
			c-0.3,0.7-0.8,1.3-1.3,1.8c-0.6,0.5-1.2,0.9-1.9,1.1s-1.4,0.4-2.1,0.4c-0.7,0-1.4-0.1-2.1-0.4c-0.7-0.2-1.3-0.6-1.9-1.1
			c-0.6-0.5-1-1.1-1.3-1.8c-0.3-0.7-0.5-1.6-0.5-2.6V28.6z M183.7,41.4c0,0.8,0.2,1.5,0.7,1.9c0.5,0.4,1,0.6,1.6,0.6
			c0.6,0,1.2-0.2,1.6-0.6c0.5-0.4,0.7-1,0.7-1.9V28.6c0-0.8-0.2-1.5-0.7-1.9s-1-0.6-1.6-0.6c-0.6,0-1.2,0.2-1.6,0.6s-0.7,1-0.7,1.9
			V41.4z"/>
		<path class="st7" d="M194.1,22.9h3.3l5.2,14.6h0.1V22.9h3.5v24.2h-3.3l-5.3-14.6h-0.1v14.6h-3.5V22.9z"/>
		<path class="st7" d="M219.6,41.7c0,0.7-0.1,1.5-0.4,2.1c-0.3,0.7-0.7,1.3-1.2,1.8c-0.5,0.5-1.1,0.9-1.8,1.2s-1.4,0.5-2.2,0.5
			c-0.7,0-1.3-0.1-2-0.3c-0.7-0.2-1.3-0.5-1.8-0.9s-1-1-1.3-1.8s-0.5-1.6-0.5-2.8V28.2c0-0.8,0.1-1.5,0.4-2.2
			c0.3-0.7,0.7-1.3,1.2-1.8c0.5-0.5,1.1-0.9,1.8-1.2c0.7-0.3,1.5-0.4,2.3-0.4c0.8,0,1.5,0.1,2.2,0.4c0.7,0.3,1.3,0.7,1.8,1.2
			c0.5,0.5,0.9,1.1,1.2,1.8s0.4,1.5,0.4,2.3v1.4h-3.5v-1.2c0-0.7-0.2-1.3-0.6-1.8c-0.4-0.5-0.9-0.7-1.6-0.7c-0.9,0-1.4,0.3-1.7,0.8
			c-0.3,0.5-0.4,1.2-0.4,2v12.4c0,0.7,0.2,1.3,0.5,1.8c0.3,0.5,0.9,0.7,1.6,0.7c0.2,0,0.5,0,0.7-0.1c0.3-0.1,0.5-0.2,0.7-0.4
			c0.2-0.2,0.4-0.4,0.5-0.7c0.1-0.3,0.2-0.7,0.2-1.2v-1.2h3.5V41.7z"/>
		<path class="st7" d="M224.7,26.1h-4v-3.3h11.5v3.3h-4v20.9h-3.5V26.1z"/>
		<path class="st7" d="M233.7,22.9h3.5v24.2h-3.5V22.9z"/>
		<path class="st7" d="M239.5,28.6c0-1,0.2-1.8,0.5-2.6c0.3-0.7,0.8-1.4,1.3-1.9c0.6-0.5,1.2-0.9,1.9-1.1c0.7-0.2,1.4-0.4,2.1-0.4
			c0.7,0,1.4,0.1,2.1,0.4c0.7,0.2,1.3,0.6,1.9,1.1c0.6,0.5,1,1.1,1.3,1.9s0.5,1.6,0.5,2.6v12.8c0,1-0.2,1.9-0.5,2.6
			c-0.3,0.7-0.8,1.3-1.3,1.8c-0.6,0.5-1.2,0.9-1.9,1.1s-1.4,0.4-2.1,0.4c-0.7,0-1.4-0.1-2.1-0.4c-0.7-0.2-1.3-0.6-1.9-1.1
			c-0.6-0.5-1-1.1-1.3-1.8c-0.3-0.7-0.5-1.6-0.5-2.6V28.6z M243,41.4c0,0.8,0.2,1.5,0.7,1.9c0.5,0.4,1,0.6,1.6,0.6
			c0.6,0,1.2-0.2,1.6-0.6c0.5-0.4,0.7-1,0.7-1.9V28.6c0-0.8-0.2-1.5-0.7-1.9s-1-0.6-1.6-0.6c-0.6,0-1.2,0.2-1.6,0.6s-0.7,1-0.7,1.9
			V41.4z"/>
		<path class="st7" d="M253.4,22.9h3.3l5.2,14.6h0.1V22.9h3.5v24.2h-3.3l-5.3-14.6h-0.1v14.6h-3.5V22.9z"/>
		<path class="st7" d="M273.9,22.9h5.1c2,0,3.5,0.5,4.5,1.6c1,1.1,1.6,2.6,1.6,4.6v11.3c0,2.3-0.5,3.9-1.6,5
			c-1.1,1.1-2.7,1.6-4.7,1.6h-4.8V22.9z M277.4,43.8h1.6c1,0,1.7-0.2,2.1-0.7c0.4-0.5,0.6-1.3,0.6-2.3V29.1c0-1-0.2-1.7-0.6-2.2
			s-1.1-0.8-2.1-0.8h-1.6V43.8z"/>
		<path class="st7" d="M287.5,22.9h10.3v3.3h-6.9v7.1h6v3.3h-6v7.1h6.9v3.5h-10.3V22.9z"/>
		<path class="st7" d="M311.1,29.8h-3.5v-0.8c0-0.8-0.2-1.5-0.6-2.1s-1-0.9-1.9-0.9c-0.5,0-0.9,0.1-1.2,0.3
			c-0.3,0.2-0.5,0.4-0.7,0.7s-0.3,0.6-0.4,1c-0.1,0.4-0.1,0.8-0.1,1.2c0,0.5,0,0.9,0.1,1.2c0,0.3,0.1,0.6,0.3,0.9
			c0.1,0.2,0.3,0.4,0.6,0.6c0.3,0.2,0.6,0.4,1.1,0.5l2.7,1.1c0.8,0.3,1.4,0.6,1.9,1s0.8,0.9,1.1,1.4c0.3,0.5,0.4,1.1,0.5,1.8
			s0.1,1.5,0.1,2.4c0,1-0.1,2-0.3,2.8c-0.2,0.9-0.5,1.6-1,2.2c-0.5,0.6-1.1,1.1-1.9,1.5c-0.8,0.4-1.7,0.5-2.8,0.5
			c-0.8,0-1.6-0.1-2.3-0.4c-0.7-0.3-1.3-0.7-1.9-1.2c-0.5-0.5-0.9-1.1-1.2-1.8c-0.3-0.7-0.5-1.5-0.5-2.3v-1.3h3.5v1.1
			c0,0.6,0.2,1.2,0.6,1.7c0.4,0.5,1,0.8,1.9,0.8c0.6,0,1-0.1,1.4-0.3c0.3-0.2,0.6-0.4,0.7-0.7c0.2-0.3,0.3-0.7,0.3-1.1
			c0-0.5,0.1-1,0.1-1.5c0-0.6,0-1.2-0.1-1.6c0-0.4-0.1-0.7-0.3-1c-0.1-0.2-0.4-0.5-0.6-0.6c-0.3-0.2-0.6-0.3-1-0.5l-2.5-1
			c-1.5-0.6-2.5-1.4-3-2.4c-0.5-1-0.8-2.3-0.8-3.8c0-0.9,0.1-1.8,0.4-2.6c0.2-0.8,0.6-1.5,1.1-2.1c0.5-0.6,1.1-1.1,1.9-1.4
			s1.6-0.5,2.6-0.5c0.9,0,1.6,0.2,2.4,0.5c0.7,0.3,1.3,0.7,1.8,1.3c0.5,0.5,0.9,1.1,1.2,1.8c0.3,0.6,0.4,1.3,0.4,2V29.8z"/>
		<path class="st7" d="M319,22.9h5.2c1,0,1.8,0.1,2.5,0.4c0.7,0.2,1.4,0.7,2,1.3c0.6,0.6,1,1.4,1.2,2.2c0.2,0.9,0.3,2,0.3,3.5
			c0,1.1-0.1,2-0.2,2.7c-0.1,0.8-0.4,1.5-0.8,2.1c-0.5,0.8-1.1,1.4-1.9,1.9c-0.8,0.4-1.8,0.7-3.1,0.7h-1.8v9.5H319V22.9z
			 M322.5,34.4h1.7c0.7,0,1.2-0.1,1.6-0.3c0.4-0.2,0.7-0.5,0.8-0.8c0.2-0.4,0.3-0.8,0.3-1.3c0-0.5,0.1-1.1,0.1-1.7
			c0-0.6,0-1.1-0.1-1.6s-0.1-1-0.3-1.3s-0.4-0.7-0.8-0.9c-0.4-0.2-0.9-0.3-1.6-0.3h-1.8V34.4z"/>
		<path class="st7" d="M332.2,22.9h3.5v10.4h4.3V22.9h3.5v24.2H340V36.3h-4.3v10.8h-3.5V22.9z"/>
		<path class="st7" d="M350.4,22.9h2.9l5.4,24.2h-3.5l-1-5.2h-4.7l-1,5.2H345L350.4,22.9z M351.9,29.8L351.9,29.8l-1.8,8.8h3.5
			L351.9,29.8z"/>
		<path class="st7" d="M371.3,29.8h-3.5v-0.8c0-0.8-0.2-1.5-0.6-2.1s-1-0.9-1.9-0.9c-0.5,0-0.9,0.1-1.2,0.3
			c-0.3,0.2-0.5,0.4-0.7,0.7s-0.3,0.6-0.4,1c-0.1,0.4-0.1,0.8-0.1,1.2c0,0.5,0,0.9,0.1,1.2c0,0.3,0.1,0.6,0.3,0.9
			c0.1,0.2,0.3,0.4,0.6,0.6c0.3,0.2,0.6,0.4,1.1,0.5l2.7,1.1c0.8,0.3,1.4,0.6,1.9,1s0.8,0.9,1.1,1.4c0.3,0.5,0.4,1.1,0.5,1.8
			s0.1,1.5,0.1,2.4c0,1-0.1,2-0.3,2.8c-0.2,0.9-0.5,1.6-1,2.2c-0.5,0.6-1.1,1.1-1.9,1.5c-0.8,0.4-1.7,0.5-2.8,0.5
			c-0.8,0-1.6-0.1-2.3-0.4c-0.7-0.3-1.3-0.7-1.9-1.2c-0.5-0.5-0.9-1.1-1.2-1.8c-0.3-0.7-0.5-1.5-0.5-2.3v-1.3h3.5v1.1
			c0,0.6,0.2,1.2,0.6,1.7c0.4,0.5,1,0.8,1.9,0.8c0.6,0,1-0.1,1.4-0.3c0.3-0.2,0.6-0.4,0.7-0.7c0.2-0.3,0.3-0.7,0.3-1.1
			c0-0.5,0.1-1,0.1-1.5c0-0.6,0-1.2-0.1-1.6c0-0.4-0.1-0.7-0.3-1c-0.1-0.2-0.4-0.5-0.6-0.6c-0.3-0.2-0.6-0.3-1-0.5l-2.5-1
			c-1.5-0.6-2.5-1.4-3-2.4c-0.5-1-0.8-2.3-0.8-3.8c0-0.9,0.1-1.8,0.4-2.6c0.2-0.8,0.6-1.5,1.1-2.1c0.5-0.6,1.1-1.1,1.9-1.4
			s1.6-0.5,2.6-0.5c0.9,0,1.6,0.2,2.4,0.5c0.7,0.3,1.3,0.7,1.8,1.3c0.5,0.5,0.9,1.1,1.2,1.8c0.3,0.6,0.4,1.3,0.4,2V29.8z"/>
		<path class="st7" d="M373.3,22.9h10.3v3.3h-6.9v7.1h6v3.3h-6v7.1h6.9v3.5h-10.3V22.9z"/>
		<path class="st7" d="M397,29.8h-3.5v-0.8c0-0.8-0.2-1.5-0.6-2.1s-1-0.9-1.9-0.9c-0.5,0-0.9,0.1-1.2,0.3c-0.3,0.2-0.5,0.4-0.7,0.7
			s-0.3,0.6-0.4,1c-0.1,0.4-0.1,0.8-0.1,1.2c0,0.5,0,0.9,0.1,1.2c0,0.3,0.1,0.6,0.3,0.9c0.1,0.2,0.3,0.4,0.6,0.6
			c0.3,0.2,0.6,0.4,1.1,0.5l2.7,1.1c0.8,0.3,1.4,0.6,1.9,1s0.8,0.9,1.1,1.4c0.3,0.5,0.4,1.1,0.5,1.8s0.1,1.5,0.1,2.4
			c0,1-0.1,2-0.3,2.8c-0.2,0.9-0.5,1.6-1,2.2c-0.5,0.6-1.1,1.1-1.9,1.5c-0.8,0.4-1.7,0.5-2.8,0.5c-0.8,0-1.6-0.1-2.3-0.4
			c-0.7-0.3-1.3-0.7-1.9-1.2c-0.5-0.5-0.9-1.1-1.2-1.8c-0.3-0.7-0.5-1.5-0.5-2.3v-1.3h3.5v1.1c0,0.6,0.2,1.2,0.6,1.7
			c0.4,0.5,1,0.8,1.9,0.8c0.6,0,1-0.1,1.4-0.3c0.3-0.2,0.6-0.4,0.7-0.7c0.2-0.3,0.3-0.7,0.3-1.1c0-0.5,0.1-1,0.1-1.5
			c0-0.6,0-1.2-0.1-1.6c0-0.4-0.1-0.7-0.3-1c-0.1-0.2-0.4-0.5-0.6-0.6c-0.3-0.2-0.6-0.3-1-0.5l-2.5-1c-1.5-0.6-2.5-1.4-3-2.4
			c-0.5-1-0.8-2.3-0.8-3.8c0-0.9,0.1-1.8,0.4-2.6c0.2-0.8,0.6-1.5,1.1-2.1c0.5-0.6,1.1-1.1,1.9-1.4s1.6-0.5,2.6-0.5
			c0.9,0,1.6,0.2,2.4,0.5c0.7,0.3,1.3,0.7,1.8,1.3c0.5,0.5,0.9,1.1,1.2,1.8c0.3,0.6,0.4,1.3,0.4,2V29.8z"/>
		<path class="st7" d="M404.9,22.9h5.1c2,0,3.5,0.5,4.5,1.6c1,1.1,1.6,2.6,1.6,4.6v11.3c0,2.3-0.5,3.9-1.6,5
			c-1.1,1.1-2.7,1.6-4.7,1.6h-4.8V22.9z M408.3,43.8h1.6c1,0,1.7-0.2,2.1-0.7c0.4-0.5,0.6-1.3,0.6-2.3V29.1c0-1-0.2-1.7-0.6-2.2
			s-1.1-0.8-2.1-0.8h-1.6V43.8z"/>
		<path class="st7" d="M418.4,22.9h10.3v3.3h-6.9v7.1h6v3.3h-6v7.1h6.9v3.5h-10.3V22.9z"/>
		<path class="st7" d="M447.3,41.7c0,0.7-0.1,1.5-0.4,2.1c-0.3,0.7-0.7,1.3-1.2,1.8c-0.5,0.5-1.1,0.9-1.8,1.2s-1.4,0.5-2.2,0.5
			c-0.7,0-1.3-0.1-2-0.3c-0.7-0.2-1.3-0.5-1.8-0.9s-1-1-1.3-1.8s-0.5-1.6-0.5-2.8V28.2c0-0.8,0.1-1.5,0.4-2.2
			c0.3-0.7,0.7-1.3,1.2-1.8c0.5-0.5,1.1-0.9,1.8-1.2c0.7-0.3,1.5-0.4,2.3-0.4c0.8,0,1.5,0.1,2.2,0.4c0.7,0.3,1.3,0.7,1.8,1.2
			c0.5,0.5,0.9,1.1,1.2,1.8s0.4,1.5,0.4,2.3v1.4h-3.5v-1.2c0-0.7-0.2-1.3-0.6-1.8c-0.4-0.5-0.9-0.7-1.6-0.7c-0.9,0-1.4,0.3-1.7,0.8
			c-0.3,0.5-0.4,1.2-0.4,2v12.4c0,0.7,0.2,1.3,0.5,1.8c0.3,0.5,0.9,0.7,1.6,0.7c0.2,0,0.5,0,0.7-0.1c0.3-0.1,0.5-0.2,0.7-0.4
			c0.2-0.2,0.4-0.4,0.5-0.7c0.1-0.3,0.2-0.7,0.2-1.2v-1.2h3.5V41.7z"/>
		<path class="st7" d="M449.3,28.6c0-1,0.2-1.8,0.5-2.6c0.3-0.7,0.8-1.4,1.3-1.9c0.6-0.5,1.2-0.9,1.9-1.1c0.7-0.2,1.4-0.4,2.1-0.4
			c0.7,0,1.4,0.1,2.1,0.4c0.7,0.2,1.3,0.6,1.9,1.1c0.6,0.5,1,1.1,1.3,1.9s0.5,1.6,0.5,2.6v12.8c0,1-0.2,1.9-0.5,2.6
			c-0.3,0.7-0.8,1.3-1.3,1.8c-0.6,0.5-1.2,0.9-1.9,1.1s-1.4,0.4-2.1,0.4c-0.7,0-1.4-0.1-2.1-0.4c-0.7-0.2-1.3-0.6-1.9-1.1
			c-0.6-0.5-1-1.1-1.3-1.8c-0.3-0.7-0.5-1.6-0.5-2.6V28.6z M452.8,41.4c0,0.8,0.2,1.5,0.7,1.9c0.5,0.4,1,0.6,1.6,0.6
			c0.6,0,1.2-0.2,1.6-0.6c0.5-0.4,0.7-1,0.7-1.9V28.6c0-0.8-0.2-1.5-0.7-1.9s-1-0.6-1.6-0.6c-0.6,0-1.2,0.2-1.6,0.6s-0.7,1-0.7,1.9
			V41.4z"/>
		<path class="st7" d="M463.1,22.9h3.3l5.2,14.6h0.1V22.9h3.5v24.2H472l-5.3-14.6h-0.1v14.6h-3.5V22.9z"/>
		<path class="st7" d="M489,29.8h-3.5v-0.8c0-0.8-0.2-1.5-0.6-2.1s-1-0.9-1.9-0.9c-0.5,0-0.9,0.1-1.2,0.3c-0.3,0.2-0.5,0.4-0.7,0.7
			s-0.3,0.6-0.4,1c-0.1,0.4-0.1,0.8-0.1,1.2c0,0.5,0,0.9,0.1,1.2c0,0.3,0.1,0.6,0.3,0.9c0.1,0.2,0.3,0.4,0.6,0.6
			c0.3,0.2,0.6,0.4,1.1,0.5l2.7,1.1c0.8,0.3,1.4,0.6,1.9,1s0.8,0.9,1.1,1.4c0.3,0.5,0.4,1.1,0.5,1.8s0.1,1.5,0.1,2.4
			c0,1-0.1,2-0.3,2.8c-0.2,0.9-0.5,1.6-1,2.2c-0.5,0.6-1.1,1.1-1.9,1.5c-0.8,0.4-1.7,0.5-2.8,0.5c-0.8,0-1.6-0.1-2.3-0.4
			c-0.7-0.3-1.3-0.7-1.9-1.2c-0.5-0.5-0.9-1.1-1.2-1.8c-0.3-0.7-0.5-1.5-0.5-2.3v-1.3h3.5v1.1c0,0.6,0.2,1.2,0.6,1.7
			c0.4,0.5,1,0.8,1.9,0.8c0.6,0,1-0.1,1.4-0.3c0.3-0.2,0.6-0.4,0.7-0.7c0.2-0.3,0.3-0.7,0.3-1.1c0-0.5,0.1-1,0.1-1.5
			c0-0.6,0-1.2-0.1-1.6c0-0.4-0.1-0.7-0.3-1c-0.1-0.2-0.4-0.5-0.6-0.6c-0.3-0.2-0.6-0.3-1-0.5l-2.5-1c-1.5-0.6-2.5-1.4-3-2.4
			c-0.5-1-0.8-2.3-0.8-3.8c0-0.9,0.1-1.8,0.4-2.6c0.2-0.8,0.6-1.5,1.1-2.1c0.5-0.6,1.1-1.1,1.9-1.4s1.6-0.5,2.6-0.5
			c0.9,0,1.6,0.2,2.4,0.5c0.7,0.3,1.3,0.7,1.8,1.3c0.5,0.5,0.9,1.1,1.2,1.8c0.3,0.6,0.4,1.3,0.4,2V29.8z"/>
		<path class="st7" d="M494.1,26.1h-4v-3.3h11.5v3.3h-4v20.9h-3.5V26.1z"/>
		<path class="st7" d="M503,22.9h5.6c4.1,0,6.1,2.4,6.1,7.1c0,1.4-0.2,2.6-0.7,3.6c-0.4,1-1.2,1.8-2.3,2.4l3.7,11h-3.7l-3.2-10.3
			h-2.1v10.3H503V22.9z M506.5,33.7h2c0.6,0,1.1-0.1,1.5-0.3c0.4-0.2,0.6-0.4,0.8-0.7c0.2-0.3,0.3-0.7,0.4-1.2
			c0.1-0.5,0.1-1,0.1-1.6s0-1.2-0.1-1.6c-0.1-0.5-0.2-0.9-0.4-1.2c-0.2-0.3-0.5-0.6-0.9-0.7c-0.4-0.2-0.9-0.2-1.5-0.2h-1.8V33.7z"/>
		<path class="st7" d="M528,41.6c0,0.8-0.1,1.5-0.4,2.2c-0.3,0.7-0.7,1.3-1.2,1.8c-0.5,0.5-1.1,0.9-1.8,1.2
			c-0.7,0.3-1.4,0.4-2.2,0.4c-0.8,0-1.5-0.1-2.2-0.4c-0.7-0.3-1.3-0.7-1.8-1.2c-0.5-0.5-0.9-1.1-1.2-1.8c-0.3-0.7-0.4-1.4-0.4-2.2
			V22.9h3.5v18.4c0,0.9,0.2,1.5,0.6,1.9s0.9,0.6,1.5,0.6c0.6,0,1.1-0.2,1.5-0.6c0.4-0.4,0.6-1,0.6-1.9V22.9h3.5V41.6z"/>
		<path class="st7" d="M541.5,41.7c0,0.7-0.1,1.5-0.4,2.1c-0.3,0.7-0.7,1.3-1.2,1.8c-0.5,0.5-1.1,0.9-1.8,1.2s-1.4,0.5-2.2,0.5
			c-0.7,0-1.3-0.1-2-0.3c-0.7-0.2-1.3-0.5-1.8-0.9s-1-1-1.3-1.8s-0.5-1.6-0.5-2.8V28.2c0-0.8,0.1-1.5,0.4-2.2
			c0.3-0.7,0.7-1.3,1.2-1.8c0.5-0.5,1.1-0.9,1.8-1.2c0.7-0.3,1.5-0.4,2.3-0.4c0.8,0,1.5,0.1,2.2,0.4c0.7,0.3,1.3,0.7,1.8,1.2
			c0.5,0.5,0.9,1.1,1.2,1.8s0.4,1.5,0.4,2.3v1.4H538v-1.2c0-0.7-0.2-1.3-0.6-1.8c-0.4-0.5-0.9-0.7-1.6-0.7c-0.9,0-1.4,0.3-1.7,0.8
			c-0.3,0.5-0.4,1.2-0.4,2v12.4c0,0.7,0.2,1.3,0.5,1.8c0.3,0.5,0.9,0.7,1.6,0.7c0.2,0,0.5,0,0.7-0.1c0.3-0.1,0.5-0.2,0.7-0.4
			c0.2-0.2,0.4-0.4,0.5-0.7c0.1-0.3,0.2-0.7,0.2-1.2v-1.2h3.5V41.7z"/>
		<path class="st7" d="M546.6,26.1h-4v-3.3h11.5v3.3h-4v20.9h-3.5V26.1z"/>
		<path class="st7" d="M555.6,22.9h3.5v24.2h-3.5V22.9z"/>
		<path class="st7" d="M561.4,28.6c0-1,0.2-1.8,0.5-2.6c0.3-0.7,0.8-1.4,1.3-1.9c0.6-0.5,1.2-0.9,1.9-1.1c0.7-0.2,1.4-0.4,2.1-0.4
			c0.7,0,1.4,0.1,2.1,0.4c0.7,0.2,1.3,0.6,1.9,1.1c0.6,0.5,1,1.1,1.3,1.9s0.5,1.6,0.5,2.6v12.8c0,1-0.2,1.9-0.5,2.6
			c-0.3,0.7-0.8,1.3-1.3,1.8c-0.6,0.5-1.2,0.9-1.9,1.1s-1.4,0.4-2.1,0.4c-0.7,0-1.4-0.1-2.1-0.4c-0.7-0.2-1.3-0.6-1.9-1.1
			c-0.6-0.5-1-1.1-1.3-1.8c-0.3-0.7-0.5-1.6-0.5-2.6V28.6z M564.9,41.4c0,0.8,0.2,1.5,0.7,1.9c0.5,0.4,1,0.6,1.6,0.6
			c0.6,0,1.2-0.2,1.6-0.6c0.5-0.4,0.7-1,0.7-1.9V28.6c0-0.8-0.2-1.5-0.7-1.9s-1-0.6-1.6-0.6c-0.6,0-1.2,0.2-1.6,0.6s-0.7,1-0.7,1.9
			V41.4z"/>
		<path class="st7" d="M575.3,22.9h3.3l5.2,14.6h0.1V22.9h3.5v24.2h-3.3l-5.3-14.6h-0.1v14.6h-3.5V22.9z"/>
	</g>
	<g>
		<g>
			<rect x="868.1" y="404.4" class="st9" width="44.9" height="29.8"/>
		</g>
	</g>
	<g>
		<g>
			<rect x="788.5" y="406.4" class="st9" width="44.9" height="27.8"/>
		</g>
	</g>
	<g>
		<g>
			<rect x="708.8" y="401" class="st9" width="44.9" height="33.2"/>
		</g>
	</g>
	<g>
		<g>
			<rect x="629.1" y="390.5" class="st9" width="44.9" height="43.7"/>
		</g>
	</g>
	<g>
		<g>
			<rect x="549.5" y="384.6" class="st9" width="44.9" height="49.6"/>
		</g>
	</g>
	<g>
		<g>
			<rect x="469.8" y="323" class="st9" width="44.9" height="111.2"/>
		</g>
	</g>
	<g>
		<g>
			<rect x="390.2" y="283.3" class="st9" width="44.9" height="150.9"/>
		</g>
	</g>
	<g>
		<g>
			<rect x="310.5" y="133.6" class="st9" width="44.9" height="300.6"/>
		</g>
	</g>
	<g>
		<g>
			<rect x="230.9" y="354.8" class="st9" width="44.9" height="79.4"/>
		</g>
	</g>
	<g>
		<g>
			<rect x="151.2" y="407.2" class="st9" width="44.9" height="26.9"/>
		</g>
	</g>
	<g>
		<g>
			<rect x="71.6" y="427" class="st9" width="44.9" height="6.6"/>
		</g>
	</g>
	<g>
		<path class="st7" d="M47.2,436.1c-1.7,0-2.9-1.2-2.9-2.9v-5c0-1.8,1.3-2.9,2.9-2.9s2.9,1.2,2.9,2.9v5
			C50.1,435,48.8,436.1,47.2,436.1z M49,428.3c0-1.2-0.7-2-1.8-2c-1.2,0-1.8,0.9-1.8,2v4.9c0,1.2,0.7,2,1.8,2c1.2,0,1.8-0.9,1.8-2
			V428.3z"/>
	</g>
	<g>
		<path class="st7" d="M36.6,397v-1l4.2-5.4c0.4-0.5,0.6-1,0.6-1.6c0-1.2-0.7-1.9-1.9-1.9c-1,0-1.9,0.6-1.9,1.9h-1.1
			c0-1.7,1.2-2.9,2.9-2.9c1.8,0,2.9,1.1,2.9,2.9c0,0.9-0.3,1.4-0.9,2.2l-3.7,4.8h4.6v1H36.6z"/>
		<path class="st7" d="M47.2,397.1c-1.7,0-2.9-1.2-2.9-2.9v-5c0-1.8,1.3-2.9,2.9-2.9s2.9,1.2,2.9,2.9v5
			C50.1,395.9,48.8,397.1,47.2,397.1z M49,389.3c0-1.2-0.7-2-1.8-2c-1.2,0-1.8,0.9-1.8,2v4.9c0,1.2,0.7,2,1.8,2c1.2,0,1.8-0.9,1.8-2
			V389.3z"/>
	</g>
	<g>
		<path class="st7" d="M78.6,465v-1l4.2-5.4c0.4-0.5,0.6-1,0.6-1.6c0-1.2-0.7-1.9-1.9-1.9c-1,0-1.9,0.6-1.9,1.9h-1.1
			c0-1.7,1.2-2.9,2.9-2.9c1.8,0,2.9,1.1,2.9,2.9c0,0.9-0.3,1.4-0.9,2.2l-3.7,4.8h4.6v1H78.6z"/>
		<path class="st7" d="M89.2,465.1c-1.7,0-2.9-1.2-2.9-2.9v-5c0-1.8,1.3-2.9,2.9-2.9s2.9,1.2,2.9,2.9v5
			C92.1,463.9,90.8,465.1,89.2,465.1z M91,457.3c0-1.2-0.7-2-1.8-2c-1.2,0-1.8,0.9-1.8,2v4.9c0,1.2,0.7,2,1.8,2c1.2,0,1.8-0.9,1.8-2
			V457.3z"/>
		<path class="st7" d="M97,465.1c-1.7,0-2.9-1.2-2.9-2.9v-5c0-1.8,1.3-2.9,2.9-2.9s2.9,1.2,2.9,2.9v5
			C99.9,463.9,98.6,465.1,97,465.1z M98.8,457.3c0-1.2-0.7-2-1.8-2c-1.2,0-1.8,0.9-1.8,2v4.9c0,1.2,0.7,2,1.8,2c1.2,0,1.8-0.9,1.8-2
			V457.3z"/>
		<path class="st7" d="M104.6,465.1c-1.7,0-3-0.9-3.1-2.8h1.1c0.1,1.3,1,1.9,2.1,1.9c1.2,0,2.1-0.8,2.1-2.1c0-1.3-0.6-2.1-2.1-2.1
			h-0.2v-0.9h0.2c1.3,0,1.9-0.7,1.9-1.9c0-1.3-0.8-1.9-1.9-1.9c-1.1,0-1.8,0.7-1.9,1.8h-1.1c0.1-1.7,1.4-2.7,3-2.7
			c1.7,0,2.9,1.2,2.9,2.9c0,1.1-0.5,1.9-1.4,2.4c1.1,0.4,1.6,1.3,1.6,2.6C107.8,464.1,106.4,465.1,104.6,465.1z"/>
	</g>
	<g>
		<path class="st10" d="M32.2,507.1v-8.7l-3.1,6.9h-1l-3.2-6.9v8.7h-1.2v-11.4h1.2l3.7,8.1l3.6-8.1h1.2v11.4H32.2z"/>
		<path class="st10" d="M41.1,506.3c-0.5,0.5-1.3,0.9-2.3,0.9c-1,0-1.7-0.4-2.3-0.9c-0.8-0.8-1-1.9-1-3.1s0.2-2.3,1-3.1
			c0.5-0.5,1.3-0.9,2.3-0.9c1,0,1.7,0.4,2.3,0.9c0.8,0.8,1,1.9,1,3.1S41.9,505.5,41.1,506.3z M40.3,500.7c-0.4-0.4-0.9-0.6-1.4-0.6
			c-0.6,0-1.1,0.2-1.4,0.6c-0.6,0.6-0.6,1.6-0.6,2.4c0,0.9,0.1,1.9,0.6,2.4c0.4,0.4,0.9,0.6,1.4,0.6c0.6,0,1.1-0.2,1.4-0.6
			c0.6-0.6,0.6-1.6,0.6-2.4C40.9,502.3,40.9,501.3,40.3,500.7z"/>
		<path class="st10" d="M48.9,507.1v-0.9c-0.6,0.8-1.4,1-2.2,1c-0.8,0-1.5-0.3-1.9-0.7c-0.8-0.8-1-2.1-1-3.3s0.2-2.5,1-3.3
			c0.4-0.4,1.1-0.7,1.9-0.7c0.9,0,1.6,0.2,2.2,1v-4.4h1.2v11.4H48.9z M47,500.1c-1.7,0-2,1.5-2,3c0,1.5,0.3,3,2,3c1.7,0,2-1.5,2-3
			C48.9,501.6,48.7,500.1,47,500.1z"/>
		<path class="st10" d="M53.3,503.4c0,1.7,0.8,2.7,2.3,2.7c0.9,0,1.4-0.3,2.1-0.9l0.8,0.7c-0.8,0.8-1.5,1.2-2.9,1.2
			c-2.1,0-3.4-1.2-3.4-4c0-2.5,1.2-4,3.2-4c2,0,3.2,1.5,3.2,3.8v0.5H53.3z M57.2,501.3c-0.3-0.7-1-1.2-1.8-1.2
			c-0.8,0-1.5,0.5-1.8,1.2c-0.2,0.4-0.2,0.7-0.2,1.3h4.2C57.4,501.9,57.4,501.7,57.2,501.3z M55.1,497.6l-1.7-2.4h1.4l1.4,2.4H55.1z
			"/>
		<path class="st10" d="M62.5,507.1c-1.4,0-2-0.9-2-2.1v-9.3h1.2v9.3c0,0.8,0.3,1.2,1.1,1.2h0.6v1H62.5z"/>
		<path class="st10" d="M65.6,503.4c0,1.7,0.8,2.7,2.3,2.7c0.9,0,1.4-0.3,2.1-0.9l0.8,0.7c-0.8,0.8-1.5,1.2-2.9,1.2
			c-2.1,0-3.4-1.2-3.4-4c0-2.5,1.2-4,3.2-4c2,0,3.2,1.5,3.2,3.8v0.5H65.6z M69.5,501.3c-0.3-0.7-1-1.2-1.8-1.2
			c-0.8,0-1.5,0.5-1.8,1.2c-0.2,0.4-0.2,0.7-0.2,1.3h4.2C69.8,501.9,69.7,501.7,69.5,501.3z"/>
		<path class="st10" d="M81.4,507.1v-0.9c-0.6,0.8-1.4,1-2.2,1c-0.8,0-1.5-0.3-1.9-0.7c-0.8-0.8-1-2.1-1-3.3s0.2-2.5,1-3.3
			c0.4-0.4,1.1-0.7,1.9-0.7c0.9,0,1.6,0.2,2.2,1v-4.4h1.2v11.4H81.4z M79.4,500.1c-1.7,0-2,1.5-2,3c0,1.5,0.3,3,2,3c1.7,0,2-1.5,2-3
			C81.4,501.6,81.2,500.1,79.4,500.1z"/>
		<path class="st10" d="M85.8,503.4c0,1.7,0.8,2.7,2.3,2.7c0.9,0,1.4-0.3,2.1-0.9l0.8,0.7c-0.8,0.8-1.5,1.2-2.9,1.2
			c-2.1,0-3.4-1.2-3.4-4c0-2.5,1.2-4,3.2-4c2,0,3.2,1.5,3.2,3.8v0.5H85.8z M89.7,501.3c-0.3-0.7-1-1.2-1.8-1.2
			c-0.8,0-1.5,0.5-1.8,1.2c-0.2,0.4-0.2,0.7-0.2,1.3h4.2C89.9,501.9,89.8,501.7,89.7,501.3z"/>
		<path class="st10" d="M101.6,507.1v-0.9c-0.6,0.8-1.4,1-2.2,1c-0.8,0-1.5-0.3-1.9-0.7c-0.8-0.8-1-2.1-1-3.3s0.2-2.5,1-3.3
			c0.4-0.4,1.1-0.7,1.9-0.7c0.9,0,1.6,0.2,2.2,1v-4.4h1.2v11.4H101.6z M99.6,500.1c-1.7,0-2,1.5-2,3c0,1.5,0.3,3,2,3
			c1.7,0,2-1.5,2-3C101.5,501.6,101.3,500.1,99.6,500.1z"/>
		<path class="st10" d="M105,497v-1.3h1.3v1.3H105z M105.1,507.1v-7.9h1.2v7.9H105.1z"/>
		<path class="st10" d="M111.2,507.2c-1.3,0-2.4-0.3-3.2-1.1l0.8-0.8c0.6,0.7,1.5,0.9,2.4,0.9c1.3,0,2.1-0.5,2.1-1.4
			c0-0.7-0.4-1.1-1.3-1.2l-1.3-0.1c-1.5-0.1-2.4-0.8-2.4-2.1c0-1.4,1.2-2.3,2.9-2.3c1.1,0,2.1,0.3,2.8,0.8l-0.8,0.8
			c-0.6-0.4-1.3-0.6-2.1-0.6c-1.2,0-1.8,0.5-1.8,1.3c0,0.7,0.4,1.1,1.4,1.2l1.3,0.1c1.4,0.1,2.3,0.7,2.3,2.1
			C114.4,506.3,113.1,507.2,111.2,507.2z"/>
		<path class="st10" d="M118.7,507.1c-1.3,0-2-0.9-2-2.1v-4.8h-1v-0.9h1v-2.5h1.2v2.5h1.7v0.9h-1.7v4.8c0,0.7,0.3,1.2,1.1,1.2h0.6v1
			H118.7z"/>
		<path class="st10" d="M125.7,500.7c-0.4-0.4-0.8-0.6-1.4-0.6c-1.2,0-1.9,0.9-1.9,2.1v4.8h-1.2v-7.9h1.2v1c0.4-0.7,1.3-1.1,2.2-1.1
			c0.8,0,1.3,0.2,1.9,0.7L125.7,500.7z"/>
		<path class="st10" d="M127.9,497v-1.3h1.3v1.3H127.9z M127.9,507.1v-7.9h1.2v7.9H127.9z"/>
		<path class="st10" d="M136.8,506.5c-0.4,0.4-1.1,0.7-1.9,0.7c-0.9,0-1.6-0.2-2.2-1v0.9h-1.2v-11.4h1.2v4.4c0.6-0.8,1.4-1,2.2-1
			c0.8,0,1.5,0.3,1.9,0.7c0.8,0.8,1,2.1,1,3.3S137.6,505.7,136.8,506.5z M134.6,500.1c-1.7,0-2,1.5-2,3c0,1.5,0.3,3,2,3s2-1.5,2-3
			C136.6,501.6,136.3,500.1,134.6,500.1z"/>
		<path class="st10" d="M144.8,507.1v-0.9c-0.6,0.6-1.3,1-2.2,1c-0.8,0-1.6-0.3-2-0.7c-0.6-0.5-0.8-1.3-0.8-2.2v-5h1.2v4.8
			c0,1.4,0.7,2.1,1.9,2.1s2-0.7,2-2.1v-4.8h1.2v7.9H144.8z"/>
		<path class="st10" d="M150.7,507.1c-1.3,0-2-0.9-2-2.1v-4.8h-1v-0.9h1v-2.5h1.2v2.5h1.7v0.9h-1.7v4.8c0,0.7,0.3,1.2,1.1,1.2h0.6v1
			H150.7z"/>
		<path class="st10" d="M153.2,497v-1.3h1.3v1.3H153.2z M153.3,507.1v-7.9h1.2v7.9H153.3z"/>
		<path class="st10" d="M161.9,506.3c-0.5,0.5-1.3,0.9-2.3,0.9c-1,0-1.7-0.4-2.3-0.9c-0.8-0.8-1-1.9-1-3.1s0.2-2.3,1-3.1
			c0.5-0.5,1.3-0.9,2.3-0.9c1,0,1.7,0.4,2.3,0.9c0.8,0.8,1,1.9,1,3.1S162.7,505.5,161.9,506.3z M161.1,500.7
			c-0.4-0.4-0.9-0.6-1.4-0.6c-0.6,0-1.1,0.2-1.4,0.6c-0.6,0.6-0.6,1.6-0.6,2.4c0,0.9,0.1,1.9,0.6,2.4c0.4,0.4,0.9,0.6,1.4,0.6
			c0.6,0,1.1-0.2,1.4-0.6c0.6-0.6,0.6-1.6,0.6-2.4C161.7,502.3,161.7,501.3,161.1,500.7z"/>
		<path class="st10" d="M170,507.1v-4.8c0-1.4-0.8-2.1-1.9-2.1s-2,0.7-2,2.1v4.8H165v-7.9h1.2v0.9c0.6-0.6,1.3-1,2.2-1
			c0.8,0,1.5,0.3,2,0.7c0.6,0.5,0.8,1.3,0.8,2.2v5H170z"/>
		<path class="st10" d="M182,507.1v-0.9c-0.6,0.8-1.4,1-2.2,1c-0.8,0-1.5-0.3-1.9-0.7c-0.8-0.8-1-2.1-1-3.3s0.2-2.5,1-3.3
			c0.4-0.4,1.1-0.7,1.9-0.7c0.9,0,1.6,0.2,2.2,1v-4.4h1.2v11.4H182z M180,500.1c-1.7,0-2,1.5-2,3c0,1.5,0.3,3,2,3c1.7,0,2-1.5,2-3
			C182,501.6,181.7,500.1,180,500.1z"/>
		<path class="st10" d="M186.3,503.4c0,1.7,0.8,2.7,2.3,2.7c0.9,0,1.4-0.3,2.1-0.9l0.8,0.7c-0.8,0.8-1.5,1.2-2.9,1.2
			c-2.1,0-3.4-1.2-3.4-4c0-2.5,1.2-4,3.2-4c2,0,3.2,1.5,3.2,3.8v0.5H186.3z M190.2,501.3c-0.3-0.7-1-1.2-1.8-1.2
			c-0.8,0-1.5,0.5-1.8,1.2c-0.2,0.4-0.2,0.7-0.2,1.3h4.2C190.4,501.9,190.4,501.7,190.2,501.3z"/>
		<path class="st10" d="M196.3,507.2c-1.3,0-2.4-0.3-3.2-1.1l0.8-0.8c0.6,0.7,1.5,0.9,2.4,0.9c1.3,0,2.1-0.5,2.1-1.4
			c0-0.7-0.4-1.1-1.3-1.2l-1.3-0.1c-1.5-0.1-2.4-0.8-2.4-2.1c0-1.4,1.2-2.3,2.9-2.3c1.1,0,2.1,0.3,2.8,0.8l-0.8,0.8
			c-0.6-0.4-1.3-0.6-2.1-0.6c-1.2,0-1.8,0.5-1.8,1.3c0,0.7,0.4,1.1,1.4,1.2l1.3,0.1c1.4,0.1,2.3,0.7,2.3,2.1
			C199.5,506.3,198.2,507.2,196.3,507.2z"/>
		<path class="st10" d="M210.4,506.5c-0.4,0.4-1.1,0.7-1.9,0.7c-0.9,0-1.6-0.2-2.2-1v4.5h-1.2v-11.4h1.2v0.9c0.6-0.8,1.4-1,2.2-1
			c0.8,0,1.5,0.3,1.9,0.7c0.8,0.8,1,2.1,1,3.3S211.2,505.7,210.4,506.5z M208.3,500.1c-1.7,0-2,1.5-2,3c0,1.5,0.3,3,2,3s2-1.5,2-3
			C210.2,501.6,210,500.1,208.3,500.1z"/>
		<path class="st10" d="M215.4,507.1c-1.4,0-2-0.9-2-2.1v-9.3h1.2v9.3c0,0.8,0.3,1.2,1.1,1.2h0.6v1H215.4z"/>
		<path class="st10" d="M222.6,507.1v-0.8c-0.6,0.6-1.2,0.8-2.3,0.8c-1.1,0-1.7-0.2-2.2-0.7c-0.4-0.4-0.6-1-0.6-1.6
			c0-1.4,1-2.3,2.7-2.3h2.4v-0.8c0-1.2-0.6-1.7-2-1.7c-1,0-1.5,0.2-2,0.9l-0.8-0.7c0.7-0.9,1.5-1.2,2.8-1.2c2.1,0,3.2,0.9,3.2,2.6
			v5.3H222.6z M222.6,503.4h-2.2c-1.2,0-1.8,0.5-1.8,1.4c0,0.9,0.6,1.3,1.8,1.3c0.7,0,1.3,0,1.8-0.5c0.3-0.3,0.4-0.7,0.4-1.4V503.4z
			"/>
		<path class="st10" d="M226,497v-1.3h1.3v1.3H226z M226.1,507.1v-7.9h1.2v7.9H226.1z"/>
		<path class="st10" d="M234.7,507.1v-4.8c0-1.4-0.8-2.1-1.9-2.1s-2,0.7-2,2.1v4.8h-1.2v-7.9h1.2v0.9c0.6-0.6,1.3-1,2.2-1
			c0.8,0,1.5,0.3,2,0.7c0.6,0.5,0.8,1.3,0.8,2.2v5H234.7z"/>
		<path class="st10" d="M240.3,507.1c-1.3,0-2-0.9-2-2.1v-4.8h-1v-0.9h1v-2.5h1.2v2.5h1.7v0.9h-1.7v4.8c0,0.7,0.3,1.2,1.1,1.2h0.6v1
			H240.3z"/>
		<path class="st10" d="M243.5,503.4c0,1.7,0.8,2.7,2.3,2.7c0.9,0,1.4-0.3,2.1-0.9l0.8,0.7c-0.8,0.8-1.5,1.2-2.9,1.2
			c-2.1,0-3.4-1.2-3.4-4c0-2.5,1.2-4,3.2-4c2,0,3.2,1.5,3.2,3.8v0.5H243.5z M247.5,501.3c-0.3-0.7-1-1.2-1.8-1.2
			c-0.8,0-1.5,0.5-1.8,1.2c-0.2,0.4-0.2,0.7-0.2,1.3h4.2C247.7,501.9,247.6,501.7,247.5,501.3z"/>
		<path class="st10" d="M253.5,507.2c-1.3,0-2.4-0.3-3.2-1.1l0.8-0.8c0.6,0.7,1.5,0.9,2.4,0.9c1.3,0,2.1-0.5,2.1-1.4
			c0-0.7-0.4-1.1-1.3-1.2l-1.3-0.1c-1.5-0.1-2.4-0.8-2.4-2.1c0-1.4,1.2-2.3,2.9-2.3c1.1,0,2.1,0.3,2.8,0.8l-0.8,0.8
			c-0.6-0.4-1.3-0.6-2.1-0.6c-1.2,0-1.8,0.5-1.8,1.3c0,0.7,0.4,1.1,1.4,1.2l1.3,0.1c1.4,0.1,2.3,0.7,2.3,2.1
			C256.7,506.3,255.4,507.2,253.5,507.2z"/>
		<path class="st10" d="M267,507.1v-0.9c-0.6,0.8-1.4,1-2.2,1c-0.8,0-1.5-0.3-1.9-0.7c-0.8-0.8-1-2.1-1-3.3s0.2-2.5,1-3.3
			c0.4-0.4,1.1-0.7,1.9-0.7c0.9,0,1.6,0.2,2.2,1v-4.4h1.2v11.4H267z M265.1,500.1c-1.7,0-2,1.5-2,3c0,1.5,0.3,3,2,3c1.7,0,2-1.5,2-3
			C267,501.6,266.8,500.1,265.1,500.1z"/>
		<path class="st10" d="M275.1,507.1v-0.8c-0.6,0.6-1.2,0.8-2.3,0.8c-1.1,0-1.7-0.2-2.2-0.7c-0.4-0.4-0.6-1-0.6-1.6
			c0-1.4,1-2.3,2.7-2.3h2.4v-0.8c0-1.2-0.6-1.7-2-1.7c-1,0-1.5,0.2-2,0.9l-0.8-0.7c0.7-0.9,1.5-1.2,2.8-1.2c2.1,0,3.2,0.9,3.2,2.6
			v5.3H275.1z M275.1,503.4h-2.2c-1.2,0-1.8,0.5-1.8,1.4c0,0.9,0.6,1.3,1.8,1.3c0.7,0,1.3,0,1.8-0.5c0.3-0.3,0.4-0.7,0.4-1.4V503.4z
			"/>
		<path class="st10" d="M283.6,507.1v-4.8c0-1.4-0.8-2.1-1.9-2.1s-2,0.7-2,2.1v4.8h-1.2v-7.9h1.2v0.9c0.6-0.6,1.3-1,2.2-1
			c0.8,0,1.5,0.3,2,0.7c0.6,0.5,0.8,1.3,0.8,2.2v5H283.6z"/>
		<path class="st10" d="M289.7,507.2c-1.3,0-2.4-0.3-3.2-1.1l0.8-0.8c0.6,0.7,1.5,0.9,2.4,0.9c1.3,0,2.1-0.5,2.1-1.4
			c0-0.7-0.4-1.1-1.3-1.2l-1.3-0.1c-1.5-0.1-2.4-0.8-2.4-2.1c0-1.4,1.2-2.3,2.9-2.3c1.1,0,2.1,0.3,2.8,0.8l-0.8,0.8
			c-0.6-0.4-1.3-0.6-2.1-0.6c-1.2,0-1.8,0.5-1.8,1.3c0,0.7,0.4,1.1,1.4,1.2l1.3,0.1c1.4,0.1,2.3,0.7,2.3,2.1
			C292.9,506.3,291.6,507.2,289.7,507.2z"/>
		<path class="st10" d="M300.5,507.1c-1.4,0-2-0.9-2-2.1v-9.3h1.2v9.3c0,0.8,0.3,1.2,1.1,1.2h0.6v1H300.5z"/>
		<path class="st10" d="M303.6,503.4c0,1.7,0.8,2.7,2.3,2.7c0.9,0,1.4-0.3,2.1-0.9l0.8,0.7c-0.8,0.8-1.5,1.2-2.9,1.2
			c-2.1,0-3.4-1.2-3.4-4c0-2.5,1.2-4,3.2-4c2,0,3.2,1.5,3.2,3.8v0.5H303.6z M307.5,501.3c-0.3-0.7-1-1.2-1.8-1.2
			c-0.8,0-1.5,0.5-1.8,1.2c-0.2,0.4-0.2,0.7-0.2,1.3h4.2C307.7,501.9,307.7,501.7,307.5,501.3z"/>
		<path class="st10" d="M317.7,507.2c-2,0-3.5-1.3-3.5-4s1.5-4,3.5-4c1.1,0,1.8,0.3,2.6,1.2l-0.8,0.7c-0.6-0.7-1.1-0.9-1.8-0.9
			c-0.8,0-1.4,0.3-1.8,0.9c-0.4,0.5-0.5,1.1-0.5,2.1s0.1,1.6,0.5,2.1c0.4,0.6,1.1,0.9,1.8,0.9c0.8,0,1.2-0.2,1.8-0.9l0.8,0.8
			C319.5,506.9,318.8,507.2,317.7,507.2z"/>
		<path class="st10" d="M326.8,507.1v-0.8c-0.6,0.6-1.2,0.8-2.3,0.8c-1.1,0-1.7-0.2-2.2-0.7c-0.4-0.4-0.6-1-0.6-1.6
			c0-1.4,1-2.3,2.7-2.3h2.4v-0.8c0-1.2-0.6-1.7-2-1.7c-1,0-1.5,0.2-2,0.9l-0.8-0.7c0.7-0.9,1.5-1.2,2.8-1.2c2.1,0,3.2,0.9,3.2,2.6
			v5.3H326.8z M326.8,503.4h-2.2c-1.2,0-1.8,0.5-1.8,1.4c0,0.9,0.6,1.3,1.8,1.3c0.7,0,1.3,0,1.8-0.5c0.3-0.3,0.4-0.7,0.4-1.4V503.4z
			"/>
		<path class="st10" d="M332.9,507.2c-1.3,0-2.4-0.3-3.2-1.1l0.8-0.8c0.6,0.7,1.5,0.9,2.4,0.9c1.3,0,2.1-0.5,2.1-1.4
			c0-0.7-0.4-1.1-1.3-1.2l-1.3-0.1c-1.5-0.1-2.4-0.8-2.4-2.1c0-1.4,1.2-2.3,2.9-2.3c1.1,0,2.1,0.3,2.8,0.8l-0.8,0.8
			c-0.6-0.4-1.3-0.6-2.1-0.6c-1.2,0-1.8,0.5-1.8,1.3c0,0.7,0.4,1.1,1.4,1.2l1.3,0.1c1.4,0.1,2.3,0.7,2.3,2.1
			C336.1,506.3,334.8,507.2,332.9,507.2z"/>
		<path class="st10" d="M346.4,507.1v-0.9c-0.6,0.8-1.4,1-2.2,1c-0.8,0-1.5-0.3-1.9-0.7c-0.8-0.8-1-2.1-1-3.3s0.2-2.5,1-3.3
			c0.4-0.4,1.1-0.7,1.9-0.7c0.9,0,1.6,0.2,2.2,1v-4.4h1.2v11.4H346.4z M344.4,500.1c-1.7,0-2,1.5-2,3c0,1.5,0.3,3,2,3
			c1.7,0,2-1.5,2-3C346.4,501.6,346.1,500.1,344.4,500.1z"/>
		<path class="st10" d="M350,498.3v-2.6h1.4v1.3L350,498.3z"/>
		<path class="st10" d="M357.9,507.1v-0.9c-0.6,0.6-1.3,1-2.2,1c-0.8,0-1.6-0.3-2-0.7c-0.6-0.5-0.8-1.3-0.8-2.2v-5h1.2v4.8
			c0,1.4,0.7,2.1,1.9,2.1s2-0.7,2-2.1v-4.8h1.2v7.9H357.9z"/>
		<path class="st10" d="M366.5,507.1v-4.8c0-1.4-0.8-2.1-1.9-2.1s-2,0.7-2,2.1v4.8h-1.2v-7.9h1.2v0.9c0.6-0.6,1.3-1,2.2-1
			c0.8,0,1.5,0.3,2,0.7c0.6,0.5,0.8,1.3,0.8,2.2v5H366.5z"/>
		<path class="st10" d="M370.8,503.4c0,1.7,0.8,2.7,2.3,2.7c0.9,0,1.4-0.3,2.1-0.9l0.8,0.7c-0.8,0.8-1.5,1.2-2.9,1.2
			c-2.1,0-3.4-1.2-3.4-4c0-2.5,1.2-4,3.2-4c2,0,3.2,1.5,3.2,3.8v0.5H370.8z M374.7,501.3c-0.3-0.7-1-1.2-1.8-1.2
			c-0.8,0-1.5,0.5-1.8,1.2c-0.2,0.4-0.2,0.7-0.2,1.3h4.2C374.9,501.9,374.9,501.7,374.7,501.3z"/>
		<path class="st10" d="M382.6,503.4c0,1.7,0.8,2.7,2.3,2.7c0.9,0,1.4-0.3,2.1-0.9l0.8,0.7c-0.8,0.8-1.5,1.2-2.9,1.2
			c-2.1,0-3.4-1.2-3.4-4c0-2.5,1.2-4,3.2-4c2,0,3.2,1.5,3.2,3.8v0.5H382.6z M386.5,501.3c-0.3-0.7-1-1.2-1.8-1.2
			c-0.8,0-1.5,0.5-1.8,1.2c-0.2,0.4-0.2,0.7-0.2,1.3h4.2C386.8,501.9,386.7,501.7,386.5,501.3z"/>
		<path class="st10" d="M395,507.1v-4.8c0-1.4-0.8-2.1-1.9-2.1s-2,0.7-2,2.1v4.8h-1.2v-7.9h1.2v0.9c0.6-0.6,1.3-1,2.2-1
			c0.8,0,1.5,0.3,2,0.7c0.6,0.5,0.8,1.3,0.8,2.2v5H395z"/>
		<path class="st10" d="M400.6,507.1c-1.3,0-2-0.9-2-2.1v-4.8h-1v-0.9h1v-2.5h1.2v2.5h1.7v0.9h-1.7v4.8c0,0.7,0.3,1.2,1.1,1.2h0.6v1
			H400.6z"/>
		<path class="st10" d="M407.7,500.7c-0.4-0.4-0.8-0.6-1.4-0.6c-1.2,0-1.9,0.9-1.9,2.1v4.8h-1.2v-7.9h1.2v1c0.4-0.7,1.3-1.1,2.2-1.1
			c0.8,0,1.3,0.2,1.9,0.7L407.7,500.7z"/>
		<path class="st10" d="M410.4,503.4c0,1.7,0.8,2.7,2.3,2.7c0.9,0,1.4-0.3,2.1-0.9l0.8,0.7c-0.8,0.8-1.5,1.2-2.9,1.2
			c-2.1,0-3.4-1.2-3.4-4c0-2.5,1.2-4,3.2-4c2,0,3.2,1.5,3.2,3.8v0.5H410.4z M414.3,501.3c-0.3-0.7-1-1.2-1.8-1.2
			c-0.8,0-1.5,0.5-1.8,1.2c-0.2,0.4-0.2,0.7-0.2,1.3h4.2C414.5,501.9,414.5,501.7,414.3,501.3z"/>
		<path class="st10" d="M423,506.5c-0.4,0.4-1.1,0.7-1.9,0.7c-0.9,0-1.6-0.2-2.2-1v4.5h-1.2v-11.4h1.2v0.9c0.6-0.8,1.4-1,2.2-1
			c0.8,0,1.5,0.3,1.9,0.7c0.8,0.8,1,2.1,1,3.3S423.8,505.7,423,506.5z M420.9,500.1c-1.7,0-2,1.5-2,3c0,1.5,0.3,3,2,3s2-1.5,2-3
			C422.8,501.6,422.6,500.1,420.9,500.1z"/>
		<path class="st10" d="M430.5,500.7c-0.4-0.4-0.8-0.6-1.4-0.6c-1.2,0-1.9,0.9-1.9,2.1v4.8h-1.2v-7.9h1.2v1c0.4-0.7,1.3-1.1,2.2-1.1
			c0.8,0,1.3,0.2,1.9,0.7L430.5,500.7z"/>
		<path class="st10" d="M432.7,497v-1.3h1.3v1.3H432.7z M432.7,507.1v-7.9h1.2v7.9H432.7z"/>
		<path class="st10" d="M438.8,507.2c-1.3,0-2.4-0.3-3.2-1.1l0.8-0.8c0.6,0.7,1.5,0.9,2.4,0.9c1.3,0,2.1-0.5,2.1-1.4
			c0-0.7-0.4-1.1-1.3-1.2l-1.3-0.1c-1.5-0.1-2.4-0.8-2.4-2.1c0-1.4,1.2-2.3,2.9-2.3c1.1,0,2.1,0.3,2.8,0.8l-0.8,0.8
			c-0.6-0.4-1.3-0.6-2.1-0.6c-1.2,0-1.8,0.5-1.8,1.3c0,0.7,0.4,1.1,1.4,1.2l1.3,0.1c1.4,0.1,2.3,0.7,2.3,2.1
			C442,506.3,440.7,507.2,438.8,507.2z"/>
		<path class="st10" d="M444.7,503.4c0,1.7,0.8,2.7,2.3,2.7c0.9,0,1.4-0.3,2.1-0.9l0.8,0.7c-0.8,0.8-1.5,1.2-2.9,1.2
			c-2.1,0-3.4-1.2-3.4-4c0-2.5,1.2-4,3.2-4c2,0,3.2,1.5,3.2,3.8v0.5H444.7z M448.7,501.3c-0.3-0.7-1-1.2-1.8-1.2
			c-0.8,0-1.5,0.5-1.8,1.2c-0.2,0.4-0.2,0.7-0.2,1.3h4.2C448.9,501.9,448.8,501.7,448.7,501.3z"/>
		<path class="st10" d="M461.1,506.5c-0.4,0.4-1.1,0.7-1.9,0.7c-0.9,0-1.6-0.2-2.2-1v4.5h-1.2v-11.4h1.2v0.9c0.6-0.8,1.4-1,2.2-1
			c0.8,0,1.5,0.3,1.9,0.7c0.8,0.8,1,2.1,1,3.3S461.9,505.7,461.1,506.5z M459,500.1c-1.7,0-2,1.5-2,3c0,1.5,0.3,3,2,3s2-1.5,2-3
			C461,501.6,460.7,500.1,459,500.1z"/>
		<path class="st10" d="M464.1,497v-1.3h1.3v1.3H464.1z M464.2,507.1v-7.9h1.2v7.9H464.2z"/>
		<path class="st10" d="M472.8,506.3c-0.5,0.5-1.3,0.9-2.3,0.9c-1,0-1.7-0.4-2.3-0.9c-0.8-0.8-1-1.9-1-3.1s0.2-2.3,1-3.1
			c0.5-0.5,1.3-0.9,2.3-0.9c1,0,1.7,0.4,2.3,0.9c0.8,0.8,1,1.9,1,3.1S473.6,505.5,472.8,506.3z M472,500.7c-0.4-0.4-0.9-0.6-1.4-0.6
			c-0.6,0-1.1,0.2-1.4,0.6c-0.6,0.6-0.6,1.6-0.6,2.4c0,0.9,0.1,1.9,0.6,2.4c0.4,0.4,0.9,0.6,1.4,0.6c0.6,0,1.1-0.2,1.4-0.6
			c0.6-0.6,0.6-1.6,0.6-2.4C472.6,502.3,472.6,501.3,472,500.7z"/>
		<path class="st10" d="M480.9,507.1v-4.8c0-1.4-0.8-2.1-1.9-2.1s-2,0.7-2,2.1v4.8h-1.2v-7.9h1.2v0.9c0.6-0.6,1.3-1,2.2-1
			c0.8,0,1.5,0.3,2,0.7c0.6,0.5,0.8,1.3,0.8,2.2v5H480.9z"/>
		<path class="st10" d="M489.4,507.1v-4.8c0-1.4-0.8-2.1-1.9-2.1s-2,0.7-2,2.1v4.8h-1.2v-7.9h1.2v0.9c0.6-0.6,1.3-1,2.2-1
			c0.8,0,1.5,0.3,2,0.7c0.6,0.5,0.8,1.3,0.8,2.2v5H489.4z"/>
		<path class="st10" d="M492.9,497v-1.3h1.3v1.3H492.9z M492.9,507.1v-7.9h1.2v7.9H492.9z"/>
		<path class="st10" d="M497.2,503.4c0,1.7,0.8,2.7,2.3,2.7c0.9,0,1.4-0.3,2.1-0.9l0.8,0.7c-0.8,0.8-1.5,1.2-2.9,1.2
			c-2.1,0-3.4-1.2-3.4-4c0-2.5,1.2-4,3.2-4c2,0,3.2,1.5,3.2,3.8v0.5H497.2z M501.2,501.3c-0.3-0.7-1-1.2-1.8-1.2
			c-0.8,0-1.5,0.5-1.8,1.2c-0.2,0.4-0.2,0.7-0.2,1.3h4.2C501.4,501.9,501.3,501.7,501.2,501.3z M499.1,497.6l-1.7-2.4h1.4l1.4,2.4
			H499.1z"/>
		<path class="st10" d="M509,500.7c-0.4-0.4-0.8-0.6-1.4-0.6c-1.2,0-1.9,0.9-1.9,2.1v4.8h-1.2v-7.9h1.2v1c0.4-0.7,1.3-1.1,2.2-1.1
			c0.8,0,1.3,0.2,1.9,0.7L509,500.7z"/>
		<path class="st10" d="M511.7,503.4c0,1.7,0.8,2.7,2.3,2.7c0.9,0,1.4-0.3,2.1-0.9l0.8,0.7c-0.8,0.8-1.5,1.2-2.9,1.2
			c-2.1,0-3.4-1.2-3.4-4c0-2.5,1.2-4,3.2-4c2,0,3.2,1.5,3.2,3.8v0.5H511.7z M515.6,501.3c-0.3-0.7-1-1.2-1.8-1.2
			c-0.8,0-1.5,0.5-1.8,1.2c-0.2,0.4-0.2,0.7-0.2,1.3h4.2C515.8,501.9,515.8,501.7,515.6,501.3z"/>
		<path class="st10" d="M527.8,507.1v-0.9c-0.6,0.6-1.3,1-2.2,1c-0.8,0-1.6-0.3-2-0.7c-0.6-0.5-0.8-1.3-0.8-2.2v-5h1.2v4.8
			c0,1.4,0.7,2.1,1.9,2.1s2-0.7,2-2.1v-4.8h1.2v7.9H527.8z"/>
		<path class="st10" d="M533.7,507.1c-1.3,0-2-0.9-2-2.1v-4.8h-1v-0.9h1v-2.5h1.2v2.5h1.7v0.9h-1.7v4.8c0,0.7,0.3,1.2,1.1,1.2h0.6v1
			H533.7z"/>
		<path class="st10" d="M536.2,497v-1.3h1.3v1.3H536.2z M536.3,507.1v-7.9h1.2v7.9H536.3z"/>
		<path class="st10" d="M541.8,507.1c-1.4,0-2-0.9-2-2.1v-9.3h1.2v9.3c0,0.8,0.3,1.2,1.1,1.2h0.6v1H541.8z"/>
		<path class="st10" d="M544.2,497v-1.3h1.3v1.3H544.2z M544.3,507.1v-7.9h1.2v7.9H544.3z"/>
		<path class="st10" d="M550.4,507.2c-1.3,0-2.4-0.3-3.2-1.1l0.8-0.8c0.6,0.7,1.5,0.9,2.4,0.9c1.3,0,2.1-0.5,2.1-1.4
			c0-0.7-0.4-1.1-1.3-1.2l-1.3-0.1c-1.5-0.1-2.4-0.8-2.4-2.1c0-1.4,1.2-2.3,2.9-2.3c1.1,0,2.1,0.3,2.8,0.8l-0.8,0.8
			c-0.6-0.4-1.3-0.6-2.1-0.6c-1.2,0-1.8,0.5-1.8,1.3c0,0.7,0.4,1.1,1.4,1.2l1.3,0.1c1.4,0.1,2.3,0.7,2.3,2.1
			C553.6,506.3,552.3,507.2,550.4,507.2z"/>
		<path class="st10" d="M560.2,507.1v-0.8c-0.6,0.6-1.2,0.8-2.3,0.8c-1.1,0-1.7-0.2-2.2-0.7c-0.4-0.4-0.6-1-0.6-1.6
			c0-1.4,1-2.3,2.7-2.3h2.4v-0.8c0-1.2-0.6-1.7-2-1.7c-1,0-1.5,0.2-2,0.9l-0.8-0.7c0.7-0.9,1.5-1.2,2.8-1.2c2.1,0,3.2,0.9,3.2,2.6
			v5.3H560.2z M560.2,503.4h-2.2c-1.2,0-1.8,0.5-1.8,1.4c0,0.9,0.6,1.3,1.8,1.3c0.7,0,1.3,0,1.8-0.5c0.3-0.3,0.4-0.7,0.4-1.4V503.4z
			"/>
		<path class="st10" d="M568.7,507.1v-4.8c0-1.4-0.8-2.1-1.9-2.1s-2,0.7-2,2.1v4.8h-1.2v-7.9h1.2v0.9c0.6-0.6,1.3-1,2.2-1
			c0.8,0,1.5,0.3,2,0.7c0.6,0.5,0.8,1.3,0.8,2.2v5H568.7z"/>
		<path class="st10" d="M574.3,507.1c-1.3,0-2-0.9-2-2.1v-4.8h-1v-0.9h1v-2.5h1.2v2.5h1.7v0.9h-1.7v4.8c0,0.7,0.3,1.2,1.1,1.2h0.6v1
			H574.3z"/>
		<path class="st10" d="M585.5,507.1v-0.9c-0.6,0.8-1.4,1-2.2,1c-0.8,0-1.5-0.3-1.9-0.7c-0.8-0.8-1-2.1-1-3.3s0.2-2.5,1-3.3
			c0.4-0.4,1.1-0.7,1.9-0.7c0.9,0,1.6,0.2,2.2,1v-4.4h1.2v11.4H585.5z M583.5,500.1c-1.7,0-2,1.5-2,3c0,1.5,0.3,3,2,3
			c1.7,0,2-1.5,2-3C585.5,501.6,585.2,500.1,583.5,500.1z"/>
		<path class="st10" d="M589.8,503.4c0,1.7,0.8,2.7,2.3,2.7c0.9,0,1.4-0.3,2.1-0.9l0.8,0.7c-0.8,0.8-1.5,1.2-2.9,1.2
			c-2.1,0-3.4-1.2-3.4-4c0-2.5,1.2-4,3.2-4c2,0,3.2,1.5,3.2,3.8v0.5H589.8z M593.7,501.3c-0.3-0.7-1-1.2-1.8-1.2
			c-0.8,0-1.5,0.5-1.8,1.2c-0.2,0.4-0.2,0.7-0.2,1.3h4.2C593.9,501.9,593.9,501.7,593.7,501.3z"/>
		<path class="st10" d="M599.8,507.2c-1.3,0-2.4-0.3-3.2-1.1l0.8-0.8c0.6,0.7,1.5,0.9,2.4,0.9c1.3,0,2.1-0.5,2.1-1.4
			c0-0.7-0.4-1.1-1.3-1.2l-1.3-0.1c-1.5-0.1-2.4-0.8-2.4-2.1c0-1.4,1.2-2.3,2.9-2.3c1.1,0,2.1,0.3,2.8,0.8l-0.8,0.8
			c-0.6-0.4-1.3-0.6-2.1-0.6c-1.2,0-1.8,0.5-1.8,1.3c0,0.7,0.4,1.1,1.4,1.2l1.3,0.1c1.4,0.1,2.3,0.7,2.3,2.1
			C603,506.3,601.7,507.2,599.8,507.2z"/>
		<path class="st10" d="M618.7,507.1v-4.8c0-1.4-0.8-2.1-1.9-2.1c-1.2,0-2,0.7-2,2v5h-1.2v-4.8c0-1.4-0.8-2.1-1.9-2.1s-2,0.7-2,2.1
			v4.8h-1.2v-7.9h1.2v0.9c0.6-0.6,1.3-1,2.2-1c1.1,0,1.9,0.4,2.4,1.3c0.6-0.9,1.5-1.3,2.6-1.3c0.8,0,1.6,0.3,2,0.7
			c0.6,0.5,0.8,1.3,0.8,2.2v5H618.7z"/>
		<path class="st10" d="M623,503.4c0,1.7,0.8,2.7,2.3,2.7c0.9,0,1.4-0.3,2.1-0.9l0.8,0.7c-0.8,0.8-1.5,1.2-2.9,1.2
			c-2.1,0-3.4-1.2-3.4-4c0-2.5,1.2-4,3.2-4c2,0,3.2,1.5,3.2,3.8v0.5H623z M626.9,501.3c-0.3-0.7-1-1.2-1.8-1.2
			c-0.8,0-1.5,0.5-1.8,1.2c-0.2,0.4-0.2,0.7-0.2,1.3h4.2C627.1,501.9,627.1,501.7,626.9,501.3z M625.4,497.6h-1.1l1.4-2.4h1.4
			L625.4,497.6z"/>
		<path class="st10" d="M633.5,507.2c-2,0-3.5-1.3-3.5-4s1.5-4,3.5-4c1.1,0,1.8,0.3,2.6,1.2l-0.8,0.7c-0.6-0.7-1.1-0.9-1.8-0.9
			c-0.8,0-1.4,0.3-1.8,0.9c-0.4,0.5-0.5,1.1-0.5,2.1s0.1,1.6,0.5,2.1c0.4,0.6,1.1,0.9,1.8,0.9c0.8,0,1.2-0.2,1.8-0.9l0.8,0.8
			C635.3,506.9,634.6,507.2,633.5,507.2z"/>
		<path class="st10" d="M642.6,507.1v-0.8c-0.6,0.6-1.2,0.8-2.3,0.8c-1.1,0-1.7-0.2-2.2-0.7c-0.4-0.4-0.6-1-0.6-1.6
			c0-1.4,1-2.3,2.7-2.3h2.4v-0.8c0-1.2-0.6-1.7-2-1.7c-1,0-1.5,0.2-2,0.9l-0.8-0.7c0.7-0.9,1.5-1.2,2.8-1.2c2.1,0,3.2,0.9,3.2,2.6
			v5.3H642.6z M642.6,503.4h-2.2c-1.2,0-1.8,0.5-1.8,1.4c0,0.9,0.6,1.3,1.8,1.3c0.7,0,1.3,0,1.8-0.5c0.3-0.3,0.4-0.7,0.4-1.4V503.4z
			"/>
		<path class="st10" d="M651.1,507.1v-4.8c0-1.4-0.8-2.1-1.9-2.1s-2,0.7-2,2.1v4.8h-1.2v-7.9h1.2v0.9c0.6-0.6,1.3-1,2.2-1
			c0.8,0,1.5,0.3,2,0.7c0.6,0.5,0.8,1.3,0.8,2.2v5H651.1z"/>
		<path class="st10" d="M654.5,497v-1.3h1.3v1.3H654.5z M654.6,507.1v-7.9h1.2v7.9H654.6z"/>
		<path class="st10" d="M660.7,507.2c-1.3,0-2.4-0.3-3.2-1.1l0.8-0.8c0.6,0.7,1.5,0.9,2.4,0.9c1.3,0,2.1-0.5,2.1-1.4
			c0-0.7-0.4-1.1-1.3-1.2l-1.3-0.1c-1.5-0.1-2.4-0.8-2.4-2.1c0-1.4,1.2-2.3,2.9-2.3c1.1,0,2.1,0.3,2.8,0.8l-0.8,0.8
			c-0.6-0.4-1.3-0.6-2.1-0.6c-1.2,0-1.8,0.5-1.8,1.3c0,0.7,0.4,1.1,1.4,1.2l1.3,0.1c1.4,0.1,2.3,0.7,2.3,2.1
			C663.9,506.3,662.6,507.2,660.7,507.2z"/>
		<path class="st10" d="M675.8,507.1v-4.8c0-1.4-0.8-2.1-1.9-2.1c-1.2,0-2,0.7-2,2v5h-1.2v-4.8c0-1.4-0.8-2.1-1.9-2.1s-2,0.7-2,2.1
			v4.8h-1.2v-7.9h1.2v0.9c0.6-0.6,1.3-1,2.2-1c1.1,0,1.9,0.4,2.4,1.3c0.6-0.9,1.5-1.3,2.6-1.3c0.8,0,1.6,0.3,2,0.7
			c0.6,0.5,0.8,1.3,0.8,2.2v5H675.8z"/>
		<path class="st10" d="M680.1,503.4c0,1.7,0.8,2.7,2.3,2.7c0.9,0,1.4-0.3,2.1-0.9l0.8,0.7c-0.8,0.8-1.5,1.2-2.9,1.2
			c-2.1,0-3.4-1.2-3.4-4c0-2.5,1.2-4,3.2-4c2,0,3.2,1.5,3.2,3.8v0.5H680.1z M684,501.3c-0.3-0.7-1-1.2-1.8-1.2
			c-0.8,0-1.5,0.5-1.8,1.2c-0.2,0.4-0.2,0.7-0.2,1.3h4.2C684.2,501.9,684.2,501.7,684,501.3z"/>
		<path class="st10" d="M690.1,507.2c-1.3,0-2.4-0.3-3.2-1.1l0.8-0.8c0.6,0.7,1.5,0.9,2.4,0.9c1.3,0,2.1-0.5,2.1-1.4
			c0-0.7-0.4-1.1-1.3-1.2l-1.3-0.1c-1.5-0.1-2.4-0.8-2.4-2.1c0-1.4,1.2-2.3,2.9-2.3c1.1,0,2.1,0.3,2.8,0.8l-0.8,0.8
			c-0.6-0.4-1.3-0.6-2.1-0.6c-1.2,0-1.8,0.5-1.8,1.3c0,0.7,0.4,1.1,1.4,1.2l1.3,0.1c1.4,0.1,2.3,0.7,2.3,2.1
			C693.3,506.3,692,507.2,690.1,507.2z"/>
		<path class="st10" d="M703.6,507.1v-0.9c-0.6,0.8-1.4,1-2.2,1c-0.8,0-1.5-0.3-1.9-0.7c-0.8-0.8-1-2.1-1-3.3s0.2-2.5,1-3.3
			c0.4-0.4,1.1-0.7,1.9-0.7c0.9,0,1.6,0.2,2.2,1v-4.4h1.2v11.4H703.6z M701.6,500.1c-1.7,0-2,1.5-2,3c0,1.5,0.3,3,2,3
			c1.7,0,2-1.5,2-3C703.6,501.6,703.3,500.1,701.6,500.1z"/>
		<path class="st10" d="M707.9,503.4c0,1.7,0.8,2.7,2.3,2.7c0.9,0,1.4-0.3,2.1-0.9l0.8,0.7c-0.8,0.8-1.5,1.2-2.9,1.2
			c-2.1,0-3.4-1.2-3.4-4c0-2.5,1.2-4,3.2-4c2,0,3.2,1.5,3.2,3.8v0.5H707.9z M711.9,501.3c-0.3-0.7-1-1.2-1.8-1.2
			c-0.8,0-1.5,0.5-1.8,1.2c-0.2,0.4-0.2,0.7-0.2,1.3h4.2C712.1,501.9,712,501.7,711.9,501.3z"/>
		<path class="st10" d="M723.4,500.7c-0.4-0.4-0.8-0.6-1.4-0.6c-1.2,0-1.9,0.9-1.9,2.1v4.8H719v-7.9h1.2v1c0.4-0.7,1.3-1.1,2.2-1.1
			c0.8,0,1.3,0.2,1.9,0.7L723.4,500.7z"/>
		<path class="st10" d="M726.2,503.4c0,1.7,0.8,2.7,2.3,2.7c0.9,0,1.4-0.3,2.1-0.9l0.8,0.7c-0.8,0.8-1.5,1.2-2.9,1.2
			c-2.1,0-3.4-1.2-3.4-4c0-2.5,1.2-4,3.2-4c2,0,3.2,1.5,3.2,3.8v0.5H726.2z M730.1,501.3c-0.3-0.7-1-1.2-1.8-1.2
			c-0.8,0-1.5,0.5-1.8,1.2c-0.2,0.4-0.2,0.7-0.2,1.3h4.2C730.3,501.9,730.3,501.7,730.1,501.3z M728,497.6l-1.7-2.4h1.4l1.4,2.4H728
			z"/>
		<path class="st10" d="M736.1,510.7c-1.2,0-1.8-0.3-2.7-1.1l0.8-0.7c0.6,0.5,1,0.8,1.9,0.8c1.5,0,2.2-1.1,2.2-2.4V506
			c-0.6,0.8-1.4,1-2.2,1c-0.8,0-1.5-0.3-1.9-0.7c-0.8-0.8-1-2-1-3.3c0-1.3,0.2-2.5,1-3.3c0.4-0.4,1.1-0.7,1.9-0.7
			c0.9,0,1.6,0.2,2.2,1v-0.9h1.1v8.1C739.4,509.3,738.2,510.7,736.1,510.7z M736.3,500.1c-1.7,0-2,1.5-2,2.9s0.3,2.9,2,2.9
			s2-1.5,2-2.9S738,500.1,736.3,500.1z"/>
		<path class="st10" d="M743.8,507.1c-1.4,0-2-0.9-2-2.1v-9.3h1.2v9.3c0,0.8,0.3,1.2,1.1,1.2h0.6v1H743.8z"/>
		<path class="st10" d="M746.9,503.4c0,1.7,0.8,2.7,2.3,2.7c0.9,0,1.4-0.3,2.1-0.9l0.8,0.7c-0.8,0.8-1.5,1.2-2.9,1.2
			c-2.1,0-3.4-1.2-3.4-4c0-2.5,1.2-4,3.2-4c2,0,3.2,1.5,3.2,3.8v0.5H746.9z M750.8,501.3c-0.3-0.7-1-1.2-1.8-1.2
			c-0.8,0-1.5,0.5-1.8,1.2c-0.2,0.4-0.2,0.7-0.2,1.3h4.2C751,501.9,751,501.7,750.8,501.3z"/>
		<path class="st10" d="M764.3,507.1v-4.8c0-1.4-0.8-2.1-1.9-2.1c-1.2,0-2,0.7-2,2v5h-1.2v-4.8c0-1.4-0.8-2.1-1.9-2.1s-2,0.7-2,2.1
			v4.8h-1.2v-7.9h1.2v0.9c0.6-0.6,1.3-1,2.2-1c1.1,0,1.9,0.4,2.4,1.3c0.6-0.9,1.5-1.3,2.6-1.3c0.8,0,1.6,0.3,2,0.7
			c0.6,0.5,0.8,1.3,0.8,2.2v5H764.3z"/>
		<path class="st10" d="M768.6,503.4c0,1.7,0.8,2.7,2.3,2.7c0.9,0,1.4-0.3,2.1-0.9l0.8,0.7c-0.8,0.8-1.5,1.2-2.9,1.2
			c-2.1,0-3.4-1.2-3.4-4c0-2.5,1.2-4,3.2-4c2,0,3.2,1.5,3.2,3.8v0.5H768.6z M772.5,501.3c-0.3-0.7-1-1.2-1.8-1.2
			c-0.8,0-1.5,0.5-1.8,1.2c-0.2,0.4-0.2,0.7-0.2,1.3h4.2C772.7,501.9,772.7,501.7,772.5,501.3z"/>
		<path class="st10" d="M781,507.1v-4.8c0-1.4-0.8-2.1-1.9-2.1s-2,0.7-2,2.1v4.8h-1.2v-7.9h1.2v0.9c0.6-0.6,1.3-1,2.2-1
			c0.8,0,1.5,0.3,2,0.7c0.6,0.5,0.8,1.3,0.8,2.2v5H781z"/>
		<path class="st10" d="M786.6,507.1c-1.3,0-2-0.9-2-2.1v-4.8h-1v-0.9h1v-2.5h1.2v2.5h1.7v0.9h-1.7v4.8c0,0.7,0.3,1.2,1.1,1.2h0.6v1
			H786.6z"/>
		<path class="st10" d="M797.8,507.1v-0.9c-0.6,0.8-1.4,1-2.2,1c-0.8,0-1.5-0.3-1.9-0.7c-0.8-0.8-1-2.1-1-3.3s0.2-2.5,1-3.3
			c0.4-0.4,1.1-0.7,1.9-0.7c0.9,0,1.6,0.2,2.2,1v-4.4h1.2v11.4H797.8z M795.8,500.1c-1.7,0-2,1.5-2,3c0,1.5,0.3,3,2,3
			c1.7,0,2-1.5,2-3C797.8,501.6,797.5,500.1,795.8,500.1z"/>
		<path class="st10" d="M802.1,503.4c0,1.7,0.8,2.7,2.3,2.7c0.9,0,1.4-0.3,2.1-0.9l0.8,0.7c-0.8,0.8-1.5,1.2-2.9,1.2
			c-2.1,0-3.4-1.2-3.4-4c0-2.5,1.2-4,3.2-4c2,0,3.2,1.5,3.2,3.8v0.5H802.1z M806,501.3c-0.3-0.7-1-1.2-1.8-1.2
			c-0.8,0-1.5,0.5-1.8,1.2c-0.2,0.4-0.2,0.7-0.2,1.3h4.2C806.2,501.9,806.2,501.7,806,501.3z"/>
		<path class="st10" d="M812.1,507.2c-1.3,0-2.4-0.3-3.2-1.1l0.8-0.8c0.6,0.7,1.5,0.9,2.4,0.9c1.3,0,2.1-0.5,2.1-1.4
			c0-0.7-0.4-1.1-1.3-1.2l-1.3-0.1c-1.5-0.1-2.4-0.8-2.4-2.1c0-1.4,1.2-2.3,2.9-2.3c1.1,0,2.1,0.3,2.8,0.8l-0.8,0.8
			c-0.6-0.4-1.3-0.6-2.1-0.6c-1.2,0-1.8,0.5-1.8,1.3c0,0.7,0.4,1.1,1.4,1.2l1.3,0.1c1.4,0.1,2.3,0.7,2.3,2.1
			C815.3,506.3,814,507.2,812.1,507.2z"/>
		<path class="st10" d="M826.2,506.5c-0.4,0.4-1.1,0.7-1.9,0.7c-0.9,0-1.6-0.2-2.2-1v4.5h-1.2v-11.4h1.2v0.9c0.6-0.8,1.4-1,2.2-1
			c0.8,0,1.5,0.3,1.9,0.7c0.8,0.8,1,2.1,1,3.3S827,505.7,826.2,506.5z M824,500.1c-1.7,0-2,1.5-2,3c0,1.5,0.3,3,2,3s2-1.5,2-3
			C826,501.6,825.7,500.1,824,500.1z"/>
		<path class="st10" d="M831.2,507.1c-1.4,0-2-0.9-2-2.1v-9.3h1.2v9.3c0,0.8,0.3,1.2,1.1,1.2h0.6v1H831.2z"/>
		<path class="st10" d="M838.4,507.1v-0.8c-0.6,0.6-1.2,0.8-2.3,0.8c-1.1,0-1.7-0.2-2.2-0.7c-0.4-0.4-0.6-1-0.6-1.6
			c0-1.4,1-2.3,2.7-2.3h2.4v-0.8c0-1.2-0.6-1.7-2-1.7c-1,0-1.5,0.2-2,0.9l-0.8-0.7c0.7-0.9,1.5-1.2,2.8-1.2c2.1,0,3.2,0.9,3.2,2.6
			v5.3H838.4z M838.4,503.4h-2.2c-1.2,0-1.8,0.5-1.8,1.4c0,0.9,0.6,1.3,1.8,1.3c0.7,0,1.3,0,1.8-0.5c0.3-0.3,0.4-0.7,0.4-1.4V503.4z
			"/>
		<path class="st10" d="M841.8,497v-1.3h1.3v1.3H841.8z M841.8,507.1v-7.9h1.2v7.9H841.8z"/>
		<path class="st10" d="M850.4,507.1v-4.8c0-1.4-0.8-2.1-1.9-2.1s-2,0.7-2,2.1v4.8h-1.2v-7.9h1.2v0.9c0.6-0.6,1.3-1,2.2-1
			c0.8,0,1.5,0.3,2,0.7c0.6,0.5,0.8,1.3,0.8,2.2v5H850.4z"/>
		<path class="st10" d="M856.1,507.1c-1.3,0-2-0.9-2-2.1v-4.8h-1v-0.9h1v-2.5h1.2v2.5h1.7v0.9h-1.7v4.8c0,0.7,0.3,1.2,1.1,1.2h0.6v1
			H856.1z"/>
		<path class="st10" d="M859.3,503.4c0,1.7,0.8,2.7,2.3,2.7c0.9,0,1.4-0.3,2.1-0.9l0.8,0.7c-0.8,0.8-1.5,1.2-2.9,1.2
			c-2.1,0-3.4-1.2-3.4-4c0-2.5,1.2-4,3.2-4c2,0,3.2,1.5,3.2,3.8v0.5H859.3z M863.2,501.3c-0.3-0.7-1-1.2-1.8-1.2
			c-0.8,0-1.5,0.5-1.8,1.2c-0.2,0.4-0.2,0.7-0.2,1.3h4.2C863.4,501.9,863.4,501.7,863.2,501.3z"/>
		<path class="st10" d="M869.3,507.2c-1.3,0-2.4-0.3-3.2-1.1l0.8-0.8c0.6,0.7,1.5,0.9,2.4,0.9c1.3,0,2.1-0.5,2.1-1.4
			c0-0.7-0.4-1.1-1.3-1.2l-1.3-0.1c-1.5-0.1-2.4-0.8-2.4-2.1c0-1.4,1.2-2.3,2.9-2.3c1.1,0,2.1,0.3,2.8,0.8l-0.8,0.8
			c-0.6-0.4-1.3-0.6-2.1-0.6c-1.2,0-1.8,0.5-1.8,1.3c0,0.7,0.4,1.1,1.4,1.2l1.3,0.1c1.4,0.1,2.3,0.7,2.3,2.1
			C872.5,506.3,871.2,507.2,869.3,507.2z"/>
		<path class="st10" d="M25,530.6c-0.5-0.5-0.9-0.8-1.2-1.4s-0.3-1.1-0.3-1.6v-8.4c0-0.6,0-1.1,0.3-1.6s0.6-0.9,1.2-1.4l0.8,0.8
			c-0.4,0.4-0.7,0.6-0.9,1c-0.2,0.3-0.3,0.8-0.3,1.3v8.2c0,0.5,0.1,1,0.3,1.3c0.2,0.4,0.5,0.7,0.9,1L25,530.6z"/>
		<path class="st10" d="M30.8,529.2c-1.7,0-2.8-0.4-3.9-1.5l0.8-0.8c0.9,0.9,1.8,1.2,3.1,1.2c1.7,0,2.7-0.8,2.7-2.1
			c0-0.6-0.2-1.1-0.5-1.4c-0.4-0.3-0.7-0.4-1.5-0.5l-1.3-0.2c-0.9-0.1-1.6-0.4-2.1-0.9c-0.6-0.5-0.9-1.2-0.9-2.1
			c0-1.9,1.4-3.2,3.6-3.2c1.5,0,2.4,0.4,3.4,1.2l-0.8,0.8c-0.7-0.6-1.5-1-2.7-1c-1.5,0-2.4,0.8-2.4,2.1c0,0.6,0.2,1,0.5,1.3
			c0.4,0.3,0.9,0.5,1.5,0.6l1.2,0.2c1.1,0.2,1.6,0.4,2.1,0.8c0.6,0.5,1,1.3,1,2.3C34.7,527.9,33.2,529.2,30.8,529.2z"/>
		<path class="st10" d="M41.4,529.1v-0.8c-0.6,0.6-1.2,0.8-2.3,0.8c-1.1,0-1.7-0.2-2.2-0.7c-0.4-0.4-0.6-1-0.6-1.6
			c0-1.4,1-2.3,2.7-2.3h2.4v-0.8c0-1.2-0.6-1.7-2-1.7c-1,0-1.5,0.2-2,0.9l-0.8-0.7c0.7-0.9,1.5-1.2,2.8-1.2c2.1,0,3.2,0.9,3.2,2.6
			v5.3H41.4z M41.4,525.4h-2.2c-1.2,0-1.8,0.5-1.8,1.4c0,0.9,0.6,1.3,1.8,1.3c0.7,0,1.3,0,1.8-0.5c0.3-0.3,0.4-0.7,0.4-1.4V525.4z"
			/>
		<path class="st10" d="M50.1,529.1l-2.5-4l-1.5,1.8v2.3h-1.2v-11.4h1.2v7.6l3.6-4.1h1.4l-2.7,3l3.1,4.9H50.1z"/>
		<path class="st10" d="M58.3,529.1v-4.9c0-1.4-0.7-2.1-1.9-2.1s-2,0.7-2,2.1v4.9h-1.2v-11.4h1.2v4.4c0.6-0.7,1.3-1,2.2-1
			c1.8,0,2.8,1.1,2.8,2.9v5.1H58.3z"/>
		<path class="st10" d="M66.3,529.1v-0.8c-0.6,0.6-1.2,0.8-2.3,0.8c-1.1,0-1.7-0.2-2.2-0.7c-0.4-0.4-0.6-1-0.6-1.6
			c0-1.4,1-2.3,2.7-2.3h2.4v-0.8c0-1.2-0.6-1.7-2-1.7c-1,0-1.5,0.2-2,0.9l-0.8-0.7c0.7-0.9,1.5-1.2,2.8-1.2c2.1,0,3.2,0.9,3.2,2.6
			v5.3H66.3z M66.3,525.4H64c-1.2,0-1.8,0.5-1.8,1.4c0,0.9,0.6,1.3,1.8,1.3c0.7,0,1.3,0,1.8-0.5c0.3-0.3,0.4-0.7,0.4-1.4V525.4z"/>
		<path class="st10" d="M71.7,529.1c-1.4,0-2-0.9-2-2.1v-9.3h1.2v9.3c0,0.8,0.3,1.2,1.1,1.2h0.6v1H71.7z"/>
		<path class="st10" d="M74.1,519v-1.3h1.3v1.3H74.1z M74.2,529.1v-7.9h1.2v7.9H74.2z"/>
		<path class="st10" d="M82.8,529.1v-4.8c0-1.4-0.8-2.1-1.9-2.1s-2,0.7-2,2.1v4.8h-1.2v-7.9h1.2v0.9c0.6-0.6,1.3-1,2.2-1
			c0.8,0,1.5,0.3,2,0.7c0.6,0.5,0.8,1.3,0.8,2.2v5H82.8z"/>
		<path class="st10" d="M90.3,529.1v-11.4h7.1v1.1h-5.9v4h5v1.1h-5v4.1h5.9v1.1H90.3z"/>
		<path class="st10" d="M104.3,529.1v-4.8c0-1.4-0.8-2.1-1.9-2.1s-2,0.7-2,2.1v4.8h-1.2v-7.9h1.2v0.9c0.6-0.6,1.3-1,2.2-1
			c0.8,0,1.5,0.3,2,0.7c0.6,0.5,0.8,1.3,0.8,2.2v5H104.3z"/>
		<path class="st10" d="M108.6,525.4c0,1.7,0.8,2.7,2.3,2.7c0.9,0,1.4-0.3,2.1-0.9l0.8,0.7c-0.8,0.8-1.5,1.2-2.9,1.2
			c-2.1,0-3.4-1.2-3.4-4c0-2.5,1.2-4,3.2-4c2,0,3.2,1.5,3.2,3.8v0.5H108.6z M112.5,523.3c-0.3-0.7-1-1.2-1.8-1.2
			c-0.8,0-1.5,0.5-1.8,1.2c-0.2,0.4-0.2,0.7-0.2,1.3h4.2C112.7,523.9,112.7,523.7,112.5,523.3z"/>
		<path class="st10" d="M120.3,522.7c-0.4-0.4-0.8-0.6-1.4-0.6c-1.2,0-1.9,0.9-1.9,2.1v4.8h-1.2v-7.9h1.2v1c0.4-0.7,1.3-1.1,2.2-1.1
			c0.8,0,1.3,0.2,1.9,0.7L120.3,522.7z"/>
		<path class="st10" d="M125,532.7c-1.2,0-1.8-0.3-2.7-1.1l0.8-0.7c0.6,0.5,1,0.8,1.9,0.8c1.5,0,2.2-1.1,2.2-2.4V528
			c-0.6,0.8-1.4,1-2.2,1c-0.8,0-1.5-0.3-1.9-0.7c-0.8-0.8-1-2-1-3.3c0-1.3,0.2-2.5,1-3.3c0.4-0.4,1.1-0.7,1.9-0.7
			c0.9,0,1.6,0.2,2.2,1v-0.9h1.1v8.1C128.3,531.3,127,532.7,125,532.7z M125.1,522.1c-1.7,0-2,1.5-2,2.9s0.3,2.9,2,2.9s2-1.5,2-2.9
			S126.9,522.1,125.1,522.1z"/>
		<path class="st10" d="M133,531c-0.2,0.4-0.3,0.7-0.6,0.9c-0.4,0.4-1,0.5-1.5,0.5h-0.5v-1h0.4c0.8,0,1-0.3,1.3-1l0.6-1.5l-2.8-7.7
			h1.2l2.2,6.3l2.1-6.3h1.2L133,531z"/>
		<path class="st10" d="M141.7,529.1v-11.4h1.2v11.4H141.7z"/>
		<path class="st10" d="M150.5,529.1v-4.8c0-1.4-0.8-2.1-1.9-2.1s-2,0.7-2,2.1v4.8h-1.2v-7.9h1.2v0.9c0.6-0.6,1.3-1,2.2-1
			c0.8,0,1.5,0.3,2,0.7c0.6,0.5,0.8,1.3,0.8,2.2v5H150.5z"/>
		<path class="st10" d="M156.7,529.1h-1l-2.9-7.9h1.2l2.1,6.3l2.2-6.3h1.2L156.7,529.1z"/>
		<path class="st10" d="M161.5,525.4c0,1.7,0.8,2.7,2.3,2.7c0.9,0,1.4-0.3,2.1-0.9l0.8,0.7c-0.8,0.8-1.5,1.2-2.9,1.2
			c-2.1,0-3.4-1.2-3.4-4c0-2.5,1.2-4,3.2-4c2,0,3.2,1.5,3.2,3.8v0.5H161.5z M165.5,523.3c-0.3-0.7-1-1.2-1.8-1.2
			c-0.8,0-1.5,0.5-1.8,1.2c-0.2,0.4-0.2,0.7-0.2,1.3h4.2C165.7,523.9,165.6,523.7,165.5,523.3z"/>
		<path class="st10" d="M171.5,529.2c-1.3,0-2.4-0.3-3.2-1.1l0.8-0.8c0.6,0.7,1.5,0.9,2.4,0.9c1.3,0,2.1-0.5,2.1-1.4
			c0-0.7-0.4-1.1-1.3-1.2l-1.3-0.1c-1.5-0.1-2.4-0.8-2.4-2.1c0-1.4,1.2-2.3,2.9-2.3c1.1,0,2.1,0.3,2.8,0.8l-0.8,0.8
			c-0.6-0.4-1.3-0.6-2.1-0.6c-1.2,0-1.8,0.5-1.8,1.3c0,0.7,0.4,1.1,1.4,1.2l1.3,0.1c1.4,0.1,2.3,0.7,2.3,2.1
			C174.7,528.3,173.4,529.2,171.5,529.2z"/>
		<path class="st10" d="M179,529.1c-1.3,0-2-0.9-2-2.1v-4.8h-1v-0.9h1v-2.5h1.2v2.5h1.7v0.9h-1.7v4.8c0,0.7,0.3,1.2,1.1,1.2h0.6v1
			H179z"/>
		<path class="st10" d="M191.7,529.1v-4.8c0-1.4-0.8-2.1-1.9-2.1c-1.2,0-2,0.7-2,2v5h-1.2v-4.8c0-1.4-0.8-2.1-1.9-2.1s-2,0.7-2,2.1
			v4.8h-1.2v-7.9h1.2v0.9c0.6-0.6,1.3-1,2.2-1c1.1,0,1.9,0.4,2.4,1.3c0.6-0.9,1.5-1.3,2.6-1.3c0.8,0,1.6,0.3,2,0.7
			c0.6,0.5,0.8,1.3,0.8,2.2v5H191.7z"/>
		<path class="st10" d="M196,525.4c0,1.7,0.8,2.7,2.3,2.7c0.9,0,1.4-0.3,2.1-0.9l0.8,0.7c-0.8,0.8-1.5,1.2-2.9,1.2
			c-2.1,0-3.4-1.2-3.4-4c0-2.5,1.2-4,3.2-4c2,0,3.2,1.5,3.2,3.8v0.5H196z M199.9,523.3c-0.3-0.7-1-1.2-1.8-1.2
			c-0.8,0-1.5,0.5-1.8,1.2c-0.2,0.4-0.2,0.7-0.2,1.3h4.2C200.1,523.9,200.1,523.7,199.9,523.3z"/>
		<path class="st10" d="M208.3,529.1v-4.8c0-1.4-0.8-2.1-1.9-2.1s-2,0.7-2,2.1v4.8h-1.2v-7.9h1.2v0.9c0.6-0.6,1.3-1,2.2-1
			c0.8,0,1.5,0.3,2,0.7c0.6,0.5,0.8,1.3,0.8,2.2v5H208.3z"/>
		<path class="st10" d="M214,529.1c-1.3,0-2-0.9-2-2.1v-4.8h-1v-0.9h1v-2.5h1.2v2.5h1.7v0.9h-1.7v4.8c0,0.7,0.3,1.2,1.1,1.2h0.6v1
			H214z"/>
		<path class="st10" d="M224.2,529.2c-1.1,0-2.1-0.4-2.9-1.2c-1.1-1.1-1.1-2.2-1.1-4.6s0-3.5,1.1-4.6c0.8-0.8,1.8-1.2,2.9-1.2
			c2,0,3.6,1.2,4,3.4h-1.2c-0.3-1.4-1.3-2.3-2.7-2.3c-0.8,0-1.5,0.3-2,0.8c-0.7,0.7-0.8,1.5-0.8,3.9s0.1,3.2,0.8,3.9
			c0.5,0.5,1.2,0.8,2,0.8c1.4,0,2.4-0.9,2.7-2.3h1.2C227.8,527.9,226.2,529.2,224.2,529.2z"/>
		<path class="st10" d="M235.4,528.3c-0.5,0.5-1.3,0.9-2.3,0.9c-1,0-1.7-0.4-2.3-0.9c-0.8-0.8-1-1.9-1-3.1s0.2-2.3,1-3.1
			c0.5-0.5,1.3-0.9,2.3-0.9c1,0,1.7,0.4,2.3,0.9c0.8,0.8,1,1.9,1,3.1S236.2,527.5,235.4,528.3z M234.6,522.7
			c-0.4-0.4-0.9-0.6-1.4-0.6c-0.6,0-1.1,0.2-1.4,0.6c-0.6,0.6-0.6,1.6-0.6,2.4c0,0.9,0.1,1.9,0.6,2.4c0.4,0.4,0.9,0.6,1.4,0.6
			c0.6,0,1.1-0.2,1.4-0.6c0.6-0.6,0.6-1.6,0.6-2.4C235.2,524.3,235.2,523.3,234.6,522.7z"/>
		<path class="st10" d="M248.6,529.1v-4.8c0-1.4-0.8-2.1-1.9-2.1c-1.2,0-2,0.7-2,2v5h-1.2v-4.8c0-1.4-0.8-2.1-1.9-2.1s-2,0.7-2,2.1
			v4.8h-1.2v-7.9h1.2v0.9c0.6-0.6,1.3-1,2.2-1c1.1,0,1.9,0.4,2.4,1.3c0.6-0.9,1.5-1.3,2.6-1.3c0.8,0,1.6,0.3,2,0.7
			c0.6,0.5,0.8,1.3,0.8,2.2v5H248.6z"/>
		<path class="st10" d="M257.4,528.5c-0.4,0.4-1.1,0.7-1.9,0.7c-0.9,0-1.6-0.2-2.2-1v4.5h-1.2v-11.4h1.2v0.9c0.6-0.8,1.4-1,2.2-1
			c0.8,0,1.5,0.3,1.9,0.7c0.8,0.8,1,2.1,1,3.3S258.2,527.7,257.4,528.5z M255.2,522.1c-1.7,0-2,1.5-2,3c0,1.5,0.3,3,2,3s2-1.5,2-3
			C257.2,523.6,256.9,522.1,255.2,522.1z"/>
		<path class="st10" d="M265,529.1v-0.8c-0.6,0.6-1.2,0.8-2.3,0.8c-1.1,0-1.7-0.2-2.2-0.7c-0.4-0.4-0.6-1-0.6-1.6
			c0-1.4,1-2.3,2.7-2.3h2.4v-0.8c0-1.2-0.6-1.7-2-1.7c-1,0-1.5,0.2-2,0.9l-0.8-0.7c0.7-0.9,1.5-1.2,2.8-1.2c2.1,0,3.2,0.9,3.2,2.6
			v5.3H265z M265,525.4h-2.2c-1.2,0-1.8,0.5-1.8,1.4c0,0.9,0.6,1.3,1.8,1.3c0.7,0,1.3,0,1.8-0.5c0.3-0.3,0.4-0.7,0.4-1.4V525.4z"/>
		<path class="st10" d="M273.5,529.1v-4.8c0-1.4-0.8-2.1-1.9-2.1s-2,0.7-2,2.1v4.8h-1.2v-7.9h1.2v0.9c0.6-0.6,1.3-1,2.2-1
			c0.8,0,1.5,0.3,2,0.7c0.6,0.5,0.8,1.3,0.8,2.2v5H273.5z"/>
		<path class="st10" d="M279,531c-0.2,0.4-0.3,0.7-0.6,0.9c-0.4,0.4-1,0.5-1.5,0.5h-0.5v-1h0.4c0.8,0,1-0.3,1.3-1l0.6-1.5l-2.8-7.7
			h1.2l2.2,6.3l2.1-6.3h1.2L279,531z"/>
		<path class="st10" d="M287.8,529.1v-11.4h1.2V528h5.8v1.1H287.8z"/>
		<path class="st10" d="M298.6,529.1c-1.3,0-2-0.9-2-2.1v-4.8h-1v-0.9h1v-2.5h1.2v2.5h1.7v0.9h-1.7v4.8c0,0.7,0.3,1.2,1.1,1.2h0.6v1
			H298.6z"/>
		<path class="st10" d="M305.9,529.1v-0.9c-0.6,0.8-1.4,1-2.2,1c-0.8,0-1.5-0.3-1.9-0.7c-0.8-0.8-1-2.1-1-3.3s0.2-2.5,1-3.3
			c0.4-0.4,1.1-0.7,1.9-0.7c0.9,0,1.6,0.2,2.2,1v-4.4h1.2v11.4H305.9z M303.9,522.1c-1.7,0-2,1.5-2,3c0,1.5,0.3,3,2,3
			c1.7,0,2-1.5,2-3C305.9,523.6,305.6,522.1,303.9,522.1z"/>
		<path class="st10" d="M309.5,531.4v-3.7h1.4v2.4L309.5,531.4z"/>
		<path class="st10" d="M323.8,529.1l-2.6-5.1h-2.7v5.1h-1.2v-11.4h4.4c2,0,3.4,1.2,3.4,3.2c0,1.7-1,2.8-2.5,3.1l2.7,5.2H323.8z
			 M321.5,518.8h-3v4.2h3c1.3,0,2.3-0.7,2.3-2.1S322.9,518.8,321.5,518.8z"/>
		<path class="st10" d="M332.1,529.1v-0.9c-0.6,0.6-1.3,1-2.2,1c-0.8,0-1.6-0.3-2-0.7c-0.6-0.5-0.8-1.3-0.8-2.2v-5h1.2v4.8
			c0,1.4,0.7,2.1,1.9,2.1s2-0.7,2-2.1v-4.8h1.2v7.9H332.1z"/>
		<path class="st10" d="M338.2,529.2c-1.3,0-2.4-0.3-3.2-1.1l0.8-0.8c0.6,0.7,1.5,0.9,2.4,0.9c1.3,0,2.1-0.5,2.1-1.4
			c0-0.7-0.4-1.1-1.3-1.2l-1.3-0.1c-1.5-0.1-2.4-0.8-2.4-2.1c0-1.4,1.2-2.3,2.9-2.3c1.1,0,2.1,0.3,2.8,0.8l-0.8,0.8
			c-0.6-0.4-1.3-0.6-2.1-0.6c-1.2,0-1.8,0.5-1.8,1.3c0,0.7,0.4,1.1,1.4,1.2l1.3,0.1c1.4,0.1,2.3,0.7,2.3,2.1
			C341.4,528.3,340.1,529.2,338.2,529.2z"/>
		<path class="st10" d="M345.9,529.2c-1.3,0-2.4-0.3-3.2-1.1l0.8-0.8c0.6,0.7,1.5,0.9,2.4,0.9c1.3,0,2.1-0.5,2.1-1.4
			c0-0.7-0.4-1.1-1.3-1.2l-1.3-0.1c-1.5-0.1-2.4-0.8-2.4-2.1c0-1.4,1.2-2.3,2.9-2.3c1.1,0,2.1,0.3,2.8,0.8l-0.8,0.8
			c-0.6-0.4-1.3-0.6-2.1-0.6c-1.2,0-1.8,0.5-1.8,1.3c0,0.7,0.4,1.1,1.4,1.2l1.3,0.1c1.4,0.1,2.3,0.7,2.3,2.1
			C349.1,528.3,347.8,529.2,345.9,529.2z"/>
		<path class="st10" d="M350.9,519v-1.3h1.3v1.3H350.9z M350.9,529.1v-7.9h1.2v7.9H350.9z"/>
		<path class="st10" d="M355.3,525.4c0,1.7,0.8,2.7,2.3,2.7c0.9,0,1.4-0.3,2.1-0.9l0.8,0.7c-0.8,0.8-1.5,1.2-2.9,1.2
			c-2.1,0-3.4-1.2-3.4-4c0-2.5,1.2-4,3.2-4c2,0,3.2,1.5,3.2,3.8v0.5H355.3z M359.2,523.3c-0.3-0.7-1-1.2-1.8-1.2
			c-0.8,0-1.5,0.5-1.8,1.2c-0.2,0.4-0.2,0.7-0.2,1.3h4.2C359.4,523.9,359.4,523.7,359.2,523.3z"/>
		<path class="st10" d="M366,529.1v-1l4.5-5.7c0.4-0.6,0.6-1.1,0.6-1.7c0-1.2-0.7-2-2-2c-1.1,0-2,0.6-2,2.1H366
			c0-1.8,1.2-3.1,3.1-3.1c1.9,0,3.1,1.2,3.1,3.1c0,0.9-0.3,1.5-0.9,2.3l-4,5.1h4.9v1H366z"/>
		<path class="st10" d="M377.3,529.2c-1.8,0-3.1-1.2-3.1-3.1v-5.3c0-1.9,1.3-3.1,3.1-3.1s3.1,1.2,3.1,3.1v5.3
			C380.4,527.9,379.1,529.2,377.3,529.2z M379.3,520.8c0-1.2-0.7-2.2-2-2.2s-2,0.9-2,2.2v5.2c0,1.2,0.7,2.2,2,2.2s2-0.9,2-2.2V520.8
			z"/>
		<path class="st10" d="M385.6,529.2c-1.8,0-3.1-1.2-3.1-3.1v-5.3c0-1.9,1.3-3.1,3.1-3.1s3.1,1.2,3.1,3.1v5.3
			C388.7,527.9,387.4,529.2,385.6,529.2z M387.6,520.8c0-1.2-0.7-2.2-2-2.2s-2,0.9-2,2.2v5.2c0,1.2,0.7,2.2,2,2.2s2-0.9,2-2.2V520.8
			z"/>
		<path class="st10" d="M393.8,529.2c-1.8,0-3.2-0.9-3.3-3h1.2c0.1,1.4,1.1,2,2.2,2c1.2,0,2.2-0.8,2.2-2.2c0-1.4-0.7-2.2-2.2-2.2
			h-0.2v-1h0.2c1.4,0,2-0.8,2-2.1c0-1.4-0.9-2.1-2-2.1c-1.2,0-1.9,0.7-2,1.9h-1.2c0.1-1.8,1.5-2.9,3.2-2.9c1.9,0,3.1,1.2,3.1,3.1
			c0,1.2-0.5,2.1-1.5,2.5c1.2,0.4,1.7,1.4,1.7,2.8C397.1,528.1,395.6,529.2,393.8,529.2z"/>
		<path class="st10" d="M399.1,525.3v-1.1h4.4v1.1H399.1z"/>
		<path class="st10" d="M408.7,529.2c-1.8,0-3.1-1.2-3.1-3.1v-5.3c0-1.9,1.3-3.1,3.1-3.1s3.1,1.2,3.1,3.1v5.3
			C411.8,527.9,410.5,529.2,408.7,529.2z M410.7,520.8c0-1.2-0.7-2.2-2-2.2s-2,0.9-2,2.2v5.2c0,1.2,0.7,2.2,2,2.2s2-0.9,2-2.2V520.8
			z"/>
		<path class="st10" d="M419.3,523.4l-2.8,5.7h-1.2l2.6-5.1c-0.4,0.2-0.8,0.2-1.2,0.2c-1.8,0-2.9-1.4-2.9-3.2c0-1.9,1.2-3.4,3.2-3.4
			s3.2,1.3,3.2,3.3C420,521.7,419.8,522.5,419.3,523.4z M416.9,518.6c-1.2,0-2,0.9-2,2.3c0,1.3,0.7,2.3,2,2.3c1.2,0,2-0.9,2-2.3
			C418.9,519.5,418.1,518.6,416.9,518.6z"/>
		<path class="st10" d="M423.3,529.2c-0.3,0.5-0.6,0.9-1.2,1.4l-0.8-0.8c0.4-0.4,0.7-0.6,0.9-1c0.2-0.3,0.2-0.8,0.2-1.3v-8.2
			c0-0.5-0.1-0.9-0.2-1.3c-0.2-0.4-0.5-0.7-0.9-1l0.8-0.8c0.5,0.5,0.9,0.8,1.2,1.4s0.3,1.1,0.3,1.6v8.4
			C423.7,528.1,423.6,528.7,423.3,529.2z"/>
	</g>
	<g>
		<path class="st7" d="M159.9,465v-1l4.2-5.4c0.4-0.5,0.6-1,0.6-1.6c0-1.2-0.7-1.9-1.9-1.9c-1,0-1.9,0.6-1.9,1.9h-1.1
			c0-1.7,1.2-2.9,2.9-2.9c1.8,0,2.9,1.1,2.9,2.9c0,0.9-0.3,1.4-0.9,2.2l-3.7,4.8h4.6v1H159.9z"/>
		<path class="st7" d="M170.5,465.1c-1.7,0-2.9-1.2-2.9-2.9v-5c0-1.8,1.3-2.9,2.9-2.9s2.9,1.2,2.9,2.9v5
			C173.4,463.9,172.2,465.1,170.5,465.1z M172.4,457.3c0-1.2-0.7-2-1.8-2c-1.2,0-1.8,0.9-1.8,2v4.9c0,1.2,0.7,2,1.8,2
			c1.2,0,1.8-0.9,1.8-2V457.3z"/>
		<path class="st7" d="M178.3,465.1c-1.7,0-2.9-1.2-2.9-2.9v-5c0-1.8,1.3-2.9,2.9-2.9s2.9,1.2,2.9,2.9v5
			C181.2,463.9,180,465.1,178.3,465.1z M180.1,457.3c0-1.2-0.7-2-1.8-2c-1.2,0-1.8,0.9-1.8,2v4.9c0,1.2,0.7,2,1.8,2
			c1.2,0,1.8-0.9,1.8-2V457.3z"/>
		<path class="st7" d="M188.1,463.3v1.7h-1.1v-1.7h-4.3v-1l3.9-8h1.2l-3.9,8h3.1v-3h1.1v3h1.3v1H188.1z"/>
	</g>
	<g>
		<path class="st7" d="M239.3,465v-1l4.2-5.4c0.4-0.5,0.6-1,0.6-1.6c0-1.2-0.7-1.9-1.9-1.9c-1,0-1.9,0.6-1.9,1.9h-1.1
			c0-1.7,1.2-2.9,2.9-2.9c1.8,0,2.9,1.1,2.9,2.9c0,0.9-0.3,1.4-0.9,2.2l-3.7,4.8h4.6v1H239.3z"/>
		<path class="st7" d="M249.8,465.1c-1.7,0-2.9-1.2-2.9-2.9v-5c0-1.8,1.3-2.9,2.9-2.9s2.9,1.2,2.9,2.9v5
			C252.8,463.9,251.5,465.1,249.8,465.1z M251.7,457.3c0-1.2-0.7-2-1.8-2c-1.2,0-1.8,0.9-1.8,2v4.9c0,1.2,0.7,2,1.8,2
			c1.2,0,1.8-0.9,1.8-2V457.3z"/>
		<path class="st7" d="M257.6,465.1c-1.7,0-2.9-1.2-2.9-2.9v-5c0-1.8,1.3-2.9,2.9-2.9s2.9,1.2,2.9,2.9v5
			C260.5,463.9,259.3,465.1,257.6,465.1z M259.5,457.3c0-1.2-0.7-2-1.8-2c-1.2,0-1.8,0.9-1.8,2v4.9c0,1.2,0.7,2,1.8,2
			c1.2,0,1.8-0.9,1.8-2V457.3z"/>
		<path class="st7" d="M267.4,464.3c-0.5,0.5-1.2,0.8-2.1,0.8c-0.9,0-1.7-0.3-2.1-0.8c-0.5-0.5-0.7-1.1-0.8-1.9h1.1
			c0.1,1.1,0.7,1.7,1.8,1.7c0.5,0,1-0.2,1.3-0.5c0.6-0.6,0.6-1.4,0.6-2.2c0-1.3-0.3-2.6-1.8-2.6c-0.9,0-1.6,0.4-1.8,1.1h-1v-5.6h5.4
			v1h-4.4v3.4c0.4-0.5,1.1-0.7,1.9-0.7c0.8,0,1.4,0.3,1.8,0.7c0.8,0.8,0.9,1.9,0.9,2.9C268.3,462.6,268.2,463.6,267.4,464.3z"/>
	</g>
	<g>
		<path class="st7" d="M320.6,465v-1l4.2-5.4c0.4-0.5,0.6-1,0.6-1.6c0-1.2-0.7-1.9-1.9-1.9c-1,0-1.9,0.6-1.9,1.9h-1.1
			c0-1.7,1.2-2.9,2.9-2.9c1.8,0,2.9,1.1,2.9,2.9c0,0.9-0.3,1.4-0.9,2.2l-3.7,4.8h4.6v1H320.6z"/>
		<path class="st7" d="M331.2,465.1c-1.7,0-2.9-1.2-2.9-2.9v-5c0-1.8,1.3-2.9,2.9-2.9s2.9,1.2,2.9,2.9v5
			C334.1,463.9,332.8,465.1,331.2,465.1z M333,457.3c0-1.2-0.7-2-1.8-2c-1.2,0-1.8,0.9-1.8,2v4.9c0,1.2,0.7,2,1.8,2
			c1.2,0,1.8-0.9,1.8-2V457.3z"/>
		<path class="st7" d="M339,465.1c-1.7,0-2.9-1.2-2.9-2.9v-5c0-1.8,1.3-2.9,2.9-2.9s2.9,1.2,2.9,2.9v5
			C341.9,463.9,340.6,465.1,339,465.1z M340.8,457.3c0-1.2-0.7-2-1.8-2c-1.2,0-1.8,0.9-1.8,2v4.9c0,1.2,0.7,2,1.8,2
			c1.2,0,1.8-0.9,1.8-2V457.3z"/>
		<path class="st7" d="M346.6,465.1c-1.8,0-3-1.2-3-3.1c0-0.8,0.2-1.5,0.7-2.4l2.6-5.3h1.1l-2.4,4.8c0.3-0.1,0.7-0.2,1.1-0.2
			c1.7,0,2.8,1.3,2.8,3C349.6,463.8,348.5,465.1,346.6,465.1z M346.6,459.8c-1.1,0-1.9,0.8-1.9,2.2c0,1.3,0.7,2.2,1.9,2.2
			s1.9-0.9,1.9-2.2C348.5,460.8,347.9,459.8,346.6,459.8z"/>
	</g>
	<g>
		<path class="st7" d="M395.6,465v-1l4.2-5.4c0.4-0.5,0.6-1,0.6-1.6c0-1.2-0.7-1.9-1.9-1.9c-1,0-1.9,0.6-1.9,1.9h-1.1
			c0-1.7,1.2-2.9,2.9-2.9c1.8,0,2.9,1.1,2.9,2.9c0,0.9-0.3,1.4-0.9,2.2l-3.7,4.8h4.6v1H395.6z"/>
		<path class="st7" d="M406.2,465.1c-1.7,0-2.9-1.2-2.9-2.9v-5c0-1.8,1.3-2.9,2.9-2.9s2.9,1.2,2.9,2.9v5
			C409.1,463.9,407.8,465.1,406.2,465.1z M408,457.3c0-1.2-0.7-2-1.8-2c-1.2,0-1.8,0.9-1.8,2v4.9c0,1.2,0.7,2,1.8,2
			c1.2,0,1.8-0.9,1.8-2V457.3z"/>
		<path class="st7" d="M414,465.1c-1.7,0-2.9-1.2-2.9-2.9v-5c0-1.8,1.3-2.9,2.9-2.9s2.9,1.2,2.9,2.9v5
			C416.9,463.9,415.6,465.1,414,465.1z M415.8,457.3c0-1.2-0.7-2-1.8-2c-1.2,0-1.8,0.9-1.8,2v4.9c0,1.2,0.7,2,1.8,2
			c1.2,0,1.8-0.9,1.8-2V457.3z"/>
		<path class="st7" d="M421,465h-1.1l3.7-9.7h-3.7v1.7h-1.1v-2.6h5.9v1L421,465z"/>
	</g>
	<g>
		<path class="st7" d="M476.9,465v-1l4.2-5.4c0.4-0.5,0.6-1,0.6-1.6c0-1.2-0.7-1.9-1.9-1.9c-1,0-1.9,0.6-1.9,1.9h-1.1
			c0-1.7,1.2-2.9,2.9-2.9c1.8,0,2.9,1.1,2.9,2.9c0,0.9-0.3,1.4-0.9,2.2l-3.7,4.8h4.6v1H476.9z"/>
		<path class="st7" d="M487.5,465.1c-1.7,0-2.9-1.2-2.9-2.9v-5c0-1.8,1.3-2.9,2.9-2.9s2.9,1.2,2.9,2.9v5
			C490.4,463.9,489.2,465.1,487.5,465.1z M489.4,457.3c0-1.2-0.7-2-1.8-2c-1.2,0-1.8,0.9-1.8,2v4.9c0,1.2,0.7,2,1.8,2
			c1.2,0,1.8-0.9,1.8-2V457.3z"/>
		<path class="st7" d="M495.3,465.1c-1.7,0-2.9-1.2-2.9-2.9v-5c0-1.8,1.3-2.9,2.9-2.9s2.9,1.2,2.9,2.9v5
			C498.2,463.9,497,465.1,495.3,465.1z M497.1,457.3c0-1.2-0.7-2-1.8-2c-1.2,0-1.8,0.9-1.8,2v4.9c0,1.2,0.7,2,1.8,2
			c1.2,0,1.8-0.9,1.8-2V457.3z"/>
		<path class="st7" d="M503.1,465.1c-1.8,0-3.2-1.2-3.2-3c0-1.2,0.7-2.1,1.6-2.6c-0.8-0.5-1.4-1.3-1.4-2.4c0-1.7,1.2-2.9,2.9-2.9
			c1.7,0,2.9,1.2,2.9,2.9c0,1.1-0.5,1.9-1.4,2.4c0.9,0.5,1.6,1.4,1.6,2.6C506.2,463.9,504.8,465.1,503.1,465.1z M503.1,460
			c-1.2,0-2.1,0.9-2.1,2.1c0,1.2,0.9,2.1,2.1,2.1s2.1-0.9,2.1-2.1C505.1,460.9,504.2,460,503.1,460z M503.1,455.2
			c-1.1,0-1.9,0.8-1.9,1.9c0,1.1,0.8,1.9,1.9,1.9s1.9-0.8,1.9-1.9C504.9,456,504.1,455.2,503.1,455.2z"/>
	</g>
	<g>
		<path class="st7" d="M554.7,465v-1l4.2-5.4c0.4-0.5,0.6-1,0.6-1.6c0-1.2-0.7-1.9-1.9-1.9c-1,0-1.9,0.6-1.9,1.9h-1.1
			c0-1.7,1.2-2.9,2.9-2.9c1.8,0,2.9,1.1,2.9,2.9c0,0.9-0.3,1.4-0.9,2.2l-3.7,4.8h4.6v1H554.7z"/>
		<path class="st7" d="M565.3,465.1c-1.7,0-2.9-1.2-2.9-2.9v-5c0-1.8,1.3-2.9,2.9-2.9s2.9,1.2,2.9,2.9v5
			C568.2,463.9,567,465.1,565.3,465.1z M567.1,457.3c0-1.2-0.7-2-1.8-2c-1.2,0-1.8,0.9-1.8,2v4.9c0,1.2,0.7,2,1.8,2
			c1.2,0,1.8-0.9,1.8-2V457.3z"/>
		<path class="st7" d="M573.1,465.1c-1.7,0-2.9-1.2-2.9-2.9v-5c0-1.8,1.3-2.9,2.9-2.9s2.9,1.2,2.9,2.9v5
			C576,463.9,574.7,465.1,573.1,465.1z M574.9,457.3c0-1.2-0.7-2-1.8-2c-1.2,0-1.8,0.9-1.8,2v4.9c0,1.2,0.7,2,1.8,2
			c1.2,0,1.8-0.9,1.8-2V457.3z"/>
		<path class="st7" d="M583,459.7l-2.6,5.3h-1.1l2.4-4.8c-0.3,0.2-0.7,0.2-1.1,0.2c-1.7,0-2.8-1.3-2.8-3c0-1.8,1.1-3.2,3-3.2
			c1.8,0,3,1.2,3,3.1C583.7,458.1,583.5,458.8,583,459.7z M580.7,455.2c-1.1,0-1.9,0.9-1.9,2.2c0,1.2,0.6,2.2,1.9,2.2
			c1.1,0,1.9-0.8,1.9-2.2C582.6,456.1,581.9,455.2,580.7,455.2z"/>
	</g>
	<g>
		<path class="st7" d="M636.1,465v-1l4.2-5.4c0.4-0.5,0.6-1,0.6-1.6c0-1.2-0.7-1.9-1.9-1.9c-1,0-1.9,0.6-1.9,1.9h-1.1
			c0-1.7,1.2-2.9,2.9-2.9c1.8,0,2.9,1.1,2.9,2.9c0,0.9-0.3,1.4-0.9,2.2l-3.7,4.8h4.6v1H636.1z"/>
		<path class="st7" d="M646.6,465.1c-1.7,0-2.9-1.2-2.9-2.9v-5c0-1.8,1.3-2.9,2.9-2.9s2.9,1.2,2.9,2.9v5
			C649.6,463.9,648.3,465.1,646.6,465.1z M648.5,457.3c0-1.2-0.7-2-1.8-2c-1.2,0-1.8,0.9-1.8,2v4.9c0,1.2,0.7,2,1.8,2
			c1.2,0,1.8-0.9,1.8-2V457.3z"/>
		<path class="st7" d="M653.8,465v-9.5l-2,1.8v-1.2l2-1.7h1.1V465H653.8z"/>
		<path class="st7" d="M660.7,465.1c-1.7,0-2.9-1.2-2.9-2.9v-5c0-1.8,1.3-2.9,2.9-2.9s2.9,1.2,2.9,2.9v5
			C663.6,463.9,662.4,465.1,660.7,465.1z M662.6,457.3c0-1.2-0.7-2-1.8-2c-1.2,0-1.8,0.9-1.8,2v4.9c0,1.2,0.7,2,1.8,2
			c1.2,0,1.8-0.9,1.8-2V457.3z"/>
	</g>
	<g>
		<path class="st7" d="M714,465v-1l4.2-5.4c0.4-0.5,0.6-1,0.6-1.6c0-1.2-0.7-1.9-1.9-1.9c-1,0-1.9,0.6-1.9,1.9H714
			c0-1.7,1.2-2.9,2.9-2.9c1.8,0,2.9,1.1,2.9,2.9c0,0.9-0.3,1.4-0.9,2.2l-3.7,4.8h4.6v1H714z"/>
		<path class="st7" d="M724.6,465.1c-1.7,0-2.9-1.2-2.9-2.9v-5c0-1.8,1.3-2.9,2.9-2.9s2.9,1.2,2.9,2.9v5
			C727.5,463.9,726.3,465.1,724.6,465.1z M726.5,457.3c0-1.2-0.7-2-1.8-2c-1.2,0-1.8,0.9-1.8,2v4.9c0,1.2,0.7,2,1.8,2
			c1.2,0,1.8-0.9,1.8-2V457.3z"/>
		<path class="st7" d="M731.8,465v-9.5l-2,1.8v-1.2l2-1.7h1.1V465H731.8z"/>
		<path class="st7" d="M738,465v-9.5l-2,1.8v-1.2l2-1.7h1.1V465H738z"/>
	</g>
	<g>
		<path class="st7" d="M795.4,465v-1l4.2-5.4c0.4-0.5,0.6-1,0.6-1.6c0-1.2-0.7-1.9-1.9-1.9c-1,0-1.9,0.6-1.9,1.9h-1.1
			c0-1.7,1.2-2.9,2.9-2.9c1.8,0,2.9,1.1,2.9,2.9c0,0.9-0.3,1.4-0.9,2.2l-3.7,4.8h4.6v1H795.4z"/>
		<path class="st7" d="M805.9,465.1c-1.7,0-2.9-1.2-2.9-2.9v-5c0-1.8,1.3-2.9,2.9-2.9c1.7,0,2.9,1.2,2.9,2.9v5
			C808.9,463.9,807.6,465.1,805.9,465.1z M807.8,457.3c0-1.2-0.7-2-1.8-2c-1.2,0-1.8,0.9-1.8,2v4.9c0,1.2,0.7,2,1.8,2
			c1.2,0,1.8-0.9,1.8-2V457.3z"/>
		<path class="st7" d="M813.1,465v-9.5l-2,1.8v-1.2l2-1.7h1.1V465H813.1z"/>
		<path class="st7" d="M816.9,465v-1l4.2-5.4c0.4-0.5,0.6-1,0.6-1.6c0-1.2-0.7-1.9-1.9-1.9c-1,0-1.9,0.6-1.9,1.9h-1.1
			c0-1.7,1.2-2.9,2.9-2.9c1.8,0,2.9,1.1,2.9,2.9c0,0.9-0.3,1.4-0.9,2.2l-3.7,4.8h4.6v1H816.9z"/>
	</g>
	<g>
		<path class="st7" d="M874,465v-1l4.2-5.4c0.4-0.5,0.6-1,0.6-1.6c0-1.2-0.7-1.9-1.9-1.9c-1,0-1.9,0.6-1.9,1.9H874
			c0-1.7,1.2-2.9,2.9-2.9c1.8,0,2.9,1.1,2.9,2.9c0,0.9-0.3,1.4-0.9,2.2l-3.7,4.8h4.6v1H874z"/>
		<path class="st7" d="M884.6,465.1c-1.7,0-2.9-1.2-2.9-2.9v-5c0-1.8,1.3-2.9,2.9-2.9s2.9,1.2,2.9,2.9v5
			C887.5,463.9,886.3,465.1,884.6,465.1z M886.5,457.3c0-1.2-0.7-2-1.8-2c-1.2,0-1.8,0.9-1.8,2v4.9c0,1.2,0.7,2,1.8,2
			c1.2,0,1.8-0.9,1.8-2V457.3z"/>
		<path class="st7" d="M891.8,465v-9.5l-2,1.8v-1.2l2-1.7h1.1V465H891.8z"/>
		<path class="st7" d="M898.5,465.1c-1.7,0-3-0.9-3.1-2.8h1.1c0.1,1.3,1,1.9,2.1,1.9c1.2,0,2.1-0.8,2.1-2.1c0-1.3-0.6-2.1-2.1-2.1
			h-0.2v-0.9h0.2c1.3,0,1.9-0.7,1.9-1.9c0-1.3-0.8-1.9-1.9-1.9c-1.1,0-1.8,0.7-1.9,1.8h-1.1c0.1-1.7,1.4-2.7,3-2.7
			c1.7,0,2.9,1.2,2.9,2.9c0,1.1-0.5,1.9-1.4,2.4c1.1,0.4,1.6,1.3,1.6,2.6C901.7,464.1,900.3,465.1,898.5,465.1z"/>
	</g>
	<g>
		<path class="st7" d="M41.3,355.9v1.7h-1.1v-1.7H36v-1l3.9-8H41l-3.9,8h3.1v-3h1.1v3h1.3v1H41.3z"/>
		<path class="st7" d="M47.2,357.7c-1.7,0-2.9-1.2-2.9-2.9v-5c0-1.8,1.3-2.9,2.9-2.9s2.9,1.2,2.9,2.9v5
			C50.1,356.5,48.8,357.7,47.2,357.7z M49,349.8c0-1.2-0.7-2-1.8-2c-1.2,0-1.8,0.9-1.8,2v4.9c0,1.2,0.7,2,1.8,2c1.2,0,1.8-0.9,1.8-2
			V349.8z"/>
	</g>
	<g>
		<path class="st7" d="M39.5,318.7c-1.8,0-3-1.2-3-3.1c0-0.8,0.2-1.5,0.7-2.4l2.6-5.3H41l-2.4,4.8c0.3-0.1,0.7-0.2,1.1-0.2
			c1.7,0,2.8,1.3,2.8,3C42.5,317.3,41.3,318.7,39.5,318.7z M39.5,313.4c-1.1,0-1.9,0.8-1.9,2.2c0,1.3,0.7,2.2,1.9,2.2
			s1.9-0.9,1.9-2.2C41.4,314.4,40.7,313.4,39.5,313.4z"/>
		<path class="st7" d="M47.2,318.7c-1.7,0-2.9-1.2-2.9-2.9v-5c0-1.8,1.3-2.9,2.9-2.9s2.9,1.2,2.9,2.9v5
			C50.1,317.5,48.8,318.7,47.2,318.7z M49,310.8c0-1.2-0.7-2-1.8-2c-1.2,0-1.8,0.9-1.8,2v4.9c0,1.2,0.7,2,1.8,2c1.2,0,1.8-0.9,1.8-2
			V310.8z"/>
	</g>
	<g>
		<path class="st7" d="M39.4,279.4c-1.8,0-3.2-1.2-3.2-3c0-1.2,0.7-2.1,1.6-2.6c-0.8-0.5-1.4-1.3-1.4-2.4c0-1.7,1.2-2.9,2.9-2.9
			c1.7,0,2.9,1.2,2.9,2.9c0,1.1-0.5,1.9-1.4,2.4c0.9,0.5,1.6,1.4,1.6,2.6C42.6,278.1,41.2,279.4,39.4,279.4z M39.4,274.2
			c-1.2,0-2.1,0.9-2.1,2.1c0,1.2,0.9,2.1,2.1,2.1s2.1-0.9,2.1-2.1C41.5,275.1,40.6,274.2,39.4,274.2z M39.4,269.5
			c-1.1,0-1.9,0.8-1.9,1.9c0,1.1,0.8,1.9,1.9,1.9s1.9-0.8,1.9-1.9C41.3,270.3,40.5,269.5,39.4,269.5z"/>
		<path class="st7" d="M47.2,279.4c-1.7,0-2.9-1.2-2.9-2.9v-5c0-1.8,1.3-2.9,2.9-2.9s2.9,1.2,2.9,2.9v5
			C50.1,278.2,48.8,279.4,47.2,279.4z M49,271.5c0-1.2-0.7-2-1.8-2c-1.2,0-1.8,0.9-1.8,2v4.9c0,1.2,0.7,2,1.8,2c1.2,0,1.8-0.9,1.8-2
			V271.5z"/>
	</g>
	<g>
		<path class="st7" d="M32.5,240.3v-9.5l-2,1.8v-1.2l2-1.7h1.1v10.7H32.5z"/>
		<path class="st7" d="M39.4,240.3c-1.7,0-2.9-1.2-2.9-2.9v-5c0-1.8,1.3-2.9,2.9-2.9s2.9,1.2,2.9,2.9v5
			C42.3,239.2,41.1,240.3,39.4,240.3z M41.2,232.5c0-1.2-0.7-2-1.8-2c-1.2,0-1.8,0.9-1.8,2v4.9c0,1.2,0.7,2,1.8,2
			c1.2,0,1.8-0.9,1.8-2V232.5z"/>
		<path class="st7" d="M47.2,240.3c-1.7,0-2.9-1.2-2.9-2.9v-5c0-1.8,1.3-2.9,2.9-2.9s2.9,1.2,2.9,2.9v5
			C50.1,239.2,48.8,240.3,47.2,240.3z M49,232.5c0-1.2-0.7-2-1.8-2c-1.2,0-1.8,0.9-1.8,2v4.9c0,1.2,0.7,2,1.8,2c1.2,0,1.8-0.9,1.8-2
			V232.5z"/>
	</g>
	<g>
		<path class="st7" d="M32.8,200.8v-9.5l-2,1.8v-1.2l2-1.7h1.1v10.7H32.8z"/>
		<path class="st7" d="M36.6,200.8v-1l4.2-5.4c0.4-0.5,0.6-1,0.6-1.6c0-1.2-0.7-1.9-1.9-1.9c-1,0-1.9,0.6-1.9,1.9h-1.1
			c0-1.7,1.2-2.9,2.9-2.9c1.8,0,2.9,1.1,2.9,2.9c0,0.9-0.3,1.4-0.9,2.2l-3.7,4.8h4.6v1H36.6z"/>
		<path class="st7" d="M47.2,200.9c-1.7,0-2.9-1.2-2.9-2.9v-5c0-1.8,1.3-2.9,2.9-2.9s2.9,1.2,2.9,2.9v5
			C50.1,199.8,48.8,200.9,47.2,200.9z M49,193.1c0-1.2-0.7-2-1.8-2c-1.2,0-1.8,0.9-1.8,2v4.9c0,1.2,0.7,2,1.8,2c1.2,0,1.8-0.9,1.8-2
			V193.1z"/>
	</g>
	<g>
		<path class="st7" d="M32.4,161.8v-9.5l-2,1.8v-1.2l2-1.7h1.1v10.7H32.4z"/>
		<path class="st7" d="M41.3,160.1v1.7h-1.1v-1.7H36v-1l3.9-8H41l-3.9,8h3.1v-3h1.1v3h1.3v1H41.3z"/>
		<path class="st7" d="M47.2,161.9c-1.7,0-2.9-1.2-2.9-2.9v-5c0-1.8,1.3-2.9,2.9-2.9s2.9,1.2,2.9,2.9v5
			C50.1,160.7,48.8,161.9,47.2,161.9z M49,154c0-1.2-0.7-2-1.8-2c-1.2,0-1.8,0.9-1.8,2v4.9c0,1.2,0.7,2,1.8,2c1.2,0,1.8-0.9,1.8-2
			V154z"/>
	</g>
	<g>
		<path class="st7" d="M32.7,121.8v-9.5l-2,1.8v-1.2l2-1.7h1.1v10.7H32.7z"/>
		<path class="st7" d="M39.5,121.9c-1.8,0-3-1.2-3-3.1c0-0.8,0.2-1.5,0.7-2.4l2.6-5.3H41l-2.4,4.8c0.3-0.1,0.7-0.2,1.1-0.2
			c1.7,0,2.8,1.3,2.8,3C42.5,120.6,41.3,121.9,39.5,121.9z M39.5,116.6c-1.1,0-1.9,0.8-1.9,2.2c0,1.3,0.7,2.2,1.9,2.2
			s1.9-0.9,1.9-2.2C41.4,117.6,40.7,116.6,39.5,116.6z"/>
		<path class="st7" d="M47.2,121.9c-1.7,0-2.9-1.2-2.9-2.9v-5c0-1.8,1.3-2.9,2.9-2.9s2.9,1.2,2.9,2.9v5
			C50.1,120.8,48.8,121.9,47.2,121.9z M49,114.1c0-1.2-0.7-2-1.8-2c-1.2,0-1.8,0.9-1.8,2v4.9c0,1.2,0.7,2,1.8,2c1.2,0,1.8-0.9,1.8-2
			V114.1z"/>
	</g>
	<g>
		<path class="st7" d="M32.5,82.8v-9.5l-2,1.8v-1.2l2-1.7h1.1v10.7H32.5z"/>
		<path class="st7" d="M39.4,82.9c-1.8,0-3.2-1.2-3.2-3c0-1.2,0.7-2.1,1.6-2.6c-0.8-0.5-1.4-1.3-1.4-2.4c0-1.7,1.2-2.9,2.9-2.9
			c1.7,0,2.9,1.2,2.9,2.9c0,1.1-0.5,1.9-1.4,2.4c0.9,0.5,1.6,1.4,1.6,2.6C42.6,81.7,41.2,82.9,39.4,82.9z M39.4,77.8
			c-1.2,0-2.1,0.9-2.1,2.1c0,1.2,0.9,2.1,2.1,2.1s2.1-0.9,2.1-2.1C41.5,78.7,40.6,77.8,39.4,77.8z M39.4,73c-1.1,0-1.9,0.8-1.9,1.9
			c0,1.1,0.8,1.9,1.9,1.9s1.9-0.8,1.9-1.9C41.3,73.8,40.5,73,39.4,73z"/>
		<path class="st7" d="M47.2,82.9c-1.7,0-2.9-1.2-2.9-2.9v-5c0-1.8,1.3-2.9,2.9-2.9s2.9,1.2,2.9,2.9v5
			C50.1,81.7,48.8,82.9,47.2,82.9z M49,75c0-1.2-0.7-2-1.8-2c-1.2,0-1.8,0.9-1.8,2v4.9c0,1.2,0.7,2,1.8,2c1.2,0,1.8-0.9,1.8-2V75z"
			/>
	</g>
	<g>
		<path class="st1" d="M515,187.2c-1.5,0-2.8-0.5-3.7-1.5c-1.4-1.4-1.4-3-1.4-5.7c0-2.7,0-4.3,1.4-5.7c1-1,2.3-1.5,3.7-1.5
			c2.6,0,4.6,1.5,5.1,4.4h-2.2c-0.3-1.4-1.3-2.4-2.9-2.4c-0.8,0-1.6,0.3-2.1,0.9c-0.7,0.8-0.9,1.6-0.9,4.4c0,2.9,0.2,3.7,0.9,4.4
			c0.5,0.5,1.3,0.9,2.1,0.9c1.6,0,2.6-1,2.9-2.4h2.2C519.6,185.6,517.6,187.2,515,187.2z"/>
		<path class="st1" d="M529.2,186c-0.7,0.7-1.7,1.2-3,1.2c-1.4,0-2.4-0.5-3-1.2c-1-1-1.2-2.3-1.2-4c0-1.7,0.2-3,1.2-4
			c0.7-0.7,1.6-1.2,3-1.2c1.4,0,2.4,0.5,3,1.2c1,1,1.2,2.3,1.2,4C530.4,183.7,530.2,185,529.2,186z M527.7,179.2
			c-0.4-0.4-0.9-0.6-1.5-0.6c-0.6,0-1.1,0.2-1.5,0.6c-0.6,0.6-0.7,1.7-0.7,2.8s0.1,2.2,0.7,2.8c0.4,0.4,0.9,0.6,1.5,0.6
			c0.6,0,1.1-0.2,1.5-0.6c0.6-0.6,0.7-1.7,0.7-2.8S528.3,179.8,527.7,179.2z"/>
		<path class="st1" d="M538.8,187v-6.2c0-1.6-0.9-2.3-2-2.3c-1.1,0-2.1,0.7-2.1,2.3v6.2h-2v-10.1h2v1c0.7-0.8,1.7-1.1,2.7-1.1
			c1,0,1.9,0.3,2.5,0.9c0.8,0.8,1,1.7,1,2.9v6.5H538.8z"/>
		<path class="st1" d="M546.9,187.2c-1.7,0-3.1-0.3-4.3-1.5l1.3-1.3c0.8,0.8,1.9,1.1,2.9,1.1c1.2,0,2.2-0.4,2.2-1.4
			c0-0.7-0.4-1.1-1.4-1.2l-1.6-0.1c-1.9-0.2-3-1-3-2.8c0-2,1.7-3.1,3.8-3.1c1.5,0,2.8,0.3,3.8,1.1l-1.3,1.3
			c-0.6-0.5-1.5-0.7-2.5-0.7c-1.2,0-1.8,0.5-1.8,1.3c0,0.6,0.3,1.1,1.4,1.2l1.6,0.1c1.9,0.2,3,1.1,3,2.9
			C551.1,186.1,549.3,187.2,546.9,187.2z"/>
		<path class="st1" d="M556.3,187c-1.9,0-2.8-1.4-2.8-2.8v-5.6h-1.2v-1.6h1.2V174h2v3.1h2v1.6h-2v5.5c0,0.7,0.4,1.2,1.1,1.2h0.8v1.7
			H556.3z"/>
		<path class="st1" d="M565.1,179.3c-0.5-0.5-0.8-0.7-1.5-0.7c-1.1,0-2,0.9-2,2.3v6.2h-2v-10.1h2v1.1c0.5-0.7,1.6-1.2,2.7-1.2
			c1,0,1.7,0.3,2.4,1L565.1,179.3z"/>
		<path class="st1" d="M574.3,187v-1c-0.7,0.8-1.7,1.1-2.7,1.1c-1,0-1.9-0.3-2.5-0.9c-0.8-0.8-1-1.7-1-2.9v-6.5h2v6.2
			c0,1.6,0.9,2.3,2,2.3c1.1,0,2.1-0.7,2.1-2.3v-6.2h2V187H574.3z"/>
		<path class="st1" d="M583,187.2c-2.3,0-4.5-1.4-4.5-5.2s2.2-5.2,4.5-5.2c1.4,0,2.4,0.4,3.3,1.4l-1.4,1.4c-0.6-0.7-1.1-1-1.9-1
			c-0.8,0-1.4,0.3-1.9,0.9c-0.4,0.6-0.6,1.3-0.6,2.5s0.2,1.9,0.6,2.5c0.4,0.6,1.1,0.9,1.9,0.9c0.8,0,1.3-0.3,1.9-1l1.4,1.3
			C585.4,186.7,584.4,187.2,583,187.2z"/>
		<path class="st1" d="M591.7,187c-1.9,0-2.8-1.4-2.8-2.8v-5.6h-1.2v-1.6h1.2V174h2v3.1h2v1.6h-2v5.5c0,0.7,0.4,1.2,1.1,1.2h0.8v1.7
			H591.7z"/>
		<path class="st1" d="M594.8,174.9v-2.2h2.2v2.2H594.8z M594.9,187v-10.1h2V187H594.9z"/>
		<path class="st1" d="M606.4,186c-0.7,0.7-1.7,1.2-3,1.2c-1.4,0-2.4-0.5-3-1.2c-1-1-1.2-2.3-1.2-4c0-1.7,0.2-3,1.2-4
			c0.7-0.7,1.6-1.2,3-1.2c1.4,0,2.4,0.5,3,1.2c1,1,1.2,2.3,1.2,4C607.6,183.7,607.4,185,606.4,186z M604.9,179.2
			c-0.4-0.4-0.9-0.6-1.5-0.6c-0.6,0-1.1,0.2-1.5,0.6c-0.6,0.6-0.7,1.7-0.7,2.8s0.1,2.2,0.7,2.8c0.4,0.4,0.9,0.6,1.5,0.6
			c0.6,0,1.1-0.2,1.5-0.6c0.6-0.6,0.7-1.7,0.7-2.8S605.5,179.8,604.9,179.2z"/>
		<path class="st1" d="M616,187v-6.2c0-1.6-0.9-2.3-2-2.3c-1.1,0-2.1,0.7-2.1,2.3v6.2h-2v-10.1h2v1c0.7-0.8,1.7-1.1,2.7-1.1
			c1,0,1.9,0.3,2.5,0.9c0.8,0.8,1,1.7,1,2.9v6.5H616z"/>
	</g>
	<g>
		<g>
			<path class="st11" d="M71.6,400.4c0,0,155.6-32.3,170.8-69.8c15.2-37.5,45.6-145.5,51.7-178.5c6.1-33,35-75.6,50.2-69.3
				c15.2,6.3,15.2,21.3,38,61.8c22.8,40.5,79.5,99,95.3,109.5c15.7,10.5,70.5,61.5,93.3,75c22.8,13.5,66.9,30,124.7,36
				c57.8,6,48.7,12.9,85.2,15.5c28.2,2,92,4.5,119.4,5.5"/>
			<g>
				<polygon class="st12" points="897.1,394.9 913,386.5 897.8,376.9 				"/>
			</g>
		</g>
	</g>
	<g>
		<g>
			<line class="st13" x1="254.3" y1="180" x2="491.3" y2="180"/>
			<g>
				<rect x="253.3" y="173.5" class="st1" width="2" height="13"/>
			</g>
			<g>
				<rect x="490.3" y="173.5" class="st1" width="2" height="13"/>
			</g>
		</g>
	</g>
</g>
<g id="Text_Reference-_do_not_print" class="st21">
	<g class="st22">
		<line class="st8" x1="63.4" y1="82.2" x2="922" y2="82.2"/>
		<line class="st8" x1="63.4" y1="122.4" x2="922" y2="122.4"/>
		<line class="st8" x1="63.4" y1="162.7" x2="922" y2="162.7"/>
		<line class="st8" x1="63.4" y1="203" x2="922" y2="203"/>
		<line class="st8" x1="63.4" y1="238.7" x2="922" y2="238.7"/>
		<line class="st8" x1="63.4" y1="279" x2="922" y2="279"/>
		<line class="st8" x1="63.4" y1="319.2" x2="922" y2="319.2"/>
		<line class="st8" x1="63.4" y1="359.5" x2="922" y2="359.5"/>
		<line class="st8" x1="63.4" y1="394.3" x2="922" y2="394.3"/>
		<line class="st8" x1="63.4" y1="434.5" x2="922" y2="434.5"/>
	</g>
	<text transform="matrix(1 0 0 1 31.8893 47.0796)" class="st26 st27 st28">PLAINTES EN FONCTION DES PHASES DE CONSTRUCTION</text>
	<g class="st22">
		<g>
			<rect x="868.1" y="404.4" class="st9" width="44.9" height="29.8"/>
		</g>
	</g>
	<g class="st22">
		<g>
			<rect x="788.5" y="406.4" class="st9" width="44.9" height="27.8"/>
		</g>
	</g>
	<g class="st22">
		<g>
			<rect x="708.8" y="401" class="st9" width="44.9" height="33.2"/>
		</g>
	</g>
	<g class="st22">
		<g>
			<rect x="629.1" y="390.5" class="st9" width="44.9" height="43.7"/>
		</g>
	</g>
	<g class="st22">
		<g>
			<rect x="549.5" y="384.6" class="st9" width="44.9" height="49.6"/>
		</g>
	</g>
	<g class="st22">
		<g>
			<rect x="469.8" y="323" class="st9" width="44.9" height="111.2"/>
		</g>
	</g>
	<g class="st22">
		<g>
			<rect x="390.2" y="283.3" class="st9" width="44.9" height="150.9"/>
		</g>
	</g>
	<g class="st22">
		<g>
			<rect x="310.5" y="133.6" class="st9" width="44.9" height="300.6"/>
		</g>
	</g>
	<g class="st22">
		<g>
			<rect x="230.9" y="354.8" class="st9" width="44.9" height="79.4"/>
		</g>
	</g>
	<g class="st22">
		<g>
			<rect x="151.2" y="407.2" class="st9" width="44.9" height="26.9"/>
		</g>
	</g>
	<g class="st22">
		<g>
			<rect x="71.6" y="427" class="st9" width="44.9" height="6.6"/>
		</g>
	</g>
	<text transform="matrix(1 0 0 1 43.2608 436.0593)" class="st26 st31 st32">0</text>
	<text transform="matrix(1 0 0 1 35.5718 397.0284)" class="st26 st31 st32">20</text>
	<text transform="matrix(1 0 0 1 77.5718 465.0284)" class="st26 st31 st32">2003</text>
	<text transform="matrix(1 0 0 1 21.9995 507.0707)" class="st22"><tspan x="0" y="0" class="st10 st31 st33">Modle de distribution des plaintes dans le cas dune entreprise pionnire utilisant des mcanismes de rglement des plaintes </tspan><tspan x="0" y="22" class="st10 st31 st33">(Sakhalin Energy Investment Company Ltd, Russie 2003-09)</tspan></text>
	<text transform="matrix(1 0 0 1 158.9051 465.0284)" class="st26 st31 st32">2004</text>
	<text transform="matrix(1 0 0 1 238.2385 465.0284)" class="st26 st31 st32">2005</text>
	<text transform="matrix(1 0 0 1 319.5718 465.0284)" class="st26 st31 st32">2006</text>
	<text transform="matrix(1 0 0 1 394.5694 465.0284)" class="st26 st31 st32">2007</text>
	<text transform="matrix(1 0 0 1 475.9028 465.0284)" class="st26 st31 st32">2008</text>
	<text transform="matrix(1 0 0 1 553.6981 465.0284)" class="st26 st31 st32">2009</text>
	<text transform="matrix(1 0 0 1 635.0315 465.0284)" class="st26 st31 st32">2010</text>
	<text transform="matrix(1 0 0 1 713.0001 465.0284)" class="st26 st31 st32">2011</text>
	<text transform="matrix(1 0 0 1 794.3335 465.0284)" class="st26 st31 st32">2012</text>
	<text transform="matrix(1 0 0 1 873.0002 465.0284)" class="st26 st31 st32">2013</text>
	<text transform="matrix(1 0 0 1 35.4122 357.6104)" class="st26 st31 st32">40</text>
	<text transform="matrix(1 0 0 1 35.5786 318.5793)" class="st26 st31 st32">60</text>
	<text transform="matrix(1 0 0 1 35.4942 279.2892)" class="st26 st31 st32">80</text>
	<text transform="matrix(1 0 0 1 28.606 240.2582)" class="st26 st31 st32">100</text>
	<text transform="matrix(1 0 0 1 28.8897 200.8402)" class="st26 st31 st32">120</text>
	<text transform="matrix(1 0 0 1 28.52 161.8092)" class="st26 st31 st32">140</text>
	<text transform="matrix(1 0 0 1 28.8758 121.8394)" class="st26 st31 st32">160</text>
	<text transform="matrix(1 0 0 1 28.6598 82.8083)" class="st26 st31 st32">180</text>
	<text transform="matrix(1 0 0 1 508.5622 187.0405)" class="st24 st34 st35">Construction</text>
	<g class="st22">
		<g>
			<path class="st11" d="M71.6,400.4c0,0,155.6-32.3,170.8-69.8c15.2-37.5,45.6-145.5,51.7-178.5c6.1-33,35-75.6,50.2-69.3
				c15.2,6.3,15.2,21.3,38,61.8c22.8,40.5,79.5,99,95.3,109.5c15.7,10.5,70.5,61.5,93.3,75c22.8,13.5,66.9,30,124.7,36
				c57.8,6,48.7,12.9,85.2,15.5c28.2,2,92,4.5,119.4,5.5"/>
			<g>
				<polygon class="st12" points="897.1,394.9 913,386.5 897.8,376.9 				"/>
			</g>
		</g>
	</g>
	<g class="st22">
		<g>
			<line class="st13" x1="254.3" y1="180" x2="491.3" y2="180"/>
			<g>
				<rect x="253.3" y="173.5" class="st1" width="2" height="13"/>
			</g>
			<g>
				<rect x="490.3" y="173.5" class="st1" width="2" height="13"/>
			</g>
		</g>
	</g>
</g>
</svg>
