<svg id="Layer_1" data-name="Layer 1" xmlns="http://www.w3.org/2000/svg" xmlns:xlink="http://www.w3.org/1999/xlink" viewBox="0 0 940 190"><defs><style>.cls-1{fill:none;}.cls-2,.cls-3{fill:#fff;}.cls-2{opacity:0.2;}.cls-4{clip-path:url(#clip-path);}.cls-5{fill:url(#linear-gradient);}.cls-6{clip-path:url(#clip-path-2);}.cls-7{fill:url(#linear-gradient-2);}</style><clipPath id="clip-path"><path class="cls-1" d="M267,39.35c-26.05,8.19-37.47,9.88-55.07,19.91C175,80.3,178,125.14,178,125.14s13.25-19.54,34.17-31.25c14.94-8.36,42.22-18.12,60.43-33.24C289,47,299.47,20.08,299.7,19.49h0c-.25.32-10.26,12.81-32.72,19.87"/></clipPath><linearGradient id="linear-gradient" x1="627.86" y1="266.65" x2="631.37" y2="266.65" gradientTransform="matrix(39.01, 0, 0, -39.01, -24320.44, 10473.85)" gradientUnits="userSpaceOnUse"><stop offset="0" stop-color="#f0b653"/><stop offset="0.02" stop-color="#e9b652"/><stop offset="0.18" stop-color="#bdb34d"/><stop offset="0.35" stop-color="#99b148"/><stop offset="0.51" stop-color="#7daf45"/><stop offset="0.67" stop-color="#69ae42"/><stop offset="0.84" stop-color="#5dad41"/><stop offset="1" stop-color="#59ad40"/></linearGradient><clipPath id="clip-path-2"><path class="cls-1" d="M266.1,71.25c-11.45,8.09-35.35,19.18-44.08,23-18.37,7.92-31.4,24.23-37.11,32.73a129.51,129.51,0,0,0-17.55,39.24s1.11,4.17,4.61,4.33c-.26-3.21-1-21.19,13.27-34,10.66-9.6,41.08-3,74-25.89,26.25-18.26,29.1-61,29.17-62h0c-.17.29-7,11.87-22.31,22.69"/></clipPath><linearGradient id="linear-gradient-2" x1="627.72" y1="266.04" x2="631.23" y2="266.04" gradientTransform="matrix(38.87, -6.4, -6.25, -38.74, -22576.65, 14443.87)" xlink:href="#linear-gradient"/></defs><title>Full-white</title><path class="cls-2" d="M331.36,180.68H327V178h4.32Zm0-7.88H327v-4.32h4.32Zm0-9.5H327V159h4.32Zm0-9.5H327v-4.32h4.32Zm0-9.5H327V140h4.32Zm0-9.5H327v-4.32h4.32Zm0-9.5H327V121h4.32Zm0-9.5H327v-4.32h4.32Zm0-9.5H327V102h4.32Zm0-9.5H327V92.49h4.32Zm0-9.5H327V83h4.32Zm0-9.5H327V73.5h4.32Zm0-9.5H327V64h4.32Zm0-9.5H327V54.5h4.32Zm0-9.5H327V45h4.32Zm0-9.5H327V35.5h4.32Zm0-9.5H327V26h4.32Zm0-9.5H327V16.5h4.32Zm0-9.5H327V7h4.32Z"/><path class="cls-3" d="M154.45,106.25,159.56,120a16.3,16.3,0,0,1,1.44,5.62c0,1.57-2.88,3.26-4.58,4.44v2.36c3.92,0,7.85-.52,11.77-.52s7.84.52,11.77.52v-2.36c-6.28-2.36-8.1-4.7-10.33-11L141.25,39.59H139l-31.64,79.49c-2.36,5.75-3.27,8.89-9.81,11v2.36c4.05,0,7.45-.52,10.86-.52s6.67.52,9.94.52v-2.36c-3.27-1.18-5.64-2.87-5.64-5.23a22,22,0,0,1,.92-7.06l4.19-11.51Zm-17.13-48L149,90.56l.67,1.84,3.07,8.5H119.93Z"/><path class="cls-3" d="M185.68,85c0-23.93,10.33-43,34.78-43S255.23,61,255.23,85s-10.34,43-34.78,43-34.78-19.09-34.78-43m-12.42,0c0,26.8,20,47.2,47.2,47.2s47.2-20.39,47.2-47.2-20-47.22-47.2-47.22-47.2,20.4-47.2,47.22"/><path class="cls-3" d="M90.82,129.41A111.52,111.52,0,0,1,63,133.08c-31.26,0-52-19.09-52-47.22S31.71,38.67,63,38.67c11.76,0,24.19,4.71,26.81,4.71.52,0,1.18-.52,1.83-.66l1.44,14H90.69C86.11,46.66,72.77,42.87,63,42.87c-23.41,0-39.62,15.42-39.62,43,0,19.75,17.77,43,39.62,43,15.56,0,24.44-3.94,30.72-13.61l1.7.93Z"/><path class="cls-3" d="M19.41,144.27a1.26,1.26,0,0,0-1.26-1.14c-1.12,0-1.48,1.08-1.48,2.13s.37,2.14,1.48,2.14c.8,0,1.12-.57,1.26-1.29h2.37a3.34,3.34,0,0,1-3.57,3.23,4.08,4.08,0,0,1,0-8.15,3.19,3.19,0,0,1,3.52,3.09Z"/><path class="cls-3" d="M27.9,141.18A4.08,4.08,0,1,1,24,145.26a3.83,3.83,0,0,1,3.95-4.08m0,6.22c.61,0,1.55-.4,1.55-2.13s-.94-2.14-1.55-2.14-1.54.4-1.54,2.14.93,2.13,1.54,2.13"/><polygon class="cls-3" points="34.26 141.36 37.68 141.36 38.79 145.94 38.81 145.94 39.92 141.36 43.34 141.36 43.34 149.16 41.06 149.16 41.06 144.16 41.05 144.16 39.69 149.16 37.9 149.16 36.55 144.16 36.52 144.16 36.52 149.16 34.26 149.16 34.26 141.36"/><path class="cls-3" d="M46,141.36h4A2.64,2.64,0,0,1,52.84,144c0,1.88-1.27,2.77-3.05,2.77H48.37v2.37H46Zm2.39,3.58h.94c.62,0,1.27,0,1.27-.84s-.54-.75-1.13-.75H48.37Z"/><polygon class="cls-3" points="55.06 141.36 57.47 141.36 57.47 147.15 60.91 147.15 60.91 149.16 55.06 149.16 55.06 141.36"/><rect class="cls-3" x="63.34" y="141.36" width="2.41" height="7.8"/><path class="cls-3" d="M70.55,141.36h2.34l2.84,7.8H73.24L72.91,148H70.44l-.35,1.12H67.68Zm1.88,5-.7-2.4h0l-.76,2.4Z"/><polygon class="cls-3" points="77.69 141.36 80.13 141.36 82.4 145.53 82.43 145.53 82.43 141.36 84.69 141.36 84.69 149.16 82.37 149.16 79.97 144.9 79.95 144.9 79.95 149.16 77.69 149.16 77.69 141.36"/><path class="cls-3" d="M92.26,144.27A1.26,1.26,0,0,0,91,143.12c-1.12,0-1.48,1.08-1.48,2.13s.36,2.14,1.48,2.14c.8,0,1.12-.57,1.27-1.29h2.36a3.34,3.34,0,0,1-3.56,3.23,4.08,4.08,0,0,1,0-8.15,3.19,3.19,0,0,1,3.52,3.09Z"/><polygon class="cls-3" points="97.05 141.36 103.48 141.36 103.48 143.36 99.44 143.36 99.44 144.33 103.11 144.33 103.11 146.18 99.44 146.18 99.44 147.15 103.6 147.15 103.6 149.16 97.05 149.16 97.05 141.36"/><path class="cls-3" d="M113.35,141.36h2.34l2.83,7.8H116l-.32-1.12h-2.48l-.35,1.12h-2.4Zm1.89,5-.71-2.4h0l-.75,2.4Z"/><path class="cls-3" d="M120.47,141.37h3.93c2.59,0,3.51,1.91,3.51,3.88,0,2.39-1.26,3.91-4,3.91h-3.46Zm2.39,5.79h.95c1.48,0,1.71-1.22,1.71-1.95a1.72,1.72,0,0,0-1.88-1.85h-.77Z"/><polygon class="cls-3" points="134.56 149.16 131.88 149.16 129.55 141.36 131.97 141.36 133.25 146.08 133.28 146.08 134.52 141.36 137 141.36 134.56 149.16"/><rect class="cls-3" x="138.85" y="141.36" width="2.4" height="7.8"/><path class="cls-3" d="M145.8,146.54a1.35,1.35,0,0,0,.08.5,1.11,1.11,0,0,0,1.14.57c.4,0,1-.13,1-.71,0-.41-.34-.52-1.68-.89s-2.64-.69-2.64-2.27c0-1.8,1.54-2.57,3.14-2.57s3.18.64,3.25,2.54h-2.28a.57.57,0,0,0-.27-.61,1.24,1.24,0,0,0-.71-.2c-.33,0-.86.09-.86.53s1.15.67,2.26,1,2.18.81,2.18,2.24c0,2-1.86,2.68-3.59,2.68-.89,0-3.41-.31-3.43-2.79Z"/><path class="cls-3" d="M156.29,141.18a4.08,4.08,0,1,1-4,4.08,3.84,3.84,0,0,1,4-4.08m0,6.22c.61,0,1.55-.4,1.55-2.13s-.93-2.14-1.55-2.14-1.54.4-1.54,2.14.93,2.13,1.54,2.13"/><path class="cls-3" d="M162.67,141.36h4.56a2.27,2.27,0,0,1,2.54,2.23,2,2,0,0,1-1.17,1.95,2.14,2.14,0,0,1,1.15,1.94,5.32,5.32,0,0,0,.26,1.68h-2.39a5.52,5.52,0,0,1-.2-1.22c-.07-.73-.13-1.51-1.08-1.51h-1.28v2.72h-2.39Zm2.39,3.4h1.25c.45,0,1.06-.08,1.06-.77,0-.49-.28-.79-1.19-.79h-1.12Z"/><path class="cls-3" d="M186,141.18a4.08,4.08,0,1,1-3.95,4.08,3.83,3.83,0,0,1,3.95-4.08m0,6.22c.61,0,1.54-.4,1.54-2.13s-.93-2.14-1.54-2.14-1.55.4-1.55,2.14.94,2.13,1.55,2.13"/><polygon class="cls-3" points="192.33 141.36 195.76 141.36 196.86 145.94 196.88 145.94 198 141.36 201.42 141.36 201.42 149.16 199.14 149.16 199.14 144.16 199.13 144.16 197.77 149.16 195.98 149.16 194.63 144.16 194.61 144.16 194.61 149.16 192.33 149.16 192.33 141.36"/><path class="cls-3" d="M204,141.37h4.26c2,0,2.49,1.16,2.49,2a1.62,1.62,0,0,1-1,1.53,1.9,1.9,0,0,1,1.34,1.93,2.47,2.47,0,0,1-2.72,2.38H204Zm2.41,3h1.26c.51,0,.82-.15.82-.65s-.32-.54-.82-.54h-1.26Zm0,2.9h1.41c.49,0,.93-.14.93-.74,0-.45-.27-.71-.84-.71h-1.5Z"/><path class="cls-3" d="M220.61,146.14c0,2.16-1.17,3.19-3.55,3.19s-3.55-1-3.55-3.19v-4.77h2.39v4.24c0,.8,0,1.78,1.17,1.78s1.13-1,1.13-1.78v-4.24h2.4Z"/><path class="cls-3" d="M223.23,141.37h3.94c2.59,0,3.5,1.91,3.5,3.88,0,2.39-1.26,3.91-4,3.91h-3.47Zm2.4,5.79h.94c1.48,0,1.71-1.22,1.71-1.95a1.72,1.72,0,0,0-1.88-1.85h-.77Z"/><path class="cls-3" d="M235,146.54a1.35,1.35,0,0,0,.08.5,1.11,1.11,0,0,0,1.14.57c.4,0,1-.13,1-.71,0-.41-.33-.52-1.67-.89s-2.64-.69-2.64-2.27c0-1.8,1.54-2.57,3.14-2.57s3.18.64,3.25,2.54h-2.27a.57.57,0,0,0-.28-.61,1.21,1.21,0,0,0-.7-.2c-.33,0-.87.09-.87.53s1.16.67,2.26,1,2.19.81,2.19,2.24c0,2-1.86,2.68-3.59,2.68-.88,0-3.4-.31-3.43-2.79Z"/><polygon class="cls-3" points="241.8 141.36 245.21 141.36 246.32 145.94 246.35 145.94 247.45 141.36 250.86 141.36 250.86 149.16 248.6 149.16 248.6 144.16 248.58 144.16 247.22 149.16 245.44 149.16 244.08 144.16 244.06 144.16 244.06 149.16 241.8 149.16 241.8 141.36"/><path class="cls-3" d="M255.67,141.36H258l2.84,7.8h-2.49L258,148h-2.47l-.35,1.12H252.8Zm1.88,5-.7-2.4h0l-.76,2.4Z"/><polygon class="cls-3" points="262.8 141.36 265.26 141.36 267.52 145.53 267.55 145.53 267.55 141.36 269.81 141.36 269.81 149.16 267.48 149.16 265.08 144.9 265.07 144.9 265.07 149.16 262.8 149.16 262.8 141.36"/><g class="cls-4"><rect class="cls-5" x="167.27" y="10.14" width="140.12" height="124.35" transform="matrix(0.99, -0.16, 0.16, 0.99, -8.54, 39.13)"/></g><g class="cls-6"><polygon class="cls-7" points="148.18 51.73 285.28 29.15 307.6 167.35 170.49 189.92 148.18 51.73"/></g><path class="cls-3" d="M185.68,87.57a64.6,64.6,0,0,0,5.19,22.95l-6.12,6.14s-4.72-5.85-5.7-8.17c0,0,.69-20.12,6.63-20.91"/><path class="cls-3" d="M193.65,115.13s6.94,11.75,24,12.79l-.24,4.18A48.69,48.69,0,0,1,189,120.73Z"/><path class="cls-3" d="M371.25,41.28H379q4.87,0,6.61,2.21t1.8,7.47v.93a20,20,0,0,1-.71,6A5.25,5.25,0,0,1,384.19,61q4,1.61,4,10.34v.91q-.07,6.46-2,9.26t-6.53,2.8h-8.41ZM382.43,51v-.15q0-4.3-1.49-5.09a4.64,4.64,0,0,0-2.13-.39h-2.49V59.26h2.86a3.52,3.52,0,0,0,2.09-.48,3.06,3.06,0,0,0,.89-1.9,28,28,0,0,0,.27-4.65Zm.64,19.59a17.08,17.08,0,0,0-.68-5.82,2.63,2.63,0,0,0-2.69-1.66h-3.37V80.24h3.11a2.86,2.86,0,0,0,2.9-1.69q.75-1.69.75-6.43Z"/><path class="cls-3" d="M393.61,53q0-7.34,2.64-10.08a8,8,0,0,1,6-2.15q5.77,0,7.39,4.74a23.93,23.93,0,0,1,1,7.48v19q0,6.72-1.88,9.79t-6.59,3.07q-4.71,0-6.63-3.08t-1.92-9.78Zm12-.29a18.16,18.16,0,0,0-.66-5.86,2.58,2.58,0,0,0-2.67-1.72,2.81,2.81,0,0,0-2.79,1.76,15.44,15.44,0,0,0-.78,5.8V72a21.56,21.56,0,0,0,.68,6.69,3,3,0,0,0,5.53,0,21.57,21.57,0,0,0,.68-6.66Z"/><path class="cls-3" d="M416.51,31.84h5.67L425.92,39h-4.48l-2.1-5-2.1,5h-4.5Zm.29,9.44h5.06v43H416.8Z"/><path class="cls-3" d="M426.9,41.28H441.1v4.21h-4.43V84.32h-5V45.49H426.9Z"/><path class="cls-3" d="M445.93,41.28h12.86v4.21H451V60.21h7.39v4.21H451v15.7h7.9v4.21h-13Z"/><path class="cls-3" d="M481.71,41.28h6.09l7.12,43h-4.77l-1.22-8.22h-7.8L480,84.32h-4.82Zm-1.37-4.7V31.42l9.07,4.75v2.71ZM481.68,72h6.6l-3.4-22.74h-.07Z"/><path class="cls-3" d="M511.86,53q0-7.34,2.64-10.08a8,8,0,0,1,6-2.15q5.77,0,7.39,4.74a23.93,23.93,0,0,1,1,7.48v19q0,6.72-1.88,9.79t-6.59,3.07q-4.71,0-6.63-3.08t-1.92-9.78Zm12-.29a18.16,18.16,0,0,0-.66-5.86,2.58,2.58,0,0,0-2.67-1.72,2.81,2.81,0,0,0-2.79,1.76,15.44,15.44,0,0,0-.78,5.8V72a21.56,21.56,0,0,0,.68,6.69,3,3,0,0,0,5.53,0,21.57,21.57,0,0,0,.68-6.66Z"/><path class="cls-3" d="M546.7,41.28h5v32q0,6-1.89,8.8t-6.57,2.76q-4.67,0-6.6-2.76t-1.93-8.8v-32h5.06V73.15a20.08,20.08,0,0,0,.36,5.15,5.66,5.66,0,0,0,.75,1.33,2.76,2.76,0,0,0,2.37.93,3,3,0,0,0,2.49-1,5.14,5.14,0,0,0,.87-3.06q.06-2,.06-3.3Z"/><path class="cls-3" d="M556.44,41.28h14.21v4.21h-4.43V84.32h-5V45.49h-4.74Z"/><path class="cls-3" d="M575.66,41.28h5.06v43h-5.06Z"/><path class="cls-3" d="M587.21,41.28h5.06V80.14h7.95v4.18h-13Z"/><path class="cls-3" d="M604.61,54.61a13.54,13.54,0,0,1-.44-3.69,13.89,13.89,0,0,1,1.72-7.42q1.73-2.75,6.59-2.75,6.26,0,7.39,6a36.14,36.14,0,0,1,.49,6.53v2.54h-4.84V52.95a23.54,23.54,0,0,0-.42-5.53,3.64,3.64,0,0,0-1-1.88,2.55,2.55,0,0,0-1.59-.46,2.84,2.84,0,0,0-2.64,1.34,7.88,7.88,0,0,0-.81,4,7.79,7.79,0,0,0,.73,3.87,13,13,0,0,0,1.81,2.33q1.08,1.11,1.2,1.26l2.93,3.1A17.49,17.49,0,0,1,621,73.34q0,5.58-1.72,8.52t-6.57,2.95q-5.85,0-7.41-5.14a25.92,25.92,0,0,1-.9-7.56V67.69h4.92v4.38a21.41,21.41,0,0,0,.68,6.57,2.53,2.53,0,0,0,2.54,1.85,3.17,3.17,0,0,0,2.57-.87,4.6,4.6,0,0,0,.82-2.65q.11-1.79.11-4,0-4.48-3.94-8.41l-2.81-2.81Q605.52,57.86,604.61,54.61Z"/><path class="cls-3" d="M638.7,41.28h8.09q4.94,0,6.8,3T655.45,53l0,18.9q0,6.63-2,9.54t-6.82,2.91H638.7Zm11.71,11.57a12.92,12.92,0,0,0-1-5.8,3.29,3.29,0,0,0-3.13-1.76h-2.59V80.24h2.59a3.93,3.93,0,0,0,2.3-.59q1.78-1.27,1.79-7Z"/><path class="cls-3" d="M661.24,40.82h7.56v5.65L665.74,57h-3.15l2.25-10.35h-3.6Z"/><path class="cls-3" d="M686.6,41.28h5v32q0,6-1.89,8.8t-6.57,2.76q-4.67,0-6.6-2.76t-1.93-8.8v-32h5.06V73.15a20,20,0,0,0,.36,5.15,5.63,5.63,0,0,0,.75,1.33,2.76,2.76,0,0,0,2.37.93,3,3,0,0,0,2.49-1,5.14,5.14,0,0,0,.87-3.06q.06-2,.06-3.3Z"/><path class="cls-3" d="M711.06,41.28h4.48v43h-3.72l-9.66-29.54.29,10.86V84.32h-4.67v-43h3.82l10,29.3-.51-12.45Z"/><path class="cls-3" d="M753.2,41.28h6.33v43H755V67.06L755.45,51,749.6,84.25H745L738.94,51l.42,16.09V84.32h-4.48v-43h6.31l6.16,35.39Z"/><path class="cls-3" d="M765.83,41.28h12.86v4.21h-7.8V60.21h7.39v4.21h-7.39v15.7h7.9v4.21h-13Zm2-6L778.05,31v4.87L767.81,38Z"/><path class="cls-3" d="M783.93,53.7a23.42,23.42,0,0,1,.81-7.19,10.31,10.31,0,0,1,1.76-3.37,7.73,7.73,0,0,1,6.06-2.37q5.58,0,7.19,4.91a24.54,24.54,0,0,1,.93,7.48v4.77h-5V53.14a22.35,22.35,0,0,0-.45-5.59,3.81,3.81,0,0,0-1.09-1.93,2.62,2.62,0,0,0-1.61-.48,2.8,2.8,0,0,0-2.8,1.92,17.48,17.48,0,0,0-.77,6.05V71.75a22.87,22.87,0,0,0,.7,6.84,2.65,2.65,0,0,0,2.69,1.94,2.61,2.61,0,0,0,2.66-2,23.8,23.8,0,0,0,.67-6.85V67h5v4.72q0,6.77-1.85,10t-6.44,3.19q-4.6,0-6.55-3.29t-2-9.92Z"/><path class="cls-3" d="M811.43,41.28h6.09l7.12,43h-4.77l-1.22-8.22h-7.8l-1.12,8.22H804.9Zm0,30.72H818l-3.4-22.74h-.07Z"/><path class="cls-3" d="M843.21,41.28h4.47v43H844L834.3,54.78l.29,10.86V84.32h-4.67v-43h3.82l10,29.3-.51-12.45Z"/><path class="cls-3" d="M854.14,41.28h5.06v43h-5.06Z"/><path class="cls-3" d="M865.6,54.61a13.54,13.54,0,0,1-.44-3.69,13.89,13.89,0,0,1,1.72-7.42q1.73-2.75,6.59-2.75,6.26,0,7.39,6a36.22,36.22,0,0,1,.49,6.53v2.54h-4.84V52.95a23.48,23.48,0,0,0-.42-5.53,3.63,3.63,0,0,0-1-1.88,2.55,2.55,0,0,0-1.59-.46,2.84,2.84,0,0,0-2.64,1.34,7.88,7.88,0,0,0-.81,4,7.79,7.79,0,0,0,.73,3.87,13,13,0,0,0,1.81,2.33c.72.74,1.12,1.16,1.2,1.26l2.93,3.1A17.49,17.49,0,0,1,882,73.34q0,5.58-1.72,8.52t-6.57,2.95q-5.84,0-7.41-5.14a25.89,25.89,0,0,1-.91-7.56V67.69h4.92v4.38a21.38,21.38,0,0,0,.68,6.57,2.53,2.53,0,0,0,2.54,1.85,3.17,3.17,0,0,0,2.57-.87,4.6,4.6,0,0,0,.82-2.65q.11-1.79.11-4,0-4.48-3.94-8.41l-2.81-2.81Q866.51,57.86,865.6,54.61Z"/><path class="cls-3" d="M905.72,41.28h6.33v43h-4.5V67.06L908,51l-5.84,33.28h-4.57L891.46,51l.41,16.09V84.32H887.4v-43h6.31l6.16,35.39Z"/><path class="cls-3" d="M918.35,41.28h12.86v4.21h-7.8V60.21h7.39v4.21h-7.39v15.7h7.9v4.21h-13Z"/><path class="cls-3" d="M370.83,106.91h8.09q4.94,0,6.8,3t1.86,8.65l0,18.9q0,6.63-2,9.54t-6.82,2.91h-7.92Zm11.71,11.57a12.92,12.92,0,0,0-1-5.8,3.29,3.29,0,0,0-3.13-1.76h-2.59v34.95h2.59a3.93,3.93,0,0,0,2.3-.59q1.78-1.27,1.79-7Z"/><path class="cls-3" d="M393.57,106.91h12.86v4.21h-7.8v14.72H406V130h-7.39v15.7h7.9v4.21h-13Z"/><path class="cls-3" d="M424.73,106.91h9q3.84,0,5.53,1.59t2,5.41q.15,1.57.15,4.88a15.52,15.52,0,0,1-.87,5.56,4.58,4.58,0,0,1-3.07,2.91A3.34,3.34,0,0,1,440,129a12.13,12.13,0,0,1,1.17,4.55,92.16,92.16,0,0,1,.34,9.27q0,6.15.39,7.18h-5q-.39-.78-.39-14.5,0-4.62-.9-5.37a4.24,4.24,0,0,0-2.74-.75l-3-.17v20.79h-5.06Zm11.71,10.54q0-5-.89-5.75a3.8,3.8,0,0,0-2.58-.78h-3.18v14.53H433a3.37,3.37,0,0,0,2.15-.56,3.59,3.59,0,0,0,1-2.15,30.35,30.35,0,0,0,.29-5Z"/><path class="cls-3" d="M447.64,106.91H460.5v4.21h-7.8v14.72h7.39V130H452.7v15.7h7.9v4.21h-13Zm2.2-4.7V97.05l9.07,4.75v2.71Z"/><path class="cls-3" d="M465.74,119.09q0-9.49,4.5-11.79a8.73,8.73,0,0,1,3.86-.9q3.94,0,5.7,1.67a7.92,7.92,0,0,1,2.27,4.43,37.14,37.14,0,0,1,.51,6.69v3.33H477.7v-5.6a11.92,11.92,0,0,0-.67-4.72,2.63,2.63,0,0,0-2.64-1.42,2.82,2.82,0,0,0-2.78,1.79q-.81,1.78-.81,6.31V137a24.61,24.61,0,0,0,.71,7.18,2.74,2.74,0,0,0,2.8,2,2.85,2.85,0,0,0,2.86-2.08,23.32,23.32,0,0,0,.77-7.22v-5.6h-3.5v-3.91h8.14v22.6h-2.67l-.68-3.33a5.43,5.43,0,0,1-5.52,3.74,6.59,6.59,0,0,1-6-3.17q-2-3.17-2-10.06Z"/><path class="cls-3" d="M488.69,106.91h5.06v38.86h7.95v4.18h-13Z"/><path class="cls-3" d="M506.63,106.91h12.86v4.21h-7.8v14.72h7.39V130h-7.39v15.7h7.9v4.21h-13Z"/><path class="cls-3" d="M543.57,106.91h6.33v43h-4.5V132.68l.42-16.09L540,149.88H535.4l-6.09-33.28.42,16.09v17.27h-4.48v-43h6.31l6.16,35.39Z"/><path class="cls-3" d="M556.2,106.91h12.86v4.21h-7.8v14.72h7.39V130h-7.39v15.7h7.9v4.21h-13Z"/><path class="cls-3" d="M588.1,106.91h4.48v43h-3.72l-9.66-29.54.29,10.86v18.68h-4.67v-43h3.82l10,29.3-.51-12.45Z"/><path class="cls-3" d="M597.4,106.91h14.21v4.21h-4.43v38.83h-5V111.11H597.4Z"/><path class="cls-3" d="M628.09,106.91h8.09q4.94,0,6.8,3t1.86,8.65l0,18.9q0,6.63-2,9.54T636,149.95h-7.92Zm11.71,11.57a12.92,12.92,0,0,0-1-5.8,3.29,3.29,0,0,0-3.13-1.76h-2.59v34.95h2.59a3.93,3.93,0,0,0,2.3-.59q1.78-1.27,1.79-7Z"/><path class="cls-3" d="M650.83,106.91h12.86v4.21h-7.8v14.72h7.39V130h-7.39v15.7h7.9v4.21h-13Z"/><path class="cls-3" d="M669.11,120.24a13.54,13.54,0,0,1-.44-3.69,13.89,13.89,0,0,1,1.72-7.42q1.73-2.75,6.59-2.75,6.26,0,7.39,6a36.06,36.06,0,0,1,.49,6.53v2.54H680v-2.89a23.6,23.6,0,0,0-.41-5.53,3.65,3.65,0,0,0-1-1.88,2.56,2.56,0,0,0-1.59-.46,2.84,2.84,0,0,0-2.64,1.34,7.88,7.88,0,0,0-.81,4,7.79,7.79,0,0,0,.73,3.87,12.92,12.92,0,0,0,1.81,2.33q1.08,1.11,1.2,1.26l2.93,3.1A17.49,17.49,0,0,1,685.49,139q0,5.58-1.72,8.52t-6.57,2.95q-5.85,0-7.41-5.14a26,26,0,0,1-.9-7.56v-4.43h4.91v4.38a21.44,21.44,0,0,0,.68,6.57,2.54,2.54,0,0,0,2.54,1.85,3.18,3.18,0,0,0,2.57-.87,4.61,4.61,0,0,0,.82-2.65q.11-1.79.11-4,0-4.48-3.94-8.41l-2.81-2.81Q670,123.49,669.11,120.24Z"/><path class="cls-3" d="M703.22,106.91h8.66q5.72,0,7.19,4.74a23.52,23.52,0,0,1,.93,7,59.74,59.74,0,0,1-.22,6q-.49,4.4-2.32,6.42t-5.58,2h-3.6v16.9h-5.06Zm11.71,12.15a19.82,19.82,0,0,0-.7-6.28,2.68,2.68,0,0,0-2.75-1.86h-3.2v17.92h3.08a2.78,2.78,0,0,0,2.86-1.88q.71-1.88.71-7.07Z"/><path class="cls-3" d="M725.21,106.91h5.06v38.86h7.95v4.18h-13Z"/><path class="cls-3" d="M748.76,106.91h6.09l7.12,43h-4.77L756,141.73h-7.8L747,149.95h-4.82Zm0,30.72h6.6l-3.4-22.74h-.07Z"/><path class="cls-3" d="M767.43,106.91h5.06v43h-5.06Z"/><path class="cls-3" d="M792.26,106.91h4.47v43H793l-9.66-29.54.29,10.86v18.68H779v-43h3.82l10,29.3-.51-12.45Z"/><path class="cls-3" d="M801.56,106.91h14.21v4.21h-4.43v38.83h-5V111.11h-4.74Z"/><path class="cls-3" d="M820.59,106.91h12.86v4.21h-7.8v14.72H833V130h-7.39v15.7h7.9v4.21h-13Z"/><path class="cls-3" d="M838.88,120.24a13.54,13.54,0,0,1-.44-3.69,13.89,13.89,0,0,1,1.72-7.42q1.73-2.75,6.59-2.75,6.26,0,7.39,6a36.06,36.06,0,0,1,.49,6.53v2.54h-4.84v-2.89a23.6,23.6,0,0,0-.41-5.53,3.65,3.65,0,0,0-1-1.88,2.56,2.56,0,0,0-1.59-.46,2.84,2.84,0,0,0-2.64,1.34,7.88,7.88,0,0,0-.81,4,7.79,7.79,0,0,0,.73,3.87,12.92,12.92,0,0,0,1.81,2.33q1.08,1.11,1.2,1.26l2.93,3.1A17.49,17.49,0,0,1,855.26,139q0,5.58-1.72,8.52T847,150.44q-5.85,0-7.41-5.14a26,26,0,0,1-.9-7.56v-4.43h4.91v4.38a21.44,21.44,0,0,0,.68,6.57,2.54,2.54,0,0,0,2.54,1.85,3.18,3.18,0,0,0,2.57-.87,4.61,4.61,0,0,0,.82-2.65q.11-1.79.11-4,0-4.48-3.94-8.41l-2.81-2.81Q839.78,123.49,838.88,120.24Z"/></svg>